<?xml version="1.0" encoding="utf-8"?>
<!-- Generator: Adobe Illustrator 16.0.0, SVG Export Plug-In . SVG Version: 6.00 Build 0)  -->
<!DOCTYPE svg PUBLIC "-//W3C//DTD SVG 1.1//EN" "http://www.w3.org/Graphics/SVG/1.1/DTD/svg11.dtd">
<svg version="1.1" id="Layer_1" xmlns="http://www.w3.org/2000/svg" xmlns:xlink="http://www.w3.org/1999/xlink" x="0px" y="0px"
	 width="102px" height="102px" viewBox="0 0 102 102" enable-background="new 0 0 102 102" xml:space="preserve">
<g>
	<path fill="#FFFFFF" d="M56.279,65.648L36.352,37.249c-0.386-0.551-1.005-0.852-1.639-0.852c-0.316,0-0.636,0.074-0.932,0.231
		c-0.891,0.47-1.293,1.529-0.938,2.473l12.681,33.725c0.014,0.037,0.029,0.074,0.046,0.109c0.573,1.285,2.316,3.459,5.217,3.459
		c0.932,0,1.9-0.229,2.881-0.682c4.389-2.023,3.777-7.186,2.841-9.631C56.451,65.93,56.374,65.784,56.279,65.648z M52.831,73.896
		c-0.771,0.355-1.449,0.498-2.043,0.498c-2.377,0-3.391-2.272-3.391-2.272L34.715,38.397l19.928,28.4
		C54.643,66.797,56.68,72.122,52.831,73.896z"/>
	<path fill="#FFFFFF" d="M47.119,12c-25.916,0-47,21.111-47,47.061c0,11.037,3.669,21.631,10.33,29.832
		C11.02,89.592,11.875,90,12.778,90c0.007,0,0.015,0,0.022,0c2.298-0.018,9.243-0.025,20.643-0.025
		c15.127,0,34.196,0.016,43.102,0.021L81.46,90c0.849,0,1.658-0.359,2.226-0.989c6.241-6.907,10.433-18.944,10.433-29.95
		C94.119,33.111,73.035,12,47.119,12z M81.46,87c-1.833,0-28.278-0.025-48.018-0.025c-9.871,0-18.062,0.006-20.665,0.025
		C6.62,79.419,3.119,69.593,3.119,59.061c0-24.334,19.699-44.062,44-44.062c24.301,0,44,19.727,44,44.062
		C91.119,69.484,87.162,80.688,81.46,87z"/>
	<path fill="#FFFFFF" d="M47.12,21.389c-20.861,0-37.833,16.972-37.833,37.833c0,1.694,0.123,3.361,0.341,4.998h2.016
		c-0.229-1.635-0.356-3.302-0.356-4.998c0-19.76,16.075-35.833,35.833-35.833c19.758,0,35.833,16.074,35.833,35.833
		c0,1.696-0.127,3.363-0.356,4.998h2.016c0.218-1.637,0.341-3.304,0.341-4.998C84.953,38.361,67.98,21.389,47.12,21.389z"/>
</g>
</svg>
