<?xml version="1.0" encoding="utf-8"?>
<!-- Generator: Adobe Illustrator 16.0.0, SVG Export Plug-In . SVG Version: 6.00 Build 0)  -->
<!DOCTYPE svg PUBLIC "-//W3C//DTD SVG 1.1//EN" "http://www.w3.org/Graphics/SVG/1.1/DTD/svg11.dtd">
<svg version="1.1" id="Layer_1" xmlns="http://www.w3.org/2000/svg" xmlns:xlink="http://www.w3.org/1999/xlink" x="0px" y="0px"
	 width="102px" height="102px" viewBox="0 0 102 102" enable-background="new 0 0 102 102" xml:space="preserve">
<path fill="#FFFFFF" d="M80.507,27.854c-0.485-0.484-14.521-14.52-15.005-15.006c-1.809-1.814-4.15-1.373-5.564,0.041
	c-0.75,0.75-54.048,54.05-54.048,54.05L0.288,91.848l25.94-4.193c0,0,53.486-53.485,54.237-54.236
	C81.879,32.003,82.323,29.661,80.507,27.854z M23.204,85.197l-10.285,1.695l-6.92-6.92l2.181-9.801L23.204,85.197z M14.156,73.352
	l39.07-39.072l4.787,4.787L18.943,78.139L14.156,73.352z M49.38,27.635l3.706-3.703l16.333,16.333l-3.705,3.704L49.38,27.635z
	 M47.981,29.034l3.847,3.847L12.757,71.953l-3.864-3.864L47.981,29.034z M5.489,82.26l5.029,5.029l-6.382,1.053L5.489,82.26z
	 M25.239,84.436l-4.897-4.897l39.071-39.072l4.901,4.902L25.239,84.436z M78.346,31.34l-7.529,7.526l-16.33-16.332l7.529-7.523
	c0,0,0.748-0.701,1.455,0.005c0.194,0.194,14.676,14.675,14.869,14.87C79.047,30.591,78.346,31.34,78.346,31.34z"/>
</svg>
