<?xml version="1.0" encoding="utf-8"?>
<!-- Generator: Adobe Illustrator 16.0.0, SVG Export Plug-In . SVG Version: 6.00 Build 0)  -->
<!DOCTYPE svg PUBLIC "-//W3C//DTD SVG 1.1//EN" "http://www.w3.org/Graphics/SVG/1.1/DTD/svg11.dtd">
<svg version="1.1" id="Layer_1" xmlns="http://www.w3.org/2000/svg" xmlns:xlink="http://www.w3.org/1999/xlink" x="0px" y="0px"
	 width="102px" height="102px" viewBox="0 0 102 102" enable-background="new 0 0 102 102" xml:space="preserve">
<g>
	<path fill="#FFFFFF" d="M66.257,7.512c-0.687,0.001-61.546,0.001-62.232,0C1.463,7.506,0.12,9.475,0.12,11.475
		c0,1.458,0,77.59,0,79.047c0,2,1.344,3.971,3.905,3.965c0.687-0.002,61.546-0.002,62.232,0c2.562,0.006,3.905-1.965,3.905-3.965
		c0-1.457,0-77.589,0-79.047C70.163,9.475,68.819,7.506,66.257,7.512z M67.194,54.011v8.976v27.506c0,0-0.033,1.025-1.032,1.025
		c-0.275,0-5.42,0-12.719,0c-10.421,0-25.24,0-36.604,0c-7.299,0-12.443,0-12.719,0c-0.999,0-1.032-1.025-1.032-1.025V62.987v-8.976
		V11.506c0,0,0.033-1.025,1.032-1.025c0.275,0,5.42,0,12.719,0c11.363,0,26.183,0,36.604,0c7.299,0,12.443,0,12.719,0
		c0.999,0,1.032,1.025,1.032,1.025V54.011z"/>
	<path fill="#FFFFFF" d="M24.451,29.316h21.5c2.209,0,4-1.791,4-4s-1.791-4-4-4h-21.5c-2.209,0-4,1.791-4,4
		S22.242,29.316,24.451,29.316z M24.451,23.316h21.5c1.104,0,2,0.897,2,2s-0.896,2-2,2h-21.5c-1.103,0-2-0.897-2-2
		S23.349,23.316,24.451,23.316z"/>
	<path fill="#FFFFFF" d="M50.404,49.344l-15.202-7.202l-15.203,7.203l15.202,7.202L50.404,49.344z M35.202,44.355l10.53,4.989
		l-10.531,4.99L24.67,49.345L35.202,44.355z"/>
	<path fill="#FFFFFF" d="M9.785,79.149h20.833v-9.334H9.785V79.149z M11.785,71.815h16.833v5.334H11.785V71.815z"/>
	<path fill="#FFFFFF" d="M39.785,79.149h20.833v-9.334H39.785V79.149z M41.785,71.815h16.833v5.334H41.785V71.815z"/>
	<polygon fill="#FFFFFF" points="49.348,67.815 49.348,61.94 49.348,60.065 47.473,60.065 22.931,60.065 21.056,60.065 
		21.056,61.94 21.056,67.815 22.931,67.815 22.931,61.94 47.473,61.94 47.473,67.815 	"/>
	<rect x="34.264" y="31.628" fill="#FFFFFF" width="1.875" height="7.75"/>
</g>
</svg>
