<?xml version="1.0" encoding="utf-8"?>
<!-- Generator: Adobe Illustrator 16.0.0, SVG Export Plug-In . SVG Version: 6.00 Build 0)  -->
<!DOCTYPE svg PUBLIC "-//W3C//DTD SVG 1.1//EN" "http://www.w3.org/Graphics/SVG/1.1/DTD/svg11.dtd">
<svg version="1.1" id="Layer_1" xmlns="http://www.w3.org/2000/svg" xmlns:xlink="http://www.w3.org/1999/xlink" x="0px" y="0px"
	 width="102px" height="102px" viewBox="0 0 102 102" enable-background="new 0 0 102 102" xml:space="preserve">
<g>
	<path fill="#FFFFFF" d="M74.372,23.255l-0.36-0.487c-5.059-6.854-11.188-13.101-30.374-14.22c-0.715-0.041-1.435-0.062-2.139-0.062
		v3l0-3h-0.001C21.827,8.486,12.003,24.421,9.877,30.562c-1.219,3.521-0.835,7.212-0.555,9.906c0.085,0.822,0.181,1.74,0.169,2.238
		c-0.548,1.187-3.4,4.564-4.957,6.408c-2.261,2.679-3.566,4.249-4.11,5.381c-0.561,1.167-0.567,2.439-0.019,3.581
		c0.817,1.703,2.637,2.66,4.736,3.321c-0.419,0.833-0.645,1.914-0.486,3.312l0.004,0.038c-0.022,0.604,0.105,1.106,0.332,1.525
		c-0.094,0.215-0.169,0.44-0.224,0.675c-0.589,2.528,1.463,4.971,1.88,5.435c0.233,0.259,0.472,0.473,0.712,0.649
		c-0.827,2.847-0.71,6.118,0.995,8.505c1.562,2.186,4.045,3.44,6.812,3.44c1.192,0,2.357-0.242,3.37-0.703
		c0.129-0.059,0.54-0.17,1.17-0.17c0.572,0,2.538,0.115,3.84,1.59c1.248,1.414,1.443,5.035,1.34,6.469
		c-0.06,0.83,0.229,1.648,0.796,2.258s1.363,0.955,2.196,0.955h37.5c0.82,0,1.605-0.336,2.171-0.93
		c0.566-0.594,0.864-1.395,0.825-2.213c-0.849-17.759,3.109-26.982,6.602-35.12c0.826-1.925,1.605-3.741,2.298-5.61
		C81.225,40.851,78.804,29.229,74.372,23.255z M74.462,50.46c-3.583,9.666-10.167,19.25-9.083,41.916h-37.5
		c0,0,0.417-5.832-2.083-8.666c-1.682-1.906-4.117-2.605-6.089-2.605c-0.96,0-1.811,0.166-2.411,0.438
		c-0.611,0.277-1.352,0.435-2.129,0.435c-1.556,0-3.259-0.629-4.371-2.185c-1.667-2.333-0.917-6.5,0.833-8.75
		c-1.333-0.416-2,0.168-2.75-0.666s-1.917-2.834-0.667-3.334s3.75-1.166,3.75-1.166s-4.351-0.584-4.3-1.084s-0.533-2,0.967-2.833
		s0.667-2.583-0.333-2.833s-6.167-1.251-5.167-3.334s9.083-10.333,9.333-12.583s-1.25-7.334,0.25-11.667
		c1.45-4.188,10.143-20.057,28.784-20.058c0.644,0,1.298,0.019,1.966,0.058c20,1.167,24.667,8.333,28.5,13.5
		S78.046,40.794,74.462,50.46z"/>
	<path fill="#FFFFFF" d="M67.257,25.819c-4.501-6.146-9.674-9.262-15.378-9.262c-0.652,0-1.298,0.04-1.961,0.123
		c-1.99-0.896-4.58-1.384-7.382-1.384c-4.2,0-8.171,1.063-10.521,2.795c-7.188,2.051-13.197,7.245-14.37,12.467
		c-0.503,2.24-0.026,4.46,1.344,6.25c1.69,2.209,4.647,3.658,8.447,4.171c0.092,1.013,0.448,1.958,1.062,2.8
		c1.983,2.715,6.446,4.17,13.646,4.45c0.146,0.006,0.26,0.01,0.335,0.015c1.292,0.075,1.671,0.213,1.924,0.564
		c2.655,6.288,7.394,10.65,7.596,10.834c0.378,0.345,0.861,0.521,1.347,0.521c0.371,0,0.743-0.103,1.072-0.312
		c0.761-0.483,1.104-1.417,0.838-2.279c-0.604-1.949-0.607-2.523-0.483-3.465c0.853,0.092,1.678,0.138,2.468,0.138
		c4.389,0,9.261-1.646,10.406-6.18c3.255-2.229,5.699-6.46,5.699-10.053C73.346,34.332,70.629,28.913,67.257,25.819z M65.846,46.831
		c-0.4,3.268-3.469,5.414-8.605,5.414c-1.282,0-2.692-0.134-4.223-0.417c-0.172,2.669-0.756,2.836,0.328,6.336
		c0,0-4.667-4.251-7.167-10.292c-0.833-1.375-2.167-1.542-3.583-1.625s-14.917-0.166-13-7.083c-7.583-0.333-10.917-4.084-10-8.167
		s6.167-9.166,13.333-11.083c2.015-1.67,5.854-2.617,9.606-2.617c2.611,0,5.179,0.459,7.06,1.45c0.672-0.109,1.44-0.189,2.283-0.189
		c3.65,0,8.739,1.499,13.884,8.606c3,2.667,5.583,7.614,5.583,10.849S68.846,45.165,65.846,46.831z"/>
</g>
</svg>
