<?xml version="1.0" encoding="utf-8"?>
<!-- Generator: Adobe Illustrator 16.0.0, SVG Export Plug-In . SVG Version: 6.00 Build 0)  -->
<!DOCTYPE svg PUBLIC "-//W3C//DTD SVG 1.1//EN" "http://www.w3.org/Graphics/SVG/1.1/DTD/svg11.dtd">
<svg version="1.1" id="Layer_1" xmlns="http://www.w3.org/2000/svg" xmlns:xlink="http://www.w3.org/1999/xlink" x="0px" y="0px"
	 width="102px" height="102px" viewBox="0 0 102 102" enable-background="new 0 0 102 102" xml:space="preserve">
<g>
	<path fill="#FFFFFF" d="M74.02,54.583L36.615,17.159c-4.039-4.042-9.409-6.268-15.122-6.268c-5.713,0-11.083,2.226-15.122,6.268
		c-8.337,8.341-8.337,21.914,0,30.256l37.402,37.426c4.039,4.041,9.411,6.267,15.122,6.267c5.713,0,11.084-2.226,15.123-6.267
		C82.354,76.499,82.354,62.926,74.02,54.583z M8.494,45.294c-7.18-7.184-7.18-18.831,0-26.015c3.59-3.592,8.294-5.388,13-5.388
		s9.41,1.796,13,5.388l5.365,5.368L13.852,50.655L8.494,45.294z M15.25,52.055l26.008-26.007l25.404,25.42L40.656,77.477
		L15.25,52.055z M71.896,82.721c-3.59,3.592-8.295,5.387-13,5.387s-9.411-1.795-13-5.387l-3.842-3.845l26.008-26.008l3.832,3.836
		C79.076,63.889,79.076,75.536,71.896,82.721z"/>
	<circle fill="#FFFFFF" cx="26.272" cy="51.687" r="2.625"/>
	<circle fill="#FFFFFF" cx="33.522" cy="44.468" r="2.625"/>
	<circle fill="#FFFFFF" cx="40.772" cy="37.249" r="2.625"/>
	<circle fill="#FFFFFF" cx="55.271" cy="51.687" r="2.625"/>
	<circle fill="#FFFFFF" cx="48.022" cy="44.468" r="2.625"/>
	<circle fill="#FFFFFF" cx="48.022" cy="58.904" r="2.625"/>
	<circle fill="#FFFFFF" cx="40.772" cy="51.687" r="2.625"/>
	<circle fill="#FFFFFF" cx="40.772" cy="66.124" r="2.625"/>
	<circle fill="#FFFFFF" cx="33.522" cy="58.904" r="2.625"/>
</g>
</svg>
