<?xml version="1.0" encoding="utf-8"?>
<!-- Generator: Adobe Illustrator 16.0.0, SVG Export Plug-In . SVG Version: 6.00 Build 0)  -->
<!DOCTYPE svg PUBLIC "-//W3C//DTD SVG 1.1//EN" "http://www.w3.org/Graphics/SVG/1.1/DTD/svg11.dtd">
<svg version="1.1" id="Layer_1" xmlns="http://www.w3.org/2000/svg" xmlns:xlink="http://www.w3.org/1999/xlink" x="0px" y="0px"
	 width="102px" height="102px" viewBox="0 0 102 102" enable-background="new 0 0 102 102" xml:space="preserve">
<g>
	<path fill="#FFFFFF" d="M49.449,86.906h21.968v-39H49.449V86.906z M51.417,49.938h18v34.969h-18V49.938z"/>
	<path fill="#FFFFFF" d="M77.429,44.8c0.006-2.562-1.963-3.905-3.963-3.905c-0.576,0-4.537,0-9.204,0
		c0-15.405,0.001-29.128,0.001-29.429c0.006-2.562-1.964-3.905-3.963-3.905c-1.458,0-54.59,0-56.048,0c-2,0-3.969,1.344-3.963,3.905
		c0.001,0.687,0.001,71.546,0,72.232c-0.006,2.562,1.964,3.905,3.963,3.905c0.933,0,23.031,0,39.204,0c0,2.635,0,4.302,0,4.429
		c-0.006,2.562,1.964,3.905,3.963,3.905c1.458,0,24.59,0,26.048,0c2,0,3.969-1.344,3.963-3.905
		C77.428,91.346,77.428,45.486,77.429,44.8z M4.282,84.635c0,0-1.025-0.033-1.025-1.032c0-0.275,0-71.766,0-72.041
		c0-0.999,1.025-1.032,1.025-1.032h55.986c0,0,1.025,0.033,1.025,1.032c0,0.121,0,13.876,0,29.333c-1.016,0-2.038,0-3.043,0V14.572
		H7.282v62h36.173c0,2.955,0,5.715,0,8.062H4.282z M43.456,74.572H9.251V16.604h47v24.291c-4.505,0-8.272,0-8.833,0
		c-2,0-3.969,1.344-3.963,3.905C43.456,45.204,43.456,61.284,43.456,74.572z M74.46,91.937c0,0.999-1.025,1.032-1.025,1.032H47.449
		c0,0-1.025-0.033-1.025-1.032c0-0.275,0-46.766,0-47.041c0-0.999,1.025-1.032,1.025-1.032h25.986c0,0,1.025,0.033,1.025,1.032
		C74.46,45.171,74.46,91.661,74.46,91.937z"/>
</g>
</svg>
