<?xml version="1.0" encoding="utf-8"?>
<!-- Generator: Adobe Illustrator 16.0.0, SVG Export Plug-In . SVG Version: 6.00 Build 0)  -->
<!DOCTYPE svg PUBLIC "-//W3C//DTD SVG 1.1//EN" "http://www.w3.org/Graphics/SVG/1.1/DTD/svg11.dtd">
<svg version="1.1" id="Layer_1" xmlns="http://www.w3.org/2000/svg" xmlns:xlink="http://www.w3.org/1999/xlink" x="0px" y="0px"
	 width="102px" height="102px" viewBox="0 0 102 102" enable-background="new 0 0 102 102" xml:space="preserve">
<g>
	<path fill="#FFFFFF" d="M84.734,59.001l-7.801-5.112c0.059-0.798,0.086-1.578,0.086-2.357s-0.027-1.561-0.086-2.357l7.801-5.113
		c1.066-0.698,1.574-1.994,1.268-3.232c-1.061-4.268-2.747-8.34-5.014-12.104c-0.551-0.913-1.532-1.452-2.569-1.452
		c-0.203,0-0.407,0.021-0.612,0.062l-9.137,1.902c-1.031-1.185-2.145-2.299-3.331-3.331l1.902-9.137
		c0.26-1.248-0.298-2.524-1.39-3.182c-3.767-2.267-7.838-3.953-12.104-5.013c-0.24-0.059-0.483-0.088-0.724-0.088
		c-0.996,0-1.945,0.496-2.508,1.355l-5.113,7.801c-0.798-0.058-1.579-0.086-2.358-0.086c-0.779,0-1.56,0.028-2.358,0.086
		l-5.113-7.801c-0.563-0.859-1.514-1.355-2.509-1.355c-0.24,0-0.482,0.028-0.723,0.088c-4.267,1.06-8.339,2.746-12.104,5.013
		c-1.092,0.658-1.649,1.934-1.39,3.182l1.902,9.137c-1.186,1.032-2.299,2.146-3.331,3.331l-9.137-1.902
		c-0.204-0.042-0.409-0.062-0.612-0.062c-1.037,0-2.02,0.539-2.569,1.452c-2.267,3.765-3.954,7.837-5.014,12.104
		c-0.307,1.238,0.201,2.534,1.267,3.232l7.802,5.113c-0.055,0.8-0.084,1.587-0.084,2.355c0,0.77,0.029,1.558,0.086,2.357L1.355,59
		c-1.066,0.698-1.574,1.995-1.267,3.232c1.061,4.269,2.748,8.341,5.014,12.104c0.55,0.913,1.532,1.452,2.569,1.452
		c0.203,0,0.408-0.021,0.612-0.063l9.137-1.9c1.032,1.185,2.146,2.299,3.331,3.33l-1.902,9.139c-0.26,1.248,0.297,2.523,1.39,3.182
		c3.763,2.266,7.835,3.952,12.104,5.012c0.24,0.061,0.483,0.09,0.723,0.09c0.996,0,1.946-0.496,2.509-1.355l5.113-7.801
		c0.798,0.059,1.579,0.086,2.358,0.086c0.779,0,1.56-0.027,2.358-0.086l5.113,7.801c0.563,0.859,1.514,1.355,2.508,1.355
		c0.24,0,0.483-0.029,0.724-0.088c4.269-1.062,8.341-2.747,12.104-5.014c1.092-0.656,1.648-1.934,1.39-3.182l-1.902-9.139
		c1.187-1.031,2.3-2.146,3.331-3.33l9.137,1.9c0.205,0.043,0.409,0.063,0.612,0.063c1.037,0,2.021-0.539,2.569-1.452
		c2.266-3.763,3.953-7.835,5.014-12.104C86.311,60.996,85.802,59.699,84.734,59.001z M78.419,72.789l-10.911-2.271
		c-1.59,2.047-3.429,3.885-5.474,5.477l2.271,10.91c-3.461,2.085-7.254,3.672-11.279,4.672l-6.109-9.32
		c-1.269,0.158-2.559,0.25-3.871,0.25s-2.602-0.092-3.871-0.25l-6.109,9.32c-4.025-1-7.818-2.587-11.279-4.672l2.271-10.91
		c-2.045-1.592-3.884-3.43-5.474-5.477L7.672,72.789C5.587,69.328,4,65.535,3,61.51l9.32-6.107c-0.158-1.27-0.249-2.56-0.249-3.871
		c0-1.312,0.091-2.603,0.249-3.871L3,41.551c1-4.026,2.587-7.818,4.672-11.28l10.911,2.271c1.589-2.046,3.429-3.885,5.474-5.475
		l-2.271-10.911c3.461-2.084,7.254-3.672,11.279-4.671l6.109,9.32c1.269-0.158,2.559-0.25,3.871-0.25s2.602,0.092,3.871,0.25
		l6.109-9.32c4.024,0.999,7.817,2.587,11.279,4.671l-2.271,10.911c2.045,1.59,3.885,3.429,5.474,5.475l10.911-2.271
		c2.085,3.462,3.672,7.254,4.672,11.28l-9.32,6.108c0.158,1.269,0.25,2.559,0.25,3.87c0,1.312-0.092,2.604-0.25,3.871l9.32,6.108
		C82.091,65.535,80.503,69.328,78.419,72.789z"/>
	<path fill="#FFFFFF" d="M43.045,29.049c-12.416,0-22.481,10.065-22.481,22.48c0,12.416,10.065,22.481,22.481,22.481
		s22.48-10.065,22.48-22.481C65.525,39.114,55.461,29.049,43.045,29.049z M43.045,72.012c-11.311,0-20.481-9.17-20.481-20.48
		c0-11.311,9.17-20.481,20.481-20.481c11.312,0,20.48,9.17,20.48,20.481C63.525,62.842,54.357,72.012,43.045,72.012z"/>
	<path fill="#FFFFFF" d="M43.045,36.434c-8.337,0-15.096,6.76-15.096,15.097c0,8.337,6.759,15.097,15.096,15.097
		s15.096-6.76,15.096-15.097C58.141,43.194,51.383,36.434,43.045,36.434z M43.045,64.659c-7.25,0-13.128-5.878-13.128-13.13
		c0-7.25,5.878-13.128,13.128-13.128s13.128,5.878,13.128,13.128C56.173,58.781,50.296,64.659,43.045,64.659z"/>
</g>
</svg>
