<?xml version="1.0" encoding="utf-8"?>
<!-- Generator: Adobe Illustrator 16.0.0, SVG Export Plug-In . SVG Version: 6.00 Build 0)  -->
<!DOCTYPE svg PUBLIC "-//W3C//DTD SVG 1.1//EN" "http://www.w3.org/Graphics/SVG/1.1/DTD/svg11.dtd">
<svg version="1.1" id="Layer_1" xmlns="http://www.w3.org/2000/svg" xmlns:xlink="http://www.w3.org/1999/xlink" x="0px" y="0px"
	 width="102px" height="102px" viewBox="0 0 102 102" enable-background="new 0 0 102 102" xml:space="preserve">
<g>
	<path fill="#FFFFFF" d="M89.052,53.369c-2.276-3.686-2.63-7.439-1.081-11.479c2.467-6.436,0.215-11.633-6.18-14.258
		c-4.025-1.652-6.535-4.488-7.671-8.666c-1.978-7.27-7.048-8.354-9.896-8.354c-1.096,0-2.274,0.148-3.507,0.445
		c-1.167,0.279-2.309,0.422-3.394,0.422c-2.872,0-5.475-0.967-7.954-2.953c-2.402-1.926-4.845-2.902-7.261-2.902
		c-2.998,0-5.771,1.463-8.243,4.348c-2.652,3.094-5.875,4.6-9.852,4.6c-0.271,0-0.545-0.008-0.822-0.021
		c-0.305-0.016-0.602-0.021-0.892-0.021c-6.358,0-10.297,3.744-10.807,10.275c-0.337,4.311-2.272,7.557-5.917,9.924
		C-0.22,38.49-1.465,44.014,2.16,49.883c2.276,3.684,2.63,7.439,1.081,11.479C0.774,67.795,3.026,72.992,9.42,75.619
		c4.027,1.652,6.536,4.486,7.672,8.664c1.977,7.27,7.048,8.355,9.896,8.355c1.095,0,2.274-0.15,3.506-0.445
		c1.167-0.281,2.309-0.422,3.394-0.422c2.874,0,5.475,0.965,7.954,2.953c2.402,1.926,4.846,2.901,7.262,2.901
		c2.998,0,5.771-1.463,8.244-4.349c2.652-3.096,5.875-4.6,9.854-4.6c0.27,0,0.543,0.006,0.818,0.021
		c0.305,0.016,0.602,0.022,0.893,0.022c6.357,0,10.297-3.746,10.807-10.275c0.338-4.312,2.272-7.559,5.918-9.924
		C91.434,64.762,92.678,59.238,89.052,53.369z M84.003,66.006c-4.44,2.883-6.864,6.951-7.274,12.209
		c-0.392,5.006-2.996,7.508-7.816,7.508c-0.242,0-0.489-0.006-0.742-0.02c-0.326-0.016-0.648-0.023-0.969-0.023
		c-4.862,0-8.906,1.883-12.133,5.648c-1.885,2.199-3.874,3.299-5.965,3.299c-1.725,0-3.52-0.748-5.385-2.244
		c-3.004-2.408-6.282-3.611-9.83-3.611c-1.327,0-2.691,0.168-4.094,0.504c-1.007,0.242-1.943,0.363-2.807,0.363
		c-3.554,0-5.887-2.047-7-6.143c-1.384-5.09-4.526-8.641-9.427-10.652c-4.9-2.014-6.407-5.482-4.518-10.408
		c1.889-4.928,1.445-9.637-1.33-14.128c-2.775-4.494-1.943-8.18,2.497-11.062c4.44-2.881,6.865-6.951,7.275-12.207
		c0.391-5.006,2.996-7.508,7.816-7.508c0.242,0,0.489,0.006,0.742,0.018c0.327,0.018,0.651,0.025,0.972,0.025
		c4.86,0,8.903-1.883,12.13-5.648c1.884-2.199,3.873-3.299,5.965-3.299c1.725,0,3.52,0.748,5.385,2.242
		c3.005,2.408,6.281,3.613,9.83,3.613c1.326,0,2.691-0.17,4.094-0.506c1.007-0.242,1.943-0.361,2.807-0.361
		c3.555-0.002,5.887,2.045,7,6.141c1.385,5.09,4.526,8.643,9.428,10.654c4.899,2.012,6.406,5.48,4.518,10.408
		c-1.889,4.926-1.445,9.637,1.33,14.128C89.275,59.438,88.443,63.125,84.003,66.006z"/>
	<path fill="#FFFFFF" d="M45.606,24.642c-14.879,0-26.983,12.104-26.983,26.983s12.104,26.982,26.983,26.982
		c14.878,0,26.983-12.104,26.983-26.982S60.484,24.642,45.606,24.642z M45.606,76.607c-13.776,0-24.983-11.207-24.983-24.982
		c0-13.776,11.207-24.983,24.983-24.983s24.983,11.207,24.983,24.983C70.589,65.4,59.382,76.607,45.606,76.607z"/>
	<path fill="#FFFFFF" d="M58.46,41.258c-0.813-0.623-1.795-0.951-2.84-0.951c-1.636,0-3.239,0.819-4.29,2.19l-6.981,9.101
		l-2.662-3.143c-1.051-1.346-2.639-2.147-4.257-2.148c-1.045,0-2.026,0.328-2.837,0.949c-2.146,1.65-2.439,4.885-0.655,7.21
		l0.03,0.038l0.031,0.037l6.37,7.523c0.399,0.498,1.149,1.133,1.22,1.188c0.807,0.619,1.788,0.945,2.839,0.945
		c0.033,0,0.065-0.002,0.097-0.002c0.032,0,0.065,0.002,0.097,0.002c1.051,0,2.033-0.326,2.838-0.944
		c0.075-0.058,0.872-0.731,1.259-1.235l10.393-13.552C60.896,46.14,60.604,42.906,58.46,41.258z M57.523,47.249l-10.392,13.55
		c-0.205,0.268-0.816,0.811-0.89,0.867c-0.474,0.363-1.04,0.531-1.621,0.531c-0.032,0-0.065-0.002-0.097-0.002
		c-0.032,0-0.064,0.002-0.097,0.002c-0.581,0-1.146-0.168-1.621-0.531c-0.074-0.057-0.685-0.602-0.89-0.867l-6.392-7.55
		c-1.117-1.457-0.99-3.426,0.284-4.405c0.474-0.363,1.04-0.537,1.621-0.536c0.979,0,2.002,0.493,2.702,1.406l4.294,5.069
		l8.492-11.069c0.7-0.913,1.724-1.406,2.702-1.406c0.581,0,1.146,0.173,1.621,0.536C58.516,43.823,58.643,45.792,57.523,47.249z"/>
</g>
</svg>
