<?xml version="1.0" encoding="utf-8"?>
<!-- Generator: Adobe Illustrator 16.0.0, SVG Export Plug-In . SVG Version: 6.00 Build 0)  -->
<!DOCTYPE svg PUBLIC "-//W3C//DTD SVG 1.1//EN" "http://www.w3.org/Graphics/SVG/1.1/DTD/svg11.dtd">
<svg version="1.1" id="Layer_1" xmlns="http://www.w3.org/2000/svg" xmlns:xlink="http://www.w3.org/1999/xlink" x="0px" y="0px"
	 width="102px" height="102px" viewBox="0 0 102 102" enable-background="new 0 0 102 102" xml:space="preserve">
<g>
	<path fill="#FFFFFF" d="M94.732,32.542c-3.947-3.52-9.406-5.458-15.371-5.458c-9.784,0-20.396,4.779-28.362,12.633
		c-7.967-7.854-18.58-12.633-28.362-12.633c-5.964,0-11.423,1.938-15.37,5.458C2.52,36.776,0.009,43.198,0.009,51.11
		s2.51,14.333,7.258,18.567c3.947,3.521,9.406,5.458,15.37,5.459c9.782,0,20.395-4.778,28.362-12.632
		c7.965,7.854,18.577,12.632,28.36,12.632c5.965,0,11.424-1.938,15.371-5.459c4.748-4.233,7.26-10.655,7.26-18.567
		S99.48,36.776,94.732,32.542z M79.359,72.193c-9.988,0-20.938-5.549-28.359-13.967c-7.424,8.418-18.371,13.967-28.362,13.967
		c-9.517,0-19.687-5.539-19.687-21.083c0-15.546,10.169-21.084,19.687-21.084c9.99,0,20.938,5.551,28.362,13.97
		c7.421-8.419,18.371-13.97,28.361-13.97c9.518,0,19.688,5.538,19.688,21.084C99.049,66.654,88.879,72.193,79.359,72.193z"/>
	<path fill="#FFFFFF" d="M22.638,38.459c-7.265,0-10.951,4.259-10.951,12.651c0,8.395,3.687,12.651,10.951,12.651
		c8.038,0,17.366-5.2,23.093-12.651C40.003,43.661,30.673,38.459,22.638,38.459z M22.638,61.799c-3.859,0-8.99-1.107-8.99-10.689
		c0-9.581,5.13-10.689,8.99-10.689c6.877,0,15.135,4.337,20.568,10.689C37.775,57.463,29.516,61.799,22.638,61.799z"/>
	<path fill="#FFFFFF" d="M79.363,38.459c-8.036,0-17.367,5.202-23.094,12.651c5.727,7.451,15.057,12.651,23.092,12.651
		c7.267,0,10.951-4.256,10.953-12.651C90.312,42.717,86.628,38.459,79.363,38.459z M79.359,61.799
		c-6.877,0-15.135-4.336-20.566-10.689c5.432-6.352,13.691-10.689,20.568-10.689c3.859,0,8.99,1.108,8.99,10.689
		C88.352,60.691,83.221,61.799,79.359,61.799z"/>
</g>
</svg>
