<?xml version="1.0" encoding="utf-8"?>
<!-- Generator: Adobe Illustrator 16.0.0, SVG Export Plug-In . SVG Version: 6.00 Build 0)  -->
<!DOCTYPE svg PUBLIC "-//W3C//DTD SVG 1.1//EN" "http://www.w3.org/Graphics/SVG/1.1/DTD/svg11.dtd">
<svg version="1.1" id="Layer_1" xmlns="http://www.w3.org/2000/svg" xmlns:xlink="http://www.w3.org/1999/xlink" x="0px" y="0px"
	 width="102px" height="102px" viewBox="0 0 102 102" enable-background="new 0 0 102 102" xml:space="preserve">
<path display="none" fill="#FFFFFF" d="M80.507,27.854c-0.485-0.484-14.521-14.52-15.005-15.006
	c-1.809-1.814-4.15-1.373-5.564,0.041c-0.75,0.75-54.048,54.05-54.048,54.05L0.288,91.848l25.94-4.193
	c0,0,53.486-53.485,54.237-54.236C81.879,32.003,82.323,29.661,80.507,27.854z M23.204,85.197l-10.285,1.695l-6.92-6.92l2.181-9.801
	L23.204,85.197z M14.156,73.352l39.07-39.072l4.787,4.787L18.943,78.139L14.156,73.352z M49.38,27.635l3.706-3.703l16.333,16.333
	l-3.705,3.704L49.38,27.635z M47.981,29.034l3.847,3.847L12.757,71.953l-3.864-3.864L47.981,29.034z M5.489,82.26l5.029,5.029
	l-6.382,1.053L5.489,82.26z M25.239,84.436l-4.897-4.897l39.071-39.072l4.901,4.902L25.239,84.436z M78.346,31.34l-7.529,7.526
	l-16.33-16.332l7.529-7.523c0,0,0.748-0.701,1.455,0.005c0.194,0.194,14.676,14.675,14.869,14.87
	C79.047,30.591,78.346,31.34,78.346,31.34z"/>
<g>
	<path fill="#FFFFFF" d="M15.755,74.643c-2.5,0-4.526,2.025-4.526,4.525s2.026,4.525,4.526,4.525s4.526-2.025,4.526-4.525
		S18.255,74.643,15.755,74.643z M15.755,81.585c-1.335,0-2.417-1.083-2.417-2.417s1.083-2.418,2.417-2.418s2.417,1.084,2.417,2.418
		S17.09,81.585,15.755,81.585z"/>
	<path fill="#FFFFFF" d="M52.359,42.265c-1.703-1.703-4.463-1.703-6.166,0l0.007,0.008L20.985,67.492l0.013,0.013
		c-1.653,1.707-1.642,4.425,0.044,6.111c1.618,1.618,4.179,1.68,5.892,0.224l0.013,0.014l25.424-25.424l-0.005-0.006
		C54.062,46.72,54.061,43.965,52.359,42.265z M50.921,46.978L25.498,72.402c-0.911,0.671-2.195,0.602-3.019-0.223
		c-0.902-0.902-0.907-2.361-0.019-3.271l25.203-25.203c0.911-0.894,2.355-0.908,3.259-0.005
		C51.83,44.609,51.823,46.068,50.921,46.978z"/>
	<path fill="#FFFFFF" d="M87.102,37.202c0,0-0.183-4.85-1.863-9.525v-0.001l-1.146-3.045l-10.898,10.9l-11.971-2.417l-1.834-11.562
		L70.49,10.45c-5.273-2.75-12.164-3-12.164-3s-14.87-1.095-18.448,11.031c-2.895,9.811-0.001,17.86,0,17.864L3.104,73.119
		c0-0.001-0.008-0.008-0.008-0.008s-0.94,0.998-1.025,1.086c-2.688,2.669-2.386,10.878,1.241,14.738l2.644,2.594
		c3.683,3.498,11.659,3.961,14.551,1.503L57.98,55.557c0,0,8.275,2.988,18.088,0.094C88.195,52.072,87.102,37.202,87.102,37.202z
		 M80.725,48.707c-1.451,1.886-3.729,4.104-10.029,4.65c-3.258,0.285-6.889,0.291-13.617-1.088L20.245,89.102
		c0-0.002-0.002-0.006-0.002-0.009c-2.468,2.49-6.392,2.614-9.239,1.554c-2.215-0.826-6.066-4.77-6.808-6.758
		c-1.048-2.813-0.931-6.674,1.474-9.146L43.172,37.24c-1.377-6.729-1.286-10.127-1.002-13.385c0.547-6.301,2.766-8.579,4.651-10.029
		c7.436-5.719,18.085-1.984,18.085-1.984l-8.664,8.664l0.01,0.01l-0.027,0.005l2.389,15.064l-0.006,0.024l15.488,3.126l0.041,0.041
		l8.623-8.622c-0.046,0.32-0.051,0.467-0.051,0.467S86.441,41.271,80.725,48.707z"/>
</g>
</svg>
