<?xml version="1.0" encoding="utf-8"?>
<!-- Generator: Adobe Illustrator 16.0.0, SVG Export Plug-In . SVG Version: 6.00 Build 0)  -->
<!DOCTYPE svg PUBLIC "-//W3C//DTD SVG 1.1//EN" "http://www.w3.org/Graphics/SVG/1.1/DTD/svg11.dtd">
<svg version="1.1" id="Layer_1" xmlns="http://www.w3.org/2000/svg" xmlns:xlink="http://www.w3.org/1999/xlink" x="0px" y="0px"
	 width="102px" height="102px" viewBox="0 0 102 102" enable-background="new 0 0 102 102" xml:space="preserve">
<g>
	<polygon fill="#FFFFFF" points="45.744,54.259 50.619,55.384 57.619,27.134 52.994,25.759 	"/>
	<polygon fill="#FFFFFF" points="60.994,36.634 70.244,40.572 60.994,45.384 63.369,49.009 74.994,43.009 74.994,38.884 
		62.619,33.009 	"/>
	<polygon fill="#FFFFFF" points="40.244,32.572 27.869,38.447 27.869,42.572 39.494,48.572 41.869,44.947 32.619,40.134 
		41.869,36.197 	"/>
	<path fill="#FFFFFF" d="M6.994,65.759h87.968v-51H6.994V65.759z M8.963,16.791h84v46.969h-84V16.791z"/>
	<path fill="#FFFFFF" d="M59.992,78.759H42.994v8.031h-11v9h38.998v-9h-11V78.759z M68.023,89.759v3.062h-33.06v-3.062h11v-8.031
		h11.061v8.031H68.023z"/>
	<path fill="#FFFFFF" d="M101.973,61.071c0-5.575,0-11.983,0-18.302s0-12.727,0-18.302l0,0c0-7.054,0-12.128,0.002-12.814
		c0.006-2.562-1.964-3.905-3.963-3.905c-1.459,0-28.17,0-42.537,0c0,0-3.637,0-8.975,0c-14.368,0-41.079,0-42.537,0
		c-2,0-3.969,1.344-3.963,3.905c0.001,0.687,0.002,5.761,0.002,12.814H0.001c0,5.575,0,11.983,0.001,18.302
		c0,6.318,0,12.727-0.001,18.302h0.001c0,7.054-0.001,12.128-0.002,12.814c-0.006,2.562,1.964,3.905,3.963,3.905
		c1.458,0,28.169,0,42.537,0c5.338,0,8.975,0,8.975,0c14.367,0,41.078,0,42.537,0c2,0,3.969-1.344,3.963-3.905
		C101.973,73.199,101.973,68.125,101.973,61.071L101.973,61.071z M99.005,24.467c0,11.363,0,26.183,0,36.604
		c0,7.299,0,12.443,0,12.719c0,0.999-1.025,1.032-1.025,1.032H55.475H46.5H3.994c0,0-1.025-0.033-1.025-1.032
		c0-0.275,0-5.42,0-12.719c0-10.421,0-25.24,0-36.604c0-7.299,0-12.443,0-12.719c0-0.999,1.025-1.032,1.025-1.032H46.5h8.975H97.98
		c0,0,1.025,0.033,1.025,1.032C99.005,12.024,99.005,17.168,99.005,24.467z"/>
</g>
</svg>
