<?xml version="1.0" standalone="no"?>
<!DOCTYPE svg PUBLIC "-//W3C//DTD SVG 1.1//EN" "http://www.w3.org/Graphics/SVG/1.1/DTD/svg11.dtd" >
<svg xmlns="http://www.w3.org/2000/svg">
<metadata>
Created by FontPrep 20130207 at Mon Mar 21 11:36:30 2016
 By Andrey Bakuta
Copyright (c) 2012 by Hannes von Doehren. All rights reserved.
</metadata>
<defs>
<font id="bb5e3c0162606114eeab957ba25b4960" horiz-adv-x='1024' >
  <font-face 
    font-family="BrandonText-Thin"
    font-weight="300"
    font-stretch="normal"
    units-per-em="2048"
    panose-1="2 11 4 3 2 2 3 6 2 3"
    ascent="1434"
    descent="-614"
    x-height="946"
    cap-height="1434"
    bbox="-321.571 -514 2421 2099.84"
    underline-thickness="102"
    underline-position="-102"
    unicode-range="U+000D-FB02"
  />
<missing-glyph horiz-adv-x="1226" 
d="M502 319q0 -41 30 -69t69 -29q40 0 70 29q29 30 29 70t-29 69q-30 29 -70 29q-39 0 -69 -29t-30 -70zM537 643q0 -25 28 -25h74q31 0 31 27v53q0 57 107 124q40 26 74 75t34 109q0 98 -73 162t-193 65q-120 0 -213 -80q-22 -18 -41 -44t-3 -38l46 -45q24 -18 70 33
q45 51 120 51q74 0 108 -31t34 -75t-32 -80q-32 -37 -70 -62q-38 -24 -70 -66t-31 -94v-59zM102 61v1311q0 61 62 62h899q61 0 61 -62v-1311q0 -61 -61 -61h-899q-62 0 -62 61z" />
    <glyph glyph-name="fi" unicode="fi" horiz-adv-x="1089" 
d="M229 16v893h-172q-14 0 -14 13v10q0 14 16 14h170v115q-1 189 91 291t258 102t305 -137q11 -11 -5 -26t-26 -1q-106 127 -283 127q-139 0 -221 -92t-82 -264v-115h633q14 0 14 -16v-914q0 -16 -12 -16h-10q-14 0 -14 16v893h-611v-893q0 -16 -18 -16h-6q-13 0 -13 16z
" />
    <glyph glyph-name="fl" unicode="fl" horiz-adv-x="1171" 
d="M229 1065q-1 389 381 389q186 0 328 -131v94q0 16 12 17h13q12 0 12 -17v-1401q0 -16 -12 -16h-13q-12 0 -12 16v1256q-152 145 -338 145q-334 0 -334 -352v-119h410q18 0 18 -14v-10q0 -12 -18 -13h-410v-893q0 -16 -16 -16h-8q-13 0 -13 16v893h-170q-16 0 -16 13v10
q0 14 16 14h170v119z" />
    <glyph glyph-name="f_f" unicode="ff" horiz-adv-x="1386" 
d="M258 946h608v133q0 125 37 215q-117 100 -293 100q-352 1 -352 -360v-88zM221 16v893h-145q-16 0 -17 13v10q0 14 17 14h145v88q0 195 98 297q98 103 286 103t319 -103q84 123 246 123t276 -100q15 -10 -1 -26q-15 -15 -28 -5q-104 94 -246 94q-268 0 -268 -338v-133h430
q16 0 17 -14v-10q0 -12 -17 -13h-430v-893q0 -16 -12 -16h-12q-12 0 -13 16v893h-608v-893q0 -16 -14 -16h-8q-15 0 -15 16z" />
    <glyph glyph-name="f_f_i" unicode="ffi" horiz-adv-x="1726" 
d="M258 946h608v115q0 141 49 235q-115 98 -298 98t-271 -89q-88 -90 -88 -271v-88zM1202 1454q180 0 318 -137q11 -11 -5 -26t-26 -1q-106 127 -283 127q-139 0 -221 -92t-82 -264v-115h633q14 0 14 -16v-914q0 -16 -12 -16h-10q-14 0 -15 16v893h-610v-893q0 -16 -12 -16
h-12q-12 0 -13 16v893h-608v-893q0 -16 -14 -16h-8q-14 0 -15 16v893h-145q-16 0 -17 13v10q0 14 17 14h145v88q0 195 98 297q98 103 293 103t326 -103q84 123 264 123z" />
    <glyph glyph-name="f_f_l" unicode="ffl" horiz-adv-x="1808" 
d="M258 946h608v119q0 143 45 229q-117 100 -297 100q-356 1 -356 -360v-88zM1232 1454q202 0 343 -131v94q0 16 12 17h12q12 0 13 -17v-1401q0 -16 -13 -16h-12q-12 0 -12 16v1256q-152 145 -327 145t-260 -84t-85 -268v-119h410q18 0 18 -14v-10q0 -12 -18 -13h-410v-893
q0 -16 -12 -16h-12q-12 0 -13 16v893h-608v-893q0 -16 -14 -16h-8q-14 0 -15 16v893h-145q-16 0 -17 13v10q0 14 17 14h145v88q0 195 98 297q98 103 291 103t324 -103q96 123 298 123z" />
    <glyph glyph-name="f_f_j" unicode="ffj" horiz-adv-x="1726" 
d="M1513 -133v1042h-610v-893q0 -16 -12 -16h-12q-12 0 -13 16v893h-608v-893q0 -16 -14 -16h-8q-14 0 -15 16v893h-145q-16 0 -17 13v10q0 14 17 14h145v88q0 195 98 297q98 103 293 103t326 -103q84 123 264 123t318 -137q11 -11 -5 -26t-26 -1q-106 127 -283 127
q-139 0 -221 -92t-82 -264v-115h633q14 0 14 -16v-1063q0 -168 -64 -258t-202 -119q-20 -4 -23 13t13 22q125 31 182 107t57 235zM258 946h608v115q0 141 49 235q-115 98 -298 98t-271 -89q-88 -90 -88 -271v-88z" />
    <glyph glyph-name="f_j" unicode="fj" horiz-adv-x="1089" 
d="M877 -133v1042h-611v-893q0 -16 -18 -16h-6q-12 0 -13 16v893h-172q-14 0 -14 13v10q0 14 16 14h170v115q-1 189 91 291t258 102t305 -137q11 -11 -5 -26t-26 -1q-106 127 -283 127q-139 0 -221 -92t-82 -264v-115h633q14 0 14 -16v-1063q-1 -168 -65 -258t-201 -119
q-20 -4 -23 13t13 22q125 31 183 107t57 235z" />
    <glyph glyph-name="f_f_k" unicode="ffk" horiz-adv-x="2308" 
d="M258 946h608v119q0 143 45 229q-117 100 -297 100q-356 1 -356 -360v-88zM1587 1434h10q14 0 15 -17v-870l600 411q12 8 21 -8t-1 -24l-585 -402l602 -499q11 -9 -1 -24q-11 -15 -22 -9l-614 514v-490q0 -16 -15 -16h-10q-12 0 -12 16v1256q-152 145 -327 145t-260 -84
t-85 -268v-119h410q18 0 18 -14v-10q0 -12 -18 -13h-410v-893q0 -16 -12 -16h-12q-12 0 -13 16v893h-608v-893q0 -16 -14 -16h-8q-14 0 -15 16v893h-145q-16 0 -17 13v10q0 14 17 14h145v88q0 195 98 297q98 103 291 103t324 -103q96 123 298 123t343 -131v94q0 17 12 17z
" />
    <glyph glyph-name="f_k" unicode="fk" horiz-adv-x="1671" 
d="M229 1065q-1 389 381 389q186 0 328 -131v94q0 16 12 17h11q14 0 14 -17v-870l600 411q12 8 21 -8t-1 -24l-585 -402l602 -499q11 -9 -1 -24q-11 -15 -22 -9l-614 514v-490q0 -16 -14 -16h-11q-12 0 -12 16v1256q-152 145 -338 145q-334 0 -334 -352v-119h410
q18 0 18 -14v-10q0 -12 -18 -13h-410v-893q0 -16 -16 -16h-8q-12 0 -13 16v893h-170q-16 0 -16 13v10q0 14 16 14h170v119z" />
    <glyph glyph-name="f_b" unicode="fb" horiz-adv-x="1898" 
d="M1333 16q168 0 291 134t123 328t-121 323t-309 129q-94 0 -180 -38t-125 -77l-37 -37v-588q125 -174 358 -174zM229 1065q-1 389 381 389q186 0 328 -131v94q0 16 14 17h9q14 0 14 -17v-583q16 14 45 36t118 60q89 37 179 37q207 -1 337 -139t130 -349t-132 -356
t-319 -146q-219 0 -358 154v-115q0 -16 -14 -16h-9q-14 0 -14 16v1256q-152 145 -338 145q-334 0 -334 -352v-119h410q18 0 18 -14v-10q0 -12 -18 -13h-410v-893q0 -16 -16 -16h-8q-12 0 -13 16v893h-170q-16 0 -16 13v10q0 14 16 14h170v119z" />
    <glyph glyph-name="f_h" unicode="fh" horiz-adv-x="1861" 
d="M229 1065q-1 389 381 389q186 0 326 -129v92q0 16 14 17h8q14 0 15 -17v-624q164 174 350 174q371 0 371 -439v-512q0 -16 -15 -16h-8q-14 0 -14 16v512q0 401 -334 402q-201 0 -350 -195v-719q0 -16 -15 -16h-8q-14 0 -14 16v1258q-156 143 -336 143q-334 0 -334 -352
v-119h410q18 0 18 -14v-10q0 -12 -18 -13h-410v-893q0 -16 -16 -16h-8q-12 0 -13 16v893h-170q-16 0 -16 13v10q0 14 16 14h170v119z" />
    <glyph glyph-name="f_f_h" unicode="ffh" horiz-adv-x="2498" 
d="M258 946h608v119q0 143 45 229q-117 100 -297 100q-356 1 -356 -360v-88zM1575 16v1256q-152 145 -327 145t-260 -84t-85 -268v-119h410q18 0 18 -14v-10q0 -12 -18 -13h-410v-893q0 -16 -12 -16h-12q-12 0 -13 16v893h-608v-893q0 -16 -14 -16h-8q-14 0 -15 16v893h-145
q-16 0 -17 13v10q0 14 17 14h145v88q0 195 98 297q98 103 291 103t324 -103q96 123 298 123t343 -131v94q0 16 14 17h8q14 0 15 -17v-624q164 174 350 174q371 0 371 -439v-512q0 -16 -15 -16h-8q-14 0 -14 16v512q0 401 -334 402q-201 0 -350 -195v-719q0 -16 -15 -16h-8
q-14 0 -14 16z" />
    <glyph glyph-name="f_f_b" unicode="ffb" horiz-adv-x="2535" 
d="M258 946h608v119q0 143 45 229q-117 100 -297 100q-356 1 -356 -360v-88zM1970 16q168 0 291 134t123 328t-121 323t-309 129q-94 0 -180 -38t-123 -77l-39 -37v-588q125 -174 358 -174zM1954 967q207 -1 337 -139t130 -349t-132 -356t-319 -146q-219 0 -358 154v-115
q0 -16 -15 -16h-8q-14 0 -14 16v1256q-152 145 -327 145t-260 -84t-85 -268v-119h410q18 0 18 -14v-10q0 -12 -18 -13h-410v-893q0 -16 -12 -16h-12q-12 0 -13 16v893h-608v-893q0 -16 -14 -16h-8q-14 0 -15 16v893h-145q-16 0 -17 13v10q0 14 17 14h145v88q0 195 98 297
q98 103 291 103t324 -103q96 123 298 123t343 -131v94q0 16 14 17h8q14 0 15 -17v-583q16 14 45 36t118 60q89 37 179 37z" />
    <glyph glyph-name=".notdef" horiz-adv-x="1226" 
d="M502 319q0 -41 30 -69t69 -29q40 0 70 29q29 30 29 70t-29 69q-30 29 -70 29q-39 0 -69 -29t-30 -70zM537 643q0 -25 28 -25h74q31 0 31 27v53q0 57 107 124q40 26 74 75t34 109q0 98 -73 162t-193 65q-120 0 -213 -80q-22 -18 -41 -44t-3 -38l46 -45q24 -18 70 33
q45 51 120 51q74 0 108 -31t34 -75t-32 -80q-32 -37 -70 -62q-38 -24 -70 -66t-31 -94v-59zM102 61v1311q0 61 62 62h899q61 0 61 -62v-1311q0 -61 -61 -61h-899q-62 0 -62 61z" />
    <glyph glyph-name=".null" horiz-adv-x="0" 
 />
    <glyph glyph-name=".null" horiz-adv-x="0" 
 />
    <glyph glyph-name="nonmarkingreturn" horiz-adv-x="681" 
 />
    <glyph glyph-name="CR" unicode="&#xd;" horiz-adv-x="0" 
 />
    <glyph glyph-name="space" unicode=" " horiz-adv-x="491" 
 />
    <glyph glyph-name="exclam" unicode="!" horiz-adv-x="456" 
d="M178 29q0 20 14 33q14 14 35 14t35 -14t14 -33q0 -21 -14 -35t-34 -14t-36 14q-14 14 -14 35zM223 547q-14 0 -14 14v858q0 14 14 15h8q14 0 15 -15v-858q0 -14 -15 -14h-8z" />
    <glyph glyph-name="quotedbl" unicode="&#x22;" horiz-adv-x="636" 
d="M164 1026q-14 0 -14 14v379q0 14 14 15h6q14 0 14 -15v-379q0 -14 -14 -14h-6zM467 1026q-14 0 -14 14v379q0 14 14 15h6q14 0 14 -15v-379q0 -14 -14 -14h-6z" />
    <glyph glyph-name="numbersign" unicode="#" horiz-adv-x="1148" 
d="M358 479h357l76 398h-357zM117 444q-12 0 -13 15v6q0 14 13 14h202l78 398h-223q-14 0 -14 14v8q0 14 14 14h232l98 508q4 12 14 13h6q18 0 15 -17l-99 -504h359l98 508q4 12 14 13h9q16 0 12 -17l-98 -504h194q12 0 12 -14v-8q0 -14 -12 -14h-201l-75 -398h219
q14 0 14 -14v-6q0 -14 -14 -15h-228l-81 -432q-4 -12 -15 -12h-8q-18 0 -14 16l84 428h-359l-82 -432q-4 -12 -14 -12h-8q-19 0 -15 16l84 428h-198z" />
    <glyph glyph-name="dollar" unicode="$" 
d="M651 16q160 6 277 100q116 94 116 231q0 136 -98 216t-295 137v-684zM215 1087q0 -136 98 -210t301 -127v665q-201 -2 -300 -97t-99 -231zM178 1096q0 131 104 241t332 115v88q0 14 15 14h8q14 0 14 -14v-90q84 -4 166 -30t121 -48l41 -24q6 -6 6 -13l-4 -8q0 -8 -7 -12
t-16 0q-133 90 -307 98v-674q217 -61 323 -151t107 -240q0 -150 -128 -256q-128 -104 -302 -112v-232q0 -12 -14 -12h-8q-14 0 -15 12v232q-106 2 -229 51t-192 119q-10 8 3 21t23 3q168 -154 395 -158v695q-220 59 -328 140t-108 245z" />
    <glyph glyph-name="percent" unicode="%" horiz-adv-x="1396" 
d="M242 25l854 1405q6 8 22 -2q16 -9 10 -19l-854 -1405q-8 -10 -14 -6l-16 10q-8 7 -2 17zM1270 269q0 105 -74 179t-179 74t-179 -74t-74 -179t74 -179t179 -74t179 74t74 179zM729 268q0 121 84 206t204 85t205 -85t85 -205q0 -121 -85 -205t-205 -84t-204 84t-84 204z
M382 911q105 0 180 74t75 179t-75 179t-180 74t-178 -74t-73 -179t73 -179t178 -74zM383 874q-121 0 -205 85t-84 206t84 205t205 84t205 -84t84 -205t-84 -206t-205 -85z" />
    <glyph glyph-name="ampersand" unicode="&#x26;" horiz-adv-x="1386" 
d="M193 352q0 -139 96 -237t250 -99q279 0 475 234l-510 502q-145 -74 -229 -167q-82 -94 -82 -233zM588 1417q-141 0 -219 -84t-78 -182q0 -127 149 -285l29 -30q29 -29 45 -43q362 166 363 358q0 109 -74 187t-215 79zM158 354q0 262 319 420l-61 64q-160 160 -160 313
q0 113 87 208t246 95t241 -89t81 -214q0 -213 -368 -383h-2l495 -489q164 219 164 471q0 18 -4 63q0 16 14 16h9q14 0 14 -12q4 -45 4 -67q0 -264 -174 -494l229 -227q10 -8 2 -17l-14 -12q-6 -6 -14 2l-228 223q-201 -246 -499 -245q-170 0 -276 109q-105 109 -105 265z
" />
    <glyph glyph-name="quotesingle" unicode="'" horiz-adv-x="335" 
d="M164 1026q-14 0 -14 14v379q0 14 14 15h8q14 0 14 -15v-379q0 -14 -14 -14h-8z" />
    <glyph glyph-name="parenleft" unicode="(" horiz-adv-x="681" 
d="M629 -147q0 -12 -15 -13q-196 8 -334 179q-73 89 -116 250t-43 377q0 592 314 760q83 44 179 48q14 0 15 -14v-8q0 -14 -15 -15q-145 -8 -263 -117q-117 -109 -167 -354q-26 -133 -26 -300t26 -300q48 -243 166 -353q117 -110 264 -118q14 0 15 -14v-8z" />
    <glyph glyph-name="parenright" unicode=")" horiz-adv-x="681" 
d="M53 1440q0 14 15 14q194 -8 334 -181q73 -89 116 -250t43 -377q0 -596 -315 -759q-84 -43 -178 -47q-14 0 -15 13v8q1 14 15 14q144 8 262 118t168 353q26 133 26 300q-1 472 -200 661q-111 104 -256 110q-14 0 -15 15v8z" />
    <glyph glyph-name="asterisk" unicode="*" horiz-adv-x="856" 
d="M424 831q-14 0 -14 15v254l-222 -127q-12 -6 -21 10t3 21l219 129l-219 129q-10 4 -4 14l6 12q6 10 16 4l222 -127v254q0 14 14 15h8q14 0 14 -15v-254l222 127q10 6 16 -4l6 -12q6 -10 -4 -14l-219 -129l219 -129q12 -5 3 -21t-21 -10l-222 127v-254q0 -14 -14 -15h-8z
" />
    <glyph glyph-name="plus" unicode="+" 
d="M598 313v381h-381q-14 0 -14 15v8q0 14 14 14h381v379q0 14 14 14h9q14 0 14 -14v-379h379q14 0 14 -14v-8q0 -14 -14 -15h-379v-381q0 -14 -14 -14h-9q-14 0 -14 14z" />
    <glyph glyph-name="comma" unicode="," horiz-adv-x="380" 
d="M129 28q0 22 15 36t38 14q47 0 74 -56t27 -122q0 -143 -113 -234q-14 -12 -20 0l-9 12q-8 12 4 23q96 74 97 190q0 74 -23 109q-17 -20 -39 -20t-37 13q-14 13 -14 35z" />
    <glyph glyph-name="hyphen" unicode="-" horiz-adv-x="829" 
d="M166 498q-12 0 -12 14v8q0 14 12 15h498q12 0 12 -15v-8q0 -14 -12 -14h-498z" />
    <glyph glyph-name="period" unicode="." horiz-adv-x="364" 
d="M131 30q0 22 15 36t37 14t36 -14t14 -36t-14 -37q-13 -15 -35 -15t-38 14q-16 16 -15 38z" />
    <glyph glyph-name="slash" unicode="/" horiz-adv-x="755" 
d="M639 1434q12 0 8 -13l-504 -1413q-4 -8 -14 -8h-14q-10 0 -6 12l501 1411q4 10 15 11h14z" />
    <glyph glyph-name="zero" unicode="0" horiz-adv-x="1349" 
d="M676 16q231 0 358 186t127 518q0 333 -127 515t-359 182q-233 0 -359 -182t-126 -516q0 -335 128 -519t358 -184zM676 -20q-248 0 -385 196t-137 543q0 348 137 542q137 193 385 193t384 -192t136 -542q0 -348 -136 -544t-384 -196z" />
    <glyph glyph-name="one" unicode="1" horiz-adv-x="706" 
d="M438 14v1370l-350 -260q-10 -6 -16 2l-13 15q-4 8 7 14l387 285q22 13 22 -13v-1413q0 -14 -14 -14h-8q-15 0 -15 14z" />
    <glyph glyph-name="two" unicode="2" horiz-adv-x="1122" 
d="M985 1042q0 -132 -69 -246t-197 -235l-559 -522h798q16 0 17 -16v-9q0 -14 -17 -14h-856q-10 0 -14 10t4 15l602 561q123 114 189 224t65 232q0 158 -108 267q-109 109 -276 109t-256 -65q-89 -64 -111 -108l-13 -18q-6 -10 -14 -6l-14 8q-10 10 -5 19q19 34 58 73
q74 74 167 104t173 29q201 0 319 -119t117 -293z" />
    <glyph glyph-name="three" unicode="3" horiz-adv-x="1191" 
d="M1004 393q0 131 -104 231t-267 101h-285q-14 0 -14 16v9q0 14 14 14h285q135 0 235 92t100 234t-100 235q-102 92 -274 92t-315 -111q-33 -26 -50 -44l-14 -19q-6 -10 -16 -4l-13 8q-17 8 3 29q20 20 60 53t84 59t117 46t150 20q180 0 293 -102t113 -262q0 -122 -73 -216
t-183 -126q130 -32 210 -134t80 -221q0 -180 -130 -297q-130 -116 -333 -116t-313 76q-73 51 -131 112q-8 12 5 24t24 3q29 -29 38 -39t52 -44q118 -93 316 -95q198 -1 317 105t119 271z" />
    <glyph glyph-name="four" unicode="4" horiz-adv-x="1255" 
d="M958 371v1018l-841 -1018h841zM70 336q-10 0 -15 7q-4 7 4 15l912 1102q6 8 15 5t9 -13v-1081h150q14 0 14 -13v-8q0 -14 -14 -14h-150v-322q0 -14 -14 -14h-6q-16 0 -17 14v322h-888z" />
    <glyph glyph-name="five" unicode="5" horiz-adv-x="1181" 
d="M575 16q201 0 332 131t131 324t-117 293q-118 100 -343 100h-381q-14 0 -15 17v538q0 14 15 15h688q14 0 14 -15v-6q0 -14 -14 -14h-666v-498h359q244 -1 370 -111t127 -318q0 -208 -142 -350t-358 -142q-261 0 -413 180q-8 10 0 20q19 15 31 4q139 -168 382 -168z" />
    <glyph glyph-name="six" unicode="6" horiz-adv-x="1204" 
d="M172 582q0 -246 124 -406t337 -160q180 0 309 132t129 322t-126 308q-126 119 -300 119q-260 0 -437 -232q-13 -17 -24 -34l-12 -19v-30zM137 582q0 166 58 312q57 146 137 240t206 189q126 96 287 154q12 4 17 -7q7 -24 -4 -30q-134 -47 -253 -131q-118 -83 -193 -161
t-136 -201q-61 -122 -78 -261q186 248 467 248q191 0 327 -129t136 -334t-140 -348t-335 -143q-229 0 -363 170q-133 170 -133 432z" />
    <glyph glyph-name="seven" unicode="7" horiz-adv-x="1009" 
d="M66 1399q-14 0 -15 14v6q0 14 15 15h899q8 0 12 -6t0 -13l-623 -1413q-6 -12 -16 -6l-10 4q-10 4 -4 18l606 1381h-864z" />
    <glyph glyph-name="eight" unicode="8" horiz-adv-x="1239" 
d="M186 354q0 -162 120 -252t312 -90t314 90q121 90 121 267q0 139 -118 232t-314 108q-201 -13 -318 -103t-117 -252zM1014 1078q0 140 -100 240t-298 101q-198 0 -294 -100q-96 -101 -96 -241t111 -225q112 -85 284 -95q173 10 283 95t110 225zM150 369q0 141 101 237
t277 125q-154 31 -246 124t-94 237q0 144 106 253t322 109q217 0 327 -111t110 -253q1 -142 -93 -235t-247 -124q178 -29 277 -122t100 -240q0 -195 -132 -292t-340 -97t-338 97t-130 292z" />
    <glyph glyph-name="nine" unicode="9" horiz-adv-x="1204" 
d="M559 541q260 0 437 232q13 17 24 34l12 18v29q0 246 -123 404t-338 157q-180 0 -309 -130t-129 -318t126 -307t300 -119zM559 502q-190 0 -327 130q-136 130 -136 335t140 346t335 141q229 0 363 -169t133 -431q0 -166 -57 -311q-58 -145 -138 -239t-210 -193
q-130 -98 -283 -152q-12 -4 -17 8l-4 15q-2 10 9 16q131 46 250 129q120 84 194 163q74 78 135 200t78 262q-182 -250 -465 -250z" />
    <glyph glyph-name="colon" unicode=":" horiz-adv-x="419" 
d="M154 33q0 23 16 39t40 16t40 -15t16 -40t-16 -41t-40 -16t-40 16q-16 18 -16 41zM210 858q-24 0 -40 16t-16 40t16 40t41 16t40 -16t15 -40t-16 -40t-40 -16z" />
    <glyph glyph-name="semicolon" unicode=";" horiz-adv-x="501" 
d="M234 -20q-22 0 -38 14q-14 14 -14 34q0 22 16 36t38 14q48 0 74 -56t26 -122q0 -143 -113 -234q-14 -12 -20 0l-8 12q-8 12 4 23q96 74 96 190q0 74 -23 109q-16 -20 -38 -20zM234 858q-22 0 -39 16t-17 40t16 40t40 16t39 -16t15 -40t-16 -40t-38 -16z" />
    <glyph glyph-name="less" unicode="&#x3c;" 
d="M209 463q-20 12 0 24l747 482q12 6 19 -4l6 -11q8 -12 -4 -18l-717 -461l717 -446q12 -6 2 -22q-10 -17 -23 -11z" />
    <glyph glyph-name="equal" unicode="=" 
d="M274 360q-14 0 -14 15v8q0 14 14 14h678q14 0 15 -14v-8q0 -14 -15 -15h-678zM274 782q-14 0 -14 15v8q0 14 14 14h678q14 0 15 -14v-8q0 -14 -15 -15h-678z" />
    <glyph glyph-name="greater" unicode="&#x3e;" 
d="M270 -4q-12 -6 -22 10t2 23l717 446l-717 461q-12 6 -4 18l6 11q6 10 18 4l748 -482q20 -12 0 -24z" />
    <glyph glyph-name="question" unicode="?" horiz-adv-x="956" 
d="M412 29q0 20 13 33q13 14 33 14t36 -14q14 -14 14 -33q0 -21 -14 -35t-34 -14t-35 14q-13 15 -13 35zM446 526q-14 0 -14 15v123q0 73 42 110t77 53q260 147 260 326q0 115 -92 189t-234 75q-142 0 -232 -57q-89 -57 -114 -94l-12 -17q-8 -12 -22 -1t-9 21q4 9 14 21
q144 164 369 164q162 0 264 -86t103 -215q0 -199 -279 -358q-98 -51 -98 -131v-123q0 -14 -14 -15h-9z" />
    <glyph glyph-name="at" unicode="@" horiz-adv-x="2021" 
d="M629 476q0 -170 98 -284t246 -114t218 64q71 64 91 114l8 20v459q-30 52 -122 91q-93 39 -177 38q-158 0 -260 -110t-102 -278zM123 461q0 441 257 717q258 276 672 276t646 -240t231 -618q0 -316 -175 -471q-95 -84 -234 -84q-92 0 -150 45q-57 45 -74 119
q-98 -164 -311 -164q-176 0 -285 125q-108 125 -108 310t114 305t288 120t296 -110v75q0 14 15 15h8q14 0 14 -15v-592q0 -88 50 -142t143 -54q182 0 278 154t96 364q0 365 -221 593t-621 228t-646 -265q-248 -265 -248 -691q0 -309 165 -539t439 -348q10 -6 6 -14l-6 -13
q-6 -12 -17 -6q-283 119 -453 359t-169 561z" />
    <glyph glyph-name="A" unicode="A" horiz-adv-x="1296" 
d="M244 465h805l-398 938zM653 1477q6 0 11 -9l618 -1454q4 -10 -6 -12l-19 -6q-6 -2 -10 6l-182 428h-838l-184 -428q-4 -8 -10 -6l-19 6q-10 2 -6 12l631 1454q4 8 10 9h4z" />
    <glyph glyph-name="B" unicode="B" horiz-adv-x="1280" 
d="M258 37h418q188 0 304 96t116 256t-108 243t-288 83h-442v-678zM258 752h404q174 0 282 86t107 238t-107 236q-106 85 -287 85h-399v-645zM221 14v1405q0 14 15 15h421q197 0 314 -96t116 -267q1 -123 -69 -209t-191 -123q141 -27 224 -115q82 -89 82 -250
q0 -162 -127 -268t-330 -106h-440q-15 0 -15 14z" />
    <glyph glyph-name="C" unicode="C" horiz-adv-x="1482" 
d="M123 716q0 308 217 523t526 215q270 0 498 -190q9 -9 -8 -29q-8 -8 -17 0q-211 182 -489 182t-484 -205q-206 -206 -206 -498t206 -495t485 -203t488 191q10 10 17 0l10 -12q6 -6 0 -15q-209 -200 -509 -200t-517 214t-217 522z" />
    <glyph glyph-name="D" unicode="D" horiz-adv-x="1490" 
d="M256 37h387q285 0 487 200q202 199 201 481q0 282 -202 480t-486 199h-387v-1360zM221 14v1405q0 14 12 15h410q299 0 511 -209t212 -507t-212 -508t-511 -210h-410q-12 0 -12 14z" />
    <glyph glyph-name="E" unicode="E" horiz-adv-x="1202" 
d="M221 14v1405q0 14 15 15h833q14 0 14 -15v-8q0 -14 -14 -14h-811v-633h713q14 0 14 -14v-9q0 -14 -14 -14h-713v-690h811q14 0 14 -14v-9q0 -14 -14 -14h-833q-15 0 -15 14z" />
    <glyph glyph-name="F" unicode="F" horiz-adv-x="1148" 
d="M221 14v1405q0 14 15 15h833q14 0 14 -15v-8q0 -14 -14 -14h-811v-684h713q14 0 14 -15v-8q0 -14 -14 -14h-713v-662q0 -14 -14 -14h-8q-15 0 -15 14z" />
    <glyph glyph-name="G" unicode="G" horiz-adv-x="1540" 
d="M123 716q0 308 217 523t526 215q270 0 498 -190q9 -9 -8 -29q-8 -8 -17 0q-211 182 -489 182t-484 -205q-206 -206 -206 -498t206 -495t500 -203q125 0 260 36t222 106v481h-465q-14 0 -15 14v9q0 12 15 12h487q14 0 14 -12v-519q-12 -18 -65 -53t-180 -73t-273 -37
q-309 0 -526 214t-217 522z" />
    <glyph glyph-name="H" unicode="H" horiz-adv-x="1523" 
d="M221 14v1405q0 14 15 15h8q14 0 14 -15v-655h1008v655q0 14 14 15h8q14 0 15 -15v-1405q0 -14 -15 -14h-8q-14 0 -14 14v713h-1008v-713q0 -14 -14 -14h-8q-15 0 -15 14z" />
    <glyph glyph-name="I" unicode="I" horiz-adv-x="479" 
d="M221 14v1405q0 14 15 15h8q14 0 14 -15v-1405q0 -14 -14 -14h-8q-15 0 -15 14z" />
    <glyph glyph-name="J" unicode="J" horiz-adv-x="948" 
d="M707 1419q0 14 14 15h6q14 0 14 -15v-991q0 -217 -98 -333q-99 -116 -289 -116t-311 158q-9 11 6 21q14 10 21 0q112 -142 286 -142q348 -1 351 412v991z" />
    <glyph glyph-name="K" unicode="K" horiz-adv-x="1107" 
d="M221 14v1405q0 14 15 15h8q14 0 14 -15v-682l762 695q10 10 24 -4t3 -23l-756 -686l776 -696q14 -14 4 -23l-8 -8q-6 -8 -19 4l-786 704v-686q0 -14 -14 -14h-8q-15 0 -15 14z" />
    <glyph glyph-name="L" unicode="L" horiz-adv-x="1015" 
d="M221 14v1405q0 14 15 15h8q12 0 12 -15v-1382h715q14 0 14 -14v-9q0 -14 -14 -14h-735q-15 0 -15 14z" />
    <glyph glyph-name="M" unicode="M" horiz-adv-x="1759" 
d="M422 1468q12 0 14 -10l445 -1384l438 1384q4 10 14 10t15 -10l309 -1442q2 -14 -6 -16l-17 -4q-8 -4 -12 12l-295 1356l-432 -1380q-2 -10 -14 -10t-15 10l-440 1380l-285 -1356q-2 -16 -12 -12l-16 4q-9 2 -7 16l302 1442q2 10 14 10z" />
    <glyph glyph-name="N" unicode="N" horiz-adv-x="1564" 
d="M221 14v1440q0 10 10 13t17 -5l1059 -1411v1368q0 14 14 15h8q14 0 14 -15v-1435q0 -10 -10 -14t-16 5l-1059 1411v-1372q0 -14 -14 -14h-8q-15 0 -15 14z" />
    <glyph glyph-name="O" unicode="O" horiz-adv-x="1728" 
d="M162 715q0 -293 205 -496t499 -203t498 203q205 203 205 496t-206 497t-499 205q-294 -1 -498 -205t-204 -497zM125 715q0 309 215 524t524 215q310 0 526 -215t216 -523t-216 -522t-526 -214t-524 213q-215 213 -215 522z" />
    <glyph glyph-name="P" unicode="P" horiz-adv-x="1212" 
d="M258 539h406q176 0 303 127t127 304t-127 302t-305 125h-404v-858zM221 14v1405q0 14 15 15h426q192 0 330 -136t138 -328t-137 -330t-329 -138h-406v-488q0 -14 -14 -14h-8q-15 0 -15 14z" />
    <glyph glyph-name="Q" unicode="Q" horiz-adv-x="1728" 
d="M162 715q0 -293 205 -496t499 -203t498 203q205 203 205 496t-206 497t-499 205q-294 -1 -498 -205t-204 -497zM125 715q0 309 215 524t524 215q310 0 526 -215t216 -524q0 -238 -134 -424t-352 -264l240 -394q6 -10 -2 -16l-19 -10q-8 -2 -12 6l-242 401
q-109 -35 -221 -34q-309 0 -524 213t-215 522z" />
    <glyph glyph-name="R" unicode="R" horiz-adv-x="1312" 
d="M256 582h467q178 0 304 118t126 293q0 174 -126 289t-306 115h-465v-815zM221 14v1405q0 14 15 15h485q195 0 331 -125t136 -303t-106 -300q-106 -120 -267 -151l320 -535q6 -10 -2 -16l-19 -10q-8 -2 -12 6l-326 549q-18 -2 -53 -2h-467v-533q0 -14 -12 -14h-8
q-15 0 -15 14z" />
    <glyph glyph-name="S" unicode="S" horiz-adv-x="1126" 
d="M578 16q174 0 294 98t121 242q0 143 -108 221q-109 77 -320 135t-315 128q-123 84 -123 241q0 158 112 266t334 107q89 0 179 -27t133 -51l43 -26q11 -7 0 -23q-10 -16 -24 -8q-14 7 -43 25q-30 18 -117 46t-171 27q-205 0 -307 -96t-102 -233t98 -211q98 -73 320 -133
t334 -146q114 -86 114 -244t-130 -266t-322 -108q-109 0 -217 40q-109 40 -149 72q-40 31 -71 58q-10 10 0 18l9 8q8 8 18 -2q186 -158 410 -158z" />
    <glyph glyph-name="T" unicode="T" horiz-adv-x="1019" 
d="M489 14v1383h-426q-14 0 -14 14v8q0 14 14 15h893q14 0 15 -15v-8q0 -14 -15 -14h-430v-1383q0 -14 -14 -14h-8q-15 0 -15 14z" />
    <glyph glyph-name="U" unicode="U" horiz-adv-x="1470" 
d="M205 516v903q0 14 14 15h8q14 0 15 -15v-903q0 -223 133 -361q133 -139 359 -139t360 138t135 362v903q0 14 14 15h8q14 0 15 -15v-903q0 -240 -144 -388t-388 -148q-243 0 -386 148t-143 388z" />
    <glyph glyph-name="V" unicode="V" horiz-adv-x="1286" 
d="M639 -41q-8 0 -12 8l-617 1452q-2 10 6 13l19 6q6 2 10 -6l594 -1399l608 1399q4 8 10 6l19 -6q10 -2 6 -13l-631 -1452q-4 -8 -12 -8z" />
    <glyph glyph-name="W" unicode="W" horiz-adv-x="1777" 
d="M882 1460q10 0 15 -10l395 -1384l383 1366q4 10 13 6l16 -6q8 -2 6 -13l-403 -1444q-5 -10 -15 -10t-14 10l-395 1385l-377 -1385q-2 -10 -14 -10t-15 10l-418 1444q-2 10 7 13l16 6q8 4 12 -6l398 -1369l376 1387q4 10 14 10z" />
    <glyph glyph-name="X" unicode="X" horiz-adv-x="1099" 
d="M70 6q-10 6 -2 19l456 706l-436 678q-8 12 2 18l12 9q8 4 17 -6l430 -666l430 666q8 10 16 6l13 -9q10 -6 2 -18l-439 -678l461 -706q8 -12 -2 -19l-12 -8q-10 -4 -17 6l-452 692l-451 -692q-8 -10 -16 -6z" />
    <glyph glyph-name="Y" unicode="Y" horiz-adv-x="1130" 
d="M547 14v688l-541 707q-8 12 2 18l12 9q6 4 17 -6l528 -695l529 695q8 12 16 6l12 -9q10 -6 2 -18l-540 -704v-691q0 -14 -15 -14h-8q-14 0 -14 14z" />
    <glyph glyph-name="Z" unicode="Z" horiz-adv-x="1054" 
d="M129 1397q-14 0 -14 14v8q0 14 14 15h858q8 0 12 -8t0 -15l-899 -1374h842q14 0 14 -14v-9q0 -14 -14 -14h-883q-8 0 -12 8t0 15l899 1374h-817z" />
    <glyph glyph-name="bracketleft" unicode="[" horiz-adv-x="671" 
d="M219 -451h393q14 0 15 -14v-8q0 -14 -15 -14h-415q-14 0 -15 14v1892q0 14 15 15h415q14 0 15 -15v-8q0 -14 -15 -14h-393v-1848z" />
    <glyph glyph-name="backslash" unicode="\" horiz-adv-x="755" 
d="M129 1434q12 0 14 -9l502 -1413q4 -12 -6 -12h-14q-11 0 -15 8l-501 1411q-4 12 6 15h14z" />
    <glyph glyph-name="bracketright" unicode="]" horiz-adv-x="671" 
d="M59 -451h394v1848h-394q-14 0 -14 14v8q0 14 14 15h416q14 0 14 -15v-1892q0 -14 -14 -14h-416q-14 0 -14 14v8q0 14 14 14z" />
    <glyph glyph-name="asciicircum" unicode="^" horiz-adv-x="1073" 
d="M115 819q-7 -10 -23 0t-10 21l448 624q12 16 25 0l436 -624q6 -10 -10 -21t-23 0l-415 596z" />
    <glyph glyph-name="underscore" unicode="_" horiz-adv-x="1091" 
d="M193 -35q0 14 14 15h678q14 0 14 -15v-8q0 -12 -14 -12h-678q-14 0 -14 12v8z" />
    <glyph glyph-name="grave" unicode="`" horiz-adv-x="618" 
d="M489 1147l-372 184q-12 6 -4 22q8 15 20 11l373 -186q10 -6 2 -25q-7 -10 -19 -6z" />
    <glyph glyph-name="a" unicode="a" horiz-adv-x="997" 
d="M127 294q0 -126 83 -203t204 -77t226 54t148 108v350q-148 56 -300 56t-256 -81t-105 -207zM90 293q0 143 114 234t283 91t301 -53v88q0 145 -60 211t-216 66t-281 -70q-16 -8 -25 9t3 24q133 74 308 74t242 -74t66 -240v-637q0 -16 -14 -16h-8q-14 0 -15 16v107
q-173 -145 -387 -145q-124 0 -218 85q-93 87 -93 230z" />
    <glyph glyph-name="b" unicode="b" horiz-adv-x="1140" 
d="M575 16q168 0 291 134t123 328t-121 323t-309 129q-94 0 -180 -38t-125 -77l-37 -37v-588q125 -174 358 -174zM559 967q207 -1 337 -139t130 -349t-132 -356t-319 -146q-219 0 -358 154v-115q0 -16 -14 -16h-8q-14 0 -15 16v1401q0 16 15 17h8q14 0 14 -17v-583
q16 14 45 36t118 60q89 37 179 37z" />
    <glyph glyph-name="c" unicode="c" horiz-adv-x="1095" 
d="M113 476q0 212 147 351t361 139t360 -124q10 -10 0 -21l-10 -12q-6 -6 -21 4q-136 117 -330 117t-332 -130t-138 -324t140 -328t332 -134t345 154q10 10 18 2l10 -10q8 -8 0 -18q-22 -26 -70 -63q-128 -99 -321 -101t-342 142t-149 356z" />
    <glyph glyph-name="d" unicode="d" horiz-adv-x="1140" 
d="M582 930q-188 0 -309 -129t-121 -323t122 -327q122 -134 291 -135q233 0 359 174v588q-14 16 -42 42t-117 68t-183 42zM565 -23q-186 -1 -318 145t-132 357t130 349t337 139q152 0 279 -86q32 -20 48 -33l15 -14v583q0 16 14 17h8q14 0 15 -17v-1401q0 -16 -15 -16h-8
q-14 0 -14 16v115q-139 -154 -359 -154z" />
    <glyph glyph-name="e" unicode="e" horiz-adv-x="1107" 
d="M971 537q0 173 -112 283q-111 110 -289 110t-295 -125t-123 -311h817q2 16 2 43zM1008 537q0 -80 -25 -80h-831q4 -188 121 -316q118 -127 307 -127q100 0 187 33t136 72q12 10 19 -2l8 -15q4 -6 -4 -14q-152 -111 -354 -111q-202 1 -330 143q-127 142 -127 355t127 352
q128 139 328 139t319 -118q119 -119 119 -311z" />
    <glyph glyph-name="f" unicode="f" horiz-adv-x="741" 
d="M221 16v893h-145q-16 0 -17 15v8q0 14 17 14h145v133q0 375 309 375q164 0 269 -100q9 -9 -6 -29q-10 -12 -23 0q-96 92 -240 92q-272 0 -272 -338v-133h430q16 0 17 -14v-8q0 -14 -17 -15h-430v-893q0 -16 -14 -16h-8q-15 0 -15 16z" />
    <glyph glyph-name="g" unicode="g" horiz-adv-x="1138" 
d="M922 -31v125q-131 -117 -337 -117q-206 -1 -338 141t-132 356t131 353t334 139t342 -122v86q0 16 14 16h8q14 0 14 -16v-961q0 -199 -110 -309t-285 -109q-174 0 -315 123q-14 14 -6 23l8 10q6 6 18 -2q131 -117 291 -117q159 0 261 100t102 281zM580 930
q-184 0 -306 -130t-122 -326t122 -328t326 -132q88 0 182 40t140 100v630q-37 62 -142 104q-104 42 -200 42z" />
    <glyph glyph-name="h" unicode="h" horiz-adv-x="1105" 
d="M180 16v1401q0 16 15 17h8q14 0 14 -17v-624q164 174 350 174q371 0 371 -439v-512q0 -16 -14 -16h-9q-14 0 -14 16v512q0 401 -334 402q-201 0 -350 -195v-719q0 -16 -14 -16h-8q-15 0 -15 16z" />
    <glyph glyph-name="i" unicode="i" horiz-adv-x="397" 
d="M201 1239q-20 0 -34 14q-13 13 -13 33t13 36t33 15q20 0 34 -15q31 -36 0 -69q-13 -14 -33 -14zM180 16v914q0 16 15 16h8q14 0 14 -16v-914q0 -16 -14 -16h-8q-15 0 -15 16z" />
    <glyph glyph-name="j" unicode="j" horiz-adv-x="397" 
d="M201 1239q-20 0 -34 14q-13 13 -13 33t13 36t33 15q20 0 34 -15q31 -36 0 -69q-13 -14 -33 -14zM217 930v-1063q-1 -168 -65 -258t-201 -119q-20 -4 -24 13t14 22q125 31 182 107t57 235v1063q0 16 15 16h8q14 0 14 -16z" />
    <glyph glyph-name="k" unicode="k" horiz-adv-x="913" 
d="M180 16v1401q0 16 15 17h8q14 0 14 -17v-870l600 411q11 8 21 -8t0 -24l-586 -402l602 -499q11 -9 -1 -24q-11 -15 -22 -9l-614 514v-490q0 -16 -14 -16h-8q-15 0 -15 16z" />
    <glyph glyph-name="l" unicode="l" horiz-adv-x="430" 
d="M197 16v1401q0 16 14 17h8q14 0 14 -17v-1401q0 -16 -14 -16h-8q-14 0 -14 16z" />
    <glyph glyph-name="m" unicode="m" horiz-adv-x="1695" 
d="M180 16v914q0 16 15 16h8q14 0 14 -16v-129q131 166 336 166t289 -187q128 186 322 186t279 -109q85 -110 85 -329v-512q0 -16 -15 -16h-8q-14 0 -14 16v512q0 401 -313 402q-199 0 -318 -191q31 -86 31 -211v-512q0 -16 -14 -16h-11q-12 0 -12 16v512q0 401 -305 402
q-213 0 -332 -189v-725q0 -16 -14 -16h-8q-15 0 -15 16z" />
    <glyph glyph-name="n" unicode="n" horiz-adv-x="1103" 
d="M180 16v914q0 16 15 16h8q14 0 14 -16v-129q156 166 348 166q191 0 281 -110t90 -329v-512q0 -16 -12 -16h-9q-16 0 -16 16v512q0 401 -332 402q-211 0 -350 -182v-732q0 -16 -14 -16h-8q-15 0 -15 16z" />
    <glyph glyph-name="o" unicode="o" horiz-adv-x="1181" 
d="M1032 472q0 190 -128 324t-313 134t-313 -134t-128 -324t128 -324t313 -134t313 134t128 324zM113 474q0 208 138 350t340 142t340 -142t138 -350t-138 -352t-340 -144t-340 144t-138 352z" />
    <glyph glyph-name="p" unicode="p" horiz-adv-x="1138" 
d="M539 14q203 0 325 132t123 328q0 196 -122 326t-306 130q-96 0 -202 -43t-140 -103v-630q45 -60 140 -100q94 -40 182 -40zM217 -471q0 -16 -14 -16h-8q-14 0 -15 16v1401q0 16 15 16h8q14 0 14 -16v-86q139 123 342 123q203 1 334 -139t131 -354t-132 -355t-338 -141
t-337 116v-565z" />
    <glyph glyph-name="q" unicode="q" horiz-adv-x="1138" 
d="M580 930q-184 0 -306 -130t-122 -326t122 -328t326 -132q88 0 182 40t140 100v630q-37 62 -142 104q-104 42 -200 42zM922 -471v565q-131 -117 -337 -117q-206 -1 -338 141t-132 356t131 353t334 139t342 -122v86q0 16 14 16h8q14 0 14 -16v-1401q0 -16 -14 -16h-8
q-14 0 -14 16z" />
    <glyph glyph-name="r" unicode="r" horiz-adv-x="749" 
d="M180 16v914q0 16 15 16h8q14 0 14 -16v-125q45 63 125 113t190 49q110 0 170 -39q10 -8 5 -23l-5 -8q-6 -14 -22 -4q-55 37 -152 37q-190 0 -311 -189v-725q0 -16 -14 -16h-8q-15 0 -15 16z" />
    <glyph glyph-name="s" unicode="s" horiz-adv-x="870" 
d="M440 -23q-195 0 -313 105q-11 11 1 27q11 16 24 6q121 -101 268 -101t235 65t88 158t-81 142q-82 49 -245 94t-235 101t-72 150t84 169q84 74 236 74t266 -72q13 -9 0 -29q-10 -12 -22 -6q-117 70 -249 70t-205 -62t-73 -142q0 -79 67 -127q66 -48 178 -80t149 -43
t92 -36q55 -24 81 -50q66 -65 66 -164t-98 -174t-242 -75z" />
    <glyph glyph-name="t" unicode="t" horiz-adv-x="704" 
d="M199 254v655h-101q-14 0 -14 13v10q0 14 14 14h101v256q0 14 12 15h10q14 0 15 -15v-256h389q14 0 14 -14v-10q0 -12 -14 -13h-389v-655q0 -112 20 -159q20 -46 57 -63q37 -18 100 -18t139 28t112 50q11 7 21 -9q9 -15 -1 -22q-37 -25 -118 -55q-80 -30 -154 -29
q-145 0 -184 81q-29 64 -29 196z" />
    <glyph glyph-name="u" unicode="u" horiz-adv-x="1081" 
d="M168 412v518q0 16 12 16h13q12 0 12 -16v-518q0 -395 332 -396q209 0 327 187v727q0 16 15 16h10q12 0 12 -16v-914q0 -16 -12 -16h-10q-14 0 -15 16v125q-139 -164 -328 -164t-279 109q-89 109 -89 326z" />
    <glyph glyph-name="v" unicode="v" horiz-adv-x="958" 
d="M465 -25l-418 961q-6 14 2 18l12 7q12 6 17 -9l401 -923l402 923q4 12 16 9l12 -9q8 -6 2 -16l-417 -961q-15 -25 -29 0z" />
    <glyph glyph-name="w" unicode="w" horiz-adv-x="1392" 
d="M696 981q12 0 17 -10l280 -922l299 897q4 18 19 12l10 -4q10 -2 6 -16l-315 -956q-4 -14 -16 -14t-17 14l-283 915l-280 -915q-2 -14 -16 -14t-17 14l-317 956q-4 12 6 16l10 4q14 8 18 -8l297 -901l283 922q4 10 16 10z" />
    <glyph glyph-name="x" unicode="x" horiz-adv-x="923" 
d="M461 463l-359 -461q-9 -9 -21 2q-13 10 -7 21l366 464l-354 443q-5 9 9 21q13 11 22 -1l344 -438l348 438q8 10 14 4l13 -10q6 -6 2 -14l-355 -443l369 -464q8 -12 -2 -19l-10 -8q-12 -6 -19 2z" />
    <glyph glyph-name="y" unicode="y" horiz-adv-x="962" 
d="M465 16l-420 920q-6 10 2 16l12 6q12 6 17 -8l409 -897l400 897q4 14 16 8l12 -6q8 -6 2 -16l-634 -1423q-8 -18 -24 -9q-17 8 -9 23z" />
    <glyph glyph-name="z" unicode="z" horiz-adv-x="860" 
d="M139 909q-14 0 -14 13v10q0 14 14 14h631q12 0 17 -8t-1 -18l-673 -883h632q16 0 17 -14v-9q0 -14 -17 -14h-671q-10 0 -17 8q-6 9 2 19l670 882h-590z" />
    <glyph glyph-name="braceleft" unicode="{" horiz-adv-x="679" 
d="M233 -31v303q0 84 -50 136t-99 51q-14 0 -14 14v8q0 14 14 15q45 0 97 50t52 136v297q-1 263 103 369t287 106q14 0 14 -14v-8q0 -14 -14 -15q-166 0 -259 -97t-94 -341v-297q0 -139 -123 -205q123 -66 123 -205v-303q0 -246 94 -344t259 -98q14 0 14 -14v-9
q0 -14 -14 -14q-182 0 -286 108t-104 371z" />
    <glyph glyph-name="bar" unicode="|" horiz-adv-x="397" 
d="M180 -473v2013q0 14 15 14h8q14 0 14 -14v-2013q0 -14 -14 -14h-8q-15 0 -15 14z" />
    <glyph glyph-name="braceright" unicode="}" horiz-adv-x="677" 
d="M410 -31v303q0 139 122 205q-123 66 -122 205v297q0 244 -94 341t-259 97q-14 0 -14 15v8q0 14 14 14q181 0 285 -105t104 -370v-297q0 -86 52 -136t98 -50q14 0 14 -15v-8q0 -14 -14 -14q-49 0 -99 -51t-51 -136v-303q0 -263 -103 -371t-286 -108q-14 0 -14 14v9
q0 14 14 14q165 0 259 98t94 344z" />
    <glyph glyph-name="asciitilde" unicode="~" horiz-adv-x="1193" 
d="M154 512l-11 6q-11 8 2 29q46 77 84 112q87 78 187 77t195 -123t184 -121q70 0 130 45t85 90l24 45q4 10 25 2q12 -6 7 -16t-12 -22q-60 -111 -162 -158q-46 -22 -97 -21q-105 0 -199 121t-186 120q-70 0 -130 -45t-85 -90l-25 -45q-6 -12 -16 -6z" />
    <glyph glyph-name="uni00A0" unicode="&#xa0;" horiz-adv-x="491" 
 />
    <glyph glyph-name="exclamdown" unicode="&#xa1;" horiz-adv-x="405" 
d="M184 385q0 14 15 14h8q14 0 14 -14v-858q0 -14 -14 -14h-8q-14 0 -15 14v858zM203 870q-21 0 -35 14t-14 34t14 34t34 14t36 -14q14 -14 14 -34t-14 -34t-35 -14z" />
    <glyph glyph-name="cent" unicode="&#xa2;" horiz-adv-x="1128" 
d="M158 477q0 -153 86 -269t221 -165l235 881q-33 6 -75 6q-191 0 -329 -130t-138 -323zM121 477q0 211 147 350t357 140q47 0 86 -6l24 92q7 16 29 10q12 -4 8 -23l-22 -84q129 -25 239 -114q10 -10 0 -21l-10 -12q-6 -6 -28 10q-96 73 -212 99l-235 -887q61 -16 121 -17
q197 0 350 154q10 10 18 2l11 -10q8 -8 0 -18q-20 -24 -71 -63q-128 -99 -308 -102q-66 0 -131 17l-54 -199q-4 -14 -22 -10t-15 25l52 196q-147 51 -241 178q-93 127 -93 293z" />
    <glyph glyph-name="sterling" unicode="&#xa3;" 
d="M225 637q-14 0 -14 14v8q0 12 14 13h82q-4 12 -15 59q-12 47 -16 63q-32 119 -32 253q0 179 120 293t281 114q223 0 383 -147q10 -10 -3 -23q-13 -14 -21 -6q-152 139 -359 139q-147 0 -257 -103t-109 -267q0 -121 65 -375h492q14 0 14 -13v-8q0 -14 -14 -14h-484
q14 -94 15 -172q0 -193 -97 -428h717q14 0 14 -14v-9q0 -14 -14 -14h-747q-21 0 -13 20q104 252 105 445q0 72 -19 172h-88z" />
    <glyph glyph-name="currency" unicode="&#xa4;" horiz-adv-x="1011" 
d="M231 642q0 104 68 179l-125 127q-8 13 4 25q10 6 21 0l127 -127q74 66 178 66t180 -66l129 127q13 8 25 -4q6 -10 0 -21l-127 -129q69 -80 69 -181t-65 -179l123 -125q8 -13 -4 -25q-10 -6 -21 0l-125 123q-76 -68 -181 -68t-183 68l-125 -123q-14 -7 -25 4q-6 10 0 21
l123 125q-66 79 -66 183zM266 638q0 -97 70 -168t167 -71t169 71t72 168t-70 168t-168 71t-169 -71t-71 -168z" />
    <glyph glyph-name="yen" unicode="&#xa5;" 
d="M250 317q-12 0 -12 13v8q0 6 4 11t8 3h346v207h-346q-12 0 -12 12v9q0 6 4 11t8 3h346v108l-500 707q-8 12 2 18l13 9q6 4 16 -6l487 -695l488 695q8 12 16 6l12 -9q10 -6 3 -18l-500 -704v-111h348q12 0 12 -14v-9q0 -12 -12 -12h-348v-207h348q12 0 12 -14v-8
q0 -12 -12 -13h-348v-303q0 -14 -15 -14h-8q-14 0 -14 14v303h-346z" />
    <glyph glyph-name="brokenbar" unicode="&#xa6;" horiz-adv-x="409" 
d="M186 268q0 12 15 13h8q14 0 14 -13v-739q0 -14 -14 -14h-8q-14 0 -15 14v739zM201 786q-14 0 -15 15v739q0 14 15 14h8q14 0 14 -14v-739q0 -14 -14 -15h-8z" />
    <glyph glyph-name="section" unicode="&#xa7;" horiz-adv-x="1155" 
d="M985 362q0 140 -104 218q-105 78 -307 127t-302 129q-90 -84 -90 -215t104 -213t300 -130t293 -114q106 98 106 198zM985 -93q0 132 -104 210q-103 78 -309 129t-318 137q-112 85 -111 233q0 148 101 242q-96 90 -96 234t111 254q112 109 333 108q90 0 177 -27t128 -51
l43 -26q8 -4 -2 -24q-10 -19 -23 -9q-41 32 -140 66q-99 35 -183 34q-205 0 -307 -97q-103 -97 -103 -231q0 -135 104 -217t310 -133q208 -51 318 -134t110 -243q0 -106 -115 -221q111 -90 111 -235q0 -144 -127 -242t-297 -98q-102 0 -202 38t-163 81q-62 43 -49 57l13 12
q5 8 23 -10t56 -44q38 -28 130 -64q93 -36 192 -35q156 0 272 87t117 219z" />
    <glyph glyph-name="dieresis" unicode="&#xa8;" horiz-adv-x="847" 
d="M265 1239q-46 0 -46 46t46 46t46 -46t-46 -46zM654 1239q-46 0 -46 46t46 46t46 -46t-46 -46z" />
    <glyph glyph-name="copyright" unicode="&#xa9;" horiz-adv-x="1759" 
d="M504 714q0 166 114 280t264 114t255 -80q11 -7 0 -21q-10 -14 -19 -8q-94 74 -231 74t-243 -105q-106 -106 -105 -254q0 -148 105 -252q106 -104 244 -106q138 0 232 80q10 10 20 -6q9 -16 3 -22q-102 -88 -256 -88t-269 114q-114 115 -114 280zM176 717q0 -291 206 -496
t497 -205t497 205t207 496q0 291 -207 495q-208 204 -498 205q-290 -1 -496 -205t-206 -495zM139 717q0 305 217 521q216 216 522 216t524 -216t218 -521t-218 -521t-523 -216t-523 216q-217 216 -217 521z" />
    <glyph glyph-name="ordfeminine" unicode="&#xaa;" horiz-adv-x="727" 
d="M358 1196q-88 0 -150 -48t-62 -124t47 -121q48 -45 120 -45t133 32t91 66v209q-92 31 -179 31zM537 1255q1 162 -135 162q-128 0 -177 -33l-20 -10q-8 -2 -15 2l-6 13q-8 8 4 16q72 49 186 49t156 -48q43 -48 43 -151v-401q0 -14 -14 -14h-8q-14 0 -14 14v51
q-103 -84 -207 -84q-104 1 -162 57q-59 56 -59 147t72 147q73 56 177 56t179 -26v53z" />
    <glyph glyph-name="guillemotleft" unicode="&#xab;" horiz-adv-x="851" 
d="M365 127l-250 352q-6 8 0 17l250 348q7 11 23 1q17 -9 9 -20l-239 -338l239 -342q8 -10 -9 -19q-16 -10 -23 1zM442 479q-6 8 0 17l250 348q7 11 24 2q17 -10 9 -21l-240 -338l240 -342q8 -10 -9 -19t-24 1z" />
    <glyph glyph-name="logicalnot" unicode="&#xac;" horiz-adv-x="1204" 
d="M213 696q-14 0 -14 15v8q0 14 14 14h797q14 0 14 -14v-404q0 -14 -14 -14h-9q-14 0 -14 14v381h-774z" />
    <glyph glyph-name="uni00AD" unicode="&#xad;" horiz-adv-x="829" 
d="M166 498q-12 0 -12 14v8q0 14 12 15h498q12 0 12 -15v-8q0 -14 -12 -14h-498z" />
    <glyph glyph-name="registered" unicode="&#xae;" horiz-adv-x="1759" 
d="M645 668h285q90 0 160 53t70 150t-68 148q-68 50 -162 50h-285v-401zM610 354v736q0 14 13 14h307q110 0 188 -60t78 -166q0 -108 -66 -168t-157 -75l160 -275q6 -8 -5 -14l-12 -6q-8 -6 -16 6l-166 287h-289v-279q0 -14 -14 -14h-8q-13 0 -13 14zM176 717
q0 -291 206 -496t497 -205t497 205t207 496q0 291 -207 495q-208 204 -498 205q-290 -1 -496 -205t-206 -495zM139 717q0 305 217 521q216 216 522 216t524 -216t218 -521t-218 -521t-523 -216t-523 216q-217 216 -217 521z" />
    <glyph glyph-name="macron" unicode="&#xaf;" horiz-adv-x="847" 
d="M129 1243q-14 0 -14 14v9q0 14 14 14h590q14 0 14 -14v-9q0 -14 -14 -14h-590z" />
    <glyph glyph-name="degree" unicode="&#xb0;" horiz-adv-x="798" 
d="M398 911q105 0 179 74q73 74 73 179t-73 179t-179 74t-178 -74q-73 -74 -73 -179t73 -179t178 -74zM398 874q-120 0 -204 85t-83 206q0 121 84 205q83 84 203 84t205 -85t85 -205t-85 -205t-205 -85z" />
    <glyph glyph-name="plusminus" unicode="&#xb1;" 
d="M205 188v9q0 14 14 14h797q14 0 14 -14v-9q0 -14 -14 -14h-797q-14 0 -14 14zM594 461v319h-381q-14 0 -14 15v8q0 14 14 14h381v379q0 14 14 14h8q14 0 15 -14v-379h379q14 0 14 -14v-8q0 -14 -14 -15h-379v-319q0 -14 -15 -15h-8q-14 1 -14 15z" />
    <glyph glyph-name="twosuperior" unicode="&#xb2;" horiz-adv-x="585" 
d="M86 1032q-10 0 -14 9t4 16l270 225q115 96 115 191q0 61 -48 105q-49 44 -113 44t-102 -18t-51 -37l-14 -19q-6 -14 -22 -3t-10 22q5 10 17 25t61 41q48 26 106 26q98 0 155 -55t58 -131q0 -106 -127 -213l-230 -191h338q12 0 13 -14v-8q0 -14 -13 -15h-393z" />
    <glyph glyph-name="threesuperior" unicode="&#xb3;" horiz-adv-x="624" 
d="M290 1012q-114 0 -208 86q-10 10 3 23t24 3q84 -76 183 -76t151 41q53 40 53 98t-46 97t-124 39h-133q-14 0 -15 14v9q0 14 15 14h133q66 0 108 39t43 96q0 57 -44 92q-43 35 -109 35t-111 -18t-61 -37l-19 -19q-8 -8 -21 3q-12 11 -6 21q19 30 81 59q63 28 141 28
t132 -44q56 -44 56 -122q0 -45 -32 -88t-74 -62q55 -18 90 -61t35 -92q0 -78 -65 -128q-66 -50 -180 -50z" />
    <glyph glyph-name="acute" unicode="&#xb4;" horiz-adv-x="618" 
d="M129 1147q-13 -4 -20 10t4 21l372 186q14 5 21 -11q8 -15 -4 -22z" />
    <glyph glyph-name="mu" unicode="&#xb5;" horiz-adv-x="1075" 
d="M197 -471v1401q0 16 12 16h12q12 0 12 -16v-518q0 -395 332 -396q209 0 328 187v727q0 16 14 16h11q12 0 12 -16v-914q0 -16 -12 -16h-11q-14 0 -14 16v125q-137 -164 -328 -164q-256 0 -332 199v-647q0 -16 -14 -16h-8q-14 0 -14 16z" />
    <glyph glyph-name="paragraph" unicode="&#xb6;" horiz-adv-x="1433" 
d="M514 561q-180 0 -308 128t-128 309q0 180 118 308t289 128h848q14 0 15 -15v-8q0 -14 -15 -14h-205v-1870q0 -14 -14 -14h-8q-14 0 -14 14v1870h-396v-1870q0 -14 -14 -14h-8q-12 0 -12 14v1870h-177q-155 0 -263 -116t-108 -284q0 -169 118 -285t282 -116q14 0 14 -14
v-9q0 -12 -14 -12z" />
    <glyph glyph-name="periodcentered" unicode="&#xb7;" horiz-adv-x="405" 
d="M203 487q-21 1 -35 15t-14 34t14 34t34 14t36 -14q14 -14 14 -33q0 -20 -14 -35t-35 -15z" />
    <glyph glyph-name="cedilla" unicode="&#xb8;" horiz-adv-x="505" 
d="M438 -308q0 -77 -52 -125t-140 -48t-154 69q-10 10 5 23t26 4q53 -59 125 -59t112 36t39 98q0 60 -39 94t-96 34t-100 -19q-8 -4 -16 6q-7 10 -3 17l117 184h45l-110 -164q27 12 82 12t107 -42q52 -43 52 -120z" />
    <glyph glyph-name="onesuperior" unicode="&#xb9;" horiz-adv-x="342" 
d="M209 1032q-14 0 -14 15v544l-113 -84q-10 -6 -16 2l-11 15q-4 8 4 14l150 109q8 6 15 2t7 -15v-587q0 -14 -14 -15h-8z" />
    <glyph glyph-name="ordmasculine" unicode="&#xba;" horiz-adv-x="737" 
d="M369 844q100 0 156 76q57 76 57 210t-56 212q-56 77 -157 77t-157 -77t-56 -211q0 -135 56 -211t157 -76zM369 807q-117 0 -183 87q-66 88 -66 238t66 236t183 86t183 -86t66 -237t-66 -237t-183 -87z" />
    <glyph glyph-name="guillemotright" unicode="&#xbb;" horiz-adv-x="854" 
d="M129 145l240 342l-240 338q-6 11 10 20t23 -1l250 -348q6 -8 0 -17l-250 -352q-7 -11 -23 -2q-16 10 -10 20zM457 145l239 342l-239 338q-6 11 10 20t22 -1l250 -348q6 -8 0 -17l-250 -352q-7 -11 -22 -1q-16 9 -10 19z" />
    <glyph glyph-name="onequarter" unicode="&#xbc;" horiz-adv-x="1277" 
d="M1028 174v379l-348 -379h348zM1065 608v-434h102q14 0 15 -14v-8q0 -12 -15 -13h-102v-125q0 -14 -14 -14h-9q-14 0 -14 14v125h-393q-10 -1 -13 7t3 16l415 456q8 6 17 4q8 -3 8 -14zM133 25l854 1405q6 8 23 -1q16 -10 10 -20l-854 -1405q-8 -10 -14 -6l-17 10
q-8 7 -2 17zM264 827q-14 0 -14 15v544l-113 -83q-10 -6 -16 2l-10 14q-4 8 4 14l149 109q8 6 16 2t7 -14v-588q0 -14 -15 -15h-8z" />
    <glyph glyph-name="onehalf" unicode="&#xbd;" horiz-adv-x="1247" 
d="M1094 440q0 62 -48 106t-112 44t-104 -18q-38 -18 -52 -37l-12 -19q-6 -14 -22 -3t-10 22q6 10 18 25t60 41t106 26q98 1 155 -55t57 -132q0 -106 -126 -213l-230 -190h338q12 0 12 -14v-9q0 -14 -12 -14h-393q-10 0 -14 10t4 15l270 225q115 96 115 190zM133 25
l854 1405q6 8 23 -1q16 -10 10 -20l-854 -1405q-8 -10 -14 -6l-17 10q-8 7 -2 17zM264 827q-14 0 -14 15v544l-113 -83q-10 -6 -16 2l-10 14q-4 8 4 14l149 109q8 6 16 2t7 -14v-588q0 -14 -15 -15h-8z" />
    <glyph glyph-name="threequarters" unicode="&#xbe;" horiz-adv-x="1402" 
d="M1153 174v379l-348 -379h348zM1190 608v-434h102q14 0 15 -14v-8q0 -12 -15 -13h-102v-125q0 -14 -14 -14h-9q-14 0 -14 14v125h-393q-10 0 -14 7q-2 8 4 16l415 456q8 6 17 4q8 -3 8 -14zM258 25l854 1405q6 8 22 -2q17 -9 11 -19l-854 -1405q-8 -10 -15 -6l-16 10
q-8 7 -2 17zM326 807q-114 0 -209 86q-9 9 3 23q13 14 23 4q83 -76 183 -76t152 40t52 98t-46 97t-124 39h-133q-14 0 -14 15v8q0 14 14 14h133q66 0 109 39t43 96t-44 92t-110 35t-110 -18q-45 -18 -64 -37l-16 -19q-8 -8 -14 -2l-11 9q-10 8 -4 18q27 33 86 60
q59 26 137 26t134 -44t55 -122q0 -45 -32 -88t-75 -61q54 -17 90 -61t35 -93q-1 -78 -65 -128t-178 -50z" />
    <glyph glyph-name="questiondown" unicode="&#xbf;" horiz-adv-x="974" 
d="M524 281v122q0 14 15 15h8q14 0 14 -15v-122q0 -74 -42 -111t-77 -53q-260 -147 -260 -326q0 -115 92 -189t234 -75q142 0 231 56q88 56 115 93l12 19q8 12 22 1t9 -21q-4 -9 -14 -21t-45 -44t-75 -56t-108 -44q-68 -19 -141 -20q-162 0 -264 86t-103 215q0 199 279 359
q98 51 98 131zM535 870q-21 0 -35 14t-14 34t14 34t34 14t34 -14t14 -34t-14 -34t-33 -14z" />
    <glyph glyph-name="Agrave" unicode="&#xc0;" horiz-adv-x="1296" 
d="M850 1593l-373 185q-12 6 -4 21t21 11l372 -186q10 -6 6 -14l-4 -11q-6 -10 -18 -6zM244 465h805l-398 938zM653 1477q6 0 11 -9l618 -1454q4 -10 -6 -12l-19 -6q-6 -2 -10 6l-182 428h-838l-184 -428q-4 -8 -10 -6l-19 6q-10 2 -6 12l631 1454q4 8 10 9h4z" />
    <glyph glyph-name="Aacute" unicode="&#xc1;" horiz-adv-x="1296" 
d="M485 1593q-12 -4 -18 6l-4 11q-4 8 6 14l373 186q13 4 20 -11q8 -15 -4 -21zM244 465h805l-398 938zM653 1477q6 0 11 -9l618 -1454q4 -10 -6 -12l-19 -6q-6 -2 -10 6l-182 428h-838l-184 -428q-4 -8 -10 -6l-19 6q-10 2 -6 12l631 1454q4 8 10 9h4z" />
    <glyph glyph-name="Acircumflex" unicode="&#xc2;" horiz-adv-x="1296" 
d="M395 1563q-7 -7 -22 12q-4 8 4 16l264 217q8 8 16 0l265 -217q8 -8 4 -16q-15 -19 -23 -12l-254 206zM244 465h805l-398 938zM653 1477q6 0 11 -9l618 -1454q4 -10 -6 -12l-19 -6q-6 -2 -10 6l-182 428h-838l-184 -428q-4 -8 -10 -6l-19 6q-10 2 -6 12l631 1454q4 8 10 9
h4z" />
    <glyph glyph-name="Atilde" unicode="&#xc3;" horiz-adv-x="1296" 
d="M524 1837q68 0 95 -40t47 -85q39 -94 108 -94q96 0 139 147q4 14 15 11l16 -4q12 -2 6 -19q-57 -172 -176 -172q-94 0 -145 123q-41 98 -105 98q-96 0 -139 -149q-4 -15 -14 -11l-17 5q-12 4 -6 18q55 172 176 172zM244 465h805l-398 938zM653 1477q6 0 11 -9l618 -1454
q4 -10 -6 -12l-19 -6q-6 -2 -10 6l-182 428h-838l-184 -428q-4 -8 -10 -6l-19 6q-10 2 -6 12l631 1454q4 8 10 9h4z" />
    <glyph glyph-name="Adieresis" unicode="&#xc4;" horiz-adv-x="1296" 
d="M438 1655q-47 0 -47 46t47 46t47 -46t-47 -46zM862 1655q-47 0 -47 46t47 46t47 -46t-47 -46zM244 465h805l-398 938zM653 1477q6 0 11 -9l618 -1454q4 -10 -6 -12l-19 -6q-6 -2 -10 6l-182 428h-838l-184 -428q-4 -8 -10 -6l-19 6q-10 2 -6 12l631 1454q4 8 10 9h4z" />
    <glyph glyph-name="Aring" unicode="&#xc5;" horiz-adv-x="1296" 
d="M650 1571q73 0 125 52t52 125t-52 126t-125 53t-124 -52t-51 -126t51 -126t124 -52zM651 1536q-90 0 -151 61q-62 61 -62 151t62 152t151 62t151 -61t62 -151t-61 -153q-62 -61 -152 -61zM244 465h805l-398 938zM653 1477q6 0 11 -9l618 -1454q4 -10 -6 -12l-19 -6
q-6 -2 -10 6l-182 428h-838l-184 -428q-4 -8 -10 -6l-19 6q-10 2 -6 12l631 1454q4 8 10 9h4z" />
    <glyph glyph-name="AE" unicode="&#xc6;" horiz-adv-x="1875" 
d="M897 465v891l-584 -891h584zM1743 1434q14 0 14 -15v-8q0 -14 -14 -14h-811v-633h713q14 0 14 -14v-9q0 -14 -14 -14h-713v-690h811q14 0 14 -14v-9q0 -14 -14 -14h-832q-14 0 -14 14v416h-604l-281 -430q-6 -8 -21 1t-9 19l911 1397q10 16 35 17h815z" />
    <glyph glyph-name="Ccedilla" unicode="&#xc7;" horiz-adv-x="1482" 
d="M123 727q0 297 217 512t526 215q270 0 498 -190q9 -9 -8 -29q-8 -8 -17 0q-211 182 -489 182t-484 -205q-206 -206 -206 -498t206 -495t485 -203t488 191q10 10 17 0l10 -12q6 -6 0 -15q-209 -201 -500 -200q-29 0 -43 2l-92 -140q27 12 83 12t107 -42q52 -43 52 -120
t-52 -125q-53 -48 -141 -48t-153 69q-8 10 0 19q21 17 30 8q53 -59 125 -59t112 36t40 98q0 60 -39 94t-96 34t-101 -19q-8 -4 -15 6t-3 17l102 162q-281 30 -470 238t-189 505z" />
    <glyph glyph-name="Egrave" unicode="&#xc8;" horiz-adv-x="1202" 
d="M854 1593l-373 185q-12 6 -4 21t21 11l372 -186q10 -6 2 -25q-6 -10 -18 -6zM221 14v1405q0 14 15 15h833q14 0 14 -15v-8q0 -14 -14 -14h-811v-633h713q14 0 14 -14v-9q0 -14 -14 -14h-713v-690h811q14 0 14 -14v-9q0 -14 -14 -14h-833q-15 0 -15 14z" />
    <glyph glyph-name="Eacute" unicode="&#xc9;" horiz-adv-x="1202" 
d="M489 1593q-12 -4 -18 6l-4 11q-4 8 6 14l373 186q13 4 20 -11q8 -15 -4 -21zM221 14v1405q0 14 15 15h833q14 0 14 -15v-8q0 -14 -14 -14h-811v-633h713q14 0 14 -14v-9q0 -14 -14 -14h-713v-690h811q14 0 14 -14v-9q0 -14 -14 -14h-833q-15 0 -15 14z" />
    <glyph glyph-name="Ecircumflex" unicode="&#xca;" horiz-adv-x="1202" 
d="M397 1563q-7 -7 -22 12q-4 8 4 16l264 217q8 8 16 0l265 -217q8 -8 4 -16q-15 -19 -23 -12l-254 206zM221 14v1405q0 14 15 15h833q14 0 14 -15v-8q0 -14 -14 -14h-811v-633h713q14 0 14 -14v-9q0 -14 -14 -14h-713v-690h811q14 0 14 -14v-9q0 -14 -14 -14h-833
q-15 0 -15 14z" />
    <glyph glyph-name="Edieresis" unicode="&#xcb;" horiz-adv-x="1202" 
d="M442 1655q-47 0 -47 46t47 46t47 -46t-47 -46zM866 1655q-47 0 -47 46t47 46t47 -46t-47 -46zM221 14v1405q0 14 15 15h833q14 0 14 -15v-8q0 -14 -14 -14h-811v-633h713q14 0 14 -14v-9q0 -14 -14 -14h-713v-690h811q14 0 14 -14v-9q0 -14 -14 -14h-833q-15 0 -15 14z
" />
    <glyph glyph-name="Igrave" unicode="&#xcc;" horiz-adv-x="479" 
d="M440 1593l-372 185q-14 7 -5 21q9 15 21 11l373 -186q10 -6 6 -14l-4 -11q-7 -10 -19 -6zM221 14v1405q0 14 15 15h8q14 0 14 -15v-1405q0 -14 -14 -14h-8q-15 0 -15 14z" />
    <glyph glyph-name="Iacute" unicode="&#xcd;" horiz-adv-x="479" 
d="M74 1593q-12 -4 -19 6l-4 11q-4 8 6 14l373 186q14 5 21 -11q8 -15 -5 -21zM221 14v1405q0 14 15 15h8q14 0 14 -15v-1405q0 -14 -14 -14h-8q-15 0 -15 14z" />
    <glyph glyph-name="Icircumflex" unicode="&#xce;" horiz-adv-x="479" 
d="M-14 1563q-7 -7 -23 12q-4 8 4 16l264 217q8 8 17 0l264 -217q8 -8 4 -16q-15 -19 -22 -12l-254 206zM221 14v1405q0 14 15 15h8q14 0 14 -15v-1405q0 -14 -14 -14h-8q-15 0 -15 14z" />
    <glyph glyph-name="Idieresis" unicode="&#xcf;" horiz-adv-x="479" 
d="M29 1655q-47 0 -47 46t47 46t47 -46t-47 -46zM453 1655q-47 0 -47 46t47 46t47 -46t-47 -46zM221 14v1405q0 14 15 15h8q14 0 14 -15v-1405q0 -14 -14 -14h-8q-15 0 -15 14z" />
    <glyph glyph-name="Eth" unicode="&#xd0;" horiz-adv-x="1533" 
d="M258 37h428q282 0 484 200q202 199 202 481t-202 480t-484 199h-428v-664h592q14 0 14 -14v-8q0 -14 -14 -15h-592v-659zM221 14v682h-82q-14 0 -14 15v8q0 14 14 14h82v686q0 14 15 15h450q299 0 511 -209t212 -507t-212 -508t-511 -210h-450q-15 0 -15 14z" />
    <glyph glyph-name="Ntilde" unicode="&#xd1;" horiz-adv-x="1564" 
d="M702 1837q68 0 95 -40t47 -85q39 -94 108 -94q96 0 140 147q4 14 14 11l16 -4q12 -2 6 -19q-57 -172 -176 -172q-94 0 -145 123q-41 98 -105 98q-96 0 -139 -149q-4 -15 -14 -11l-17 5q-12 4 -6 18q55 172 176 172zM221 14v1440q0 10 10 13t17 -5l1059 -1411v1368
q0 14 14 15h8q14 0 14 -15v-1435q0 -10 -10 -14t-16 5l-1059 1411v-1372q0 -14 -14 -14h-8q-15 0 -15 14z" />
    <glyph glyph-name="Ograve" unicode="&#xd2;" horiz-adv-x="1728" 
d="M1065 1593l-373 185q-12 6 -4 21t21 11l372 -186q10 -6 6 -14l-4 -11q-6 -10 -18 -6zM162 715q0 -293 205 -496t499 -203t498 203q205 203 205 496t-206 497t-499 205q-294 -1 -498 -205t-204 -497zM125 715q0 309 215 524t524 215q310 0 526 -215t216 -523t-216 -522
t-526 -214t-524 213q-215 213 -215 522z" />
    <glyph glyph-name="Oacute" unicode="&#xd3;" horiz-adv-x="1728" 
d="M700 1593q-12 -4 -18 6l-4 11q-4 8 6 14l373 186q13 4 20 -11q8 -15 -4 -21zM162 715q0 -293 205 -496t499 -203t498 203q205 203 205 496t-206 497t-499 205q-294 -1 -498 -205t-204 -497zM125 715q0 309 215 524t524 215q310 0 526 -215t216 -523t-216 -522t-526 -214
t-524 213q-215 213 -215 522z" />
    <glyph glyph-name="Ocircumflex" unicode="&#xd4;" horiz-adv-x="1728" 
d="M608 1563q-7 -7 -22 12q-4 8 4 16l264 217q8 8 16 0l265 -217q8 -8 4 -16q-17 -18 -23 -12l-254 206zM162 715q0 -293 205 -496t499 -203t498 203q205 203 205 496t-206 497t-499 205q-294 -1 -498 -205t-204 -497zM125 715q0 309 215 524t524 215q310 0 526 -215
t216 -523t-216 -522t-526 -214t-524 213q-215 213 -215 522z" />
    <glyph glyph-name="Otilde" unicode="&#xd5;" horiz-adv-x="1728" 
d="M737 1837q68 0 95 -40t47 -85q39 -94 108 -94q96 0 139 147q4 14 15 11l16 -4q12 -2 6 -19q-57 -172 -176 -172q-94 0 -145 123q-41 98 -105 98q-96 0 -139 -149q-4 -15 -14 -11l-17 5q-12 4 -6 18q55 172 176 172zM162 715q0 -293 205 -496t499 -203t498 203
q205 203 205 496t-206 497t-499 205q-294 -1 -498 -205t-204 -497zM125 715q0 309 215 524t524 215q310 0 526 -215t216 -523t-216 -522t-526 -214t-524 213q-215 213 -215 522z" />
    <glyph glyph-name="Odieresis" unicode="&#xd6;" horiz-adv-x="1728" 
d="M653 1655q-47 0 -47 46t47 46t47 -46t-47 -46zM1077 1655q-47 0 -47 46t47 46t47 -46t-47 -46zM162 715q0 -293 205 -496t499 -203t498 203q205 203 205 496t-206 497t-499 205q-294 -1 -498 -205t-204 -497zM125 715q0 309 215 524t524 215q310 0 526 -215t216 -523
t-216 -522t-526 -214t-524 213q-215 213 -215 522z" />
    <glyph glyph-name="multiply" unicode="&#xd7;" 
d="M913 432q0 -6 -4 -8l-6 -6q-2 -4 -8 -4t-10 4l-271 268l-270 -268q-4 -4 -10 -4t-12 7t-7 12q0 5 4 9l269 271l-269 268q-6 10 0 20l7 7q10 6 20 0l268 -269l269 269q10 6 20 0q13 -15 6 -27l-268 -268l268 -271q4 -4 4 -10z" />
    <glyph glyph-name="Oslash" unicode="&#xd8;" horiz-adv-x="1728" 
d="M862 16q298 0 502 203q205 203 205 485t-183 486l-1021 -971q199 -203 497 -203zM162 725q0 -282 176 -479l1022 971q-207 201 -498 201q-292 0 -496 -206q-204 -205 -204 -487zM125 729q0 295 215 510t524 215t522 -213l140 133q8 10 21 -3t3 -23l-139 -134
q195 -218 195 -512t-216 -508t-528 -214t-526 213l-135 -130q-9 -11 -22 3t-3 24l135 131q-186 213 -186 508z" />
    <glyph glyph-name="Ugrave" unicode="&#xd9;" horiz-adv-x="1470" 
d="M936 1593l-373 185q-12 6 -4 21t21 11l372 -186q10 -6 6 -14l-4 -11q-6 -10 -18 -6zM205 516v903q0 14 14 15h8q14 0 15 -15v-903q0 -223 133 -361q133 -139 359 -139t360 138t135 362v903q0 14 14 15h8q14 0 15 -15v-903q0 -240 -144 -388t-388 -148q-243 0 -386 148
t-143 388z" />
    <glyph glyph-name="Uacute" unicode="&#xda;" horiz-adv-x="1470" 
d="M571 1593q-12 -4 -18 6l-4 11q-4 8 6 14l373 186q13 4 20 -11q8 -15 -4 -21zM205 516v903q0 14 14 15h8q14 0 15 -15v-903q0 -223 133 -361q133 -139 359 -139t360 138t135 362v903q0 14 14 15h8q14 0 15 -15v-903q0 -240 -144 -388t-388 -148q-243 0 -386 148t-143 388z
" />
    <glyph glyph-name="Ucircumflex" unicode="&#xdb;" horiz-adv-x="1470" 
d="M479 1563q-7 -7 -22 12q-4 8 4 16l264 217q8 8 16 0l265 -217q8 -8 4 -16q-17 -18 -23 -12l-254 206zM205 516v903q0 14 14 15h8q14 0 15 -15v-903q0 -223 133 -361q133 -139 359 -139t360 138t135 362v903q0 14 14 15h8q14 0 15 -15v-903q0 -240 -144 -388t-388 -148
q-243 0 -386 148t-143 388z" />
    <glyph glyph-name="Udieresis" unicode="&#xdc;" horiz-adv-x="1470" 
d="M524 1655q-47 0 -47 46t47 46t47 -46t-47 -46zM948 1655q-47 0 -47 46t47 46t47 -46t-47 -46zM205 516v903q0 14 14 15h8q14 0 15 -15v-903q0 -223 133 -361q133 -139 359 -139t360 138t135 362v903q0 14 14 15h8q14 0 15 -15v-903q0 -240 -144 -388t-388 -148
q-243 0 -386 148t-143 388z" />
    <glyph glyph-name="Yacute" unicode="&#xdd;" horiz-adv-x="1130" 
d="M389 1593q-12 -4 -18 6l-4 11q-4 8 6 14l372 186q14 5 21 -11q8 -15 -4 -21zM547 14v688l-541 707q-8 12 2 18l12 9q6 4 17 -6l528 -695l529 695q8 12 16 6l12 -9q10 -6 2 -18l-540 -704v-691q0 -14 -15 -14h-8q-14 0 -14 14z" />
    <glyph glyph-name="Thorn" unicode="&#xde;" horiz-adv-x="1212" 
d="M258 289h406q176 0 303 127t127 305t-127 303t-305 125h-404v-860zM221 14v1405q0 14 15 15h8q14 0 14 -15v-235h404q192 0 330 -136t138 -328t-137 -329t-329 -137h-406v-240q0 -14 -14 -14h-8q-15 0 -15 14z" />
    <glyph glyph-name="germandbls" unicode="&#xdf;" horiz-adv-x="1132" 
d="M180 16v922q0 248 84 382t291 134q152 0 245 -96t93 -242t-136 -303q-46 -53 -46 -84t78 -90q77 -59 117 -95t81 -105t41 -140q0 -168 -100 -245t-242 -77t-240 46q-12 6 -8 16l6 12q6 14 19 8q76 -45 212 -45t226 69t90 216q0 102 -76 180q-54 57 -127 116t-93 87
q-21 30 -21 54q0 46 91 142q34 36 62 97q29 61 29 127q0 145 -82 230t-219 85q-188 0 -263 -121t-75 -350v-930q0 -16 -14 -16h-8q-15 0 -15 16z" />
    <glyph glyph-name="agrave" unicode="&#xe0;" horiz-adv-x="997" 
d="M676 1147l-373 184q-12 6 -4 22q8 15 20 11l373 -186q10 -6 2 -25q-6 -10 -18 -6zM127 294q0 -126 83 -203t204 -77t226 54t148 108v350q-148 56 -300 56t-256 -81t-105 -207zM90 293q0 143 114 234t283 91t301 -53v88q0 145 -60 211t-216 66t-281 -70q-16 -8 -25 9t3 24
q133 74 308 74t242 -74t66 -240v-637q0 -16 -14 -16h-8q-14 0 -15 16v107q-173 -145 -387 -145q-124 0 -218 85q-93 87 -93 230z" />
    <glyph glyph-name="aacute" unicode="&#xe1;" horiz-adv-x="997" 
d="M342 1147q-13 -4 -20 10t4 21l372 186q14 5 21 -11q8 -15 -4 -22zM127 294q0 -126 83 -203t204 -77t226 54t148 108v350q-148 56 -300 56t-256 -81t-105 -207zM90 293q0 143 114 234t283 91t301 -53v88q0 145 -60 211t-216 66t-281 -70q-16 -8 -25 9t3 24q133 74 308 74
t242 -74t66 -240v-637q0 -16 -14 -16h-8q-14 0 -15 16v107q-173 -145 -387 -145q-124 0 -218 85q-93 87 -93 230z" />
    <glyph glyph-name="acircumflex" unicode="&#xe2;" horiz-adv-x="997" 
d="M244 1122q-6 -6 -15 2q-13 18 -4 27l264 217q8 8 17 0l264 -217q9 -9 -4 -27q-8 -8 -14 -2l-254 207zM127 294q0 -126 83 -203t204 -77t226 54t148 108v350q-148 56 -300 56t-256 -81t-105 -207zM90 293q0 143 114 234t283 91t301 -53v88q0 145 -60 211t-216 66t-281 -70
q-16 -8 -25 9t3 24q133 74 308 74t242 -74t66 -240v-637q0 -16 -14 -16h-8q-14 0 -15 16v107q-173 -145 -387 -145q-124 0 -218 85q-93 87 -93 230z" />
    <glyph glyph-name="atilde" unicode="&#xe3;" horiz-adv-x="997" 
d="M369 1389q67 0 95 -42t46 -83q39 -94 108 -95q96 0 140 148q4 14 14 10l16 -4q12 -4 7 -18q-57 -172 -177 -172q-94 0 -145 122q-12 29 -19 43t-31 34t-54 22q-96 0 -140 -150q-4 -14 -14 -10l-16 4q-12 2 -6 19q55 172 176 172zM127 294q0 -126 83 -203t204 -77t226 54
t148 108v350q-148 56 -300 56t-256 -81t-105 -207zM90 293q0 143 114 234t283 91t301 -53v88q0 145 -60 211t-216 66t-281 -70q-16 -8 -25 9t3 24q133 74 308 74t242 -74t66 -240v-637q0 -16 -14 -16h-8q-14 0 -15 16v107q-173 -145 -387 -145q-124 0 -218 85
q-93 87 -93 230z" />
    <glyph glyph-name="adieresis" unicode="&#xe4;" horiz-adv-x="997" 
d="M314 1239q-46 0 -46 46t46 46t46 -46t-46 -46zM703 1239q-46 0 -46 46t46 46t46 -46t-46 -46zM127 294q0 -126 83 -203t204 -77t226 54t148 108v350q-148 56 -300 56t-256 -81t-105 -207zM90 293q0 143 114 234t283 91t301 -53v88q0 145 -60 211t-216 66t-281 -70
q-16 -8 -25 9t3 24q133 74 308 74t242 -74t66 -240v-637q0 -16 -14 -16h-8q-14 0 -15 16v107q-173 -145 -387 -145q-124 0 -218 85q-93 87 -93 230z" />
    <glyph glyph-name="aring" unicode="&#xe5;" horiz-adv-x="997" 
d="M491 1075q73 0 125 52t52 125t-52 126q-52 54 -126 54q-72 0 -123 -52t-51 -127q0 -74 50 -126q52 -52 125 -52zM492 1040q-90 0 -152 62t-61 151q0 89 61 151q62 62 152 62t151 -61t61 -151t-60 -152q-62 -62 -152 -62zM127 294q0 -126 83 -203t204 -77t226 54t148 108
v350q-148 56 -300 56t-256 -81t-105 -207zM90 293q0 143 114 234t283 91t301 -53v88q0 145 -60 211t-216 66t-281 -70q-16 -8 -25 9t3 24q133 74 308 74t242 -74t66 -240v-637q0 -16 -14 -16h-8q-14 0 -15 16v107q-173 -145 -387 -145q-124 0 -218 85q-93 87 -93 230z" />
    <glyph glyph-name="ae" unicode="&#xe6;" horiz-adv-x="1687" 
d="M127 294q0 -126 83 -203t204 -77q120 0 228 50t151 106v356q-176 55 -289 56q-166 0 -272 -81t-105 -207zM831 494h717q2 16 2 43q0 173 -110 283t-281 110q-106 0 -195 -43t-141 -119q8 -43 8 -115v-159zM90 294q0 144 115 234t285 90t303 -53v88q-1 145 -61 211
t-208 66q-100 0 -175 -25q-22 -6 -42 -14l-33 -13q-12 -4 -25 -12t-21 -11t-17 7q-12 25 -2 31q119 74 315 74q227 0 283 -150q133 150 339 150t324 -120t119 -310q0 -80 -24 -80h-734v-287q125 -156 321 -156t333 105q12 10 18 -2l8 -15q6 -8 -6 -16q-160 -109 -342 -109
q-227 0 -352 156q-55 -59 -165 -107t-240 -48t-224 85q-92 87 -92 231z" />
    <glyph glyph-name="ccedilla" unicode="&#xe7;" horiz-adv-x="1095" 
d="M113 481q0 207 147 346t361 139t360 -124q10 -10 0 -21l-10 -12q-6 -6 -21 4q-136 117 -330 117t-332 -130t-138 -324t140 -328t332 -134t345 154q10 10 18 2l10 -10q8 -8 0 -18q-22 -26 -70 -63q-128 -99 -309 -102l-90 -135q30 12 84 12t106 -42q52 -43 52 -120
t-52 -125t-140 -48t-154 69q-8 10 0 19q21 17 31 8q53 -59 125 -59t112 36t39 98q0 60 -39 94t-96 34t-100 -19q-8 -4 -16 6q-7 10 -3 17l98 158q-193 16 -327 155t-133 346z" />
    <glyph glyph-name="egrave" unicode="&#xe8;" horiz-adv-x="1107" 
d="M758 1147l-373 184q-12 6 -4 22q8 15 20 11l373 -186q10 -6 2 -25q-6 -10 -18 -6zM971 537q0 173 -112 283q-111 110 -289 110t-295 -125t-123 -311h817q2 16 2 43zM1008 537q0 -80 -25 -80h-831q4 -188 121 -316q118 -127 307 -127q100 0 187 33t136 72q12 10 19 -2
l8 -15q4 -6 -4 -14q-152 -111 -354 -111q-202 1 -330 143q-127 142 -127 355t127 352q128 139 328 139t319 -118q119 -119 119 -311z" />
    <glyph glyph-name="eacute" unicode="&#xe9;" horiz-adv-x="1107" 
d="M410 1147q-12 -4 -19 6q-7 18 2 25l373 186q13 4 20 -11q8 -15 -4 -22zM971 537q0 173 -112 283q-111 110 -289 110t-295 -125t-123 -311h817q2 16 2 43zM1008 537q0 -80 -25 -80h-831q4 -188 121 -316q118 -127 307 -127q100 0 187 33t136 72q12 10 19 -2l8 -15
q4 -6 -4 -14q-152 -111 -354 -111q-202 1 -330 143q-127 142 -127 355t127 352q128 139 328 139t319 -118q119 -119 119 -311z" />
    <glyph glyph-name="ecircumflex" unicode="&#xea;" horiz-adv-x="1107" 
d="M326 1122q-6 -6 -15 2q-13 18 -4 27l264 217q8 8 17 0l264 -217q9 -9 -4 -27q-8 -8 -14 -2l-254 207zM971 537q0 173 -112 283q-111 110 -289 110t-295 -125t-123 -311h817q2 16 2 43zM1008 537q0 -80 -25 -80h-831q4 -188 121 -316q118 -127 307 -127q100 0 187 33
t136 72q12 10 19 -2l8 -15q4 -6 -4 -14q-152 -111 -354 -111q-202 1 -330 143q-127 142 -127 355t127 352q128 139 328 139t319 -118q119 -119 119 -311z" />
    <glyph glyph-name="edieresis" unicode="&#xeb;" horiz-adv-x="1107" 
d="M400 1239q-46 0 -46 46t46 46t46 -46t-46 -46zM789 1239q-46 0 -46 46t46 46t46 -46t-46 -46zM971 537q0 173 -112 283q-111 110 -289 110t-295 -125t-123 -311h817q2 16 2 43zM1008 537q0 -80 -25 -80h-831q4 -188 121 -316q118 -127 307 -127q100 0 187 33t136 72
q12 10 19 -2l8 -15q4 -6 -4 -14q-152 -111 -354 -111q-202 1 -330 143q-127 142 -127 355t127 352q128 139 328 139t319 -118q119 -119 119 -311z" />
    <glyph glyph-name="igrave" unicode="&#xec;" horiz-adv-x="397" 
d="M385 1147l-373 184q-12 6 -4 22q8 15 21 11l372 -186q11 -7 4 -21q-8 -14 -20 -10zM182 16v914q0 16 15 16h8q14 0 14 -16v-914q0 -16 -14 -16h-8q-15 0 -15 16z" />
    <glyph glyph-name="iacute" unicode="&#xed;" horiz-adv-x="397" 
d="M25 1147q-12 -4 -19 6q-7 18 2 25l373 186q13 4 20 -11q8 -15 -4 -22zM180 16v914q0 16 15 16h8q14 0 14 -16v-914q0 -16 -14 -16h-8q-15 0 -15 16z" />
    <glyph glyph-name="icircumflex" unicode="&#xee;" horiz-adv-x="397" 
d="M-51 1122q-6 -6 -15 2q-13 18 -4 27l265 217q8 8 16 0l264 -217q9 -9 -4 -27q-8 -8 -14 -2l-254 207zM180 16v914q0 16 15 16h8q14 0 14 -16v-914q0 -16 -14 -16h-8q-15 0 -15 16z" />
    <glyph glyph-name="idieresis" unicode="&#xef;" horiz-adv-x="397" 
d="M9 1239q-46 0 -46 46t46 46t46 -46t-46 -46zM398 1239q-46 0 -46 46t46 46t46 -46t-46 -46zM180 16v914q0 16 15 16h8q14 0 14 -16v-914q0 -16 -14 -16h-8q-15 0 -15 16z" />
    <glyph glyph-name="eth" unicode="&#xf0;" horiz-adv-x="1212" 
d="M150 470q0 -190 129 -322t309 -132q213 0 337 160t124 406v30q-188 285 -474 285q-173 0 -299 -119t-126 -308zM113 471q0 205 137 334t325 129q281 0 467 -248q-41 332 -329 574l-283 -162q-12 -8 -18 6q-12 18 2 24l268 154q-129 100 -299 168q-11 6 -4 31q4 10 16 6
q162 -55 322 -182l143 81q11 9 23 -10q6 -16 -6 -22l-132 -76q338 -283 338 -696q0 -262 -133 -432t-362 -170q-193 0 -334 143t-141 348z" />
    <glyph glyph-name="ntilde" unicode="&#xf1;" horiz-adv-x="1103" 
d="M434 1391q68 0 97 -43t44 -82q39 -94 109 -95q96 0 139 148q4 14 15 10l16 -4q12 -2 6 -18q-57 -172 -176 -172q-94 0 -145 122q-12 29 -20 43q-7 14 -31 34t-54 22q-96 0 -139 -150q-4 -14 -14 -10l-17 4q-12 4 -6 19q55 172 176 172zM180 16v914q0 16 15 16h8
q14 0 14 -16v-129q156 166 348 166q191 0 281 -110t90 -329v-512q0 -16 -12 -16h-9q-16 0 -16 16v512q0 401 -332 402q-211 0 -350 -182v-732q0 -16 -14 -16h-8q-15 0 -15 16z" />
    <glyph glyph-name="ograve" unicode="&#xf2;" horiz-adv-x="1181" 
d="M774 1147l-373 184q-12 6 -4 22q8 15 21 11l373 -186q10 -6 2 -25q-7 -10 -19 -6zM1032 472q0 190 -128 324t-313 134t-313 -134t-128 -324t128 -324t313 -134t313 134t128 324zM113 474q0 208 138 350t340 142t340 -142t138 -350t-138 -352t-340 -144t-340 144t-138 352
z" />
    <glyph glyph-name="oacute" unicode="&#xf3;" horiz-adv-x="1181" 
d="M416 1147q-12 -4 -19 6q-7 18 2 25l373 186q14 5 21 -11q8 -15 -5 -22zM1032 472q0 190 -128 324t-313 134t-313 -134t-128 -324t128 -324t313 -134t313 134t128 324zM113 474q0 208 138 350t340 142t340 -142t138 -350t-138 -352t-340 -144t-340 144t-138 352z" />
    <glyph glyph-name="ocircumflex" unicode="&#xf4;" horiz-adv-x="1181" 
d="M340 1122q-7 -7 -23 13q-4 8 5 16l264 217q8 8 16 0l264 -217q9 -9 -4 -27q-8 -8 -14 -2l-254 207zM1032 472q0 190 -128 324t-313 134t-313 -134t-128 -324t128 -324t313 -134t313 134t128 324zM113 474q0 208 138 350t340 142t340 -142t138 -350t-138 -352t-340 -144
t-340 144t-138 352z" />
    <glyph glyph-name="otilde" unicode="&#xf5;" horiz-adv-x="1181" 
d="M469 1389q67 0 98 -47l24 -36q7 -13 19 -42q39 -94 109 -95q96 0 139 148q4 14 14 10l17 -4q12 -4 6 -18q-57 -172 -176 -172q-94 0 -146 122q-12 29 -19 43t-31 34t-54 22q-96 0 -139 -150q-5 -14 -15 -10l-16 4q-12 2 -6 19q55 172 176 172zM1032 472q0 190 -128 324
t-313 134t-313 -134t-128 -324t128 -324t313 -134t313 134t128 324zM113 474q0 208 138 350t340 142t340 -142t138 -350t-138 -352t-340 -144t-340 144t-138 352z" />
    <glyph glyph-name="odieresis" unicode="&#xf6;" horiz-adv-x="1181" 
d="M400 1239q-46 0 -46 46t46 46t46 -46t-46 -46zM789 1239q-46 0 -46 46t46 46t46 -46t-46 -46zM1032 472q0 190 -128 324t-313 134t-313 -134t-128 -324t128 -324t313 -134t313 134t128 324zM113 474q0 208 138 350t340 142t340 -142t138 -350t-138 -352t-340 -144
t-340 144t-138 352z" />
    <glyph glyph-name="divide" unicode="&#xf7;" 
d="M557 428q0 20 14 34q15 14 35 13q20 0 34 -13q14 -14 15 -34q0 -20 -14 -34q-15 -14 -35 -15q-20 0 -35 14q-14 15 -14 35zM215 696q-14 0 -14 15v8q0 14 14 14h797q14 0 14 -14v-8q0 -14 -14 -15h-797zM606 952q-20 0 -34 14t-15 35q0 19 14 33q15 14 35 14t34 -12
q14 -14 15 -34q-1 -20 -15 -36q-14 -14 -34 -14z" />
    <glyph glyph-name="oslash" unicode="&#xf8;" horiz-adv-x="1181" 
d="M1032 475q0 150 -84 266l-674 -591q130 -136 316 -136t314 134t128 327zM600 930q-194 0 -322 -134t-128 -311q0 -178 100 -305l674 594q-130 156 -324 156zM113 486q0 196 138 338t349 142t352 -167l33 28q11 8 25 -6t2 -24l-35 -31q92 -129 92 -291q0 -209 -138 -353
t-343 -144t-342 147l-39 -35q-10 -10 -25 3q-14 13 -2 26l41 37q-108 134 -108 330z" />
    <glyph glyph-name="ugrave" unicode="&#xf9;" horiz-adv-x="1081" 
d="M713 1147l-373 184q-12 6 -4 22q8 15 20 11l373 -186q10 -6 2 -25q-6 -10 -18 -6zM168 412v518q0 16 12 16h13q12 0 12 -16v-518q0 -395 332 -396q209 0 327 187v727q0 16 15 16h10q12 0 12 -16v-914q0 -16 -12 -16h-10q-14 0 -15 16v125q-139 -164 -328 -164t-279 109
q-89 109 -89 326z" />
    <glyph glyph-name="uacute" unicode="&#xfa;" horiz-adv-x="1081" 
d="M354 1147q-14 -5 -20 10q-6 14 4 21l373 186q13 4 20 -11q8 -15 -4 -22zM168 412v518q0 16 12 16h13q12 0 12 -16v-518q0 -395 332 -396q209 0 327 187v727q0 16 15 16h10q12 0 12 -16v-914q0 -16 -12 -16h-10q-14 0 -15 16v125q-139 -164 -328 -164t-279 109
q-89 109 -89 326z" />
    <glyph glyph-name="ucircumflex" unicode="&#xfb;" horiz-adv-x="1081" 
d="M276 1122q-7 -7 -17 7q-9 14 -1 22l264 217q8 8 17 0l264 -217q9 -9 -4 -27q-8 -8 -15 -2l-254 207zM168 412v518q0 16 12 16h13q12 0 12 -16v-518q0 -395 332 -396q209 0 327 187v727q0 16 15 16h10q12 0 12 -16v-914q0 -16 -12 -16h-10q-14 0 -15 16v125
q-139 -164 -328 -164t-279 109q-89 109 -89 326z" />
    <glyph glyph-name="udieresis" unicode="&#xfc;" horiz-adv-x="1081" 
d="M337 1239q-46 0 -46 46t46 46t46 -46t-46 -46zM726 1239q-46 0 -46 46t46 46t46 -46t-46 -46zM168 412v518q0 16 12 16h13q12 0 12 -16v-518q0 -395 332 -396q209 0 327 187v727q0 16 15 16h10q12 0 12 -16v-914q0 -16 -12 -16h-10q-14 0 -15 16v125q-139 -164 -328 -164
t-279 109q-89 109 -89 326z" />
    <glyph glyph-name="yacute" unicode="&#xfd;" horiz-adv-x="962" 
d="M307 1147q-14 -5 -20 10q-6 14 4 21l373 186q13 4 20 -11q8 -15 -4 -22zM465 16l-420 920q-6 10 2 16l12 6q12 6 17 -8l409 -897l400 897q4 14 16 8l12 -6q8 -6 2 -16l-634 -1423q-8 -18 -24 -9q-17 8 -9 23z" />
    <glyph glyph-name="thorn" unicode="&#xfe;" horiz-adv-x="1138" 
d="M569 16q186 0 302 140t118 324q2 182 -117 316t-313 134q-90 0 -174 -37t-123 -70t-45 -45v-588q129 -174 352 -174zM217 -471q0 -16 -14 -16h-10q-12 0 -13 16v1888q0 16 13 17h10q14 0 14 -17v-583q147 133 352 133q205 1 331 -141t126 -342t-127 -354
q-127 -153 -336 -153t-346 154v-602z" />
    <glyph glyph-name="ydieresis" unicode="&#xff;" horiz-adv-x="962" 
d="M292 1239q-46 0 -46 46t46 46t46 -46t-46 -46zM681 1239q-46 0 -46 46t46 46t46 -46t-46 -46zM465 16l-420 920q-6 10 2 16l12 6q12 6 17 -8l409 -897l400 897q4 14 16 8l12 -6q8 -6 2 -16l-634 -1423q-8 -18 -24 -9q-17 8 -9 23z" />
    <glyph glyph-name="Amacron" unicode="&#x100;" horiz-adv-x="1296" 
d="M354 1724q-14 0 -14 15v8q0 14 14 14h590q14 0 14 -14v-8q0 -14 -14 -15h-590zM244 465h805l-398 938zM653 1477q6 0 11 -9l618 -1454q4 -10 -6 -12l-19 -6q-6 -2 -10 6l-182 428h-838l-184 -428q-4 -8 -10 -6l-19 6q-10 2 -6 12l631 1454q4 8 10 9h4z" />
    <glyph glyph-name="amacron" unicode="&#x101;" horiz-adv-x="997" 
d="M207 1243q-14 0 -14 14v9q0 14 14 14h590q14 0 14 -14v-9q0 -14 -14 -14h-590zM127 294q0 -126 83 -203t204 -77t226 54t148 108v350q-148 56 -300 56t-256 -81t-105 -207zM90 293q0 143 114 234t283 91t301 -53v88q0 145 -60 211t-216 66t-281 -70q-16 -8 -25 9t3 24
q133 74 308 74t242 -74t66 -240v-637q0 -16 -14 -16h-8q-14 0 -15 16v107q-173 -145 -387 -145q-124 0 -218 85q-93 87 -93 230z" />
    <glyph glyph-name="Abreve" unicode="&#x102;" horiz-adv-x="1296" 
d="M648 1597q-101 -1 -173 63t-86 159q-2 4 3 9t9 5h15q10 0 10 -12q12 -82 74 -134q62 -53 149 -53q85 0 147 52t76 135q0 12 11 12h14q4 0 9 -5t3 -9q-16 -96 -88 -159t-173 -63zM244 465h805l-398 938zM653 1477q6 0 11 -9l618 -1454q4 -10 -6 -12l-19 -6q-6 -2 -10 6
l-182 428h-838l-184 -428q-4 -8 -10 -6l-19 6q-10 2 -6 12l631 1454q4 8 10 9h4z" />
    <glyph glyph-name="abreve" unicode="&#x103;" horiz-adv-x="997" 
d="M498 1116q-100 0 -173 62t-87 157q-2 5 3 11t9 6h14q10 0 10 -13q12 -84 74 -135t148 -51q88 0 149 51t76 135q0 12 10 13h14q3 0 9 -5t4 -12q-16 -95 -88 -157t-172 -62zM127 294q0 -126 83 -203t204 -77t226 54t148 108v350q-148 56 -300 56t-256 -81t-105 -207z
M90 293q0 143 114 234t283 91t301 -53v88q0 145 -60 211t-216 66t-281 -70q-16 -8 -25 9t3 24q133 74 308 74t242 -74t66 -240v-637q0 -16 -14 -16h-8q-14 0 -15 16v107q-173 -145 -387 -145q-124 0 -218 85q-93 87 -93 230z" />
    <glyph glyph-name="Aogonek" unicode="&#x104;" horiz-adv-x="1296" 
d="M244 465h805l-398 938zM653 1477q6 0 11 -9l618 -1454q4 -10 -6 -12q-258 -102 -258 -303q0 -63 39 -107t95 -43t84 15q29 14 48 24l19 11q12 6 16 -5l6 -12q6 -12 -14 -22q-94 -47 -163 -47t-118 52q-49 51 -49 151t78 181t180 123l-174 410h-838l-184 -428
q-4 -8 -10 -6l-19 6q-10 2 -6 12l631 1454q4 8 10 9h4z" />
    <glyph glyph-name="aogonek" unicode="&#x105;" horiz-adv-x="995" 
d="M127 294q0 -126 83 -203t204 -77t226 54t148 108v350q-148 56 -300 56t-256 -81t-105 -207zM90 293q0 143 114 234t283 91t301 -53v88q0 145 -60 211t-216 66t-281 -70q-16 -8 -25 9t3 24q133 74 308 74t242 -74t66 -240v-633q0 -12 -14 -20q-68 -35 -113 -66
q-45 -32 -90 -96t-45 -133t39 -113t95 -43t85 15t47 24l19 11q12 6 16 -5l6 -12q6 -12 -14 -22q-94 -47 -162 -47t-119 52q-49 52 -49 134q0 195 262 328v96q-173 -145 -387 -145q-124 0 -218 85q-93 87 -93 230z" />
    <glyph glyph-name="Cacute" unicode="&#x106;" horiz-adv-x="1482" 
d="M707 1593q-12 -4 -19 6l-4 11q-4 8 6 14l373 186q13 4 20 -11q8 -15 -4 -21zM123 716q0 308 217 523t526 215q270 0 498 -190q9 -9 -8 -29q-8 -8 -17 0q-211 182 -489 182t-484 -205q-206 -206 -206 -498t206 -495t485 -203t488 191q10 10 17 0l10 -12q6 -6 0 -15
q-209 -200 -509 -200t-517 214t-217 522z" />
    <glyph glyph-name="cacute" unicode="&#x107;" horiz-adv-x="1095" 
d="M444 1147q-14 -5 -20 10q-6 14 4 21l373 186q13 4 20 -11q8 -15 -4 -22zM113 476q0 212 147 351t361 139t360 -124q10 -10 0 -21l-10 -12q-6 -6 -21 4q-136 117 -330 117t-332 -130t-138 -324t140 -328t332 -134t345 154q10 10 18 2l10 -10q8 -8 0 -18q-22 -26 -70 -63
q-128 -99 -321 -101t-342 142t-149 356z" />
    <glyph glyph-name="Ccircumflex" unicode="&#x108;" horiz-adv-x="1482" 
d="M614 1563q-7 -7 -22 12q-4 8 4 16l264 217q8 8 17 0l264 -217q8 -8 4 -16q-15 -19 -23 -12l-254 206zM123 716q0 308 217 523t526 215q270 0 498 -190q9 -9 -8 -29q-8 -8 -17 0q-211 182 -489 182t-484 -205q-206 -206 -206 -498t206 -495t485 -203t488 191q10 10 17 0
l10 -12q6 -6 0 -15q-209 -200 -509 -200t-517 214t-217 522z" />
    <glyph glyph-name="ccircumflex" unicode="&#x109;" horiz-adv-x="1095" 
d="M356 1122q-7 -7 -17 7q-9 14 -1 22l264 217q8 8 16 0l265 -217q9 -9 -4 -27q-8 -8 -15 -2l-254 207zM113 476q0 212 147 351t361 139t360 -124q10 -10 0 -21l-10 -12q-6 -6 -21 4q-136 117 -330 117t-332 -130t-138 -324t140 -328t332 -134t345 154q10 10 18 2l10 -10
q8 -8 0 -18q-22 -26 -70 -63q-128 -99 -321 -101t-342 142t-149 356z" />
    <glyph glyph-name="Cdotaccent" unicode="&#x10a;" horiz-adv-x="1482" 
d="M868 1677q-20 1 -33 15q-30 34 0 68q13 16 33 16t34 -16t13 -34q1 -20 -13 -34t-34 -15zM123 716q0 308 217 523t526 215q270 0 498 -190q9 -9 -8 -29q-8 -8 -17 0q-211 182 -489 182t-484 -205q-206 -206 -206 -498t206 -495t485 -203t488 191q10 10 17 0l10 -12
q6 -6 0 -15q-209 -200 -509 -200t-517 214t-217 522z" />
    <glyph glyph-name="cdotaccent" unicode="&#x10b;" horiz-adv-x="1095" 
d="M612 1239q-20 0 -33 14q-31 33 0 69q13 15 33 15t34 -15q14 -14 13 -34q0 -20 -13 -35q-14 -14 -34 -14zM113 476q0 212 147 351t361 139t360 -124q10 -10 0 -21l-10 -12q-6 -6 -21 4q-136 117 -330 117t-332 -130t-138 -324t140 -328t332 -134t345 154q10 10 18 2
l10 -10q8 -8 0 -18q-22 -26 -70 -63q-128 -99 -321 -101t-342 142t-149 356z" />
    <glyph glyph-name="Ccaron" unicode="&#x10c;" horiz-adv-x="1482" 
d="M860 1579l-264 217q-9 9 4 27q8 8 14 2l254 -207l254 207q6 6 15 -2q13 -18 4 -27l-264 -217q-9 -8 -17 0zM123 716q0 308 217 523t526 215q270 0 498 -190q9 -9 -8 -29q-8 -8 -17 0q-211 182 -489 182t-484 -205q-206 -206 -206 -498t206 -495t485 -203t488 191
q10 10 17 0l10 -12q6 -6 0 -15q-209 -200 -509 -200t-517 214t-217 522z" />
    <glyph glyph-name="ccaron" unicode="&#x10d;" horiz-adv-x="1095" 
d="M602 1133l-264 217q-8 8 -4 16q15 19 22 12l254 -207l254 207q7 7 23 -12q4 -8 -4 -16l-265 -217q-8 -8 -16 0zM113 476q0 212 147 351t361 139t360 -124q10 -10 0 -21l-10 -12q-6 -6 -21 4q-136 117 -330 117t-332 -130t-138 -324t140 -328t332 -134t345 154q10 10 18 2
l10 -10q8 -8 0 -18q-22 -26 -70 -63q-128 -99 -321 -101t-342 142t-149 356z" />
    <glyph glyph-name="Dcaron" unicode="&#x10e;" horiz-adv-x="1490" 
d="M612 1579l-264 217q-9 9 4 27q8 8 15 2l254 -207l253 207q6 6 15 -2q13 -18 4 -27l-264 -217q-9 -8 -17 0zM256 37h387q285 0 487 200q202 199 201 481q0 282 -202 480t-486 199h-387v-1360zM221 14v1405q0 14 12 15h410q299 0 511 -209t212 -507t-212 -508t-511 -210
h-410q-12 0 -12 14z" />
    <glyph glyph-name="dcaron" unicode="&#x10f;" horiz-adv-x="1157" 
d="M582 930q-188 0 -309 -129t-121 -323t122 -327q122 -134 291 -135q233 0 359 174v588q-14 16 -42 42t-117 68t-183 42zM565 -23q-186 -1 -318 145t-132 357t130 349t337 139q152 0 279 -86q32 -20 48 -33l15 -14v583q0 16 14 17h8q14 0 15 -17v-1401q0 -16 -15 -16h-8
q-14 0 -14 16v115q-139 -154 -359 -154zM1140 1356q-22 0 -38 14q-15 14 -15 34q-1 22 15 36t39 14q86 0 86 -125t-72 -184q-10 -8 -18 0l-11 12q-10 12 4 23q55 43 56 129q0 41 -12 59q-12 -12 -34 -12z" />
    <glyph glyph-name="Dcroat" unicode="&#x110;" horiz-adv-x="1533" 
d="M258 37h428q282 0 484 200q202 199 202 481t-202 480t-484 199h-428v-664h592q14 0 14 -14v-8q0 -14 -14 -15h-592v-659zM221 14v682h-82q-14 0 -14 15v8q0 14 14 14h82v686q0 14 15 15h450q299 0 511 -209t212 -507t-212 -508t-511 -210h-450q-15 0 -15 14z" />
    <glyph glyph-name="dcroat" unicode="&#x111;" horiz-adv-x="1140" 
d="M582 930q-188 0 -309 -129t-121 -323t122 -327q122 -134 291 -135q233 0 359 174v588q-14 16 -42 42t-117 68t-183 42zM565 -23q-186 -1 -318 145t-132 357t130 349t337 139q152 0 279 -86q32 -20 48 -33l15 -14v288h-467q-14 0 -15 15v8q0 14 15 14h467v258q0 16 14 17
h8q14 0 15 -17v-258h88q14 0 14 -14v-8q0 -14 -14 -15h-88v-1106q0 -16 -15 -16h-8q-14 0 -14 16v115q-139 -154 -359 -154z" />
    <glyph glyph-name="Emacron" unicode="&#x112;" horiz-adv-x="1202" 
d="M358 1724q-14 0 -14 15v8q0 14 14 14h590q14 0 15 -14v-8q0 -14 -15 -15h-590zM221 14v1405q0 14 15 15h833q14 0 14 -15v-8q0 -14 -14 -14h-811v-633h713q14 0 14 -14v-9q0 -14 -14 -14h-713v-690h811q14 0 14 -14v-9q0 -14 -14 -14h-833q-15 0 -15 14z" />
    <glyph glyph-name="emacron" unicode="&#x113;" horiz-adv-x="1107" 
d="M276 1243q-14 0 -14 14v9q0 14 14 14h590q14 0 15 -14v-9q0 -14 -15 -14h-590zM971 537q0 173 -112 283q-111 110 -289 110t-295 -125t-123 -311h817q2 16 2 43zM1008 537q0 -80 -25 -80h-831q4 -188 121 -316q118 -127 307 -127q100 0 187 33t136 72q12 10 19 -2l8 -15
q4 -6 -4 -14q-152 -111 -354 -111q-202 1 -330 143q-127 142 -127 355t127 352q128 139 328 139t319 -118q119 -119 119 -311z" />
    <glyph glyph-name="Ebreve" unicode="&#x114;" horiz-adv-x="1202" 
d="M652 1597q-101 -1 -173 63t-86 159q-2 4 3 9t10 5h14q10 0 10 -12q12 -82 74 -134q62 -53 149 -53q85 0 147 52t77 135q0 12 10 12h14q4 0 9 -5t3 -9q-16 -96 -88 -159t-173 -63zM221 14v1405q0 14 15 15h833q14 0 14 -15v-8q0 -14 -14 -14h-811v-633h713q14 0 14 -14v-9
q0 -14 -14 -14h-713v-690h811q14 0 14 -14v-9q0 -14 -14 -14h-833q-15 0 -15 14z" />
    <glyph glyph-name="ebreve" unicode="&#x115;" horiz-adv-x="1107" 
d="M569 1116q-100 0 -173 62t-87 157q-2 5 3 11t10 6h14q10 0 10 -13q12 -84 74 -135t148 -51q87 0 149 51q61 51 76 135q0 12 10 13h14q4 0 9 -5t3 -12q-16 -95 -88 -157t-172 -62zM971 537q0 173 -112 283q-111 110 -289 110t-295 -125t-123 -311h817q2 16 2 43zM1008 537
q0 -80 -25 -80h-831q4 -188 121 -316q118 -127 307 -127q100 0 187 33t136 72q12 10 19 -2l8 -15q4 -6 -4 -14q-152 -111 -354 -111q-202 1 -330 143q-127 142 -127 355t127 352q128 139 328 139t319 -118q119 -119 119 -311z" />
    <glyph glyph-name="Edotaccent" unicode="&#x116;" horiz-adv-x="1202" 
d="M651 1677q-19 1 -33 15t-14 33t13 35t33 16t34 -16t14 -34q0 -20 -14 -34t-33 -15zM221 14v1405q0 14 15 15h833q14 0 14 -15v-8q0 -14 -14 -14h-811v-633h713q14 0 14 -14v-9q0 -14 -14 -14h-713v-690h811q14 0 14 -14v-9q0 -14 -14 -14h-833q-15 0 -15 14z" />
    <glyph glyph-name="edotaccent" unicode="&#x117;" horiz-adv-x="1107" 
d="M580 1239q-20 0 -34 14q-31 33 0 69q14 15 34 15t33 -15q31 -36 0 -69q-13 -14 -33 -14zM971 537q0 173 -112 283q-111 110 -289 110t-295 -125t-123 -311h817q2 16 2 43zM1008 537q0 -80 -25 -80h-831q4 -188 121 -316q118 -127 307 -127q100 0 187 33t136 72
q12 10 19 -2l8 -15q4 -6 -4 -14q-152 -111 -354 -111q-202 1 -330 143q-127 142 -127 355t127 352q128 139 328 139t319 -118q119 -119 119 -311z" />
    <glyph glyph-name="Eogonek" unicode="&#x118;" horiz-adv-x="1204" 
d="M221 14v1405q0 14 15 15h833q14 0 14 -15v-8q0 -14 -14 -14h-811v-633h713q14 0 14 -14v-9q0 -14 -14 -14h-713v-690h811q14 0 14 -14v-5q0 -8 -16 -18q-135 -80 -191 -144t-57 -142q0 -78 39 -122t95 -43t85 15t47 24l19 11q12 6 16 -5l6 -12q6 -12 -14 -22
q-94 -47 -162 -47t-119 52q-49 52 -49 134q0 174 217 301h-763q-15 0 -15 14z" />
    <glyph glyph-name="eogonek" unicode="&#x119;" horiz-adv-x="1107" 
d="M969 537q0 173 -111 283q-110 110 -288 110t-293 -125t-121 -311h811q2 16 2 43zM1008 537q0 -80 -25 -80h-827q4 -190 119 -317q116 -126 305 -126q100 0 187 33t136 72q12 10 19 -2l8 -15q4 -6 -4 -14q-78 -57 -178 -86q-185 -98 -230 -195q-22 -49 -22 -110t39 -105
t95 -43t84 15q29 14 48 24l18 11q12 6 17 -5l6 -12q6 -12 -15 -22q-94 -47 -162 -47t-118 52q-49 52 -49 134q0 162 182 283q-41 -4 -61 -5q-211 1 -338 143t-127 355t127 352q128 139 328 139t319 -118q119 -119 119 -311z" />
    <glyph glyph-name="Ecaron" unicode="&#x11a;" horiz-adv-x="1202" 
d="M643 1579l-264 217q-9 9 4 27q8 8 14 2l254 -207l254 207q6 6 15 -2q13 -18 4 -27l-265 -217q-8 -8 -16 0zM221 14v1405q0 14 15 15h833q14 0 14 -15v-8q0 -14 -14 -14h-811v-633h713q14 0 14 -14v-9q0 -14 -14 -14h-713v-690h811q14 0 14 -14v-9q0 -14 -14 -14h-833
q-15 0 -15 14z" />
    <glyph glyph-name="ecaron" unicode="&#x11b;" horiz-adv-x="1107" 
d="M571 1133l-264 217q-8 8 -4 16q15 19 23 12l254 -207l254 207q7 7 22 -12q4 -8 -4 -16l-264 -217q-9 -8 -17 0zM971 537q0 173 -112 283q-111 110 -289 110t-295 -125t-123 -311h817q2 16 2 43zM1008 537q0 -80 -25 -80h-831q4 -188 121 -316q118 -127 307 -127
q100 0 187 33t136 72q12 10 19 -2l8 -15q4 -6 -4 -14q-152 -111 -354 -111q-202 1 -330 143q-127 142 -127 355t127 352q128 139 328 139t319 -118q119 -119 119 -311z" />
    <glyph glyph-name="Gcircumflex" unicode="&#x11c;" horiz-adv-x="1540" 
d="M612 1563q-7 -7 -22 12q-4 8 4 16l264 217q8 8 16 0l265 -217q8 -8 4 -16q-15 -19 -23 -12l-254 206zM123 716q0 308 217 523t526 215q270 0 498 -190q9 -9 -8 -29q-8 -8 -17 0q-211 182 -489 182t-484 -205q-206 -206 -206 -498t206 -495t500 -203q125 0 260 36t222 106
v481h-465q-14 0 -15 14v9q0 12 15 12h487q14 0 14 -12v-519q-12 -18 -65 -53t-180 -73t-273 -37q-309 0 -526 214t-217 522z" />
    <glyph glyph-name="gcircumflex" unicode="&#x11d;" horiz-adv-x="1138" 
d="M922 -31v125q-131 -117 -337 -117q-206 -1 -338 141t-132 356t131 353t334 139t342 -122v86q0 16 14 16h8q14 0 14 -16v-961q0 -199 -110 -309t-285 -109q-174 0 -315 123q-14 14 -6 23l8 10q6 6 18 -2q131 -117 291 -117q159 0 261 100t102 281zM580 930
q-184 0 -306 -130t-122 -326t122 -328t326 -132q88 0 182 40t140 100v630q-37 62 -142 104q-104 42 -200 42zM346 1122q-7 -7 -17 7q-9 14 -1 22l264 217q8 8 16 0l264 -217q8 -8 5 -16q-16 -20 -23 -13l-254 207z" />
    <glyph glyph-name="Gbreve" unicode="&#x11e;" horiz-adv-x="1540" 
d="M867 1597q-101 -1 -173 63t-86 159q-2 4 3 9t10 5h14q10 0 10 -12q13 -82 75 -134q62 -53 148 -53t148 52t76 135q0 12 10 12h14q4 0 9 -5t3 -9q-16 -96 -88 -159t-173 -63zM123 716q0 308 217 523t526 215q270 0 498 -190q9 -9 -8 -29q-8 -8 -17 0q-211 182 -489 182
t-484 -205q-206 -206 -206 -498t206 -495t500 -203q125 0 260 36t222 106v481h-465q-14 0 -15 14v9q0 12 15 12h487q14 0 14 -12v-519q-12 -18 -65 -53t-180 -73t-273 -37q-309 0 -526 214t-217 522z" />
    <glyph glyph-name="gbreve" unicode="&#x11f;" horiz-adv-x="1138" 
d="M922 -31v125q-131 -117 -337 -117q-206 -1 -338 141t-132 356t131 353t334 139t342 -122v86q0 16 14 16h8q14 0 14 -16v-961q0 -199 -110 -309t-285 -109q-174 0 -315 123q-14 14 -6 23l8 10q6 6 18 -2q131 -117 291 -117q159 0 261 100t102 281zM580 930
q-184 0 -306 -130t-122 -326t122 -328t326 -132q88 0 182 40t140 100v630q-37 62 -142 104q-104 42 -200 42zM602 1116q-100 0 -173 62t-87 157q-2 5 3 11t9 6h11q10 0 10 -13q11 -84 75 -137t151 -53t151 53q63 53 77 137q0 12 11 13h10q4 0 9 -5t3 -12q-16 -95 -88 -157
t-172 -62z" />
    <glyph glyph-name="Gdotaccent" unicode="&#x120;" horiz-adv-x="1540" 
d="M866 1677q-20 1 -33 15q-30 34 0 68q13 16 33 16t34 -16t13 -34q1 -20 -13 -34t-34 -15zM123 716q0 308 217 523t526 215q270 0 498 -190q9 -9 -8 -29q-8 -8 -17 0q-211 182 -489 182t-484 -205q-206 -206 -206 -498t206 -495t500 -203q125 0 260 36t222 106v481h-465
q-14 0 -15 14v9q0 12 15 12h487q14 0 14 -12v-519q-12 -18 -65 -53t-180 -73t-273 -37q-309 0 -526 214t-217 522z" />
    <glyph glyph-name="gdotaccent" unicode="&#x121;" horiz-adv-x="1138" 
d="M584 1239q-20 0 -34 14q-13 13 -13 33t13 36q14 16 34 15q20 0 33 -15q31 -36 0 -69q-13 -14 -33 -14zM922 -31v125q-131 -117 -337 -117q-206 -1 -338 141t-132 356t131 353t334 139t342 -122v86q0 16 14 16h8q14 0 14 -16v-961q0 -199 -110 -309t-285 -109
q-174 0 -315 123q-14 14 -6 23l8 10q6 6 18 -2q131 -117 291 -117q159 0 261 100t102 281zM580 930q-184 0 -306 -130t-122 -326t122 -328t326 -132q88 0 182 40t140 100v630q-37 62 -142 104q-104 42 -200 42z" />
    <glyph glyph-name="Gcommaaccent" unicode="&#x122;" horiz-adv-x="1538" 
d="M793 -220q0 22 15 36t38 14q86 0 86 -125t-72 -184q-10 -8 -18 0l-11 12q-10 12 5 23q55 43 55 129q0 41 -12 59q-13 -12 -35 -12t-37 13q-14 13 -14 35zM123 716q0 308 217 523t526 215q270 0 498 -190q9 -9 -8 -29q-8 -8 -17 0q-211 182 -489 182t-484 -205
q-206 -206 -206 -498t206 -495t500 -203q125 0 260 36t222 106v481h-465q-14 0 -15 14v9q0 12 15 12h487q14 0 14 -12v-519q-12 -18 -65 -53t-180 -73t-273 -37q-309 0 -526 214t-217 522z" />
    <glyph glyph-name="gcommaaccent" unicode="&#x123;" horiz-adv-x="1138" 
d="M659 1230q0 -22 -15 -36t-38 -14q-86 0 -86 125t72 184q10 8 18 0l11 -12q10 -12 -5 -23q-55 -43 -55 -129q0 -41 12 -59q13 12 35 12t37 -13q14 -13 14 -35zM922 -31v125q-131 -117 -337 -117q-206 -1 -338 141t-132 356t131 353t334 139t342 -122v86q0 16 14 16h8
q14 0 14 -16v-961q0 -199 -110 -309t-285 -109q-174 0 -315 123q-14 14 -6 23l8 10q6 6 18 -2q131 -117 291 -117q159 0 261 100t102 281zM580 930q-184 0 -306 -130t-122 -326t122 -328t326 -132q88 0 182 40t140 100v630q-37 62 -142 104q-104 42 -200 42z" />
    <glyph glyph-name="Hcircumflex" unicode="&#x124;" horiz-adv-x="1523" 
d="M506 1563q-6 -6 -23 12q-4 8 4 16l265 217q8 8 16 0l264 -217q8 -8 4 -16q-15 -19 -22 -12l-254 206zM221 14v1405q0 14 15 15h8q14 0 14 -15v-655h1008v655q0 14 14 15h8q14 0 15 -15v-1405q0 -14 -15 -14h-8q-14 0 -14 14v713h-1008v-713q0 -14 -14 -14h-8
q-15 0 -15 14z" />
    <glyph glyph-name="hcircumflex" unicode="&#x125;" horiz-adv-x="1103" 
d="M-70 1567q-7 -7 -22 12q-4 8 4 16l264 217q8 8 17 0l264 -217q8 -8 4 -16q-15 -19 -23 -12l-254 207zM182 16v1401q0 16 15 17h8q14 0 14 -17v-624q164 174 350 174q371 0 371 -439v-512q0 -16 -14 -16h-8q-14 0 -15 16v512q0 401 -334 402q-201 0 -350 -195v-719
q0 -16 -14 -16h-8q-15 0 -15 16z" />
    <glyph glyph-name="Hbar" unicode="&#x126;" horiz-adv-x="1523" 
d="M258 764h1008v358h-1008v-358zM221 14v1108h-59q-14 0 -15 15v8q0 14 15 14h59v260q0 14 15 15h8q14 0 14 -15v-260h1008v260q0 14 14 15h8q14 0 15 -15v-260h65q14 0 14 -14v-8q0 -14 -14 -15h-65v-1108q0 -14 -15 -14h-8q-14 0 -14 14v713h-1008v-713q0 -14 -14 -14h-8
q-15 0 -15 14z" />
    <glyph glyph-name="hbar" unicode="&#x127;" horiz-adv-x="1146" 
d="M180 16v1106h-90q-14 0 -14 15v8q0 14 14 14h90v258q0 16 15 17h8q14 0 14 -17v-258h465q14 0 14 -14v-8q0 -14 -14 -15h-465v-329q164 174 364 174q398 0 398 -439v-512q0 -16 -14 -16h-9q-14 0 -14 16v512q0 193 -92 297t-262 105q-94 0 -184 -47t-128 -83
q-37 -36 -59 -65v-719q0 -16 -14 -16h-8q-15 0 -15 16z" />
    <glyph glyph-name="Itilde" unicode="&#x128;" horiz-adv-x="479" 
d="M113 1837q67 0 94 -40t47 -85q39 -94 108 -94q96 0 140 147q4 14 14 11l16 -4q12 -2 7 -19q-57 -172 -177 -172q-94 0 -145 123q-12 29 -19 43q-7 15 -31 35t-54 20q-96 0 -140 -149q-4 -15 -14 -11l-16 5q-12 4 -6 18q55 172 176 172zM221 14v1405q0 14 15 15h8
q14 0 14 -15v-1405q0 -14 -14 -14h-8q-15 0 -15 14z" />
    <glyph glyph-name="itilde" unicode="&#x129;" horiz-adv-x="397" 
d="M80 1389q67 0 98 -47l24 -36q7 -13 19 -42q39 -94 109 -95q96 0 139 148q4 14 14 10l17 -4q12 -4 6 -18q-57 -172 -176 -172q-94 0 -146 122q-12 29 -19 43t-31 34t-54 22q-96 0 -139 -150q-5 -14 -15 -10l-16 4q-12 2 -6 19q55 172 176 172zM182 16v914q0 16 15 16h8
q14 0 14 -16v-914q0 -16 -14 -16h-8q-15 0 -15 16z" />
    <glyph glyph-name="Imacron" unicode="&#x12a;" horiz-adv-x="479" 
d="M-57 1724q-14 0 -15 15v8q0 14 15 14h589q14 0 15 -14v-8q0 -14 -15 -15h-589zM221 14v1405q0 14 15 15h8q14 0 14 -15v-1405q0 -14 -14 -14h-8q-15 0 -15 14z" />
    <glyph glyph-name="imacron" unicode="&#x12b;" horiz-adv-x="397" 
d="M-92 1243q-14 0 -14 14v9q0 14 14 14h590q14 0 14 -14v-9q0 -14 -14 -14h-590zM180 16v914q0 16 15 16h8q14 0 14 -16v-914q0 -16 -14 -16h-8q-15 0 -15 16z" />
    <glyph glyph-name="Ibreve" unicode="&#x12c;" horiz-adv-x="479" 
d="M237 1597q-101 -1 -173 63t-87 159q-3 4 3 9t10 5h14q10 0 10 -12q12 -82 74 -134q62 -53 150 -53q86 0 147 52t76 135q0 12 10 12h14q3 0 9 -5t4 -9q-16 -96 -88 -159t-173 -63zM221 14v1405q0 14 15 15h8q14 0 14 -15v-1405q0 -14 -14 -14h-8q-15 0 -15 14z" />
    <glyph glyph-name="ibreve" unicode="&#x12d;" horiz-adv-x="397" 
d="M203 1116q-100 0 -173 62t-87 157q-2 5 3 11t9 6h14q10 0 11 -13q12 -84 73 -135t149 -51t148 51q61 51 76 135q0 12 10 13h15q4 0 9 -5t3 -12q-16 -95 -88 -157t-172 -62zM180 16v914q0 16 15 16h8q14 0 14 -16v-914q0 -16 -14 -16h-8q-15 0 -15 16z" />
    <glyph glyph-name="Iogonek" unicode="&#x12e;" horiz-adv-x="479" 
d="M124 -487q-69 0 -118 52t-49 134q0 195 264 330v1390q0 14 15 15h8q14 0 14 -15v-1396q0 -15 -14 -23q-179 -92 -228 -195q-22 -49 -22 -109t39 -104t95 -43t84 15q29 14 48 24l19 11q12 6 16 -5l6 -12q6 -12 -14 -22q-94 -47 -163 -47z" />
    <glyph glyph-name="iogonek" unicode="&#x12f;" horiz-adv-x="397" 
d="M201 1239q-20 0 -34 14q-13 13 -13 33t13 36t33 15q20 0 34 -15q31 -36 0 -69q-13 -14 -33 -14zM217 23q0 -14 -14 -23q-101 -58 -153 -103q-97 -84 -95 -198q0 -63 39 -107q38 -44 94 -43t85 15t48 24l19 11q12 6 16 -5l6 -12q6 -12 -14 -22q-94 -47 -163 -47t-118 52
t-49 134q0 190 262 324v907q0 16 15 16h8q14 0 14 -16v-907z" />
    <glyph glyph-name="Idotaccent" unicode="&#x130;" horiz-adv-x="479" 
d="M238 1677q-20 1 -34 15q-31 33 0 68q14 16 34 16t33 -16t13 -34q0 -20 -12 -34q-14 -14 -34 -15zM221 14v1405q0 14 15 15h8q14 0 14 -15v-1405q0 -14 -14 -14h-8q-15 0 -15 14z" />
    <glyph glyph-name="dotlessi" unicode="&#x131;" horiz-adv-x="397" 
d="M180 16v914q0 16 15 16h8q14 0 14 -16v-914q0 -16 -14 -16h-8q-15 0 -15 16z" />
    <glyph glyph-name="IJ" unicode="&#x132;" horiz-adv-x="1337" 
d="M1096 428v991q0 14 14 15h6q14 0 14 -15v-991q0 -217 -98 -333t-288 -116t-312 158q-9 11 6 21q14 10 21 0q113 -142 287 -142q350 -2 350 412zM221 14v1405q0 14 15 15h8q14 0 14 -15v-1405q0 -14 -14 -14h-8q-15 0 -15 14z" />
    <glyph glyph-name="ij" unicode="&#x133;" horiz-adv-x="882" 
d="M686 1239q-20 0 -34 14q-13 13 -13 33t13 36q14 16 34 15q20 0 34 -15q14 -14 13 -34q0 -20 -13 -35q-14 -14 -34 -14zM702 930v-1063q0 -168 -64 -258t-202 -119q-20 -4 -23 13t13 22q125 31 182 107t58 235v1063q0 16 14 16h8q14 0 14 -16zM201 1239q-20 0 -34 14
q-13 13 -13 33t13 36t33 15q20 0 34 -15q31 -36 0 -69q-13 -14 -33 -14zM180 16v914q0 16 15 16h8q14 0 14 -16v-914q0 -16 -14 -16h-8q-15 0 -15 16z" />
    <glyph glyph-name="Jcircumflex" unicode="&#x134;" horiz-adv-x="948" 
d="M471 1563q-7 -7 -22 12q-4 8 4 16l264 217q8 8 16 0l264 -217q8 -8 4 -16q-15 -19 -22 -12l-254 206zM707 1419q0 14 14 15h6q14 0 14 -15v-991q0 -217 -98 -333q-99 -116 -289 -116t-311 158q-9 11 6 21q14 10 21 0q112 -142 286 -142q348 -1 351 412v991z" />
    <glyph glyph-name="jcircumflex" unicode="&#x135;" horiz-adv-x="397" 
d="M-55 1122q-6 -6 -15 2q-13 18 -4 27l264 217q8 8 17 0l264 -217q9 -9 -4 -27q-8 -8 -14 -2l-254 207zM217 930v-1063q-1 -168 -65 -258t-201 -119q-20 -4 -24 13t14 22q125 31 182 107t57 235v1063q0 16 15 16h8q14 0 14 -16z" />
    <glyph glyph-name="Kcommaaccent" unicode="&#x136;" horiz-adv-x="1107" 
d="M602 -220q0 22 15 36t38 14q86 0 86 -125t-71 -184q-10 -8 -19 0l-10 12q-10 12 4 23q55 43 55 129q0 41 -12 59q-12 -12 -34 -12t-38 13q-14 13 -14 35zM221 14v1405q0 14 15 15h8q14 0 14 -15v-682l762 695q10 10 24 -4t3 -23l-756 -686l776 -696q14 -14 4 -23l-8 -8
q-6 -8 -19 4l-786 704v-686q0 -14 -14 -14h-8q-15 0 -15 14z" />
    <glyph glyph-name="kcommaaccent" unicode="&#x137;" horiz-adv-x="913" 
d="M453 -268q-22 0 -37 14t-15 34q-1 22 15 36t39 14q86 0 86 -125t-72 -184q-10 -8 -18 0l-11 12q-10 12 4 23q55 43 56 129q0 41 -13 59q-12 -12 -34 -12zM180 16v1401q0 16 15 17h8q14 0 14 -17v-870l600 411q11 8 21 -8t0 -24l-586 -402l602 -499q11 -9 -1 -24
q-11 -15 -22 -9l-614 514v-490q0 -16 -14 -16h-8q-15 0 -15 16z" />
    <glyph glyph-name="kgreenlandic" unicode="&#x138;" horiz-adv-x="925" 
d="M180 16v914q0 16 15 16h8q14 0 14 -16v-436l588 464q12 8 23 -10t-1 -24l-573 -449l610 -450q12 -8 -6 -31q-10 -10 -20 -2l-621 463v-439q0 -16 -14 -16h-8q-15 0 -15 16z" />
    <glyph glyph-name="Lacute" unicode="&#x139;" horiz-adv-x="1015" 
d="M174 1593q-12 -4 -18 6l-4 11q-4 8 6 14l372 186q14 5 21 -11q8 -15 -4 -21zM221 14v1405q0 14 15 15h8q12 0 12 -15v-1382h715q14 0 14 -14v-9q0 -14 -14 -14h-735q-15 0 -15 14z" />
    <glyph glyph-name="lacute" unicode="&#x13a;" horiz-adv-x="430" 
d="M39 1591q-12 -6 -19 6l-4 11q-4 8 7 14l372 186q14 5 21 -11q8 -15 -4 -21zM197 16v1401q0 16 14 17h8q14 0 14 -17v-1401q0 -16 -14 -16h-8q-14 0 -14 16z" />
    <glyph glyph-name="Lcommaaccent" unicode="&#x13b;" horiz-adv-x="1015" 
d="M514 -220q0 22 15 36t38 14q86 0 86 -125t-71 -184q-10 -8 -19 0l-10 12q-10 12 4 23q55 43 55 129q0 41 -12 59q-12 -12 -34 -12t-38 13q-14 13 -14 35zM221 14v1405q0 14 15 15h8q12 0 12 -15v-1382h715q14 0 14 -14v-9q0 -14 -14 -14h-735q-15 0 -15 14z" />
    <glyph glyph-name="lcommaaccent" unicode="&#x13c;" horiz-adv-x="430" 
d="M186 -268q-22 0 -36 14t-15 34q-1 22 15 36t38 14q86 0 86 -125t-71 -184q-10 -8 -19 0l-10 12q-10 12 4 23q55 43 55 129q0 41 -12 59q-13 -12 -35 -12zM197 16v1401q0 16 14 17h8q14 0 14 -17v-1401q0 -16 -14 -16h-8q-14 0 -14 16z" />
    <glyph glyph-name="Lcaron" unicode="&#x13d;" horiz-adv-x="1024" 
d="M723 1402q0 22 15 36t38 14q86 0 86 -125t-71 -184q-10 -8 -19 0l-10 12q-10 12 4 23q55 43 55 129q0 41 -12 59q-13 -12 -35 -12t-37 13q-14 13 -14 35zM221 14v1405q0 14 15 15h8q12 0 12 -15v-1382h715q14 0 14 -14v-9q0 -14 -14 -14h-735q-15 0 -15 14z" />
    <glyph glyph-name="lcaron" unicode="&#x13e;" horiz-adv-x="430" 
d="M412 1356q-22 0 -37 14t-15 34q0 22 16 36t38 14q86 0 86 -125t-72 -184q-10 -8 -18 0l-11 12q-10 12 4 23q55 43 56 129q0 41 -13 59q-12 -12 -34 -12zM197 16v1401q0 16 14 17h8q14 0 14 -17v-1401q0 -16 -14 -16h-8q-14 0 -14 16z" />
    <glyph glyph-name="Ldot" unicode="&#x13f;" horiz-adv-x="1030" 
d="M858 659q-20 1 -34 15t-15 34q0 20 14 34q15 14 35 14t34 -14t15 -33q-1 -20 -15 -35t-34 -15zM221 14v1405q0 14 15 15h8q12 0 12 -15v-1382h715q14 0 14 -14v-9q0 -14 -14 -14h-735q-15 0 -15 14z" />
    <glyph glyph-name="ldot" unicode="&#x140;" horiz-adv-x="671" 
d="M504 657q-20 1 -34 15t-15 34q0 20 14 34q15 14 35 14t34 -14t15 -33q-1 -20 -15 -35t-34 -15zM197 16v1401q0 16 14 17h8q14 0 14 -17v-1401q0 -16 -14 -16h-8q-14 0 -14 16z" />
    <glyph glyph-name="Lslash" unicode="&#x141;" horiz-adv-x="1028" 
d="M221 14v660l-90 -41q-12 -6 -16 2l-9 16q-4 10 9 15l106 49v704q0 14 15 15h8q14 0 14 -15v-688l369 174q14 4 18 -6l6 -12q4 -8 -8 -15l-385 -182v-653h756q14 0 14 -14v-9q0 -14 -14 -14h-778q-15 0 -15 14z" />
    <glyph glyph-name="lslash" unicode="&#x142;" horiz-adv-x="581" 
d="M219 16v699l-174 -82q-10 -4 -14 4l-6 12q-6 10 6 17l188 88v663q0 16 14 17h9q14 0 14 -17v-647l287 135q8 6 14 -6l6 -12q4 -8 -6 -15l-301 -141v-715q0 -16 -14 -16h-9q-14 0 -14 16z" />
    <glyph glyph-name="Nacute" unicode="&#x143;" horiz-adv-x="1564" 
d="M666 1593q-12 -4 -19 6l-4 11q-4 8 6 14l373 186q13 4 20 -11q8 -15 -4 -21zM221 14v1440q0 10 10 13t17 -5l1059 -1411v1368q0 14 14 15h8q14 0 14 -15v-1435q0 -10 -10 -14t-16 5l-1059 1411v-1372q0 -14 -14 -14h-8q-15 0 -15 14z" />
    <glyph glyph-name="nacute" unicode="&#x144;" horiz-adv-x="1103" 
d="M383 1149q-11 -6 -19 9t3 22l372 186q14 5 21 -11q8 -15 -4 -22zM180 16v914q0 16 15 16h8q14 0 14 -16v-129q156 166 348 166q191 0 281 -110t90 -329v-512q0 -16 -12 -16h-9q-16 0 -16 16v512q0 401 -332 402q-211 0 -350 -182v-732q0 -16 -14 -16h-8q-15 0 -15 16z
" />
    <glyph glyph-name="Ncommaaccent" unicode="&#x145;" horiz-adv-x="1564" 
d="M784 -268q-22 0 -36 14t-15 34q-1 22 15 36t38 14q86 0 86 -125t-71 -184q-10 -8 -19 0l-10 12q-10 12 4 23q55 43 55 129q0 41 -12 59q-13 -12 -35 -12zM221 14v1440q0 10 10 13t17 -5l1059 -1411v1368q0 14 14 15h8q14 0 14 -15v-1435q0 -10 -10 -14t-16 5l-1059 1411
v-1372q0 -14 -14 -14h-8q-15 0 -15 14z" />
    <glyph glyph-name="ncommaaccent" unicode="&#x146;" horiz-adv-x="1103" 
d="M492 -218q0 22 15 36t38 14q86 0 86 -125t-72 -184q-10 -8 -18 0l-11 12q-10 12 5 23q55 43 55 129q0 41 -12 59q-12 -12 -34 -12t-38 13q-14 13 -14 35zM180 16v914q0 16 15 16h8q14 0 14 -16v-129q156 166 348 166q191 0 281 -110t90 -329v-512q0 -16 -12 -16h-9
q-16 0 -16 16v512q0 401 -332 402q-211 0 -350 -182v-732q0 -16 -14 -16h-8q-15 0 -15 16z" />
    <glyph glyph-name="Ncaron" unicode="&#x147;" horiz-adv-x="1564" 
d="M819 1579l-264 217q-9 9 4 27q8 8 14 2l254 -207l254 207q6 6 15 -2q13 -18 4 -27l-264 -217q-9 -8 -17 0zM221 14v1440q0 10 10 13t17 -5l1059 -1411v1368q0 14 14 15h8q14 0 14 -15v-1435q0 -10 -10 -14t-16 5l-1059 1411v-1372q0 -14 -14 -14h-8q-15 0 -15 14z" />
    <glyph glyph-name="ncaron" unicode="&#x148;" horiz-adv-x="1103" 
d="M551 1135l-264 217q-8 8 -4 16q15 19 22 12l254 -206l254 206q6 6 23 -12q4 -8 -5 -16l-264 -217q-8 -8 -16 0zM180 16v914q0 16 15 16h8q14 0 14 -16v-129q156 166 348 166q191 0 281 -110t90 -329v-512q0 -16 -12 -16h-9q-16 0 -16 16v512q0 401 -332 402
q-211 0 -350 -182v-732q0 -16 -14 -16h-8q-15 0 -15 16z" />
    <glyph glyph-name="napostrophe" unicode="&#x149;" horiz-adv-x="1103" 
d="M22 1356q-22 0 -36 14t-15 34q-1 22 15 36t39 14q86 0 86 -125t-72 -184q-10 -8 -19 0l-10 12q-10 12 4 23q55 43 56 129q0 41 -13 59q-13 -12 -35 -12zM180 16v914q0 16 15 16h8q14 0 14 -16v-129q156 166 348 166q191 0 281 -110t90 -329v-512q0 -16 -12 -16h-9
q-16 0 -16 16v512q0 401 -332 402q-211 0 -350 -182v-732q0 -16 -14 -16h-8q-15 0 -15 16z" />
    <glyph glyph-name="Eng" unicode="&#x14a;" horiz-adv-x="1564" 
d="M1343 -133q-1 -168 -65 -258t-201 -119q-20 -4 -23 13t13 22q125 31 182 107t58 235v123l-1049 1396v-1372q0 -14 -14 -14h-8q-14 0 -15 14v1440q0 10 10 13t17 -5l1059 -1411v1368q0 14 14 15h8q14 0 14 -15v-1552z" />
    <glyph glyph-name="eng" unicode="&#x14b;" horiz-adv-x="1103" 
d="M180 16v914q0 16 15 16h8q14 0 14 -16v-129q156 166 348 166q191 0 281 -110t90 -329v-661q0 -168 -65 -258t-201 -119q-20 -4 -24 13t13 22q125 31 183 107q57 77 57 235v661q0 401 -332 402q-211 0 -350 -182v-732q0 -16 -14 -16h-8q-15 0 -15 16z" />
    <glyph glyph-name="Omacron" unicode="&#x14c;" horiz-adv-x="1728" 
d="M569 1724q-14 0 -14 15v8q0 14 14 14h590q14 0 15 -14v-8q0 -14 -15 -15h-590zM162 715q0 -293 205 -496t499 -203t498 203q205 203 205 496t-206 497t-499 205q-294 -1 -498 -205t-204 -497zM125 715q0 309 215 524t524 215q310 0 526 -215t216 -523t-216 -522
t-526 -214t-524 213q-215 213 -215 522z" />
    <glyph glyph-name="omacron" unicode="&#x14d;" horiz-adv-x="1181" 
d="M299 1243q-14 0 -14 14v9q0 14 14 14h590q14 0 14 -14v-9q0 -14 -14 -14h-590zM1032 472q0 190 -128 324t-313 134t-313 -134t-128 -324t128 -324t313 -134t313 134t128 324zM113 474q0 208 138 350t340 142t340 -142t138 -350t-138 -352t-340 -144t-340 144t-138 352z
" />
    <glyph glyph-name="Obreve" unicode="&#x14e;" horiz-adv-x="1728" 
d="M863 1597q-101 -1 -173 63t-86 159q-2 4 3 9t9 5h15q10 0 10 -12q13 -82 75 -134q62 -53 148 -53t148 52t75 135q0 12 11 12h14q4 0 9 -5t3 -9q-16 -96 -88 -159t-173 -63zM162 715q0 -293 205 -496t499 -203t498 203q205 203 205 496t-206 497t-499 205
q-294 -1 -498 -205t-204 -497zM125 715q0 309 215 524t524 215q310 0 526 -215t216 -523t-216 -522t-526 -214t-524 213q-215 213 -215 522z" />
    <glyph glyph-name="obreve" unicode="&#x14f;" horiz-adv-x="1181" 
d="M594 1116q-100 0 -173 62t-87 157q-2 5 3 11t9 6h14q10 0 11 -13q12 -84 73 -135q60 -51 148 -51t149 51t76 135q0 12 10 13h15q4 0 9 -5t3 -12q-16 -95 -88 -157t-172 -62zM1032 472q0 190 -128 324t-313 134t-313 -134t-128 -324t128 -324t313 -134t313 134t128 324z
M113 474q0 208 138 350t340 142t340 -142t138 -350t-138 -352t-340 -144t-340 144t-138 352z" />
    <glyph glyph-name="Ohungarumlaut" unicode="&#x150;" horiz-adv-x="1728" 
d="M715 1554q-9 -10 -25 0q-10 8 -4 19l221 354q9 11 25 0q10 -8 4 -18zM1055 1554q-9 -10 -25 0q-10 8 -4 19l221 354q9 11 25 0q10 -8 4 -18zM162 715q0 -293 205 -496t499 -203t498 203q205 203 205 496t-206 497t-499 205q-294 -1 -498 -205t-204 -497zM125 715
q0 309 215 524t524 215q310 0 526 -215t216 -523t-216 -522t-526 -214t-524 213q-215 213 -215 522z" />
    <glyph glyph-name="ohungarumlaut" unicode="&#x151;" horiz-adv-x="1181" 
d="M428 1055q-8 -10 -25 0q-10 8 -4 18l222 354q10 12 22 2t6 -20zM768 1055q-8 -10 -25 0q-10 8 -4 18l222 354q10 12 22 2t6 -20zM1032 472q0 190 -128 324t-313 134t-313 -134t-128 -324t128 -324t313 -134t313 134t128 324zM113 474q0 208 138 350t340 142t340 -142
t138 -350t-138 -352t-340 -144t-340 144t-138 352z" />
    <glyph glyph-name="OE" unicode="&#x152;" horiz-adv-x="1992" 
d="M160 715q0 -293 204 -496t496 -203q84 0 152 17v1368q-82 16 -150 16q-294 -1 -498 -205t-204 -497zM125 715q0 309 214 524t523 215q78 0 170 -20h828q12 0 12 -15v-8q0 -14 -12 -14h-811v-633h712q12 0 13 -14v-9q0 -14 -13 -14h-712v-690h811q12 0 12 -14v-9
q0 -14 -12 -14h-824q-92 -20 -176 -20q-309 0 -522 213t-213 522z" />
    <glyph glyph-name="oe" unicode="&#x153;" horiz-adv-x="1865" 
d="M150 472q0 -192 128 -325t312 -133q119 0 212 56t142 141v520q-49 86 -140 142t-214 57q-184 0 -312 -134q-128 -132 -128 -324zM983 494h743q2 14 3 41q0 175 -111 285t-283 110q-121 0 -212 -56t-140 -143v-237zM113 471q0 209 138 352t352 143t360 -188
q127 188 372 189q189 0 311 -121t121 -311q0 -55 -5 -67t-15 -11h-764v-246q121 -197 356 -197q184 0 324 105q10 10 18 -4l7 -9q8 -8 -2 -18q-145 -111 -347 -111q-240 0 -374 191q-143 -190 -359 -190t-355 142q-138 142 -138 351z" />
    <glyph glyph-name="Racute" unicode="&#x154;" horiz-adv-x="1312" 
d="M444 1593q-12 -4 -18 6l-4 11q-4 8 6 14l373 186q13 4 20 -11q8 -15 -4 -21zM256 582h467q178 0 304 118t126 293q0 174 -126 289t-306 115h-465v-815zM221 14v1405q0 14 15 15h485q195 0 331 -125t136 -303t-106 -300q-106 -120 -267 -151l320 -535q6 -10 -2 -16
l-19 -10q-8 -2 -12 6l-326 549q-18 -2 -53 -2h-467v-533q0 -14 -12 -14h-8q-15 0 -15 14z" />
    <glyph glyph-name="racute" unicode="&#x155;" horiz-adv-x="749" 
d="M229 1147q-14 -5 -20 10q-6 14 4 21l373 186q13 4 20 -11q8 -15 -4 -22zM180 16v914q0 16 15 16h8q14 0 14 -16v-125q45 63 125 113t190 49q110 0 170 -39q10 -8 5 -23l-5 -8q-6 -14 -22 -4q-55 37 -152 37q-190 0 -311 -189v-725q0 -16 -14 -16h-8q-15 0 -15 16z" />
    <glyph glyph-name="Rcommaaccent" unicode="&#x156;" horiz-adv-x="1312" 
d="M555 -220q0 22 15 36t38 14q86 0 86 -125t-71 -184q-10 -8 -19 0l-10 12q-10 12 4 23q55 43 55 129q0 41 -12 59q-13 -12 -35 -12t-37 13q-14 13 -14 35zM256 582h467q178 0 304 118t126 293q0 174 -126 289t-306 115h-465v-815zM221 14v1405q0 14 15 15h485
q195 0 331 -125t136 -303t-106 -300q-106 -120 -267 -151l320 -535q6 -10 -2 -16l-19 -10q-8 -2 -12 6l-326 549q-18 -2 -53 -2h-467v-533q0 -14 -12 -14h-8q-15 0 -15 14z" />
    <glyph glyph-name="rcommaaccent" unicode="&#x157;" horiz-adv-x="749" 
d="M195 -268q-22 0 -37 14t-15 34q-1 22 15 36t39 14q86 0 86 -125t-72 -184q-10 -8 -18 0l-11 12q-10 12 4 23q55 43 56 129q0 41 -13 59q-12 -12 -34 -12zM180 16v914q0 16 15 16h8q14 0 14 -16v-125q45 63 125 113t190 49q110 0 170 -39q10 -8 5 -23l-5 -8q-6 -14 -22 -4
q-55 37 -152 37q-190 0 -311 -189v-725q0 -16 -14 -16h-8q-15 0 -15 16z" />
    <glyph glyph-name="Rcaron" unicode="&#x158;" horiz-adv-x="1312" 
d="M598 1579l-264 217q-9 9 4 27q8 8 14 2l254 -207l254 207q7 7 23 -13q4 -8 -4 -16l-265 -217q-8 -8 -16 0zM256 582h467q178 0 304 118t126 293q0 174 -126 289t-306 115h-465v-815zM221 14v1405q0 14 15 15h485q195 0 331 -125t136 -303t-106 -300q-106 -120 -267 -151
l320 -535q6 -10 -2 -16l-19 -10q-8 -2 -12 6l-326 549q-18 -2 -53 -2h-467v-533q0 -14 -12 -14h-8q-15 0 -15 14z" />
    <glyph glyph-name="rcaron" unicode="&#x159;" horiz-adv-x="749" 
d="M397 1133l-264 217q-8 8 -4 16q15 19 23 12l254 -207l253 207q7 7 23 -12q4 -8 -4 -16l-264 -217q-9 -8 -17 0zM182 16v914q0 16 15 16h8q14 0 14 -16v-125q45 63 125 113t190 49q110 0 171 -39q11 -9 3 -27q-9 -18 -26 -8q-55 37 -152 37q-190 0 -311 -189v-725
q0 -16 -14 -16h-8q-15 0 -15 16z" />
    <glyph glyph-name="Sacute" unicode="&#x15a;" horiz-adv-x="1126" 
d="M422 1563q-14 -7 -23 16q-4 8 7 14l372 187q14 5 22 -11q7 -16 -5 -22zM578 16q174 0 294 98t121 242q0 143 -108 221q-109 77 -320 135t-315 128q-123 84 -123 241q0 158 112 266t334 107q89 0 179 -27t133 -51l43 -26q11 -7 0 -23q-10 -16 -24 -8q-14 7 -43 25
q-30 18 -117 46t-171 27q-205 0 -307 -96t-102 -233t98 -211q98 -73 320 -133t334 -146q114 -86 114 -244t-130 -266t-322 -108q-109 0 -217 40q-109 40 -149 72q-40 31 -71 58q-10 10 0 18l9 8q8 8 18 -2q186 -158 410 -158z" />
    <glyph glyph-name="sacute" unicode="&#x15b;" horiz-adv-x="870" 
d="M250 1153q-14 -7 -23 16q-4 8 6 15l373 186q14 5 21 -11q8 -15 -4 -22zM440 -23q-195 0 -313 105q-11 11 1 27q11 16 24 6q121 -101 268 -101t235 65t88 158t-81 142q-82 49 -245 94t-235 101t-72 150t84 169q84 74 236 74t266 -72q13 -9 0 -29q-10 -12 -22 -6
q-117 70 -249 70t-205 -62t-73 -142q0 -79 67 -127q66 -48 178 -80t149 -43t92 -36q55 -24 81 -50q66 -65 66 -164t-98 -174t-242 -75z" />
    <glyph glyph-name="Scircumflex" unicode="&#x15c;" horiz-adv-x="1126" 
d="M330 1532q-7 -7 -23 12q-4 8 4 17l264 217q8 8 17 0l264 -217q8 -8 4 -17q-15 -19 -22 -12l-254 207zM578 16q174 0 294 98t121 242q0 143 -108 221q-109 77 -320 135t-315 128q-123 84 -123 241q0 158 112 266t334 107q89 0 179 -27t133 -51l43 -26q11 -7 0 -23
q-10 -16 -24 -8q-14 7 -43 25q-30 18 -117 46t-171 27q-205 0 -307 -96t-102 -233t98 -211q98 -73 320 -133t334 -146q114 -86 114 -244t-130 -266t-322 -108q-109 0 -217 40q-109 40 -149 72q-40 31 -71 58q-10 10 0 18l9 8q8 8 18 -2q186 -158 410 -158z" />
    <glyph glyph-name="scircumflex" unicode="&#x15d;" horiz-adv-x="870" 
d="M172 1128q-7 -7 -17 7q-9 14 -1 22l264 217q8 8 16 0l264 -217q9 -9 -4 -27q-8 -8 -14 -2l-254 207zM440 -23q-195 0 -313 105q-11 11 1 27q11 16 24 6q121 -101 268 -101t235 65t88 158t-81 142q-82 49 -245 94t-235 101t-72 150t84 169q84 74 236 74t266 -72
q13 -9 0 -29q-10 -12 -22 -6q-117 70 -249 70t-205 -62t-73 -142q0 -79 67 -127q66 -48 178 -80t149 -43t92 -36q55 -24 81 -50q66 -65 66 -164t-98 -174t-242 -75z" />
    <glyph glyph-name="Scedilla" unicode="&#x15e;" horiz-adv-x="1126" 
d="M578 16q166 0 290 96t125 228q0 162 -116 240t-320 133q-204 56 -307 127q-123 84 -123 241q0 158 112 266t334 107q89 0 179 -27t133 -51l43 -26q11 -7 0 -23q-10 -16 -24 -8q-14 7 -43 25q-30 18 -117 46t-171 27q-205 0 -307 -96t-102 -233t98 -211q98 -73 320 -133
t334 -149q114 -89 114 -243t-131 -262q-131 -106 -307 -110l-92 -138q29 12 83 12t106 -42q52 -43 52 -120t-52 -125t-140 -48t-154 69q-10 10 6 23t25 4q53 -59 125 -59t112 36q39 36 39 98q0 60 -38 94t-96 34t-101 -19q-8 -4 -15 6t-3 17l100 160q-101 4 -201 44t-162 84
t-45 58l9 8q8 8 18 -2q186 -158 410 -158z" />
    <glyph glyph-name="scedilla" unicode="&#x15f;" horiz-adv-x="870" 
d="M440 -23h-2l-90 -135q26 12 82 12t108 -42q52 -43 52 -120t-52 -125t-140 -48t-154 69q-10 10 5 23t25 4q53 -59 125 -59t112 36t40 98q0 60 -39 94t-96 34t-101 -19q-8 -4 -15 6t-3 17l98 158q-170 12 -268 102q-11 11 1 27q11 16 24 6q121 -101 268 -101t235 65t88 158
t-81 142q-82 49 -245 94t-235 101t-72 150t84 168q84 75 236 75t266 -72q13 -9 0 -29q-10 -12 -22 -6q-123 70 -252 70t-202 -64t-73 -141q0 -78 67 -126q66 -48 178 -80t149 -43t92 -36q55 -24 81 -50q66 -65 66 -164t-98 -174t-242 -75z" />
    <glyph glyph-name="Scaron" unicode="&#x160;" horiz-adv-x="1126" 
d="M575 1548l-264 217q-8 8 -4 17q15 19 23 12l254 -207l254 207q7 7 22 -12q4 -8 -4 -17l-264 -217q-9 -8 -17 0zM578 16q174 0 294 98t121 242q0 143 -108 221q-109 77 -320 135t-315 128q-123 84 -123 241q0 158 112 266t334 107q89 0 179 -27t133 -51l43 -26
q11 -7 0 -23q-10 -16 -24 -8q-14 7 -43 25q-30 18 -117 46t-171 27q-205 0 -307 -96t-102 -233t98 -211q98 -73 320 -133t334 -146q114 -86 114 -244t-130 -266t-322 -108q-109 0 -217 40q-109 40 -149 72q-40 31 -71 58q-10 10 0 18l9 8q8 8 18 -2q186 -158 410 -158z" />
    <glyph glyph-name="scaron" unicode="&#x161;" horiz-adv-x="870" 
d="M414 1139l-264 217q-8 8 -5 16q17 18 23 12l254 -206l254 206q7 7 22 -12q4 -8 -4 -16l-264 -217q-8 -8 -16 0zM440 -23q-195 0 -313 105q-11 11 1 27q11 16 24 6q121 -101 268 -101t235 65t88 158t-81 142q-82 49 -245 94t-235 101t-72 150t84 169q84 74 236 74t266 -72
q13 -9 0 -29q-10 -12 -22 -6q-117 70 -249 70t-205 -62t-73 -142q0 -79 67 -127q66 -48 178 -80t149 -43t92 -36q55 -24 81 -50q66 -65 66 -164t-98 -174t-242 -75z" />
    <glyph glyph-name="Tcommaaccent" unicode="&#x162;" horiz-adv-x="1019" 
d="M489 1397h-426q-14 0 -14 14v8q0 14 14 15h893q14 0 15 -15v-8q0 -14 -15 -14h-430v-1374q0 -14 -10 -31l-98 -150q29 12 83 12t106 -42q52 -43 52 -120t-52 -125t-140 -48t-154 69q-10 10 6 23t25 4q53 -59 125 -59t112 36t40 98q0 60 -39 94q-38 34 -96 34t-101 -19
q-8 -4 -15 6t-3 17l122 186v1389z" />
    <glyph glyph-name="tcommaaccent" unicode="&#x163;" horiz-adv-x="706" 
d="M201 254v655h-101q-14 0 -14 13v10q0 14 14 14h101v256q0 14 12 15h10q14 0 15 -15v-256h389q14 0 14 -14v-10q0 -12 -14 -13h-389v-655q0 -112 20 -159q20 -46 57 -63q37 -18 100 -18t139 28t112 50q11 7 21 -9q9 -15 -1 -22q-37 -25 -118 -55t-156 -29h-13l-90 -135
q29 12 83 12t107 -42q52 -43 52 -120t-52 -125t-140 -48t-154 69q-8 10 0 19q21 17 31 8q53 -59 125 -59q71 0 111 36t40 98q0 60 -39 94t-96 34t-101 -19q-8 -4 -15 6t-3 17l100 160q-100 12 -129 77q-28 66 -28 195z" />
    <glyph glyph-name="Tcaron" unicode="&#x164;" horiz-adv-x="1019" 
d="M500 1579l-264 217q-8 8 -5 16q16 20 23 13l254 -207l254 207q7 7 17 -7q9 -14 1 -22l-264 -217q-8 -8 -16 0zM489 14v1383h-426q-14 0 -14 14v8q0 14 14 15h893q14 0 15 -15v-8q0 -14 -15 -14h-430v-1383q0 -14 -14 -14h-8q-15 0 -15 14z" />
    <glyph glyph-name="tcaron" unicode="&#x165;" horiz-adv-x="704" 
d="M666 1404q0 22 15 36t38 14q86 0 86 -125t-72 -184q-10 -8 -18 0l-10 12q-10 12 4 23q55 43 55 129q0 41 -12 59q-12 -12 -34 -12t-38 13q-14 13 -14 35zM199 254v655h-101q-14 0 -14 13v10q0 14 14 14h101v256q0 14 12 15h10q14 0 15 -15v-256h389q14 0 14 -14v-10
q0 -12 -14 -13h-389v-655q0 -112 20 -159q20 -46 57 -63q37 -18 100 -18t139 28t112 50q11 7 21 -9q9 -15 -1 -22q-37 -25 -118 -55q-80 -30 -154 -29q-145 0 -184 81q-29 64 -29 196z" />
    <glyph glyph-name="Tbar" unicode="&#x166;" horiz-adv-x="1024" 
d="M492 14v625h-302q-14 0 -14 14v9q0 12 14 12h302v723h-426q-14 0 -15 14v8q0 14 15 15h892q14 0 15 -15v-8q0 -14 -15 -14h-430v-723h310q14 0 14 -12v-9q0 -14 -14 -14h-310v-625q0 -14 -14 -14h-8q-14 0 -14 14z" />
    <glyph glyph-name="tbar" unicode="&#x167;" horiz-adv-x="704" 
d="M639 932v-10l-2 -4v-3q-2 -6 -10 -6h-391v-403h307q14 0 14 -14v-7q0 -14 -14 -14h-307v-217q0 -112 20 -159q20 -46 57 -63q37 -18 100 -18t139 28t112 50q11 7 21 -9q9 -15 -1 -22q-37 -25 -118 -55q-80 -30 -154 -29q-145 0 -184 81q-29 64 -29 196v217h-68
q-14 0 -14 14v7q0 14 14 14h68v403h-101q-14 0 -14 9v20q2 8 14 8h101v256q0 14 12 15h10q14 0 15 -15v-256h393q2 -2 4 -2l2 -2q2 0 2 -2v-2q2 -2 2 -6z" />
    <glyph glyph-name="Utilde" unicode="&#x168;" horiz-adv-x="1470" 
d="M608 1837q68 0 95 -40t47 -85q39 -94 108 -94q96 0 139 147q4 14 15 11l16 -4q12 -2 6 -19q-57 -172 -176 -172q-94 0 -145 123q-41 98 -105 98q-96 0 -139 -149q-4 -15 -14 -11l-17 5q-12 4 -6 18q55 172 176 172zM205 516v903q0 14 14 15h8q14 0 15 -15v-903
q0 -223 133 -361q133 -139 359 -139t360 138t135 362v903q0 14 14 15h8q14 0 15 -15v-903q0 -240 -144 -388t-388 -148q-243 0 -386 148t-143 388z" />
    <glyph glyph-name="utilde" unicode="&#x169;" horiz-adv-x="1081" 
d="M406 1389q67 0 95 -42t46 -83q39 -94 108 -95q96 0 140 148q4 14 14 10l16 -4q12 -4 6 -18q-57 -172 -176 -172q-94 0 -145 122q-40 97 -104 99q-96 0 -140 -150q-4 -14 -14 -10l-16 4q-12 2 -7 19q55 172 177 172zM168 412v518q0 16 12 16h13q12 0 12 -16v-518
q0 -395 332 -396q209 0 327 187v727q0 16 15 16h10q12 0 12 -16v-914q0 -16 -12 -16h-10q-14 0 -15 16v125q-139 -164 -328 -164t-279 109q-89 109 -89 326z" />
    <glyph glyph-name="Umacron" unicode="&#x16a;" horiz-adv-x="1470" 
d="M440 1724q-14 0 -14 15v8q0 14 14 14h590q14 0 14 -14v-8q0 -14 -14 -15h-590zM205 516v903q0 14 14 15h8q14 0 15 -15v-903q0 -223 133 -361q133 -139 359 -139t360 138t135 362v903q0 14 14 15h8q14 0 15 -15v-903q0 -240 -144 -388t-388 -148q-243 0 -386 148
t-143 388z" />
    <glyph glyph-name="umacron" unicode="&#x16b;" horiz-adv-x="1081" 
d="M236 1243q-14 0 -15 14v9q0 14 15 14h589q14 0 15 -14v-9q0 -14 -15 -14h-589zM168 412v518q0 16 12 16h13q12 0 12 -16v-518q0 -395 332 -396q209 0 327 187v727q0 16 15 16h10q12 0 12 -16v-914q0 -16 -12 -16h-10q-14 0 -15 16v125q-139 -164 -328 -164t-279 109
q-89 109 -89 326z" />
    <glyph glyph-name="Ubreve" unicode="&#x16c;" horiz-adv-x="1470" 
d="M734 1597q-101 -1 -173 63t-86 159q-2 4 3 9t9 5h15q10 0 10 -12q12 -82 74 -134q62 -53 149 -53q85 0 147 52t76 135q0 12 11 12h14q4 0 9 -5t3 -9q-16 -96 -88 -159t-173 -63zM205 516v903q0 14 14 15h8q14 0 15 -15v-903q0 -223 133 -361q133 -139 359 -139t360 138
t135 362v903q0 14 14 15h8q14 0 15 -15v-903q0 -240 -144 -388t-388 -148q-243 0 -386 148t-143 388z" />
    <glyph glyph-name="ubreve" unicode="&#x16d;" horiz-adv-x="1081" 
d="M530 1116q-100 0 -173 62t-87 157q-2 5 3 11t10 6h14q10 0 10 -13q11 -84 73 -135t149 -51t149 51q61 51 76 135q0 12 10 13h14q4 0 9 -5t4 -12q-17 -95 -89 -157t-172 -62zM168 412v518q0 16 12 16h13q12 0 12 -16v-518q0 -395 332 -396q209 0 327 187v727q0 16 15 16
h10q12 0 12 -16v-914q0 -16 -12 -16h-10q-14 0 -15 16v125q-139 -164 -328 -164t-279 109q-89 109 -89 326z" />
    <glyph glyph-name="Uring" unicode="&#x16e;" horiz-adv-x="1470" 
d="M736 1571q73 0 125 52t52 125t-52 126t-125 53t-124 -52t-51 -126t51 -126t124 -52zM737 1536q-90 0 -151 61q-62 61 -62 151t62 152t151 62t151 -61t62 -151t-61 -153q-62 -61 -152 -61zM205 516v903q0 14 14 15h8q14 0 15 -15v-903q0 -223 133 -361q133 -139 359 -139
t360 138t135 362v903q0 14 14 15h8q14 0 15 -15v-903q0 -240 -144 -388t-388 -148q-243 0 -386 148t-143 388z" />
    <glyph glyph-name="uring" unicode="&#x16f;" horiz-adv-x="1081" 
d="M529 1077q73 0 125 52t52 125t-52 126q-52 54 -125 54t-123 -52t-52 -127q0 -74 51 -126t124 -52zM530 1042q-90 0 -151 62t-62 151t61 151t151 62t151 -62t63 -152t-61 -150q-62 -62 -152 -62zM168 412v518q0 16 12 16h13q12 0 12 -16v-518q0 -395 332 -396
q209 0 327 187v727q0 16 15 16h10q12 0 12 -16v-914q0 -16 -12 -16h-10q-14 0 -15 16v125q-139 -164 -328 -164t-279 109q-89 109 -89 326z" />
    <glyph glyph-name="Uhungarumlaut" unicode="&#x170;" horiz-adv-x="1470" 
d="M586 1554q-9 -10 -25 0q-10 8 -4 19l221 354q9 11 25 0q10 -8 4 -18zM926 1554q-9 -10 -25 0q-10 8 -4 19l221 354q9 11 25 0q10 -8 4 -18zM205 516v903q0 14 14 15h8q14 0 15 -15v-903q0 -223 133 -361q133 -139 359 -139t360 138t135 362v903q0 14 14 15h8q14 0 15 -15
v-903q0 -240 -144 -388t-388 -148q-243 0 -386 148t-143 388z" />
    <glyph glyph-name="uhungarumlaut" unicode="&#x171;" horiz-adv-x="1081" 
d="M375 1055q-9 -10 -25 0q-10 8 -4 18l221 354q11 12 23 2t6 -20zM715 1055q-9 -10 -25 0q-10 8 -4 18l221 354q11 12 23 2t6 -20zM168 412v518q0 16 12 16h13q12 0 12 -16v-518q0 -395 332 -396q209 0 327 187v727q0 16 15 16h10q12 0 12 -16v-914q0 -16 -12 -16h-10
q-14 0 -15 16v125q-139 -164 -328 -164t-279 109q-89 109 -89 326z" />
    <glyph glyph-name="Uogonek" unicode="&#x172;" horiz-adv-x="1470" 
d="M205 516v903q0 14 14 15h8q14 0 15 -15v-903q0 -223 133 -361q133 -139 359 -139t360 138t135 362v903q0 14 14 15h8q14 0 15 -15v-903q0 -203 -104 -343t-288 -179q-238 -123 -237 -295q0 -63 39 -107q38 -44 94 -43t85 15t48 24l19 11q12 6 16 -5l6 -12q6 -12 -14 -22
q-94 -47 -163 -47t-118 52t-49 134q0 166 191 285q-37 -4 -58 -4q-242 0 -385 148t-143 388z" />
    <glyph glyph-name="uogonek" unicode="&#x173;" horiz-adv-x="1081" 
d="M168 412v518q0 16 12 16h13q12 0 12 -16v-518q0 -395 332 -396q209 0 327 187v727q0 16 15 16h10q12 0 12 -16v-907q0 -16 -12 -23q-181 -92 -227 -195q-23 -49 -23 -109t39 -104t96 -43t85 15q27 14 46 24l19 11q12 6 16 -5l6 -12q6 -12 -14 -22q-94 -47 -163 -47
t-118 52t-49 134q0 195 262 328v114q-139 -164 -328 -164t-279 109q-89 109 -89 326z" />
    <glyph glyph-name="Wcircumflex" unicode="&#x174;" horiz-adv-x="1777" 
d="M629 1563q-7 -7 -23 12q-4 8 4 16l264 217q8 8 17 0l264 -217q8 -8 4 -16q-15 -19 -22 -12l-254 206zM882 1460q10 0 15 -10l395 -1384l383 1366q4 10 13 6l16 -6q8 -2 6 -13l-403 -1444q-5 -10 -15 -10t-14 10l-395 1385l-377 -1385q-2 -10 -14 -10t-15 10l-418 1444
q-2 10 7 13l16 6q8 4 12 -6l398 -1369l376 1387q4 10 14 10z" />
    <glyph glyph-name="wcircumflex" unicode="&#x175;" horiz-adv-x="1392" 
d="M442 1122q-7 -7 -17 7q-9 14 -1 22l264 217q8 8 17 0l264 -217q9 -9 -4 -27q-8 -8 -15 -2l-254 207zM696 981q12 0 17 -10l280 -922l299 897q4 18 19 12l10 -4q10 -2 6 -16l-315 -956q-4 -14 -16 -14t-17 14l-283 915l-280 -915q-2 -14 -16 -14t-17 14l-317 956
q-4 12 6 16l10 4q14 8 18 -8l297 -901l283 922q4 10 16 10z" />
    <glyph glyph-name="Ycircumflex" unicode="&#x176;" horiz-adv-x="1130" 
d="M311 1563q-7 -7 -22 12q-4 8 4 16l264 217q8 8 16 0l265 -217q8 -8 4 -16q-15 -19 -23 -12l-254 206zM547 14v688l-541 707q-8 12 2 18l12 9q6 4 17 -6l528 -695l529 695q8 12 16 6l12 -9q10 -6 2 -18l-540 -704v-691q0 -14 -15 -14h-8q-14 0 -14 14z" />
    <glyph glyph-name="ycircumflex" unicode="&#x177;" horiz-adv-x="962" 
d="M231 1122q-7 -7 -17 7q-9 14 -1 22l264 217q8 8 17 0l264 -217q9 -9 -4 -27q-8 -8 -15 -2l-254 207zM465 16l-420 920q-6 10 2 16l12 6q12 6 17 -8l409 -897l400 897q4 14 16 8l12 -6q8 -6 2 -16l-634 -1423q-8 -18 -24 -9q-17 8 -9 23z" />
    <glyph glyph-name="Ydieresis" unicode="&#x178;" horiz-adv-x="1130" 
d="M356 1655q-47 0 -47 46t47 46t47 -46t-47 -46zM780 1655q-47 0 -47 46t47 46t47 -46t-47 -46zM547 14v688l-541 707q-8 12 2 18l12 9q6 4 17 -6l528 -695l529 695q8 12 16 6l12 -9q10 -6 2 -18l-540 -704v-691q0 -14 -15 -14h-8q-14 0 -14 14z" />
    <glyph glyph-name="Zacute" unicode="&#x179;" horiz-adv-x="1054" 
d="M397 1593q-12 -4 -18 6l-4 11q-4 8 6 14l373 186q13 4 20 -11q8 -15 -4 -21zM129 1397q-14 0 -14 14v8q0 14 14 15h858q8 0 12 -8t0 -15l-899 -1374h842q14 0 14 -14v-9q0 -14 -14 -14h-883q-8 0 -12 8t0 15l899 1374h-817z" />
    <glyph glyph-name="zacute" unicode="&#x17a;" horiz-adv-x="860" 
d="M262 1147q-14 -5 -20 10q-6 14 4 21l372 186q14 5 21 -11q8 -15 -4 -22zM139 909q-14 0 -14 13v10q0 14 14 14h631q12 0 17 -8t-1 -18l-673 -883h632q16 0 17 -14v-9q0 -14 -17 -14h-671q-10 0 -17 8q-6 9 2 19l670 882h-590z" />
    <glyph glyph-name="Zdotaccent" unicode="&#x17b;" horiz-adv-x="1054" 
d="M559 1677q-19 1 -33 15t-14 33t13 35t33 16t34 -16t14 -34q0 -20 -14 -34t-33 -15zM129 1397q-14 0 -14 14v8q0 14 14 15h858q8 0 12 -8t0 -15l-899 -1374h842q14 0 14 -14v-9q0 -14 -14 -14h-883q-8 0 -12 8t0 15l899 1374h-817z" />
    <glyph glyph-name="zdotaccent" unicode="&#x17c;" horiz-adv-x="860" 
d="M436 1239q-20 0 -34 14q-13 13 -13 33t13 36q14 16 34 15q20 0 34 -15q14 -14 13 -34q0 -20 -13 -35q-14 -14 -34 -14zM139 909q-14 0 -14 13v10q0 14 14 14h631q12 0 17 -8t-1 -18l-673 -883h632q16 0 17 -14v-9q0 -14 -17 -14h-671q-10 0 -17 8q-6 9 2 19l670 882h-590
z" />
    <glyph glyph-name="Zcaron" unicode="&#x17d;" horiz-adv-x="1054" 
d="M551 1579l-264 217q-9 9 4 27q8 8 14 2l254 -207l254 207q7 7 23 -13q4 -8 -5 -16l-264 -217q-8 -8 -16 0zM129 1397q-14 0 -14 14v8q0 14 14 15h858q8 0 12 -8t0 -15l-899 -1374h842q14 0 14 -14v-9q0 -14 -14 -14h-883q-8 0 -12 8t0 15l899 1374h-817z" />
    <glyph glyph-name="zcaron" unicode="&#x17e;" horiz-adv-x="860" 
d="M420 1133l-264 217q-8 8 -4 16q15 19 22 12l254 -207l254 207q6 6 23 -12q4 -8 -5 -16l-264 -217q-8 -8 -16 0zM139 909q-14 0 -14 13v10q0 14 14 14h631q12 0 17 -8t-1 -18l-673 -883h632q16 0 17 -14v-9q0 -14 -17 -14h-671q-10 0 -17 8q-6 9 2 19l670 882h-590z" />
    <glyph glyph-name="florin" unicode="&#x192;" horiz-adv-x="778" 
d="M295 -150v932h-225q-14 0 -15 15v8q0 14 15 14h225v275q0 178 82 269t223 91t234 -88q10 -10 -4 -24t-23 -3q-82 78 -207 78t-197 -81t-71 -242v-275h370q14 0 15 -14v-8q0 -14 -15 -15h-370v-932q0 -178 -82 -269t-223 -91t-234 88q-10 10 3 24q13 13 24 3
q82 -78 207 -78q125 1 197 81t71 242z" />
    <glyph glyph-name="Aringacute" unicode="&#x1fa;" horiz-adv-x="1300" 
d="M246 465h805l-398 938zM652 1483q73 0 126 53t53 126t-53 127t-126 54t-125 -53t-52 -127t52 -127t125 -53zM652 1876q90 0 152 -61t62 -149t-55 -148q-55 -59 -139 -68l612 -1436q2 -10 -6 -12l-18 -6q-6 -2 -11 6l-182 428h-838l-184 -428q-4 -8 -10 -6l-19 6
q-8 2 -6 12l623 1436q-84 8 -138 68q-55 60 -55 147t62 149t150 62zM487 1882q-12 -6 -19 9t3 22l373 186q13 4 20 -11q8 -15 -4 -22z" />
    <glyph glyph-name="aringacute" unicode="&#x1fb;" horiz-adv-x="997" 
d="M127 294q0 -126 83 -203t204 -77t226 54t148 108v350q-148 56 -300 56t-256 -81t-105 -207zM90 293q0 143 114 234t283 91t301 -53v88q0 145 -60 211t-216 66t-281 -70q-16 -8 -25 9t3 24q133 74 308 74t242 -74t66 -240v-637q0 -16 -14 -16h-8q-14 0 -15 16v107
q-173 -145 -387 -145q-124 0 -218 85q-93 87 -93 230zM311 1440q-12 -6 -19 9t3 21l373 146q13 4 20 -11q8 -15 -4 -22zM492 1073q76 0 126 41t52 112q0 70 -52 112t-126 42q-76 0 -127 -42t-51 -112t50 -112q52 -41 128 -41zM491 1040q-93 0 -153 50t-59 136q0 87 59 137
q58 50 152 50t154 -50t60 -137q0 -86 -60 -136t-153 -50z" />
    <glyph glyph-name="AEacute" unicode="&#x1fc;" horiz-adv-x="1875" 
d="M1120 1595q-12 -6 -19 10t3 21l373 186q13 4 20 -11q8 -15 -4 -21zM897 465v891l-584 -891h584zM1743 1434q14 0 14 -15v-8q0 -14 -14 -14h-811v-633h713q14 0 14 -14v-9q0 -14 -14 -14h-713v-690h811q14 0 14 -14v-9q0 -14 -14 -14h-832q-14 0 -14 14v416h-604
l-281 -430q-6 -8 -21 1t-9 19l911 1397q10 16 35 17h815z" />
    <glyph glyph-name="aeacute" unicode="&#x1fd;" horiz-adv-x="1687" 
d="M705 1147q-12 -4 -19 6q-7 18 2 25l373 186q13 4 20 -11q8 -15 -4 -22zM127 294q0 -126 83 -203t204 -77q120 0 228 50t151 106v356q-176 55 -289 56q-166 0 -272 -81t-105 -207zM831 494h717q2 16 2 43q0 173 -110 283t-281 110q-106 0 -195 -43t-141 -119q8 -43 8 -115
v-159zM90 294q0 144 115 234t285 90t303 -53v88q-1 145 -61 211t-208 66q-100 0 -175 -25q-22 -6 -42 -14l-33 -13q-12 -4 -25 -12t-21 -11t-17 7q-12 25 -2 31q119 74 315 74q227 0 283 -150q133 150 339 150t324 -120t119 -310q0 -80 -24 -80h-734v-287q125 -156 321 -156
t333 105q12 10 18 -2l8 -15q6 -8 -6 -16q-160 -109 -342 -109q-227 0 -352 156q-55 -59 -165 -107t-240 -48t-224 85q-92 87 -92 231z" />
    <glyph glyph-name="Oslashacute" unicode="&#x1fe;" horiz-adv-x="1728" 
d="M700 1593q-12 -4 -18 6l-4 11q-4 8 6 14l373 186q13 4 20 -11q8 -15 -4 -21zM862 16q298 0 502 203q205 203 205 485t-183 486l-1021 -971q199 -203 497 -203zM162 725q0 -282 176 -479l1022 971q-207 201 -498 201q-292 0 -496 -206q-204 -205 -204 -487zM125 729
q0 295 215 510t524 215t522 -213l140 133q8 10 21 -3t3 -23l-139 -134q195 -218 195 -512t-216 -508t-528 -214t-526 213l-135 -130q-9 -11 -22 3t-3 24l135 131q-186 213 -186 508z" />
    <glyph glyph-name="oslashacute" unicode="&#x1ff;" horiz-adv-x="1181" 
d="M414 1147q-12 -4 -19 6q-7 18 2 25l373 186q12 4 23 -14q6 -12 -7 -19zM1032 475q0 150 -84 266l-674 -591q130 -136 316 -136t314 134t128 327zM600 930q-194 0 -322 -134t-128 -311q0 -178 100 -305l674 594q-130 156 -324 156zM113 486q0 196 138 338t349 142
t352 -167l33 28q11 8 25 -6t2 -24l-35 -31q92 -129 92 -291q0 -209 -138 -353t-343 -144t-342 147l-39 -35q-10 -10 -25 3q-14 13 -2 26l41 37q-108 134 -108 330z" />
    <glyph glyph-name="Scommaaccent" unicode="&#x218;" horiz-adv-x="1126" 
d="M510 -250q0 22 15 35q15 14 38 14q86 0 86 -125t-71 -184q-10 -8 -19 0l-10 12q-10 12 4 23q55 43 55 129q0 41 -12 59q-12 -12 -34 -12t-38 13q-14 14 -14 36zM578 16q174 0 294 98t121 242q0 143 -108 221q-109 77 -320 135t-315 128q-123 84 -123 241q0 158 112 266
t334 107q89 0 179 -27t133 -51l43 -26q11 -7 0 -23q-10 -16 -24 -8q-14 7 -43 25q-30 18 -117 46t-171 27q-205 0 -307 -96t-102 -233t98 -211q98 -73 320 -133t334 -146q114 -86 114 -244t-130 -266t-322 -108q-109 0 -217 40q-109 40 -149 72q-40 31 -71 58q-10 10 0 18
l9 8q8 8 18 -2q186 -158 410 -158z" />
    <glyph glyph-name="scommaaccent" unicode="&#x219;" horiz-adv-x="870" 
d="M373 -214q0 22 15 36t38 14q86 0 86 -125t-72 -184q-10 -8 -18 0l-10 12q-10 12 4 23q55 43 55 129q0 41 -12 59q-13 -12 -35 -12t-37 13q-14 13 -14 35zM440 -23q-195 0 -313 105q-11 11 1 27q11 16 24 6q121 -101 268 -101t235 65t88 158t-81 142q-82 49 -245 94
t-235 101t-72 150t84 169q84 74 236 74t266 -72q13 -9 0 -29q-10 -12 -22 -6q-117 70 -249 70t-205 -62t-73 -142q0 -79 67 -127q66 -48 178 -80t149 -43t92 -36q55 -24 81 -50q66 -65 66 -164t-98 -174t-242 -75z" />
    <glyph glyph-name="uni021A" unicode="&#x21a;" horiz-adv-x="1019" 
d="M432 -220q0 22 15 36t38 14q86 0 86 -125t-71 -184q-10 -8 -19 0l-10 12q-10 12 4 23q55 43 55 129q0 41 -12 59q-12 -12 -34 -12t-38 13q-14 13 -14 35zM489 14v1383h-426q-14 0 -14 14v8q0 14 14 15h893q14 0 15 -15v-8q0 -14 -15 -14h-430v-1383q0 -14 -14 -14h-8
q-15 0 -15 14z" />
    <glyph glyph-name="uni021B" unicode="&#x21b;" horiz-adv-x="704" 
d="M330 -220q0 22 15 36t38 14q86 0 86 -125t-72 -184q-10 -8 -18 0l-10 12q-10 12 4 23q55 43 55 129q0 41 -12 59q-12 -12 -34 -12t-38 13q-14 13 -14 35zM199 254v655h-101q-14 0 -14 13v10q0 14 14 14h101v256q0 14 12 15h10q14 0 15 -15v-256h389q14 0 14 -14v-10
q0 -12 -14 -13h-389v-655q0 -112 20 -159q20 -46 57 -63q37 -18 100 -18t139 28t112 50q11 7 21 -9q9 -15 -1 -22q-37 -25 -118 -55q-80 -30 -154 -29q-145 0 -184 81q-29 64 -29 196z" />
    <glyph glyph-name="dotlessj" unicode="&#x237;" horiz-adv-x="397" 
d="M217 930v-1063q-1 -168 -65 -258t-201 -119q-20 -4 -24 13t14 22q125 31 182 107t57 235v1063q0 16 15 16h8q14 0 14 -16z" />
    <glyph glyph-name="circumflex" unicode="&#x2c6;" horiz-adv-x="763" 
d="M127 1122q-7 -7 -23 13q-4 8 5 16l264 217q8 8 16 0l264 -217q9 -9 -4 -27q-8 -8 -14 -2l-254 207z" />
    <glyph glyph-name="caron" unicode="&#x2c7;" horiz-adv-x="763" 
d="M373 1133l-264 217q-8 8 -5 16q17 18 23 12l254 -207l254 207q7 7 22 -12q4 -8 -4 -16l-264 -217q-8 -8 -16 0z" />
    <glyph glyph-name="uni02C9" unicode="&#x2c9;" horiz-adv-x="847" 
d="M129 1243q-14 0 -14 14v9q0 14 14 14h590q14 0 14 -14v-9q0 -14 -14 -14h-590z" />
    <glyph glyph-name="breve" unicode="&#x2d8;" horiz-adv-x="708" 
d="M354 1116q-100 0 -173 62t-87 157q-2 5 3 11t9 6h15q10 0 10 -13q11 -84 73 -135t149 -51t149 51q61 51 76 135q0 12 10 13h14q4 0 9 -5t3 -12q-16 -95 -88 -157t-172 -62z" />
    <glyph glyph-name="dotaccent" unicode="&#x2d9;" horiz-adv-x="448" 
d="M221 1217q-20 0 -34 14q-13 13 -13 33t13 35t33 15t34 -14q14 -16 14 -35t-13 -34q-14 -14 -34 -14z" />
    <glyph glyph-name="ring" unicode="&#x2da;" horiz-adv-x="593" 
d="M296 1059q73 0 125 52t52 125t-52 126t-125 53t-124 -52t-51 -126t51 -126t124 -52zM297 1024q-90 0 -152 61q-61 61 -61 151t61 152t151 62t151 -61q63 -61 63 -151t-61 -153q-62 -61 -152 -61z" />
    <glyph glyph-name="ogonek" unicode="&#x2db;" horiz-adv-x="565" 
d="M106 -302q0 -62 39 -106t95 -43t85 15t48 24l18 11q12 6 17 -5l6 -12q6 -12 -15 -22q-95 -47 -163 -47t-117 52t-49 126q0 139 93 218q93 80 183 126l21 -29q-105 -58 -159 -102q-54 -45 -78 -95q-24 -49 -24 -111z" />
    <glyph glyph-name="tilde" unicode="&#x2dc;" horiz-adv-x="778" 
d="M244 1389q67 0 98 -47l24 -36q7 -13 19 -42q39 -94 109 -95q96 0 139 148q4 14 14 10l17 -4q12 -4 6 -18q-57 -172 -176 -172q-94 0 -146 122q-12 29 -19 43t-31 34t-54 22q-96 0 -140 -150q-4 -14 -14 -10l-16 4q-12 2 -6 19q55 172 176 172z" />
    <glyph glyph-name="hungarumlaut" unicode="&#x2dd;" horiz-adv-x="802" 
d="M158 1055q-9 -10 -25 0q-10 8 -4 18l221 354q10 12 22 2t7 -20zM498 1055q-9 -10 -25 0q-10 8 -4 18l221 354q10 12 22 2t7 -20z" />
    <glyph glyph-name="uni0394" unicode="&#x394;" horiz-adv-x="1406" 
d="M113 37h1177l-581 1366zM711 1477q6 0 10 -9l610 -1433q14 -35 -26 -35h-1205q-18 0 -23 4t1 35l618 1429q4 8 11 9h4z" />
    <glyph glyph-name="uni03A9" unicode="&#x3a9;" horiz-adv-x="1736" 
d="M186 14v9q0 14 15 14h381q-205 84 -330 266t-125 412q0 309 215 524t524 215q310 0 526 -215t216 -524q0 -225 -123 -409t-324 -269h379q14 0 14 -14v-9q0 -14 -14 -14h-487q-14 0 -15 14v9q0 14 15 14q227 61 372 249t146 429q0 293 -206 497t-499 205q-294 0 -498 -205
t-204 -497q0 -246 146 -433t378 -245q14 0 14 -14v-9q0 -14 -14 -14h-487q-15 0 -15 14z" />
    <glyph glyph-name="uni03BC" unicode="&#x3bc;" horiz-adv-x="1075" 
d="M197 -471v1401q0 16 12 16h12q12 0 12 -16v-518q0 -395 332 -396q209 0 328 187v727q0 16 14 16h11q12 0 12 -16v-914q0 -16 -12 -16h-11q-14 0 -14 16v125q-137 -164 -328 -164q-256 0 -332 199v-647q0 -16 -14 -16h-8q-14 0 -14 16z" />
    <glyph glyph-name="pi" unicode="&#x3c0;" horiz-adv-x="1298" 
d="M313 16v893h-258q-16 0 -16 15v10q0 12 16 12h1188q16 0 17 -12v-10q0 -14 -17 -15h-260v-893q0 -16 -16 -16h-6q-14 0 -15 16v893h-596v-893q0 -16 -14 -16h-10q-13 0 -13 16z" />
    <glyph glyph-name="Wgrave" unicode="&#x1e80;" horiz-adv-x="1777" 
d="M1063 1593l-373 185q-12 6 -4 21t21 11l372 -186q10 -6 6 -14l-4 -11q-6 -10 -18 -6zM882 1460q10 0 15 -10l395 -1384l383 1366q4 10 13 6l16 -6q8 -2 6 -13l-403 -1444q-5 -10 -15 -10t-14 10l-395 1385l-377 -1385q-2 -10 -14 -10t-15 10l-418 1444q-2 10 7 13l16 6
q8 4 12 -6l398 -1369l376 1387q4 10 14 10z" />
    <glyph glyph-name="wgrave" unicode="&#x1e81;" horiz-adv-x="1392" 
d="M877 1147l-373 184q-12 6 -4 22q8 15 20 11l373 -186q10 -6 2 -25q-6 -10 -18 -6zM696 981q12 0 17 -10l280 -922l299 897q4 18 19 12l10 -4q10 -2 6 -16l-315 -956q-4 -14 -16 -14t-17 14l-283 915l-280 -915q-2 -14 -16 -14t-17 14l-317 956q-4 12 6 16l10 4
q14 8 18 -8l297 -901l283 922q4 10 16 10z" />
    <glyph glyph-name="Wacute" unicode="&#x1e82;" horiz-adv-x="1777" 
d="M702 1593q-12 -4 -18 6l-4 11q-4 8 6 14l373 186q13 4 20 -11q8 -15 -4 -21zM882 1460q10 0 15 -10l395 -1384l383 1366q4 10 13 6l16 -6q8 -2 6 -13l-403 -1444q-5 -10 -15 -10t-14 10l-395 1385l-377 -1385q-2 -10 -14 -10t-15 10l-418 1444q-2 10 7 13l16 6q8 4 12 -6
l398 -1369l376 1387q4 10 14 10z" />
    <glyph glyph-name="wacute" unicode="&#x1e83;" horiz-adv-x="1392" 
d="M518 1147q-14 -5 -20 10q-6 14 4 21l372 186q14 5 21 -11q8 -15 -4 -22zM696 981q12 0 17 -10l280 -922l299 897q4 18 19 12l10 -4q10 -2 6 -16l-315 -956q-4 -14 -16 -14t-17 14l-283 915l-280 -915q-2 -14 -16 -14t-17 14l-317 956q-4 12 6 16l10 4q14 8 18 -8
l297 -901l283 922q4 10 16 10z" />
    <glyph glyph-name="Wdieresis" unicode="&#x1e84;" horiz-adv-x="1777" 
d="M672 1655q-47 0 -47 46t47 46t47 -46t-47 -46zM1096 1655q-47 0 -47 46t47 46t47 -46t-47 -46zM882 1460q10 0 15 -10l395 -1384l383 1366q4 10 13 6l16 -6q8 -2 6 -13l-403 -1444q-5 -10 -15 -10t-14 10l-395 1385l-377 -1385q-2 -10 -14 -10t-15 10l-418 1444
q-2 10 7 13l16 6q8 4 12 -6l398 -1369l376 1387q4 10 14 10z" />
    <glyph glyph-name="wdieresis" unicode="&#x1e85;" horiz-adv-x="1392" 
d="M503 1239q-46 0 -46 46t46 46t46 -46t-46 -46zM892 1239q-46 0 -46 46t46 46t46 -46t-46 -46zM696 981q12 0 17 -10l280 -922l299 897q4 18 19 12l10 -4q10 -2 6 -16l-315 -956q-4 -14 -16 -14t-17 14l-283 915l-280 -915q-2 -14 -16 -14t-17 14l-317 956q-4 12 6 16
l10 4q14 8 18 -8l297 -901l283 922q4 10 16 10z" />
    <glyph glyph-name="Ygrave" unicode="&#x1ef2;" horiz-adv-x="1130" 
d="M748 1593l-373 185q-12 6 -4 21t20 11l373 -186q10 -6 6 -14l-4 -11q-6 -10 -18 -6zM547 14v688l-541 707q-8 12 2 18l12 9q6 4 17 -6l528 -695l529 695q8 12 16 6l12 -9q10 -6 2 -18l-540 -704v-691q0 -14 -15 -14h-8q-14 0 -14 14z" />
    <glyph glyph-name="ygrave" unicode="&#x1ef3;" horiz-adv-x="962" 
d="M666 1147l-373 184q-12 6 -4 22q8 15 20 11l373 -186q10 -6 2 -25q-6 -10 -18 -6zM465 16l-420 920q-6 10 2 16l12 6q12 6 17 -8l409 -897l400 897q4 14 16 8l12 -6q8 -6 2 -16l-634 -1423q-8 -18 -24 -9q-17 8 -9 23z" />
    <glyph glyph-name="endash" unicode="&#x2013;" horiz-adv-x="1153" 
d="M168 498q-14 0 -14 14v8q0 14 14 15h817q14 0 14 -15v-8q0 -14 -14 -14h-817z" />
    <glyph glyph-name="emdash" unicode="&#x2014;" horiz-adv-x="1595" 
d="M168 498q-14 0 -14 14v8q0 14 14 15h1259q14 0 15 -15v-8q0 -14 -15 -14h-1259z" />
    <glyph glyph-name="quoteleft" unicode="&#x2018;" horiz-adv-x="401" 
d="M276 1084q0 -22 -15 -36t-38 -14q-47 0 -73 56t-27 122q0 143 113 234q14 12 20 0l8 -12q8 -12 -4 -23q-96 -74 -96 -190q0 -74 22 -109q16 20 38 20t38 -13q14 -13 14 -35z" />
    <glyph glyph-name="quoteright" unicode="&#x2019;" horiz-adv-x="397" 
d="M127 1404q0 22 15 36t38 14q47 0 74 -56t27 -122q0 -143 -113 -234q-14 -12 -21 0l-8 13q-8 12 4 22q96 74 97 191q0 74 -23 108q-17 -20 -39 -20t-37 13q-14 13 -14 35z" />
    <glyph glyph-name="quotesinglbase" unicode="&#x201a;" horiz-adv-x="380" 
d="M129 28q0 22 15 36t38 14q47 0 74 -56t27 -122q0 -143 -113 -234q-14 -12 -20 0l-9 12q-8 12 4 23q96 74 97 190q0 74 -23 109q-17 -20 -39 -20t-37 13q-14 13 -14 35z" />
    <glyph glyph-name="quotedblleft" unicode="&#x201c;" horiz-adv-x="765" 
d="M641 1084q0 -22 -15 -36t-38 -14q-47 0 -74 56t-27 122q0 143 113 234q14 12 21 0l8 -12q8 -12 -4 -23q-96 -74 -97 -190q0 -74 23 -109q17 20 39 20t36 -13t15 -35zM276 1084q0 -22 -15 -36t-38 -14q-47 0 -73 56t-27 122q0 143 113 234q14 12 20 0l8 -12q8 -12 -4 -23
q-96 -74 -96 -190q0 -74 22 -109q16 20 38 20t38 -13q14 -13 14 -35z" />
    <glyph glyph-name="quotedblright" unicode="&#x201d;" horiz-adv-x="761" 
d="M492 1404q0 22 15 36t38 14q47 0 73 -56t27 -122q0 -143 -113 -234q-14 -12 -20 0l-8 13q-8 12 4 22q96 74 96 191q0 74 -22 108q-16 -20 -38 -20t-38 13q-14 13 -14 35zM127 1404q0 22 15 36t38 14q47 0 74 -56t27 -122q0 -143 -113 -234q-14 -12 -21 0l-8 13
q-8 12 4 22q96 74 97 191q0 74 -23 108q-17 -20 -39 -20t-37 13q-14 13 -14 35z" />
    <glyph glyph-name="quotedblbase" unicode="&#x201e;" horiz-adv-x="745" 
d="M494 28q0 22 15 36t38 14q47 0 74 -56t26 -122q0 -143 -112 -234q-14 -12 -21 0l-8 12q-8 12 4 23q96 74 96 190q0 74 -22 109q-16 -20 -38 -20t-38 13q-14 13 -14 35zM129 28q0 22 15 36t38 14q47 0 74 -56t27 -122q0 -143 -113 -234q-14 -12 -20 0l-9 12q-8 12 4 23
q96 74 97 190q0 74 -23 109q-17 -20 -39 -20t-37 13q-14 13 -14 35z" />
    <glyph glyph-name="dagger" unicode="&#x2020;" horiz-adv-x="1095" 
d="M88 782q-14 0 -14 15v8q0 14 14 14h440v600q0 14 15 15h8q14 0 14 -15v-600h443q14 0 14 -14v-8q0 -14 -14 -15h-443v-1255q0 -14 -14 -14h-8q-14 0 -15 14v1255h-440z" />
    <glyph glyph-name="daggerdbl" unicode="&#x2021;" horiz-adv-x="1136" 
d="M156 14v9q0 14 14 14h379v782h-440q-14 0 -15 15v8q0 14 15 14h440v563q0 14 14 15h8q14 0 15 -15v-563h442q14 0 14 -14v-8q0 -14 -14 -15h-442v-782h381q14 0 14 -14v-9q0 -14 -14 -14h-381v-473q0 -14 -15 -14h-8q-14 0 -14 14v473h-379q-14 0 -14 14z" />
    <glyph glyph-name="bullet" unicode="&#x2022;" horiz-adv-x="520" 
d="M258 449q-32 1 -54 23t-22 54t22 56q22 22 54 22t56 -24t24 -55q0 -32 -24 -54t-56 -22z" />
    <glyph glyph-name="ellipsis" unicode="&#x2026;" horiz-adv-x="1155" 
d="M137 43q1 19 15 33t34 14t34 -13t13 -33q0 -20 -13 -36q-14 -14 -34 -14t-34 14t-15 35zM526 43q0 19 14 33t33 14q21 0 35 -13t14 -33t-14 -36q-14 -14 -34 -14t-34 14t-14 35zM922 43q0 19 13 33t33 14t36 -13q14 -13 14 -33t-14 -36q-14 -14 -34 -14t-35 14
q-13 15 -13 35z" />
    <glyph glyph-name="perthousand" unicode="&#x2030;" horiz-adv-x="2056" 
d="M244 25l854 1405q6 8 22 -2q16 -9 10 -19l-854 -1405q-8 -10 -14 -6l-16 10q-8 7 -2 17zM1278 269q0 105 -75 179t-179 74t-178 -74t-74 -179t74 -179t178 -74t179 74t75 179zM1434 269q0 -105 74 -179t178 -74t179 74t74 178q0 104 -74 179q-75 75 -179 75t-179 -73
q-73 -75 -73 -180zM735 268q0 121 84 206t205 85t205 -85t84 -206t-85 -205q-85 -83 -204 -83t-204 84t-85 204zM1397 268q0 121 85 206t205 85q121 0 205 -85t84 -205q0 -121 -85 -205t-205 -84t-204 84q-85 84 -85 204zM389 911q104 0 179 74t75 179t-75 179t-179 74
t-178 -74t-74 -179t74 -179t178 -74zM389 874q-121 0 -205 85t-84 206t85 205t205 84t205 -85t85 -205t-85 -205t-206 -85z" />
    <glyph glyph-name="guilsinglleft" unicode="&#x2039;" horiz-adv-x="524" 
d="M365 127l-250 352q-6 8 0 17l250 348q7 11 23 1q17 -9 9 -20l-239 -338l239 -342q8 -10 -9 -19q-16 -10 -23 1z" />
    <glyph glyph-name="guilsinglright" unicode="&#x203a;" horiz-adv-x="526" 
d="M129 145l240 342l-240 338q-6 11 10 20t23 -1l250 -348q6 -8 0 -17l-250 -352q-7 -11 -23 -2q-16 10 -10 20z" />
    <glyph glyph-name="fraction" unicode="&#x2044;" horiz-adv-x="245" 
d="M-287 4q-8 -10 -14 -6l-16 10q-8 6 -2 17l854 1405q6 8 22 -2q16 -9 10 -19z" />
    <glyph glyph-name="zerosuperior" unicode="&#x2070;" horiz-adv-x="677" 
d="M338 1049q100 0 157 75q56 76 56 211t-56 212q-57 77 -157 77t-156 -77t-57 -211q0 -134 56 -211q57 -76 157 -76zM338 1012q-116 0 -182 87t-66 237t66 237q66 86 182 86t184 -86q66 -86 66 -237q0 -152 -66 -238t-184 -86z" />
    <glyph glyph-name="foursuperior" unicode="&#x2074;" horiz-adv-x="671" 
d="M457 1206v379l-348 -379h348zM471 1032q-14 0 -14 15v124h-394q-10 -1 -13 7t3 16l416 457q8 6 16 3t9 -14v-434h102q14 0 14 -14v-8q0 -12 -14 -13h-102v-124q0 -14 -15 -15h-8z" />
    <glyph glyph-name="fivesuperior" unicode="&#x2075;" horiz-adv-x="620" 
d="M549 1230q0 -90 -72 -154q-71 -64 -183 -64t-198 80q-10 10 4 24t25 4q66 -72 166 -72t161 53q60 52 60 127t-54 118t-159 40h-176q-14 0 -14 15v223q0 14 14 14h328q14 0 14 -14v-8q0 -14 -14 -14h-306v-179h154q121 2 185 -50t65 -143z" />
    <glyph glyph-name="sixsuperior" unicode="&#x2076;" horiz-adv-x="622" 
d="M320 1049q86 0 142 53t56 130t-54 124t-125 47t-123 -28t-73 -56l-18 -27v-4q0 -102 54 -171q55 -68 141 -68zM322 1442q102 0 168 -58t65 -151t-67 -157t-170 -64t-168 77q-66 77 -66 180q0 242 244 369q45 25 86 39q12 4 16 -8l4 -14q0 -12 -8 -15q-164 -60 -244 -170
q-39 -53 -53 -114q91 86 193 86z" />
    <glyph glyph-name="sevensuperior" unicode="&#x2077;" horiz-adv-x="538" 
d="M78 1602q-12 0 -12 14v8q0 14 12 14h399q20 0 12 -20l-321 -584q-6 -12 -16 -6l-15 8q-8 2 -2 17l303 549h-360z" />
    <glyph glyph-name="eightsuperior" unicode="&#x2078;" horiz-adv-x="645" 
d="M324 1044q82 0 136 36t54 100t-51 99q-51 36 -139 40q-88 -4 -140 -40q-52 -35 -51 -99t55 -100t136 -36zM498 1492q0 54 -46 94t-131 40t-128 -39t-43 -94t48 -88t126 -37q78 4 126 37t48 87zM555 1170q1 -72 -65 -115t-167 -43t-167 43t-66 129q0 57 41 100t113 59
q-62 15 -98 55t-36 102t53 110q53 49 159 49t160 -49q54 -48 54 -110q1 -119 -135 -157q154 -34 154 -173z" />
    <glyph glyph-name="ninesuperior" unicode="&#x2079;" horiz-adv-x="622" 
d="M284 1268q71 0 123 28t72 56l19 26v4q0 102 -54 171t-141 69q-86 0 -142 -53q-57 -53 -57 -130t54 -124t126 -47zM302 1229q-102 0 -169 58q-65 59 -65 151t66 156t170 65q104 0 170 -77t65 -180q0 -194 -139 -299q-105 -81 -191 -110q-12 -4 -16 8l-5 15q0 12 9 14
q161 59 243 170q39 53 54 115q-90 -86 -192 -86z" />
    <glyph glyph-name="zeroinferior" unicode="&#x2080;" horiz-adv-x="677" 
d="M338 285q-100 0 -156 -77t-57 -211q0 -134 56 -211q57 -77 157 -77t157 76q56 76 56 211t-56 212q-57 77 -157 77zM338 -328q-116 0 -182 87t-66 238t66 237t182 85q116 0 184 -86q66 -87 66 -237t-67 -237t-183 -87z" />
    <glyph glyph-name="oneinferior" unicode="&#x2081;" horiz-adv-x="342" 
d="M231 295v-588q0 -14 -14 -14h-8q-14 0 -14 14v545l-113 -84q-10 -6 -16 2l-11 14q-4 8 4 15l150 108q8 6 15 2t7 -14z" />
    <glyph glyph-name="twoinferior" unicode="&#x2082;" horiz-adv-x="583" 
d="M477 -270q12 0 12 -15v-8q0 -14 -12 -14h-393q-10 0 -14 9t4 15l270 226q115 96 115 190q0 61 -48 105q-49 44 -113 45q-111 0 -155 -56l-12 -18q-6 -14 -22 -3t-10 21q5 9 17 25t61 42q48 26 106 25q98 0 155 -55t58 -131q0 -106 -127 -213l-230 -190h338z" />
    <glyph glyph-name="threeinferior" unicode="&#x2083;" horiz-adv-x="622" 
d="M178 -2v8q0 14 15 14h133q66 0 108 39t43 97q0 58 -44 92q-43 35 -109 35q-66 -1 -111 -19t-61 -37l-19 -18q-8 -8 -21 3t-8 21q27 34 86 60q60 27 138 27t132 -45q56 -44 56 -121q0 -45 -32 -88t-74 -62q55 -18 90 -61t35 -93q0 -78 -65 -128q-66 -50 -180 -50t-208 86
q-10 10 3 24q13 13 24 3q84 -76 183 -76t151 40q53 40 53 98q0 57 -46 97t-124 40h-133q-15 0 -15 14z" />
    <glyph glyph-name="fourinferior" unicode="&#x2084;" horiz-adv-x="671" 
d="M457 -133v379l-348 -379h348zM494 -133h102q14 0 14 -14v-9q0 -12 -14 -12h-102v-125q0 -14 -15 -14h-8q-14 0 -14 14v125h-394q-10 0 -13 8t3 15l416 456q8 6 16 3t9 -13v-434z" />
    <glyph glyph-name="fiveinferior" unicode="&#x2085;" horiz-adv-x="618" 
d="M106 61v224q0 14 15 14h328q14 0 14 -14v-9q0 -14 -14 -14h-306v-178h154q121 2 185 -50t65 -144q0 -92 -72 -154q-71 -64 -183 -64t-198 80q-10 10 4 25q14 14 25 4q66 -72 166 -72t161 52q60 52 60 127t-54 118t-159 41h-176q-15 0 -15 14z" />
    <glyph glyph-name="sixinferior" unicode="&#x2086;" horiz-adv-x="622" 
d="M125 -51q0 -102 54 -171q55 -69 141 -69t142 53t56 130t-54 124t-125 47q-71 1 -123 -27t-73 -56l-18 -27v-4zM322 102q102 0 168 -58t65 -150q0 -92 -67 -158q-67 -64 -170 -64q-102 0 -168 77t-66 181q0 195 138 298q105 80 192 110q12 4 16 -8l4 -15q0 -12 -8 -14
q-162 -59 -244 -170q-39 -53 -53 -115q91 86 193 86z" />
    <glyph glyph-name="seveninferior" unicode="&#x2087;" horiz-adv-x="530" 
d="M74 262q-12 0 -13 14v9q0 14 13 14h399q20 0 12 -20l-321 -584q-6 -12 -17 -6l-14 8q-8 2 -2 16l303 549h-360z" />
    <glyph glyph-name="eightinferior" unicode="&#x2088;" horiz-adv-x="643" 
d="M131 -160q0 -64 54 -100q55 -36 137 -35q82 0 136 36t54 99q0 64 -51 100t-139 40q-88 -4 -140 -40q-51 -36 -51 -100zM147 154q1 -55 49 -88t126 -37q78 4 126 37t48 87t-46 94t-132 40t-128 -39q-43 -39 -43 -94zM399 4q154 -33 154 -173q0 -73 -66 -116
q-67 -43 -167 -43t-166 43t-66 129q0 56 41 100t113 60q-134 35 -134 156q0 62 53 110q52 48 158 49q107 0 161 -49t54 -110q0 -60 -36 -100q-37 -40 -99 -56z" />
    <glyph glyph-name="nineinferior" unicode="&#x2089;" horiz-adv-x="622" 
d="M498 43q0 102 -54 171t-141 69q-87 1 -143 -53t-56 -131t54 -124t126 -47q71 0 123 28t72 56l19 27v4zM302 -111q-102 1 -168 59t-66 150t66 157t170 65t170 -78q66 -76 65 -180q0 -195 -139 -299q-103 -79 -191 -109q-12 -4 -16 8l-5 14q0 12 9 15q161 59 243 170
q39 53 54 114q-90 -86 -192 -86z" />
    <glyph glyph-name="Euro" unicode="&#x20ac;" 
d="M965 782h-756q-2 -23 -2 -84t8 -120h670q12 0 12 -15v-8q0 -12 -12 -12h-664q37 -227 167 -378t345 -151q117 0 202 41t169 131q8 8 16 0l10 -10q8 -8 0 -16q-86 -94 -179 -138t-218 -45q-231 0 -373 159q-141 159 -178 407h-110q-12 0 -13 12v8q0 6 4 11t9 4h106
q-8 58 -8 120t2 84h-100q-12 0 -13 15v8q0 14 13 14h102q27 270 177 453q151 182 376 182t401 -170q8 -8 -6 -27q-8 -8 -16 0q-172 160 -381 160t-348 -171t-166 -427h754q14 0 14 -14v-8q0 -15 -14 -15z" />
    <glyph glyph-name="afii61289" unicode="&#x2113;" horiz-adv-x="952" 
d="M858 1206q0 94 -42 150t-118 57q-125 0 -208 -167t-152 -505l-41 -196q245 90 403 258t158 403zM698 1454q94 0 148 -68t55 -180q0 -256 -173 -432t-439 -272l-13 -58q-16 -76 -16 -155q0 -268 219 -269q205 0 350 97q14 9 24 -7q11 -16 -1 -26t-47 -30t-129 -47
q-94 -28 -197 -27q-262 0 -262 305q0 68 19 168l6 32q-87 -29 -148 -41q-12 -2 -16 11l-4 16q-4 12 12 16q88 16 166 43l43 215q72 353 167 531t236 178z" />
    <glyph glyph-name="uni2117" unicode="&#x2117;" horiz-adv-x="1759" 
d="M715 668h243q90 0 160 53t70 150t-68 147t-162 51h-243v-401zM680 354v736q0 14 12 14h266q111 0 189 -60t78 -170t-74 -176t-193 -65h-243v-279q0 -14 -15 -14h-8q-12 0 -12 14zM176 717q0 -291 206 -496t497 -205t497 205t207 496q0 291 -207 495q-208 204 -498 205
q-290 -1 -496 -205t-206 -495zM139 717q0 305 217 521q216 216 522 216t524 -216t218 -521t-218 -521t-523 -216t-523 216q-217 216 -217 521z" />
    <glyph glyph-name="trademark" unicode="&#x2122;" horiz-adv-x="1640" 
d="M371 797q-14 0 -15 14v586h-213q-14 0 -14 14v8q0 14 14 15h459q14 0 14 -15v-8q0 -14 -14 -14h-209v-586q0 -14 -14 -14h-8zM899 1456q10 0 12 -10l189 -576l186 576q4 10 14 10t15 -10l168 -633q2 -14 -8 -16l-17 -4q-8 -2 -12 8l-148 553l-184 -570q-4 -10 -14 -10
t-15 10l-184 570l-149 -553q-2 -13 -29 -4q-10 4 -8 16l170 633q4 10 14 10z" />
    <glyph glyph-name="Omega" unicode="&#x2126;" horiz-adv-x="1736" 
d="M186 14v9q0 14 15 14h381q-205 84 -330 266t-125 412q0 309 215 524t524 215q310 0 526 -215t216 -524q0 -225 -123 -409t-324 -269h379q14 0 14 -14v-9q0 -14 -14 -14h-487q-14 0 -15 14v9q0 14 15 14q227 61 372 249t146 429q0 293 -206 497t-499 205q-294 0 -498 -205
t-204 -497q0 -246 146 -433t378 -245q14 0 14 -14v-9q0 -14 -14 -14h-487q-15 0 -15 14z" />
    <glyph glyph-name="estimated" unicode="&#x212e;" horiz-adv-x="1718" 
d="M309 733h1143v391q-98 135 -249 214t-325 79t-323 -77q-150 -77 -246 -212v-395zM1620 711q0 -14 -14 -15h-1297v-395q24 -34 49 -59q96 -106 232 -166t289 -60q264 0 473 191q10 10 16 0l10 -12q6 -6 0 -15q-208 -200 -508 -200t-516 213q-215 213 -215 522t215 524
q216 215 524 215t524 -213t218 -520v-10z" />
    <glyph glyph-name="onethird" unicode="&#x2153;" horiz-adv-x="1290" 
d="M939 16q99 0 152 40q52 40 52 98t-46 98q-46 39 -124 39h-133q-14 0 -15 14v8q0 14 15 15h133q67 0 109 39t42 96t-44 92t-110 35t-110 -18q-45 -18 -61 -37l-19 -19q-8 -8 -21 3t-6 21q21 31 82 59t139 28t134 -44t55 -122q1 -45 -31 -88t-75 -62q55 -18 90 -61t35 -92
q0 -78 -65 -128t-179 -50t-209 86q-10 10 3 23t24 3q84 -76 183 -76zM135 8q-8 6 -2 17l854 1405q6 8 23 -1q16 -10 10 -20l-854 -1405q-8 -10 -14 -6zM264 827q-14 0 -14 15v544l-113 -83q-10 -6 -16 2l-10 14q-4 8 4 14l149 109q8 6 16 2t7 -14v-588q0 -14 -15 -15h-8z
" />
    <glyph glyph-name="twothirds" unicode="&#x2154;" horiz-adv-x="1439" 
d="M1088 16q100 0 152 40t52 98t-46 98q-46 39 -124 39h-133q-14 0 -14 14v8q0 14 14 15h133q66 0 109 39t43 96t-44 92t-110 35t-110 -18q-45 -18 -64 -37l-16 -19q-8 -8 -22 3t-6 21q6 10 22 25q16 14 69 38t131 24t133 -44t56 -122q0 -45 -32 -88t-75 -62q55 -18 90 -61
t35 -92q-1 -78 -65 -128t-178 -50t-209 86q-10 10 3 23t23 3q83 -76 183 -76zM285 8q-8 6 -2 17l854 1405q6 8 22 -2q16 -9 10 -19l-854 -1405q-8 -10 -14 -6zM127 827q-10 -1 -14 9t4 16l270 225q115 96 115 191q0 61 -48 105t-112 44t-103 -18q-38 -18 -51 -37l-14 -19
q-7 -15 -22 -2t-10 22q6 9 18 25t60 40q48 26 106 26q98 0 155 -55t58 -131q0 -106 -127 -213l-230 -191h338q12 0 12 -14v-8q0 -14 -12 -15h-393z" />
    <glyph glyph-name="oneeighth" unicode="&#x215b;" horiz-adv-x="1314" 
d="M786 148q0 -64 54 -100t137 -36q82 0 136 36t54 100t-51 99q-51 36 -139 40q-87 -4 -139 -40q-52 -35 -52 -99zM803 461q0 -55 48 -88t126 -37q78 4 126 37t48 87t-46 94t-131 40t-128 -39t-43 -94zM1055 311q153 -33 153 -173q0 -72 -66 -115t-166 -43q-101 0 -167 43
t-66 129q0 57 41 100t113 59q-61 15 -97 55t-36 102t52 110q52 49 158 49t162 -49q54 -48 54 -110q0 -118 -135 -157zM135 8q-8 6 -2 17l854 1405q6 8 23 -1q16 -10 10 -20l-854 -1405q-8 -10 -14 -6zM264 827q-14 0 -14 15v544l-113 -83q-10 -6 -16 2l-10 14q-4 8 4 14
l149 109q8 6 16 2t7 -14v-588q0 -14 -15 -15h-8z" />
    <glyph glyph-name="threeeighths" unicode="&#x215c;" horiz-adv-x="1421" 
d="M891 148q0 -64 54 -100t136 -36t137 36q54 36 54 100t-51 99q-51 36 -140 40q-88 -4 -139 -40q-51 -35 -51 -99zM907 461q0 -55 48 -88t126 -37q78 4 126 37t48 87t-46 94t-131 40t-128 -39t-43 -94zM1159 311q154 -33 154 -173q0 -72 -66 -115t-167 -43t-167 43
q-65 43 -65 129q0 57 41 100t112 59q-61 15 -97 55t-36 102t52 110q52 49 159 49t161 -49q54 -48 54 -110q0 -118 -135 -157zM258 25l854 1405q6 8 22 -2q17 -9 11 -19l-854 -1405q-8 -10 -15 -6l-16 10q-8 7 -2 17zM326 807q-114 0 -209 86q-9 9 3 23q13 14 23 4
q83 -76 183 -76t152 40t52 98t-46 97t-124 39h-133q-14 0 -14 15v8q0 14 14 14h133q66 0 109 39t43 96t-44 92t-110 35t-110 -18q-45 -18 -64 -37l-16 -19q-8 -8 -14 -2l-11 9q-10 8 -4 18q27 33 86 60q59 26 137 26t134 -44t55 -122q0 -45 -32 -88t-75 -61q54 -17 90 -61
t35 -93q-1 -78 -65 -128t-178 -50z" />
    <glyph glyph-name="fiveeighths" unicode="&#x215d;" horiz-adv-x="1411" 
d="M881 148q0 -64 54 -100t136 -36t136 36q55 36 55 100t-52 99q-52 36 -139 40q-88 -4 -139 -40q-51 -35 -51 -99zM897 461q0 -55 48 -88t126 -37q78 4 126 37t48 87t-46 94t-131 40t-128 -39t-43 -94zM1149 311q154 -33 154 -173q0 -72 -66 -115t-167 -43t-167 43
q-65 43 -65 129q0 57 41 100t112 59q-61 15 -97 55t-36 102t52 110q52 49 158 49t162 -49q54 -48 54 -110q0 -118 -135 -157zM248 25l854 1405q6 8 22 -2q16 -9 11 -19l-854 -1405q-8 -10 -15 -6l-16 10q-8 7 -2 17zM582 1025q0 -91 -72 -155t-184 -63q-112 0 -197 80
q-10 10 4 24t25 4q66 -71 166 -71t160 52t60 127t-54 118t-158 41h-176q-14 0 -15 14v223q0 14 15 15h327q14 0 15 -15v-8q0 -14 -15 -14h-305v-178h154q122 1 186 -51t64 -143z" />
    <glyph glyph-name="seveneighths" unicode="&#x215e;" horiz-adv-x="1302" 
d="M772 148q0 -64 54 -100t136 -36t137 36q54 36 54 100t-51 99q-51 36 -139 40q-87 -4 -139 -40q-52 -35 -52 -99zM960 594q-84 0 -128 -39t-44 -94t48 -88t127 -37q78 4 126 37t48 87t-46 94t-131 40zM1040 311q154 -33 154 -173q0 -72 -66 -115t-166 -43t-167 43
q-66 43 -66 129q0 57 41 100t113 59q-61 15 -97 55t-36 102t52 110q52 49 158 49t161 -49q55 -48 55 -110q0 -120 -136 -157zM139 25l854 1405q6 8 23 -1q16 -10 10 -20l-854 -1405q-8 -10 -14 -6l-17 10q-8 7 -2 17zM127 1397q-12 0 -12 14v8q0 14 12 15h399q20 0 13 -21
l-322 -584q-6 -12 -16 -6l-15 8q-8 2 -2 17l303 549h-360z" />
    <glyph glyph-name="partialdiff" unicode="&#x2202;" horiz-adv-x="1202" 
d="M133 470q0 -190 129 -322t309 -132q213 0 336 160t123 406v30q-72 106 -139 164q-147 121 -327 121t-306 -119q-125 -119 -125 -308zM571 -20q-195 0 -335 143t-140 348t136 334t327 129q279 0 465 -248q-16 139 -78 262q-61 123 -136 204t-189 164t-254 134q-11 7 -5 31
q4 10 17 6q157 -59 285 -157q128 -97 208 -192q80 -94 138 -242t57 -314q0 -262 -133 -432t-363 -170z" />
    <glyph glyph-name="Delta" unicode="&#x2206;" horiz-adv-x="1406" 
d="M113 37h1177l-581 1366zM711 1477q6 0 10 -9l610 -1433q14 -35 -26 -35h-1205q-18 0 -23 4t1 35l618 1429q4 8 11 9h4z" />
    <glyph glyph-name="product" unicode="&#x220f;" horiz-adv-x="1544" 
d="M231 14v1405q0 14 15 15h1052q14 0 15 -15v-1405q0 -14 -15 -14h-8q-14 0 -14 14v1383h-1008v-1383q0 -14 -14 -14h-8q-15 0 -15 14z" />
    <glyph glyph-name="summation" unicode="&#x2211;" horiz-adv-x="1089" 
d="M948 1434q14 0 15 -15v-8q0 -14 -15 -14h-788l690 -627q14 -14 14 -20v-9q0 -6 -14 -20l-698 -684h796q14 0 15 -14v-9q0 -14 -15 -14h-833q-14 0 -19 14q-4 15 4 23l717 711l-717 649q-10 8 -6 22t21 15h833z" />
    <glyph glyph-name="minus" unicode="&#x2212;" 
d="M215 696q-14 0 -14 15v8q0 14 14 14h797q14 0 14 -14v-8q0 -14 -14 -15h-797z" />
    <glyph glyph-name="uni2215" unicode="&#x2215;" horiz-adv-x="245" 
d="M-287 4q-8 -10 -14 -6l-16 10q-8 6 -2 17l854 1405q6 8 22 -2q16 -9 10 -19z" />
    <glyph glyph-name="uni2219" unicode="&#x2219;" horiz-adv-x="405" 
d="M203 487q-21 1 -35 15t-14 34t14 34t34 14t36 -14q14 -14 14 -33q0 -20 -14 -35t-35 -15z" />
    <glyph glyph-name="radical" unicode="&#x221a;" horiz-adv-x="1320" 
d="M1294 1434q14 0 15 -15v-8q0 -14 -15 -14h-221l-620 -1430q-5 -8 -13 -8t-12 8l-356 842q-2 10 6 12l18 6q6 2 10 -6l334 -788l602 1384q6 16 23 17h229z" />
    <glyph glyph-name="infinity" unicode="&#x221e;" horiz-adv-x="1425" 
d="M440 354q104 0 180 74q74 74 74 179t-74 179q-76 74 -180 74t-178 -74t-74 -179t74 -179t178 -74zM731 607q0 -105 74 -179t178 -74t179 74t75 179t-74 179t-179 74t-179 -74t-74 -179zM426 317q-106 0 -190 85t-84 205t84 205t190 85t181 -53t104 -137q31 84 105 137
q76 53 182 53t191 -85t85 -205t-85 -205t-191 -85q-106 1 -182 53q-75 52 -105 136q-29 -84 -104 -136t-181 -53z" />
    <glyph glyph-name="integral" unicode="&#x222b;" horiz-adv-x="1073" 
d="M518 -150v1244q0 178 82 269t223 91t234 -88q9 -9 -3 -23q-13 -14 -24 -4q-82 78 -207 78t-197 -81t-71 -242v-1244q0 -178 -82 -269t-223 -91t-234 88q-11 11 3 24t24 3q82 -78 207 -78q124 1 196 81t72 242z" />
    <glyph glyph-name="approxequal" unicode="&#x2248;" 
d="M777 324q-40 0 -74 18t-50 36t-43 48q-68 90 -134 90t-114 -36t-67 -70l-21 -37q-8 -10 -14 -6l-12 8q-6 4 -2 11t15 32t51 62q75 71 157 71t166 -102q70 -93 134 -93q63 0 111 37t66 74l19 35q4 10 12 6l14 -8q8 -6 4 -14q-47 -99 -140 -145q-38 -17 -78 -17zM769 696
q63 0 111 37t66 74l19 35q4 10 12 6l14 -8q8 -6 4 -14q-47 -99 -140 -145q-38 -17 -78 -17t-74 18t-50 36t-43 48q-68 90 -134 90t-114 -36t-67 -70l-21 -37q-8 -10 -14 -6l-12 8q-6 4 -2 11t15 32t51 62q73 69 156 70t167 -102q70 -92 134 -92z" />
    <glyph glyph-name="notequal" unicode="&#x2260;" 
d="M274 360q-14 0 -14 15v8q0 14 14 14h236l221 385h-457q-14 0 -14 15v8q0 14 14 14h478l77 135q6 10 21 4l6 -4q14 -6 6 -18l-67 -117h157q14 0 15 -14v-8q0 -14 -15 -15h-180l-221 -385h401q14 0 15 -14v-8q0 -14 -15 -15h-424l-108 -190q-8 -12 -19 -4q-21 11 -12 22
l98 172h-213z" />
    <glyph glyph-name="lessequal" unicode="&#x2264;" 
d="M207 174q-14 0 -14 14v9q0 14 14 14h797q14 0 14 -14v-9q0 -14 -14 -14h-797zM195 805q-20 12 0 24l788 420q12 6 23 -10t-2 -22l-758 -400l758 -385q12 -6 4 -18l-7 -11q-6 -10 -18 -4z" />
    <glyph glyph-name="greaterequal" unicode="&#x2265;" 
d="M223 174q-14 0 -14 14v9q0 14 14 14h797q14 0 14 -14v-9q0 -14 -14 -14h-797zM244 399q-12 -6 -19 4l-6 11q-8 12 4 18l758 385l-758 400q-11 6 -2 22q10 16 23 10l788 -420q20 -12 0 -24z" />
    <glyph glyph-name="lozenge" unicode="&#x25ca;" horiz-adv-x="1153" 
d="M580 37l434 680l-434 678l-443 -678zM102 717q0 10 23 43l442 688q4 8 11 8h4q6 0 10 -8l434 -684q23 -35 23 -47t-23 -47l-434 -684q-4 -8 -10 -9h-4q-7 1 -11 9l-442 686q-23 35 -23 45z" />
    <glyph glyph-name="commaaccent" unicode="&#xf6c3;" horiz-adv-x="598" 
d="M215 -220q0 22 15 36t38 14q86 0 86 -125t-71 -184q-10 -8 -19 0l-10 12q-10 12 4 23q55 43 55 129q0 41 -12 59q-13 -12 -35 -12t-37 13q-14 13 -14 35z" />
    <glyph glyph-name="uniF8FF" unicode="&#xf8ff;" horiz-adv-x="1226" 
d="M502 319q0 -41 30 -69t69 -29q40 0 70 29q29 30 29 70t-29 69q-30 29 -70 29q-39 0 -69 -29t-30 -70zM537 643q0 -25 28 -25h74q31 0 31 27v53q0 57 107 124q40 26 74 75t34 109q0 98 -73 162t-193 65q-120 0 -213 -80q-22 -18 -41 -44t-3 -38l46 -45q24 -18 70 33
q45 51 120 51q74 0 108 -31t34 -75t-32 -80q-32 -37 -70 -62q-38 -24 -70 -66t-31 -94v-59zM102 61v1311q0 61 62 62h899q61 0 61 -62v-1311q0 -61 -61 -61h-899q-62 0 -62 61z" />
    <glyph glyph-name="g.alt" horiz-adv-x="1114" 
d="M180 -201q0 -117 110 -195t318 -77q208 0 325 76q118 76 118 210t-94 181q-78 39 -226 39h-323q-52 -4 -130 -48q-42 -23 -70 -73t-28 -113zM575 309q161 0 259 79t98 214q0 86 -34 150q-58 108 -201 143q-56 14 -115 14q-162 0 -259 -84t-97 -214t94 -216t255 -86z
M111 213q0 131 141 197q-63 86 -64 192q0 158 106 251t288 93h415q14 0 15 -14v-8q0 -14 -15 -15h-225q80 -33 138 -109t58 -212q0 -138 -107 -227q-108 -89 -294 -89t-288 107q-131 -51 -132 -166q-1 -70 47 -107t113 -36h424q170 0 263 -56t93 -204q0 -146 -128 -233
t-353 -87t-344 88t-119 221q0 93 44 145t116 89q-80 4 -136 49t-56 131z" />
    <glyph glyph-name="grave.cap" horiz-adv-x="618" 
d="M510 1593l-373 185q-12 6 -4 21t21 11l372 -186q10 -6 6 -14l-4 -11q-6 -10 -18 -6z" />
    <glyph glyph-name="acute.cap" horiz-adv-x="618" 
d="M145 1593q-12 -4 -18 6l-4 11q-4 8 6 14l373 186q13 4 20 -11q8 -15 -4 -21z" />
    <glyph glyph-name="circumflex.cap" horiz-adv-x="763" 
d="M127 1563q-6 -6 -23 12q-4 8 5 16l264 217q8 8 16 0l264 -217q8 -8 4 -16q-15 -19 -22 -12l-254 206z" />
    <glyph glyph-name="caron.cap" horiz-adv-x="763" 
d="M373 1579l-264 217q-8 8 -5 16q16 20 23 13l254 -207l254 207q7 7 17 -7q9 -14 1 -22l-264 -217q-8 -8 -16 0z" />
    <glyph glyph-name="caron.alt" horiz-adv-x="763" 
d="M289 1404q0 22 15 36t38 14q86 0 86 -125t-72 -184q-10 -8 -18 0l-10 12q-10 12 4 23q55 43 55 129q0 41 -12 59q-13 -12 -35 -12t-37 13q-14 13 -14 35z" />
    <glyph glyph-name="tilde.cap" horiz-adv-x="778" 
d="M262 1837q67 0 96 -43t45 -82q39 -94 109 -94q96 0 139 147q4 14 15 11l16 -4q12 -2 6 -19q-57 -172 -176 -172q-94 0 -145 123q-12 29 -20 43q-7 15 -31 35t-54 20q-96 0 -139 -149q-4 -15 -14 -11l-17 5q-12 4 -6 18q55 172 176 172z" />
    <glyph glyph-name="dieresis.cap" horiz-adv-x="970" 
d="M274 1655q-47 0 -47 46t47 46t48 -47q-1 -45 -48 -45zM698 1655q-47 0 -47 46t47 46t47 -46t-47 -46z" />
    <glyph glyph-name="macron.cap" horiz-adv-x="847" 
d="M129 1724q-14 0 -14 15v8q0 14 14 14h590q14 0 14 -14v-8q0 -14 -14 -15h-590z" />
    <glyph glyph-name="breve.cap" horiz-adv-x="708" 
d="M353 1597q-101 -1 -173 63t-86 159q-2 4 3 9t9 5h15q10 0 10 -12q13 -82 75 -134q62 -53 148 -53t148 52t76 135q0 12 10 12h14q4 0 9 -5t3 -9q-16 -96 -88 -159t-173 -63z" />
    <glyph glyph-name="ring.cap" horiz-adv-x="593" 
d="M298 1571q73 0 125 52t52 125t-52 126t-125 53t-124 -52t-51 -126t51 -126t124 -52zM299 1536q-90 0 -152 61q-61 61 -61 151t61 152t151 62t152 -61t62 -151t-61 -153q-62 -61 -152 -61z" />
    <glyph glyph-name="hungarumlaut.cap" horiz-adv-x="802" 
d="M131 1554q-8 -10 -25 0q-10 8 -4 19l222 354q8 10 24 0q10 -8 4 -18zM471 1554q-8 -10 -25 0q-10 8 -4 19l222 354q8 10 24 0q10 -8 4 -18z" />
    <glyph glyph-name="dotaccent.cap" horiz-adv-x="448" 
d="M221 1677q-19 1 -33 15t-14 33t13 35t33 16t34 -16t14 -34q0 -20 -14 -34t-33 -15z" />
    <glyph glyph-name="cedilla.cap" horiz-adv-x="505" 
d="M438 -308q0 -77 -52 -125t-140 -48t-154 69q-10 10 5 23t26 4q53 -59 125 -59t112 36t39 98q0 60 -39 94t-96 34t-100 -19q-8 -4 -16 6q-7 10 -3 17l117 184h45l-110 -164q27 12 82 12t107 -42q52 -43 52 -120z" />
    <glyph glyph-name="ogonek.cap" horiz-adv-x="565" 
d="M106 -302q0 -62 39 -106t95 -43t85 15t48 24l18 11q12 6 17 -5l6 -12q6 -12 -15 -22q-95 -47 -163 -47t-117 52t-49 126q0 139 93 218q93 80 183 126l21 -29q-105 -58 -159 -102q-54 -45 -78 -95q-24 -49 -24 -111z" />
    <glyph glyph-name="commaaccent.alt" horiz-adv-x="598" 
d="M354 1230q0 -22 -15 -36t-38 -14q-86 0 -86 125t72 184q10 8 18 0l10 -12q10 -12 -4 -23q-55 -43 -55 -129q0 -41 12 -59q12 12 34 12t38 -13q14 -13 14 -35z" />
    <glyph glyph-name="commaaccent.cap" horiz-adv-x="598" 
d="M215 -220q0 22 15 36t38 14q86 0 86 -125t-71 -184q-10 -8 -19 0l-10 12q-10 12 4 23q55 43 55 129q0 41 -12 59q-13 -12 -35 -12t-37 13q-14 13 -14 35z" />
    <glyph glyph-name="brokenbar.case" horiz-adv-x="413" 
d="M188 414q0 12 15 12h8q14 0 14 -12v-740q0 -14 -14 -14h-8q-14 0 -15 14v740zM203 932q-14 0 -15 14v740q0 14 15 14h8q14 0 14 -14v-740q0 -14 -14 -14h-8z" />
    <glyph glyph-name="zero.tf" 
d="M614 14q228 0 346 182t118 520q0 337 -117 519t-347 182t-346 -182t-116 -519q0 -338 116 -520t346 -182zM614 -23q-246 0 -372 194t-127 546q0 352 127 545q126 192 372 192t373 -192t127 -545q0 -352 -127 -546t-373 -194z" />
    <glyph glyph-name="one.tf" 
d="M193 0q-12 0 -13 14v9q0 16 13 16h464v1345l-413 -323q-10 -6 -17 2l-10 14q-4 8 4 17l451 346q8 8 16 3t8 -16v-1388h414q14 0 14 -16v-9q0 -14 -14 -14h-917z" />
    <glyph glyph-name="two.tf" 
d="M1038 1042q0 -132 -68 -246t-198 -235l-559 -522h801q14 0 14 -16v-9q0 -14 -14 -14h-858q-10 0 -15 9q-4 10 4 16l603 561q122 114 188 224t65 232q0 160 -113 268q-114 108 -300 108t-299 -128q-27 -29 -39 -49l-10 -20q-6 -12 -17 -7l-14 9q-10 10 -5 19q18 32 56 75
q68 77 154 107q86 31 157 30q221 0 344 -118t123 -294z" />
    <glyph glyph-name="three.tf" 
d="M1024 393q0 131 -106 231t-271 99h-280q-14 0 -15 16v9q0 14 15 14h280q137 0 237 93q99 93 99 235t-101 235q-101 92 -255 92t-250 -58t-127 -97l-14 -19q-10 -10 -19 -4l-12 8q-13 8 5 29q19 20 58 53t83 59t116 46t149 20q180 0 293 -102t113 -262q0 -124 -74 -218
t-184 -127q131 -33 213 -133t82 -219q0 -180 -131 -297t-350 -116q-140 0 -247 49q-61 25 -140 97q-8 9 -39 42q-8 12 0 20l10 9q12 6 20 -2q121 -129 242 -160q70 -18 154 -19q202 0 324 106t122 271z" />
    <glyph glyph-name="four.tf" 
d="M895 371v1018l-760 -1018h760zM86 336q-10 0 -13 7t3 15l831 1102q3 8 13 5t10 -13v-1081h170q14 0 14 -13v-8q0 -14 -14 -14h-170v-322q0 -14 -15 -14h-6q-14 0 -14 14v322h-809z" />
    <glyph glyph-name="five.tf" 
d="M604 16q199 0 325 131t126 324t-117 294t-342 99h-373q-14 0 -14 17v538q0 14 14 15h688q14 0 15 -15v-6q0 -14 -15 -14h-663v-498h348q242 3 370 -109t128 -321t-138 -350t-352 -141q-262 0 -414 180q-8 10 0 20l11 8q8 6 18 -4q145 -168 385 -168z" />
    <glyph glyph-name="six.tf" 
d="M193 582q1 -248 119 -407t331 -159q180 0 306 132t126 322t-122 308q-122 119 -296 119q-83 0 -159 -27t-136 -67t-115 -111q-54 -71 -54 -80v-30zM156 582q0 166 56 312t135 240t206 190q127 97 283 153q12 4 16 -7q7 -24 -4 -30q-131 -46 -249 -130q-119 -84 -191 -162
t-132 -201q-60 -122 -77 -261q186 248 458 248q189 0 321 -129t132 -335t-136 -348t-331 -142q-227 0 -357 170t-130 432z" />
    <glyph glyph-name="seven.tf" 
d="M176 1399q-16 0 -16 14v6q0 14 16 15h897q8 0 13 -6t1 -13l-622 -1413q-6 -12 -16 -6l-13 4q-10 4 -4 18l608 1381h-864z" />
    <glyph glyph-name="eight.tf" 
d="M180 354q0 -162 120 -252t312 -90t315 90q122 90 122 267q0 139 -119 232t-316 108q-202 -13 -318 -103t-116 -252zM1010 1076q0 140 -102 242t-298 101q-197 0 -294 -100q-97 -99 -97 -241q1 -142 111 -226t284 -94q174 10 285 94t111 224zM143 369q-1 141 101 237
t280 125q-154 31 -248 123t-94 236t106 254t323 110q216 0 326 -112t110 -254q1 -142 -93 -234t-247 -123q180 -29 279 -122t99 -240q0 -195 -131 -292t-341 -97t-340 97t-130 292z" />
    <glyph glyph-name="nine.tf" 
d="M571 541q82 1 158 27t122 57t98 87t67 83q16 26 16 28l2 2v29q0 248 -119 404t-331 157q-180 0 -305 -129q-125 -130 -125 -320t121 -308q122 -117 296 -117zM571 502q-188 0 -321 130t-133 335t136 346t331 141q227 0 357 -169t130 -431q0 -166 -56 -311t-135 -239
t-207 -192q-128 -97 -282 -153q-12 -4 -16 8q-7 25 4 31q131 46 248 129q118 84 191 163q73 78 133 200t77 262q-188 -250 -457 -250z" />
    <glyph glyph-name="zero.denom" horiz-adv-x="790" 
d="M396 592q-100 0 -158 -77q-56 -77 -56 -211t56 -211t157 -77q100 0 157 76q56 76 56 211t-56 212t-156 77zM395 -20q-117 0 -183 86t-65 238q0 151 66 237q67 86 183 86t183 -86t67 -237q0 -152 -68 -238q-66 -86 -183 -86z" />
    <glyph glyph-name="one.denom" horiz-adv-x="425" 
d="M231 14v545l-112 -84q-10 -6 -17 2l-10 15q-4 8 4 14l150 108q8 6 15 2t7 -14v-588q0 -14 -14 -14h-8q-15 0 -15 14z" />
    <glyph glyph-name="two.denom" horiz-adv-x="667" 
d="M504 440q0 62 -48 106t-112 44q-110 0 -156 -55l-12 -19q-6 -14 -22 -3t-10 22q6 10 18 25t60 41t106 26q98 1 155 -55t58 -132q0 -106 -127 -213l-230 -190h338q12 0 13 -14v-9q0 -14 -13 -14h-393q-10 0 -14 10t4 15l270 225q115 96 115 190z" />
    <glyph glyph-name="three.denom" horiz-adv-x="727" 
d="M339 16q99 0 151 40t52 98t-45 98q-46 39 -124 39h-133q-14 0 -15 14v8q0 14 15 15h133q67 0 109 39t42 96t-44 92t-110 35t-110 -18q-45 -18 -63 -37l-17 -19q-8 -8 -21 3t-6 21q21 31 82 59t139 28t134 -44t55 -122q0 -45 -32 -88t-74 -62q55 -18 90 -61t35 -92
q0 -78 -65 -128t-179 -50t-209 86q-10 10 3 23t24 3q84 -76 183 -76z" />
    <glyph glyph-name="four.denom" horiz-adv-x="727" 
d="M475 174v379l-348 -379h348zM82 139q-10 0 -13 7t3 16l415 456q8 6 17 4q8 -3 8 -14v-434h102q14 0 15 -14v-8q0 -12 -15 -13h-102v-125q0 -14 -14 -14h-9q-14 0 -14 14v125h-393z" />
    <glyph glyph-name="five.denom" horiz-adv-x="716" 
d="M340 16q100 0 160 52t61 128q0 76 -54 118t-159 40h-176q-14 0 -14 15v223q0 14 14 14h328q14 0 14 -14v-8q0 -14 -14 -15h-305v-178h153q121 2 186 -50q64 -52 64 -143q0 -90 -72 -154t-184 -64t-197 79q-11 11 4 25t25 4q66 -72 166 -72z" />
    <glyph glyph-name="six.denom" horiz-adv-x="727" 
d="M174 256q0 -102 54 -171t140 -69t143 54q56 54 56 130q0 77 -54 124t-125 47t-123 -28t-72 -56l-19 -27v-4zM370 410q102 0 169 -58q65 -58 65 -151q0 -92 -66 -157q-66 -64 -170 -64t-170 76t-65 180q0 242 244 370q45 25 86 39q12 4 16 -8l4 -14q0 -12 -8 -15
q-162 -59 -244 -170q-39 -53 -53 -114q90 86 192 86z" />
    <glyph glyph-name="seven.denom" horiz-adv-x="647" 
d="M137 569q-12 0 -12 15v8q0 14 12 14h400q20 0 12 -20l-322 -584q-6 -12 -16 -6l-14 8q-8 2 -2 16l303 549h-361z" />
    <glyph glyph-name="eight.denom" horiz-adv-x="753" 
d="M186 148q0 -64 54 -100t137 -36q82 0 136 36t54 100t-51 99q-51 36 -139 40q-87 -4 -139 -40q-52 -35 -52 -99zM551 460q0 54 -46 94t-131 40t-128 -39t-43 -94t48 -88t126 -37q78 4 126 37t48 87zM455 311q153 -33 153 -173q0 -72 -66 -115t-166 -43q-101 0 -167 43
t-66 129q0 57 41 100t113 59q-61 15 -97 55t-36 102t52 110q52 49 158 49t162 -49q54 -48 54 -110q0 -118 -135 -157z" />
    <glyph glyph-name="nine.denom" horiz-adv-x="724" 
d="M337 236q71 0 123 28t72 55l19 27v4q0 102 -54 171q-55 69 -141 69t-142 -53t-56 -130t54 -124t125 -47zM354 197q-102 0 -168 58q-66 59 -66 151t68 156q66 64 170 65q104 0 168 -77q66 -76 66 -180q0 -195 -138 -299q-105 -80 -192 -110q-12 -4 -16 8l-4 15q0 12 8 14
q162 59 244 170q39 53 53 115q-91 -86 -193 -86z" />
    <glyph glyph-name="zero.num" horiz-adv-x="677" 
d="M338 844q100 0 157 76q56 76 56 210t-56 212q-57 77 -157 77t-156 -77t-57 -211q1 -135 57 -211t156 -76zM338 807q-116 0 -182 87q-66 88 -66 238t66 236t182 86t184 -86q66 -86 66 -237t-66 -237t-184 -87z" />
    <glyph glyph-name="one.num" horiz-adv-x="342" 
d="M209 827q-14 0 -14 15v544l-113 -83q-10 -6 -16 2l-11 14q-4 8 4 14l150 109q8 6 15 2t7 -14v-588q0 -14 -14 -15h-8z" />
    <glyph glyph-name="two.num" horiz-adv-x="585" 
d="M86 827q-10 -1 -14 9t4 16l270 225q115 96 115 191q0 61 -48 105q-49 44 -113 44t-102 -18t-51 -37l-14 -19q-7 -15 -22 -2t-10 22t17 25t61 40q48 26 106 26q98 0 155 -55t58 -131q0 -106 -127 -213l-230 -191h338q12 0 13 -14v-8q0 -14 -13 -15h-393z" />
    <glyph glyph-name="three.num" horiz-adv-x="624" 
d="M290 807q-114 0 -208 86q-9 9 3 23q13 14 24 4q84 -76 183 -76t151 40q53 40 53 98t-46 97t-124 39h-133q-14 0 -15 15v8q0 14 15 14h133q66 0 108 39t43 96q0 57 -44 92q-43 35 -109 35t-111 -18t-61 -37l-19 -19q-8 -8 -21 4t-6 21q20 31 82 59q62 27 140 27t132 -44
q56 -44 56 -122q0 -45 -32 -88t-74 -61q55 -17 90 -61t35 -93q0 -78 -65 -128q-66 -50 -180 -50z" />
    <glyph glyph-name="four.num" horiz-adv-x="671" 
d="M457 1001v379l-348 -379h348zM63 967q-10 0 -13 7t3 15l416 457q8 6 16 3t9 -13v-435h102q14 0 14 -14v-8q0 -12 -14 -12h-102v-125q0 -14 -15 -15h-8q-14 0 -14 15v125h-394z" />
    <glyph glyph-name="five.num" horiz-adv-x="620" 
d="M549 1025q0 -91 -72 -155q-71 -64 -183 -63q-112 0 -198 80q-10 10 4 24t25 4q66 -71 166 -71t161 52q60 52 60 127t-54 118t-159 41h-176q-14 0 -14 14v223q0 14 14 15h328q14 0 14 -15v-8q0 -14 -14 -14h-306v-178h154q121 1 185 -51t65 -143z" />
    <glyph glyph-name="six.num" horiz-adv-x="622" 
d="M320 844q86 0 142 53t56 130t-54 124t-125 47t-123 -28t-73 -56l-18 -27v-4q0 -102 54 -171q55 -68 141 -68zM322 1237q102 0 168 -58q66 -59 65 -151t-67 -156t-170 -65q-104 0 -168 77q-66 77 -66 180t39 178q58 112 205 192q45 25 86 39q12 4 16 -9l4 -14
q0 -12 -8 -14q-162 -59 -244 -170q-39 -53 -53 -115q91 86 193 86z" />
    <glyph glyph-name="seven.num" horiz-adv-x="538" 
d="M78 1397q-12 0 -12 14v8q0 14 12 15h399q20 0 12 -21l-321 -584q-6 -12 -16 -6l-15 8q-8 2 -2 17l303 549h-360z" />
    <glyph glyph-name="eight.num" horiz-adv-x="645" 
d="M324 840q82 0 136 36t54 99t-51 99t-139 40q-88 -4 -140 -40t-51 -100t55 -98q54 -36 136 -36zM498 1287q0 54 -46 94t-131 40t-128 -39t-43 -94t48 -88t126 -37q78 4 126 37t48 87zM555 966q1 -72 -65 -116q-66 -43 -167 -43t-167 43t-66 129q0 57 41 100t113 60
q-134 35 -134 155q0 62 53 111t159 49t160 -49t54 -111t-36 -100q-37 -39 -99 -55q154 -33 154 -173z" />
    <glyph glyph-name="nine.num" horiz-adv-x="622" 
d="M284 1063q71 0 123 28t72 56l19 27v4q0 102 -54 171t-141 69q-86 0 -142 -54q-57 -53 -57 -130t54 -124t126 -47zM302 1024q-102 0 -169 58q-65 58 -65 150t66 158q66 64 170 64t170 -77t65 -180q0 -194 -139 -299q-105 -81 -191 -110q-12 -4 -16 9l-5 14q0 12 9 14
q161 59 243 170q39 53 54 115q-90 -86 -192 -86z" />
    <glyph glyph-name="a.alt" horiz-adv-x="1134" 
d="M590 930q-184 0 -312 -131t-128 -321t122 -327q122 -136 291 -137q232 0 357 176v603q-48 51 -134 94t-196 43zM954 930v-914q0 -16 -14 -16h-8q-12 0 -12 16v115q-139 -154 -357 -154q-184 1 -317 147t-133 354t138 348q139 140 331 140t338 -124v88q0 16 12 16h8
q14 0 14 -16z" />
    <glyph glyph-name="agrave.alt" horiz-adv-x="1134" 
d="M590 930q-184 0 -312 -131t-128 -321t122 -327q122 -136 291 -137q232 0 357 176v603q-48 51 -134 94t-196 43zM954 930v-914q0 -16 -14 -16h-8q-12 0 -12 16v115q-139 -154 -357 -154q-184 1 -317 147t-133 354t138 348q139 140 331 140t338 -124v88q0 16 12 16h8
q14 0 14 -16zM788 1147l-372 184q-12 6 -4 22q8 15 20 11l373 -186q10 -6 2 -25q-7 -10 -19 -6z" />
    <glyph glyph-name="aacute.alt" horiz-adv-x="1134" 
d="M590 930q-184 0 -312 -131t-128 -321t122 -327q122 -136 291 -137q232 0 357 176v603q-48 51 -134 94t-196 43zM954 930v-914q0 -16 -14 -16h-8q-12 0 -12 16v115q-139 -154 -357 -154q-184 1 -317 147t-133 354t138 348q139 140 331 140t338 -124v88q0 16 12 16h8
q14 0 14 -16zM428 1147q-14 -5 -20 10q-6 14 4 21l372 186q14 5 21 -11q8 -15 -4 -22z" />
    <glyph glyph-name="acircumflex.alt" horiz-adv-x="1134" 
d="M590 930q-184 0 -312 -131t-128 -321t122 -327q122 -136 291 -137q232 0 357 176v603q-48 51 -134 94t-196 43zM954 930v-914q0 -16 -14 -16h-8q-12 0 -12 16v115q-139 -154 -357 -154q-184 1 -317 147t-133 354t138 348q139 140 331 140t338 -124v88q0 16 12 16h8
q14 0 14 -16zM356 1122q-7 -7 -17 7q-9 14 -1 22l264 217q8 8 16 0l265 -217q9 -9 -4 -27q-8 -8 -15 -2l-254 207z" />
    <glyph glyph-name="atilde.alt" horiz-adv-x="1134" 
d="M590 930q-184 0 -312 -131t-128 -321t122 -327q122 -136 291 -137q232 0 357 176v603q-48 51 -134 94t-196 43zM954 930v-914q0 -16 -14 -16h-8q-12 0 -12 16v115q-139 -154 -357 -154q-184 1 -317 147t-133 354t138 348q139 140 331 140t338 -124v88q0 16 12 16h8
q14 0 14 -16zM465 1389q67 0 98 -47l24 -36q7 -13 19 -42q39 -94 109 -95q96 0 139 148q4 14 14 10l17 -4q12 -4 6 -18q-57 -172 -176 -172q-94 0 -146 122q-12 29 -19 43t-31 34t-54 22q-96 0 -139 -150q-5 -14 -15 -10l-16 4q-12 2 -6 19q55 172 176 172z" />
    <glyph glyph-name="adieresis.alt" horiz-adv-x="1134" 
d="M590 930q-184 0 -312 -131t-128 -321t122 -327q122 -136 291 -137q232 0 357 176v603q-48 51 -134 94t-196 43zM954 930v-914q0 -16 -14 -16h-8q-12 0 -12 16v115q-139 -154 -357 -154q-184 1 -317 147t-133 354t138 348q139 140 331 140t338 -124v88q0 16 12 16h8
q14 0 14 -16zM429 1239q-46 0 -46 46t46 46t46 -46t-46 -46zM818 1239q-46 0 -46 46t46 46t46 -46t-46 -46z" />
    <glyph glyph-name="amacron.alt" horiz-adv-x="1134" 
d="M590 930q-184 0 -312 -131t-128 -321t122 -327q122 -136 291 -137q232 0 357 176v603q-48 51 -134 94t-196 43zM954 930v-914q0 -16 -14 -16h-8q-12 0 -12 16v115q-139 -154 -357 -154q-184 1 -317 147t-133 354t138 348q139 140 331 140t338 -124v88q0 16 12 16h8
q14 0 14 -16zM315 1243q-14 0 -14 14v9q0 14 14 14h590q14 0 15 -14v-9q0 -14 -15 -14h-590z" />
    <glyph glyph-name="abreve.alt" horiz-adv-x="1134" 
d="M590 930q-184 0 -312 -131t-128 -321t122 -327q122 -136 291 -137q232 0 357 176v603q-48 51 -134 94t-196 43zM954 930v-914q0 -16 -14 -16h-8q-12 0 -12 16v115q-139 -154 -357 -154q-184 1 -317 147t-133 354t138 348q139 140 331 140t338 -124v88q0 16 12 16h8
q14 0 14 -16zM604 1116q-100 0 -173 62t-87 157q-2 5 3 11t9 6h15q10 0 10 -13q11 -84 73 -135t149 -51t149 51q61 51 75 135q0 12 11 13h14q4 0 9 -5t3 -12q-16 -95 -88 -157t-172 -62z" />
    <glyph glyph-name="aring.alt" horiz-adv-x="1134" 
d="M590 930q-184 0 -312 -131t-128 -321t122 -327q122 -136 291 -137q232 0 357 176v603q-48 51 -134 94t-196 43zM954 930v-914q0 -16 -14 -16h-8q-12 0 -12 16v115q-139 -154 -357 -154q-184 1 -317 147t-133 354t138 348q139 140 331 140t338 -124v88q0 16 12 16h8
q14 0 14 -16zM601 1075q73 0 125 52t52 125t-52 126q-52 54 -125 54t-124 -52t-51 -127q0 -74 51 -126t124 -52zM602 1040q-90 0 -151 62t-62 151t61 151t152 62t152 -61t61 -151q1 -90 -61 -152t-152 -62z" />
    <glyph glyph-name="aringacute.alt" horiz-adv-x="1134" 
d="M590 930q-184 0 -312 -131t-128 -321t122 -327q122 -136 291 -137q232 0 357 176v603q-48 51 -134 94t-196 43zM954 930v-914q0 -16 -14 -16h-8q-12 0 -12 16v115q-139 -154 -357 -154q-184 1 -317 147t-133 354t138 348q139 140 331 140t338 -124v88q0 16 12 16h8
q14 0 14 -16zM422 1440q-14 -7 -23 16q-4 8 7 14l372 146q14 5 21 -11q8 -15 -4 -22zM602 1073q76 0 127 41t51 112q0 70 -51 112t-127 42t-127 -42t-51 -112t51 -112q51 -41 127 -41zM601 1040q-93 0 -152 50t-59 136q0 87 58 137q60 50 153 50t153 -50t61 -137
q-1 -86 -61 -136t-153 -50z" />
    <glyph glyph-name="aogonek.alt" horiz-adv-x="1134" 
d="M590 930q-184 0 -312 -131t-128 -321t122 -327q122 -136 291 -137q232 0 357 176v603q-48 51 -134 94t-196 43zM954 930v-907q0 -14 -14 -23q-181 -92 -227 -195q-23 -49 -23 -109t39 -104t95 -43t85 15t47 24l19 11q12 6 16 -5l6 -12q6 -12 -14 -22q-95 -47 -163 -47
t-118 52q-49 52 -49 134q0 195 267 330v102q-139 -154 -357 -154q-184 1 -317 147t-133 354t138 348q139 140 331 140t338 -124v88q0 16 12 16h8q14 0 14 -16z" />
    <glyph glyph-name="parenleft.case" horiz-adv-x="661" 
d="M623 -229q0 -12 -15 -13q-155 8 -283 158q-128 149 -182 440q-29 160 -28 353q0 463 147 711t346 259q14 0 15 -14v-8q0 -14 -15 -15q-184 -10 -320 -250t-136 -683q0 -444 135 -675t321 -241q14 0 15 -14v-8z" />
    <glyph glyph-name="parenright.case" horiz-adv-x="661" 
d="M510 708q0 444 -136 685q-136 240 -321 249q-14 0 -14 15v8q0 14 14 14q199 -10 346 -259t148 -711q0 -550 -218 -802q-122 -141 -276 -149q-14 0 -14 13v8q0 14 14 14q185 11 321 241t136 674z" />
    <glyph glyph-name="hyphen.case" horiz-adv-x="817" 
d="M160 682q-12 0 -13 14v9q0 14 13 14h497q12 0 13 -14v-9q0 -14 -13 -14h-497z" />
    <glyph glyph-name="bracketleft.case" horiz-adv-x="671" 
d="M219 -205h393q14 0 15 -14v-8q0 -14 -15 -15h-415q-14 0 -15 15v1892q0 14 15 14h415q14 0 15 -14v-8q0 -14 -15 -15h-393v-1847z" />
    <glyph glyph-name="bracketright.case" horiz-adv-x="671" 
d="M59 -205h394v1847h-394q-14 0 -14 15v8q0 14 14 14h416q14 0 14 -14v-1892q0 -14 -14 -15h-416q-14 0 -14 15v8q0 14 14 14z" />
    <glyph glyph-name="braceleft.case" horiz-adv-x="679" 
d="M233 215v303q0 84 -50 135t-99 52q-14 0 -14 14v8q0 14 14 14q45 1 97 51t52 136v297q-1 264 103 369t287 106q14 0 14 -14v-9q0 -14 -14 -14q-166 0 -259 -97t-94 -341v-297q0 -139 -123 -205q123 -66 123 -205v-303q0 -246 94 -344t259 -98q14 0 14 -15v-8
q0 -14 -14 -14q-182 0 -286 108t-104 371z" />
    <glyph glyph-name="bar.case" horiz-adv-x="397" 
d="M180 -328v2014q0 14 15 14h8q14 0 14 -14v-2014q0 -14 -14 -14h-8q-15 0 -15 14z" />
    <glyph glyph-name="braceright.case" horiz-adv-x="677" 
d="M410 215v303q0 139 122 205q-123 66 -122 205v297q0 244 -94 341t-259 97q-14 0 -14 14v9q0 14 14 14q181 0 285 -106t104 -369v-297q0 -86 52 -136t98 -51q14 0 14 -14v-8q0 -14 -14 -14q-49 1 -99 -51t-51 -136v-303q0 -264 -103 -372t-286 -107q-14 0 -14 14v8
q0 14 14 15q165 0 259 98t94 344z" />
    <glyph glyph-name="guilsinglleft.case" horiz-adv-x="514" 
d="M360 311l-249 353q-6 8 0 16l249 348q7 11 24 2q17 -10 9 -20l-239 -338l239 -342q8 -10 -9 -20t-24 1z" />
    <glyph glyph-name="guilsinglright.case" horiz-adv-x="514" 
d="M121 330l239 342l-239 338q-6 10 10 19t23 -1l249 -348q6 -8 0 -16l-249 -353q-7 -11 -23 -2q-16 10 -10 21z" />
    <glyph glyph-name="guillemotleft.case" horiz-adv-x="841" 
d="M360 311l-249 353q-6 8 0 16l249 348q7 11 24 2q17 -10 9 -20l-239 -338l239 -342q8 -10 -9 -20t-24 1zM438 664q-6 8 0 16l250 348q7 11 24 2q17 -10 9 -20l-240 -338l240 -342q8 -10 -9 -20t-24 1z" />
    <glyph glyph-name="guillemotright.case" horiz-adv-x="841" 
d="M121 330l239 342l-239 338q-6 10 10 19t23 -1l249 -348q6 -8 0 -16l-249 -353q-7 -11 -23 -2q-16 10 -10 21zM449 330l239 342l-239 338q-6 10 10 19t22 -1l250 -348q6 -8 0 -16l-250 -353q-7 -11 -22 -1q-16 10 -10 20z" />
    <glyph glyph-name="endash.case" horiz-adv-x="1140" 
d="M162 682q-14 0 -15 14v9q0 14 15 14h817q14 0 14 -14v-9q0 -14 -14 -14h-817z" />
    <glyph glyph-name="emdash.case" horiz-adv-x="1583" 
d="M162 682q-14 0 -15 14v9q0 14 15 14h1259q14 0 15 -14v-9q0 -14 -15 -14h-1259z" />
    <glyph glyph-name="bullet.case" horiz-adv-x="520" 
d="M258 571q-32 0 -54 23q-22 24 -22 56t22 55t54 23t56 -25q24 -23 24 -55t-24 -54t-56 -23z" />
    <glyph glyph-name="periodcentered.case" horiz-adv-x="405" 
d="M203 672q-20 0 -35 14q-14 14 -14 34t14 34t34 14t36 -13q14 -13 14 -33t-14 -36q-15 -14 -35 -14z" />
    <glyph glyph-name="gcircumflex.alt" horiz-adv-x="1114" 
d="M180 -201q0 -117 110 -195t318 -77q208 0 325 76q118 76 118 210t-94 181q-78 39 -226 39h-323q-52 -4 -130 -48q-42 -23 -70 -73t-28 -113zM575 309q161 0 259 79t98 214q0 86 -34 150q-58 108 -201 143q-56 14 -115 14q-162 0 -259 -84t-97 -214t94 -216t255 -86z
M111 213q0 131 141 197q-63 86 -64 192q0 158 106 251t288 93h415q14 0 15 -14v-8q0 -14 -15 -15h-225q80 -33 138 -109t58 -212q0 -138 -107 -227q-108 -89 -294 -89t-288 107q-131 -51 -132 -166q-1 -70 47 -107t113 -36h424q170 0 263 -56t93 -204q0 -146 -128 -233
t-353 -87t-344 88t-119 221q0 93 44 145t116 89q-80 4 -136 49t-56 131zM367 1122q-6 -6 -15 2q-13 18 -4 27l264 217q8 8 17 0l264 -217q9 -9 -4 -27q-8 -8 -15 -2l-253 207z" />
    <glyph glyph-name="gbreve.alt" horiz-adv-x="1114" 
d="M180 -201q0 -117 110 -195t318 -77q208 0 325 76q118 76 118 210t-94 181q-78 39 -226 39h-323q-52 -4 -130 -48q-42 -23 -70 -73t-28 -113zM575 309q161 0 259 79t98 214q0 86 -34 150q-58 108 -201 143q-56 14 -115 14q-162 0 -259 -84t-97 -214t94 -216t255 -86z
M111 213q0 131 141 197q-63 86 -64 192q0 158 106 251t288 93h415q14 0 15 -14v-8q0 -14 -15 -15h-225q80 -33 138 -109t58 -212q0 -138 -107 -227q-108 -89 -294 -89t-288 107q-131 -51 -132 -166q-1 -70 47 -107t113 -36h424q170 0 263 -56t93 -204q0 -146 -128 -233
t-353 -87t-344 88t-119 221q0 93 44 145t116 89q-80 4 -136 49t-56 131zM623 1116q-100 0 -173 62t-88 157q-2 5 4 11t9 6h10q10 0 10 -13q11 -84 75 -137t152 -53t150 53q63 53 78 137q0 12 10 13h10q4 0 10 -5t3 -12q-16 -95 -88 -157t-172 -62z" />
    <glyph glyph-name="gdotaccent.alt" horiz-adv-x="1114" 
d="M180 -201q0 -117 110 -195t318 -77q208 0 325 76q118 76 118 210t-94 181q-78 39 -226 39h-323q-52 -4 -130 -48q-42 -23 -70 -73t-28 -113zM575 309q161 0 259 79t98 214q0 86 -34 150q-58 108 -201 143q-56 14 -115 14q-162 0 -259 -84t-97 -214t94 -216t255 -86z
M111 213q0 131 141 197q-63 86 -64 192q0 158 106 251t288 93h415q14 0 15 -14v-8q0 -14 -15 -15h-225q80 -33 138 -109t58 -212q0 -138 -107 -227q-108 -89 -294 -89t-288 107q-131 -51 -132 -166q-1 -70 47 -107t113 -36h424q170 0 263 -56t93 -204q0 -146 -128 -233
t-353 -87t-344 88t-119 221q0 93 44 145t116 89q-80 4 -136 49t-56 131zM602 1227q-16 0 -28 11q-11 10 -11 26t11 27q12 11 28 11t28 -10t11 -26q0 -16 -11 -28q-12 -11 -28 -11z" />
    <glyph glyph-name="gcommaaccent.alt" horiz-adv-x="1114" 
d="M655 1230q0 -22 -15 -36t-38 -14q-86 0 -86 125t72 184q10 8 18 0l10 -12q10 -12 -4 -23q-55 -43 -55 -129q0 -41 12 -59q13 12 35 12t37 -13q14 -13 14 -35zM180 -201q0 -117 110 -195t318 -77q208 0 325 76q118 76 118 210t-94 181q-78 39 -226 39h-323
q-52 -4 -130 -48q-42 -23 -70 -73t-28 -113zM575 309q161 0 259 79t98 214q0 86 -34 150q-58 108 -201 143q-56 14 -115 14q-162 0 -259 -84t-97 -214t94 -216t255 -86zM111 213q0 131 141 197q-63 86 -64 192q0 158 106 251t288 93h415q14 0 15 -14v-8q0 -14 -15 -15h-225
q80 -33 138 -109t58 -212q0 -138 -107 -227q-108 -89 -294 -89t-288 107q-131 -51 -132 -166q-1 -70 47 -107t113 -36h424q170 0 263 -56t93 -204q0 -146 -128 -233t-353 -87t-344 88t-119 221q0 93 44 145t116 89q-80 4 -136 49t-56 131z" />
    </font>
</defs>
</svg>
