<?xml version="1.0" standalone="no"?>
<!DOCTYPE svg PUBLIC "-//W3C//DTD SVG 1.1//EN" "http://www.w3.org/Graphics/SVG/1.1/DTD/svg11.dtd" >
<svg xmlns="http://www.w3.org/2000/svg">
<metadata>
Created by FontPrep 20130207 at Mon Mar 21 11:36:32 2016
 By Andrey Bakuta
Copyright (c) 2012 by Hannes von Doehren. All rights reserved.
</metadata>
<defs>
<font id="33d97b0a06d35b590fc9628c1ef3516c" horiz-adv-x='1024' >
  <font-face 
    font-family="BrandonText-ThinItalic"
    font-weight="300"
    font-style="italic"
    font-stretch="normal"
    units-per-em="2048"
    panose-1="2 11 4 3 2 2 3 13 2 3"
    ascent="1434"
    descent="-614"
    x-height="946"
    cap-height="1434"
    bbox="-336.667 -515 2245.01 2138.8"
    underline-thickness="102"
    underline-position="-102"
    slope="-8"
    unicode-range="U+000D-FB02"
  />
<missing-glyph horiz-adv-x="1226" 
d="M502 319q0 -41 30 -69t69 -29q40 0 70 29q29 30 29 70t-29 69q-30 29 -70 29q-39 0 -69 -29t-30 -70zM537 643q0 -25 28 -25h74q31 0 31 27v53q0 57 107 124q40 26 74 75t34 109q0 98 -73 162t-193 65q-120 0 -213 -80q-22 -18 -41 -44t-3 -38l46 -45q24 -18 70 33
q45 51 120 51q74 0 108 -31t34 -75t-32 -80q-32 -37 -70 -62q-38 -24 -70 -66t-31 -94v-59zM102 61v1311q0 61 62 62h899q61 0 61 -62v-1311q0 -61 -61 -61h-899q-62 0 -62 61z" />
    <glyph glyph-name="fi" unicode="fi" horiz-adv-x="1064" 
d="M84 -487q-14 0 -10 18l190 1378h-149q-19 1 -15 19t19 18h151l17 109q33 209 135 304t250 95q188 0 282 -135q9 -13 -6 -24q-14 -11 -22 -1q-84 123 -254 123q-132 0 -226 -87t-122 -275l-17 -109h613q14 0 14 -16l-129 -914q-4 -16 -14 -16h-13q-16 0 -10 16l125 893
h-592l-192 -1378q-4 -18 -17 -18h-8z" />
    <glyph glyph-name="fl" unicode="fl" horiz-adv-x="1120" 
d="M82 -487q-12 0 -8 18l190 1378h-149q-18 0 -15 15l2 10q2 12 17 12h151l19 129q55 379 385 379q108 0 190 -40t125 -89l12 92q4 16 17 17h10q14 0 10 -17l-198 -1401q-4 -16 -15 -16h-10q-14 0 -10 16l176 1264q-117 137 -307 137q-299 0 -348 -342l-19 -129h402
q18 0 12 -22q-4 -14 -19 -15h-401l-190 -1378q-4 -18 -19 -18h-10z" />
    <glyph glyph-name="f_f" unicode="ff" horiz-adv-x="1320" 
d="M702 1397q-145 0 -248 -92t-135 -291l-10 -68h572l18 135q16 121 62 215q-29 43 -103 72t-156 29zM137 909q-8 0 -12 3t-1 18q3 16 19 16h129l11 68q33 217 146 318q114 101 273 102q94 0 171 -33t108 -70q92 123 244 123t229 -96q8 -15 -4 -27t-25 -2q-83 90 -199 90
q-116 -1 -190 -75t-100 -263l-18 -135h382q20 0 16 -18q-5 -18 -16 -19h-389l-190 -1378q-4 -18 -16 -18h-11q-16 0 -12 18l192 1378h-571l-192 -1378q-4 -18 -15 -18h-10q-16 0 -12 18l192 1378h-129z" />
    <glyph glyph-name="f_f_i" unicode="ffi" horiz-adv-x="1677" 
d="M309 946h572l16 111q25 150 82 237q-90 102 -274 103q-326 0 -386 -383zM702 -487h-8q-16 0 -12 18l192 1378h-571l-192 -1378q-4 -18 -15 -18h-10q-16 0 -12 18l192 1378h-129q-8 0 -12 3t-1 18q3 16 19 16h129l11 68q66 420 422 420q106 0 186 -34t113 -73
q100 127 283 127t278 -135q9 -14 -6 -24q-15 -11 -23 -1q-84 123 -254 123q-137 0 -228 -91t-120 -271l-16 -109h614q14 0 14 -16l-129 -914q-4 -16 -14 -16h-12q-16 0 -11 16l125 893h-594l-192 -1378q-5 -18 -17 -18z" />
    <glyph glyph-name="f_f_l" unicode="ffl" horiz-adv-x="1730" 
d="M705 1397q-147 0 -253 -93t-133 -290l-10 -68h572l18 115q20 133 74 223q-33 45 -106 79t-162 34zM1288 1454q102 0 186 -41t125 -88l13 92q4 16 16 17h10q14 0 11 -17l-199 -1401q-4 -16 -14 -16h-11q-14 0 -10 16l176 1264q-59 68 -144 103t-159 34q-139 0 -233 -92
t-119 -264l-18 -115h401q18 0 13 -18t-19 -19h-402l-190 -1378q-4 -18 -19 -18h-8q-16 0 -12 18l192 1378h-571l-192 -1378q-4 -18 -15 -18h-10q-16 0 -12 18l192 1378h-129q-8 0 -12 3t-1 18q3 16 19 16h129l11 68q29 217 145 318q117 102 291 102t278 -117
q101 137 291 137z" />
    <glyph glyph-name="f_f_h" unicode="ffh" horiz-adv-x="2342" 
d="M705 1397q-147 0 -253 -93t-133 -290l-10 -68h572l18 115q20 133 74 223q-33 45 -106 79t-162 34zM1434 0h-9q-18 0 -14 16l180 1264q-59 68 -144 103t-159 34q-139 0 -233 -92t-119 -264l-18 -115h401q18 0 13 -18t-19 -19h-402l-190 -1378q-4 -18 -19 -18h-8
q-16 0 -12 18l192 1378h-571l-192 -1378q-4 -18 -15 -18h-10q-16 0 -12 18l192 1378h-129q-8 0 -12 3t-1 18q3 16 19 16h129l11 68q29 217 145 318q117 102 291 102t278 -117q100 137 291 137q100 0 183 -41t126 -88l15 92q4 16 16 17h8q16 0 13 -17l-90 -629
q162 178 337 179q332 0 267 -439l-74 -512q-4 -16 -14 -16h-9q-18 0 -14 16l74 512q28 205 -28 303t-202 99q-60 0 -113 -20t-100 -52q-47 -33 -72 -63q-26 -29 -33 -37l-26 -31l-102 -711q-4 -16 -16 -16z" />
    <glyph glyph-name="f_k" unicode="fk" horiz-adv-x="1552" 
d="M815 0q-18 0 -14 16l180 1264q-117 137 -307 137q-299 0 -348 -342l-19 -129h402q18 0 12 -22q-4 -14 -19 -15h-401l-190 -1378q-4 -18 -19 -18h-10q-12 0 -8 18l190 1378h-149q-18 0 -15 15l2 10q2 12 17 12h151l19 129q55 379 385 379q106 0 188 -40t125 -89l14 92
q4 16 17 17h8q20 0 16 -17l-127 -872l588 413q10 6 19 -2l8 -12q6 -10 -6 -18l-574 -406l457 -497q10 -10 -6 -25q-16 -16 -27 -2l-463 512l-69 -492q-4 -16 -19 -16h-8z" />
    <glyph glyph-name="f_j" unicode="fj" horiz-adv-x="1064" 
d="M92 -487h-8q-14 0 -10 18l190 1378h-149q-19 1 -15 19t19 18h151l17 109q33 209 135 304t250 95q188 0 282 -135q9 -13 -6 -24q-14 -11 -22 -1q-84 123 -254 123q-132 0 -226 -87t-122 -275l-17 -109h613q14 0 14 -16l-150 -1063q-24 -172 -100 -260t-217 -117
q-18 -2 -21 10l-2 11q-2 12 17 16q129 31 197 107t90 233l145 1042h-592l-192 -1378q-4 -18 -17 -18z" />
    <glyph glyph-name="f_f_j" unicode="ffj" horiz-adv-x="1677" 
d="M702 -487h-8q-16 0 -12 18l192 1378h-571l-192 -1378q-4 -18 -15 -18h-10q-16 0 -12 18l192 1378h-129q-8 0 -12 3t-1 18q3 16 19 16h129l11 68q66 420 422 420q106 0 186 -34t113 -73q100 127 283 127t278 -135q9 -14 -6 -24q-15 -11 -23 -1q-84 123 -254 123
q-137 0 -228 -91t-120 -271l-16 -109h614q14 0 14 -16l-149 -1063q-25 -172 -101 -260t-217 -117q-18 -2 -20 10l-2 11q-2 12 16 16q129 31 197 107q67 77 90 233l145 1042h-594l-192 -1378q-4 -18 -17 -18zM309 946h572l16 111q25 150 82 237q-90 102 -274 103
q-326 0 -386 -383z" />
    <glyph glyph-name="f_b" unicode="fb" horiz-adv-x="1765" 
d="M1597 547q0 167 -91 275t-234 108q-86 0 -167 -37t-118 -74l-37 -35l-84 -589q6 -23 39 -61t65 -62q77 -56 193 -58q172 0 303 158t131 375zM813 0q-16 0 -12 16l180 1264q-117 137 -307 137q-299 0 -348 -342l-19 -129h402q18 0 12 -22q-4 -14 -19 -15h-401l-190 -1378
q-4 -18 -19 -18h-10q-12 0 -8 18l190 1378h-149q-18 0 -15 15l2 10q2 12 17 12h151l19 129q55 379 385 379q106 0 188 -40t125 -89l14 92q4 16 15 17h10q18 0 14 -17l-84 -571q41 41 139 81q97 40 177 40q164 0 263 -119t99 -301q0 -236 -141 -403t-330 -167
q-115 -1 -191 47t-114 107l-18 -115q-4 -16 -17 -16h-10z" />
    <glyph glyph-name="f_f_k" unicode="ffk" horiz-adv-x="2162" 
d="M705 1397q-147 0 -253 -93t-133 -290l-10 -68h572l18 115q20 133 74 223q-33 45 -106 79t-162 34zM1425 0q-18 0 -14 16l180 1264q-59 68 -144 103t-159 34q-139 0 -233 -92t-119 -264l-18 -115h401q18 0 13 -18t-19 -19h-402l-190 -1378q-4 -18 -19 -18h-8q-16 0 -12 18
l192 1378h-571l-192 -1378q-4 -18 -15 -18h-10q-16 0 -12 18l192 1378h-129q-8 0 -12 3t-1 18q3 16 19 16h129l11 68q29 217 145 318q117 102 291 102t278 -117q100 137 291 137q100 0 183 -41t126 -88l15 92q4 16 16 17h8q20 0 17 -17l-127 -872l588 413q10 6 18 -2l8 -12
q6 -10 -6 -18l-573 -406l456 -497q10 -10 -6 -25q-16 -16 -26 -2l-463 512l-70 -492q-4 -16 -18 -16h-9z" />
    <glyph glyph-name="f_h" unicode="fh" horiz-adv-x="1732" 
d="M823 0h-8q-18 0 -14 16l180 1264q-117 137 -307 137q-299 0 -348 -342l-19 -129h402q18 0 12 -22q-4 -14 -19 -15h-401l-190 -1378q-4 -18 -19 -18h-10q-12 0 -8 18l190 1378h-149q-18 0 -15 15l2 10q2 12 17 12h151l19 129q55 379 385 379q106 0 188 -40t125 -89l14 92
q4 16 17 17h8q16 0 12 -17l-90 -629q162 178 338 179q332 0 266 -439l-73 -512q-4 -16 -15 -16h-8q-18 0 -14 16l74 512q28 205 -28 303t-202 99q-60 0 -114 -20t-99 -52t-72 -62t-37 -42t-22 -27l-102 -711q-5 -16 -17 -16z" />
    <glyph glyph-name="f_f_b" unicode="ffb" horiz-adv-x="2375" 
d="M705 1397q-147 0 -253 -93t-133 -290l-10 -68h572l18 115q20 133 74 223q-33 45 -106 79t-162 34zM2208 547q0 167 -91 275t-235 108q-86 0 -167 -37t-118 -74l-36 -35l-84 -589q6 -26 39 -62q32 -37 64 -61q76 -56 194 -58q172 0 303 158t131 375zM1423 0q-16 0 -12 16
l180 1264q-59 68 -144 103t-159 34q-139 0 -233 -92t-119 -264l-18 -115h401q18 0 13 -18t-19 -19h-402l-190 -1378q-4 -18 -19 -18h-8q-16 0 -12 18l192 1378h-571l-192 -1378q-4 -18 -15 -18h-10q-16 0 -12 18l192 1378h-129q-8 0 -12 3t-1 18q3 16 19 16h129l11 68
q29 217 145 318q117 102 291 102t278 -117q100 137 291 137q100 0 183 -41t126 -88l15 92q4 16 14 17h10q18 0 15 -17l-84 -571q41 41 138 81t177 40q164 0 263 -119t100 -301q1 -236 -141 -403t-330 -167q-115 -1 -192 47t-114 107l-18 -115q-4 -16 -16 -16h-11z" />
    <glyph glyph-name=".notdef" horiz-adv-x="1226" 
d="M502 319q0 -41 30 -69t69 -29q40 0 70 29q29 30 29 70t-29 69q-30 29 -70 29q-39 0 -69 -29t-30 -70zM537 643q0 -25 28 -25h74q31 0 31 27v53q0 57 107 124q40 26 74 75t34 109q0 98 -73 162t-193 65q-120 0 -213 -80q-22 -18 -41 -44t-3 -38l46 -45q24 -18 70 33
q45 51 120 51q74 0 108 -31t34 -75t-32 -80q-32 -37 -70 -62q-38 -24 -70 -66t-31 -94v-59zM102 61v1311q0 61 62 62h899q61 0 61 -62v-1311q0 -61 -61 -61h-899q-62 0 -62 61z" />
    <glyph glyph-name=".null" horiz-adv-x="0" 
 />
    <glyph glyph-name=".null" horiz-adv-x="0" 
 />
    <glyph glyph-name="nonmarkingreturn" horiz-adv-x="681" 
 />
    <glyph glyph-name="CR" unicode="&#xd;" horiz-adv-x="0" 
 />
    <glyph glyph-name="space" unicode=" " horiz-adv-x="491" 
 />
    <glyph glyph-name="exclam" unicode="!" horiz-adv-x="462" 
d="M104 26q0 20 16 34t36 16q20 0 31 -12t11 -32t-16 -36t-34 -16t-32 14q-12 12 -12 32zM221 547q-12 0 -12 14l121 858q0 14 18 15h6q12 0 13 -15l-123 -858q0 -14 -15 -14h-8z" />
    <glyph glyph-name="quotedbl" unicode="&#x22;" horiz-adv-x="610" 
d="M225 1026q-14 0 -10 14l51 379q4 14 17 15h8q14 0 10 -15l-53 -379q-4 -14 -17 -14h-6zM500 1026q-12 0 -13 14l54 379q0 14 14 15h8q12 0 12 -15l-55 -379q0 -14 -14 -14h-6z" />
    <glyph glyph-name="numbersign" unicode="#" horiz-adv-x="1091" 
d="M338 479h319l123 398h-319zM115 444q-17 0 -11 18t15 17h182l125 398h-199q-16 0 -11 18t15 18h207l160 508q4 12 14 13h6q16 0 13 -17l-160 -504h322l159 508q4 12 13 13h8q16 0 10 -17l-158 -504h174q14 0 10 -18q-5 -18 -14 -18h-180l-123 -398h195q17 0 11 -17
q-5 -17 -15 -18h-203l-135 -432q-4 -12 -15 -12h-8q-16 0 -10 16l135 428h-321l-136 -432q-4 -12 -14 -12h-8q-16 0 -10 16l135 428h-178z" />
    <glyph glyph-name="dollar" unicode="$" 
d="M967 372q0 136 -77 207t-226 121l-97 -684q156 6 278 112q122 108 122 244zM326 1060q0 -132 77 -199q78 -66 232 -113l94 667q-199 -3 -301 -113t-102 -242zM289 1055q0 147 114 271q115 124 332 126l13 88q0 14 14 14h8q12 0 12 -14l-14 -90q76 -4 146 -30t102 -48
l33 -24q8 -6 0 -25q-10 -18 -25 -8q-137 92 -260 98q-33 -225 -94 -676q166 -55 250 -135t84 -217q0 -170 -134 -286t-309 -119l-31 -232q-4 -12 -13 -12q-21 0 -21 12l32 232q-94 2 -181 43t-119 71t-48 46q-16 18 -6 28q21 17 29 6q143 -154 329 -158l99 695
q-170 53 -256 125t-86 219z" />
    <glyph glyph-name="percent" unicode="%" horiz-adv-x="1316" 
d="M928 522q-94 0 -173 -84t-79 -190q0 -104 53 -168t147 -64t173 85q77 85 77 189t-52 168t-146 64zM639 246q0 122 91 218q92 96 200 95q108 0 172 -74q64 -75 63 -195q0 -120 -92 -215q-91 -95 -199 -95t-172 72q-63 72 -63 194zM684 1186q0 104 -54 168t-148 63
q-94 0 -172 -85q-78 -86 -79 -190t53 -168t147 -63q93 0 173 85q80 86 80 190zM170 8q-6 6 0 17l963 1405q6 10 14 2l12 -7q10 -6 2 -16l-962 -1405q-8 -10 -15 -6zM428 874q-108 0 -171 73q-62 73 -62 195t91 216q92 96 200 96t170 -73t62 -195t-90 -216q-92 -96 -200 -96z
" />
    <glyph glyph-name="ampersand" unicode="&#x26;" horiz-adv-x="1288" 
d="M168 322q0 -140 72 -224t192 -84q250 0 457 236l-383 502q-160 -84 -249 -186q-89 -104 -89 -244zM895 1190q0 94 -54 162t-167 68t-208 -90q-95 -89 -95 -213t90 -253q5 -4 23 -30t30 -41q381 182 381 397zM133 322q0 152 92 261q92 110 256 193l-43 62
q-102 141 -102 277q0 135 102 237t236 102t195 -77q62 -77 63 -187q0 -240 -393 -422l374 -492q103 114 161 262t59 275q0 16 12 16h12q12 0 12 -16q0 -129 -61 -288t-170 -275l174 -221q8 -8 0 -17l-16 -12q-6 -6 -15 2l-170 219q-98 -113 -225 -177t-260 -64t-213 95
t-80 247z" />
    <glyph glyph-name="quotesingle" unicode="'" horiz-adv-x="337" 
d="M227 1026q-12 0 -12 14l53 379q0 14 15 15h10q14 0 10 -15l-53 -379q-4 -14 -14 -14h-9z" />
    <glyph glyph-name="parenleft" unicode="(" horiz-adv-x="655" 
d="M129 428q0 613 261 877q139 140 315 149q16 0 12 -14v-8q0 -14 -17 -15q-203 -12 -359 -224q-81 -109 -128 -307t-47 -466t90 -402t227 -143q12 0 13 -14l-2 -8q0 -12 -15 -13q-150 6 -250 150t-100 438z" />
    <glyph glyph-name="parenright" unicode=")" horiz-adv-x="655" 
d="M508 875q0 270 -89 402t-229 140q-16 1 -12 19t17 18q149 -8 249 -150t101 -438q0 -615 -261 -876q-140 -141 -315 -150q-12 0 -12 13v8q0 14 16 14q206 21 360 228q81 110 128 306t47 466z" />
    <glyph glyph-name="asterisk" unicode="*" horiz-adv-x="821" 
d="M438 831q-12 0 -12 15l37 254l-215 -127q-12 -6 -15 2l-6 14q-4 10 9 15l213 129l-179 129q-8 4 -3 11t10 17t16 2l178 -127l37 254q0 14 14 15h8q12 0 13 -15l-37 -254l215 127q10 6 16 -4q7 -22 -2 -26l-215 -129l178 -129q8 -4 4 -15l-10 -14q-4 -8 -16 -2l-178 127
l-37 -254q0 -14 -15 -15h-8z" />
    <glyph glyph-name="plus" unicode="+" 
d="M272 694q-16 0 -11 18t15 19h342l54 379q4 14 16 14h8q12 0 13 -14l-54 -379h338q16 0 12 -18q-5 -18 -16 -19h-340l-53 -381q-4 -14 -16 -14h-9q-12 0 -12 14l55 381h-342z" />
    <glyph glyph-name="comma" unicode="," horiz-adv-x="364" 
d="M47 26q1 20 19 36t50 16t51 -40t19 -97q0 -166 -147 -275q-16 -10 -23 0l-6 12q-6 12 8 23q127 90 127 240q0 35 -10 59q-19 -20 -41 -20q-46 0 -47 46z" />
    <glyph glyph-name="hyphen" unicode="-" horiz-adv-x="753" 
d="M141 498q-14 0 -9 18t15 19h447q12 -1 7 -19t-13 -18h-447z" />
    <glyph glyph-name="period" unicode="." horiz-adv-x="368" 
d="M118 90q48 0 48 -50q0 -24 -18 -43t-40 -19t-36 15t-13 39t19 41t40 17z" />
    <glyph glyph-name="slash" unicode="/" horiz-adv-x="720" 
d="M713 1434q16 0 6 -17l-647 -1409q-4 -8 -17 -8h-12q-10 4 -2 14l647 1411q2 8 12 9h13z" />
    <glyph glyph-name="zero" unicode="0" horiz-adv-x="1292" 
d="M565 14q254 0 400 241q145 241 145 644q0 242 -89 379t-257 137q-254 -1 -399 -241t-146 -642q0 -244 89 -381t257 -137zM561 -23q-184 -1 -282 147t-99 408q0 418 160 670t430 252q182 0 280 -147t99 -406q0 -418 -160 -671t-428 -253z" />
    <glyph glyph-name="one" unicode="1" horiz-adv-x="692" 
d="M352 0h-10q-12 0 -12 14l192 1364l-346 -254q-10 -8 -14 2l-8 15q-4 6 6 14l385 285q8 8 16 3t6 -16l-198 -1413q-4 -14 -17 -14z" />
    <glyph glyph-name="two" unicode="2" horiz-adv-x="1064" 
d="M37 0q-8 0 -11 9t5 16l618 563q150 137 222 250q73 113 73 252t-86 233t-248 94q-87 0 -156 -38t-113 -87q-45 -49 -56 -71q-6 -10 -15 -7l-14 9q-8 8 -2 18q6 11 16 25t45 51q132 140 305 138q172 -1 268 -104t95 -255q0 -152 -77 -273t-232 -262l-572 -522h709
q12 0 12 -16l-2 -9q0 -14 -14 -14h-770z" />
    <glyph glyph-name="three" unicode="3" horiz-adv-x="1134" 
d="M905 428q0 119 -81 208t-214 89h-252q-16 -1 -11 19t15 20h248q135 0 247 106t112 265q0 125 -78 203t-209 79q-219 0 -369 -174q-7 -11 -20 -1q-14 11 -8 22q27 33 96 87q135 105 293 104t246 -90t88 -228t-83 -245t-202 -144v-3q98 -31 159 -119q60 -89 60 -196
q0 -188 -140 -319t-356 -131q-137 0 -234 68t-122 120q-6 14 7 25t22 0q129 -177 329 -177t328 119q129 119 129 293z" />
    <glyph glyph-name="four" unicode="4" horiz-adv-x="1185" 
d="M106 371h750l143 1013zM55 336q-10 0 -12 7t4 15l977 1106q11 11 14 5q4 -5 4 -11l-151 -1087h135q15 0 10 -23q-4 -12 -18 -12h-131l-47 -322q0 -14 -15 -14h-10q-14 0 -10 14l47 322h-797z" />
    <glyph glyph-name="five" unicode="5" horiz-adv-x="1130" 
d="M460 16q210 0 351 154t141 377q0 317 -354 317h-348q-12 0 -12 17l75 538q4 14 17 15h620q14 0 11 -15l-3 -6q-4 -14 -16 -14h-592l-71 -498h319q193 2 293 -90t100 -264q-1 -238 -155 -403q-154 -164 -384 -164t-333 180q-6 14 2 20l14 8q10 8 17 -4q98 -168 308 -168z
" />
    <glyph glyph-name="six" unicode="6" horiz-adv-x="1153" 
d="M186 471q0 -199 88 -327t259 -128t312 154q140 154 140 369q0 158 -93 258t-230 100q-96 0 -184 -39t-165 -113q-76 -74 -114 -133q-13 -30 -13 -141zM150 454q0 200 63 367t153 273t233 216q144 110 308 167q14 4 15 -7l2 -14q4 -12 -11 -16q-131 -48 -254 -132
q-122 -84 -202 -164t-150 -200q-70 -121 -98 -258q73 94 191 171t268 77t252 -110t102 -285q0 -229 -153 -395t-339 -164q-186 0 -283 137t-97 337z" />
    <glyph glyph-name="seven" unicode="7" horiz-adv-x="960" 
d="M186 1399q-14 0 -10 17t12 18h816q16 0 8 -19l-760 -1413q-6 -12 -16 -6l-11 4q-10 4 -2 18l740 1381h-777z" />
    <glyph glyph-name="eight" unicode="8" horiz-adv-x="1185" 
d="M172 330q0 -318 357 -318q171 0 298 104t127 296q0 122 -93 206t-251 97q-202 -16 -320 -120q-118 -103 -118 -265zM1018 1128q0 123 -78 208t-233 85q-195 -1 -298 -115t-103 -250t86 -214q87 -76 226 -84q172 10 286 109t114 261zM135 319q1 168 105 277t284 141
q-118 29 -186 110t-68 193q0 162 113 288t326 126q172 0 260 -95t88 -237q1 -142 -99 -246q-100 -105 -258 -141q133 -27 212 -115t79 -206q0 -215 -136 -325t-349 -109q-166 0 -268 86t-103 253z" />
    <glyph glyph-name="nine" unicode="9" horiz-adv-x="1155" 
d="M530 541q78 -1 155 29q126 48 222 149q62 64 88 106q10 51 11 142q0 197 -87 323t-259 125q-172 0 -312 -150q-139 -151 -139 -366q0 -158 92 -258t229 -100zM524 502q-150 0 -252 110t-102 287q0 227 154 391t340 164t283 -136t97 -336t-64 -366q-64 -168 -153 -274
q-88 -106 -236 -219t-304 -166q-12 -4 -15 8l-4 15q-4 12 13 16q119 39 247 128q127 89 207 169t151 201q70 121 99 258q-75 -94 -193 -172t-268 -78z" />
    <glyph glyph-name="colon" unicode=":" horiz-adv-x="423" 
d="M140 88q48 0 48 -50q0 -24 -17 -43t-39 -19t-37 15q-13 15 -13 39t18 41t40 17zM311 922q0 -24 -17 -44q-16 -20 -38 -20t-36 14q-13 14 -13 38t17 42t42 19q45 0 45 -49z" />
    <glyph glyph-name="semicolon" unicode=";" horiz-adv-x="516" 
d="M113 26q0 20 18 36t50 16t51 -40t20 -97q0 -166 -148 -275q-16 -10 -22 0l-6 12q-6 12 8 23q127 90 127 240q0 35 -10 59q-19 -20 -41 -20q-46 0 -47 46zM336 922q0 -24 -18 -44t-38 -20q-22 0 -34 14t-12 38t16 42t41 19q45 0 45 -49z" />
    <glyph glyph-name="less" unicode="&#x3c;" 
d="M242 461q-18 14 2 26l737 482q8 6 14 -4l6 -17q6 -10 -4 -16l-708 -463l579 -440q12 -8 0 -23t-22 -10z" />
    <glyph glyph-name="equal" unicode="=" 
d="M276 360q-16 0 -11 18t18 19h608q16 0 11 -18t-17 -19h-609zM336 782q-16 0 -11 18t17 19h608q16 0 12 -18q-5 -18 -18 -19h-608z" />
    <glyph glyph-name="greater" unicode="&#x3e;" 
d="M219 -2q-14 -7 -22 10q-8 10 4 19l706 454l-575 457q-8 8 2 23q10 14 20 8l604 -482q16 -12 -4 -24z" />
    <glyph glyph-name="question" unicode="?" horiz-adv-x="919" 
d="M352 -20q-18 0 -30 14t-11 32q-1 20 15 34t36 16q20 0 30 -12q11 -12 11 -32t-16 -36q-17 -16 -35 -16zM414 526q-14 0 -11 15l19 123q11 92 107 149q17 10 61 37q242 141 241 340q0 94 -70 162q-71 68 -188 68t-201 -56q-84 -55 -118 -94l-12 -19q-11 -15 -26 -5
q-15 12 -8 22q17 25 62 66q131 120 308 120q132 0 210 -75t78 -189q0 -217 -262 -371q-51 -31 -74 -46q-22 -15 -46 -46t-27 -68l-17 -118q-4 -14 -16 -15h-10z" />
    <glyph glyph-name="at" unicode="@" horiz-adv-x="1894" 
d="M582 410q0 -141 73 -237q74 -95 189 -95q158 0 260 128q25 30 35 50l10 20l65 459q-10 25 -50 61q-78 70 -193 70q-161 0 -275 -132t-114 -324zM121 309q0 251 75 459q154 428 521 599q186 87 401 87q326 0 500 -189t174 -534q0 -291 -138 -491t-341 -199q-76 0 -118 46
t-46 118q-115 -164 -305 -164q-137 0 -217 104t-80 263q0 209 125 351t293 142t258 -110l10 75q4 14 14 15h8q16 0 13 -15l-82 -592q-12 -86 22 -141t105 -55q190 0 317 194t127 459q0 328 -164 507q-163 179 -457 179t-515 -144t-343 -394q-122 -249 -122 -529t116 -478
t312 -296q11 -5 2 -23q-8 -18 -19 -12q-203 101 -325 309t-121 459z" />
    <glyph glyph-name="A" unicode="A" horiz-adv-x="1202" 
d="M227 465h725l-225 944h-2zM735 1477q8 0 10 -9l353 -1452q2 -10 -14 -16t-19 4l-102 426h-756l-225 -428q-5 -9 -21 -4q-16 6 -12 16l772 1454q2 8 12 9h2z" />
    <glyph glyph-name="B" unicode="B" horiz-adv-x="1196" 
d="M557 37q184 1 304 111t120 290q0 137 -83 207t-226 70h-396l-94 -678h375zM643 752q172 0 284 102t111 268q0 131 -82 203t-225 72h-358l-90 -645h360zM735 1434q158 0 249 -81t91 -225t-80 -246q-80 -101 -204 -145q106 -25 167 -101t62 -198q0 -194 -131 -316
t-338 -122h-397q-13 0 -13 14l199 1405q0 14 14 15h381z" />
    <glyph glyph-name="C" unicode="C" horiz-adv-x="1366" 
d="M141 616q0 342 236 590t541 248q250 0 425 -190q8 -8 -5 -22q-13 -13 -21 -5q-162 182 -399 182q-293 0 -517 -238q-223 -239 -223 -565q0 -252 155 -426t389 -174t449 191q8 6 15 0l10 -12q6 -6 -2 -15q-219 -200 -475 -200t-417 183t-161 453z" />
    <glyph glyph-name="D" unicode="D" horiz-adv-x="1386" 
d="M526 37q283 0 500 228t217 542q0 248 -149 419q-150 171 -377 171h-346l-191 -1360h346zM723 1434q241 0 399 -182t158 -445q0 -217 -105 -403t-281 -296q-176 -108 -372 -108h-370q-11 0 -11 14l197 1405q4 14 14 15h371z" />
    <glyph glyph-name="E" unicode="E" horiz-adv-x="1120" 
d="M1104 1434q16 0 11 -18t-15 -19h-727l-88 -633h637q16 0 11 -18t-15 -19h-639l-97 -690h725q18 0 14 -18t-18 -19h-749q-13 0 -13 14l199 1405q0 14 14 15h750z" />
    <glyph glyph-name="F" unicode="F" horiz-adv-x="1077" 
d="M1104 1434q16 0 11 -18t-15 -19h-727l-97 -684h639q14 0 11 -13l-4 -14q-4 -10 -19 -10h-631q-37 -252 -94 -662q0 -14 -16 -14h-8q-13 0 -13 14l199 1405q0 14 14 15h750z" />
    <glyph glyph-name="G" unicode="G" horiz-adv-x="1423" 
d="M141 616q0 342 236 590t541 248q250 0 425 -190q8 -8 -5 -22q-13 -13 -21 -5q-162 182 -399 182q-293 0 -517 -238q-223 -239 -223 -565q0 -254 154 -427t389 -173q159 0 279 48t169 94l70 481h-414q-14 0 -10 17t16 18h435q12 0 12 -12l-74 -519q-12 -18 -65 -53
t-172 -73t-252 -37q-248 0 -411 184t-163 452z" />
    <glyph glyph-name="H" unicode="H" horiz-adv-x="1417" 
d="M365 1434q14 0 10 -15l-90 -655h901l92 655q4 14 14 15h11q16 0 12 -15l-199 -1405q-4 -14 -14 -14h-10q-16 0 -13 14l101 713h-901l-101 -713q-4 -14 -16 -14h-8q-17 0 -13 14l199 1405q0 14 14 15h11z" />
    <glyph glyph-name="I" unicode="I" horiz-adv-x="479" 
d="M362 1434q16 0 13 -15l-197 -1405q-4 -14 -16 -14h-8q-17 0 -13 14l197 1405q4 14 16 15h8z" />
    <glyph glyph-name="J" unicode="J" horiz-adv-x="884" 
d="M250 -20q-106 0 -172 51t-92 106q-4 15 10 23t20 -2q78 -144 232 -144t250 111t125 313l139 981q0 14 14 15h8q14 0 11 -15l-138 -981q-31 -218 -136 -338t-271 -120z" />
    <glyph glyph-name="K" unicode="K" horiz-adv-x="1032" 
d="M365 1434q16 0 12 -15l-96 -676l778 689q13 8 24 -4q12 -13 2 -23l-774 -682l598 -703q9 -11 -12 -28q-10 -6 -18 4l-605 711l-96 -693q-4 -14 -16 -14h-8q-17 0 -13 14l199 1405q4 14 14 15h11z" />
    <glyph glyph-name="L" unicode="L" horiz-adv-x="933" 
d="M365 1434q14 0 10 -15l-195 -1384h639q16 0 11 -17t-15 -18h-661q-13 0 -13 14l199 1405q4 14 14 15h11z" />
    <glyph glyph-name="M" unicode="M" horiz-adv-x="1626" 
d="M1341 1468q10 0 13 -10l76 -1442q0 -14 -9 -16l-12 -2q-14 -4 -14 10l-72 1356l-584 -1380q-4 -10 -14 -10t-12 10l-197 1380l-446 -1356q-4 -12 -15 -12l-14 2q-12 2 -6 18l475 1442q6 18 15 12t10 -12l202 -1384l590 1384q4 10 14 10z" />
    <glyph glyph-name="N" unicode="N" horiz-adv-x="1454" 
d="M1339 1434q16 0 13 -15l-203 -1435q-2 -10 -12 -14t-15 5l-751 1409l-193 -1370q-4 -14 -16 -14h-8q-17 0 -13 14l203 1440q2 10 12 13t15 -5l751 -1409l193 1366q4 14 16 15h8z" />
    <glyph glyph-name="O" unicode="O" horiz-adv-x="1597" 
d="M180 621q0 -253 153 -429t382 -176q293 0 517 234t224 561q0 256 -152 431q-153 175 -384 175q-292 0 -516 -235t-224 -561zM143 618q1 344 235 590t544 246q248 0 410 -185t161 -456q-1 -342 -235 -588t-543 -245q-248 0 -410 185t-162 453z" />
    <glyph glyph-name="P" unicode="P" horiz-adv-x="1138" 
d="M614 539q176 0 313 145q136 145 136 342q0 154 -94 262t-236 109h-360l-121 -858h362zM739 1434q156 0 259 -118t104 -286q0 -213 -150 -371t-342 -157h-362l-70 -488q-4 -14 -16 -14h-8q-17 0 -13 14l199 1405q0 14 14 15h385z" />
    <glyph glyph-name="Q" unicode="Q" horiz-adv-x="1597" 
d="M180 621q0 -253 153 -429t382 -176q293 0 517 234t224 561q0 256 -152 431q-153 175 -384 175q-292 0 -516 -235t-224 -561zM143 618q1 344 235 590t544 246q248 0 410 -185t161 -455q0 -270 -154 -488q-154 -217 -385 -303l158 -390q6 -10 -4 -16l-21 -10q-8 -2 -12 6
l-157 397q-98 -31 -203 -30q-248 0 -410 185t-162 453z" />
    <glyph glyph-name="R" unicode="R" horiz-adv-x="1226" 
d="M666 582q186 0 320 135t134 336q0 145 -94 244t-233 100h-422l-115 -815h410zM793 1434q156 0 259 -109t103 -283t-117 -314t-282 -173l213 -541q4 -12 -6 -16q-21 -6 -25 2l-213 549q-18 -2 -59 -2h-414l-76 -533q0 -14 -14 -14h-8q-13 0 -13 14l199 1405q0 14 14 15
h439z" />
    <glyph glyph-name="S" unicode="S" horiz-adv-x="1050" 
d="M459 14q168 0 295 102t127 246q0 146 -86 220t-259 135t-254 133t-81 218t116 266q117 120 332 120q84 0 162 -27t115 -51l35 -26q8 -8 2 -17l-11 -12q-6 -10 -16 -4q-34 34 -123 69q-88 34 -164 33q-201 1 -307 -109t-106 -242t76 -198t251 -127q176 -61 264 -141
t88 -238t-134 -272q-134 -113 -322 -112q-78 0 -150 22q-73 22 -117 52q-129 91 -106 114l12 10q8 8 17 -2q44 -69 147 -116q103 -46 197 -46z" />
    <glyph glyph-name="T" unicode="T" horiz-adv-x="948" 
d="M184 1397q-16 0 -12 18t16 19h803q18 0 13 -18t-17 -19h-385l-194 -1383q-4 -14 -17 -14h-8q-16 0 -12 14l194 1383h-381z" />
    <glyph glyph-name="U" unicode="U" horiz-adv-x="1366" 
d="M348 1434q14 0 10 -15l-125 -903q-8 -47 -8 -102q-1 -182 99 -290t290 -108t329 138q140 138 171 362l127 903q4 14 16 15h11q14 0 10 -15l-127 -903q-35 -244 -179 -390t-376 -146q-188 0 -298 118t-110 314q1 34 9 104l127 903q4 14 14 15h10z" />
    <glyph glyph-name="V" unicode="V" horiz-adv-x="1198" 
d="M492 -33l-349 1450q-4 10 7 15l16 4q8 2 12 -11l334 -1392l741 1399q4 11 29 0q10 -4 2 -17l-768 -1448q-4 -6 -13 -8t-11 8z" />
    <glyph glyph-name="W" unicode="W" horiz-adv-x="1648" 
d="M942 1460q10 0 12 -10l160 -1384l535 1366q4 10 21 3t11 -20l-565 -1440q-6 -17 -15 -12q-9 6 -9 12l-162 1389l-535 -1389q-6 -17 -15 -12q-9 6 -9 12l-176 1446q0 10 8 13l18 4q4 2 7 -2t3 -9l164 -1364l533 1387q4 10 14 10z" />
    <glyph glyph-name="X" unicode="X" horiz-adv-x="1019" 
d="M-2 6q-8 6 0 19l510 706l-297 678q-4 14 4 18l14 9q10 6 15 -6l288 -666l482 666q6 10 16 6l12 -9q10 -4 0 -18l-491 -682l317 -704q4 -14 -6 -19l-14 -6q-10 -6 -14 6l-306 690l-499 -690q-8 -12 -17 -6z" />
    <glyph glyph-name="Y" unicode="Y" horiz-adv-x="1042" 
d="M440 0h-12q-12 0 -10 14l96 688l-385 707q-8 12 9 21t24 -3l373 -690l571 693q8 12 16 6l15 -9q12 -6 0 -18l-586 -704l-96 -693q-4 -12 -15 -12z" />
    <glyph glyph-name="Z" unicode="Z" horiz-adv-x="974" 
d="M-16 0q-8 0 -12 7q-3 7 3 16l996 1374h-729q-14 0 -10 18q5 18 16 19h770q8 0 11 -8t-1 -15l-997 -1374h753q14 -1 10 -19q-5 -18 -18 -18h-792z" />
    <glyph glyph-name="bracketleft" unicode="[" horiz-adv-x="641" 
d="M428 -451q16 0 11 -18t-15 -18h-375q-14 0 -10 14l264 1892q4 14 16 15h373q19 0 12 -18q-6 -18 -16 -19h-352l-258 -1848h350z" />
    <glyph glyph-name="backslash" unicode="\" horiz-adv-x="708" 
d="M252 1434q10 0 12 -9l250 -1413q4 -12 -6 -12h-12q-13 0 -15 8l-250 1413q-4 12 9 13h12z" />
    <glyph glyph-name="bracketright" unicode="]" horiz-adv-x="638" 
d="M-78 -451h350l258 1848h-350q-14 0 -9 18t15 19h373q12 0 12 -15l-266 -1892q-4 -14 -16 -14h-373q-16 0 -11 18t17 18z" />
    <glyph glyph-name="asciicircum" unicode="^" horiz-adv-x="966" 
d="M141 819q-7 -11 -21 0q-15 12 -7 21l489 624q14 14 23 0l305 -624q6 -10 -6 -17l-13 -8q-10 -6 -14 4l-287 598z" />
    <glyph glyph-name="underscore" unicode="_" horiz-adv-x="1284" 
d="M254 -20h608q14 0 9 -18t-17 -17h-608q-15 -1 -9 17q5 18 17 18z" />
    <glyph glyph-name="grave" unicode="`" horiz-adv-x="557" 
d="M520 1147l-309 184q-10 6 -1 21q9 14 21 10l308 -186q9 -5 0 -23q-9 -12 -19 -6z" />
    <glyph glyph-name="a" unicode="a" horiz-adv-x="1064" 
d="M139 401q0 -167 86 -277t226 -110q106 0 200 60t140 133l81 581q-25 57 -112 99q-87 43 -170 43q-188 0 -320 -153t-131 -376zM102 399q0 240 142 404t336 164t301 -123l16 86q4 16 12 16h11q14 0 10 -16l-127 -914q-4 -16 -17 -16h-10q-14 0 -10 16l16 121
q-43 -57 -136 -108t-195 -52q-161 0 -255 120t-94 302z" />
    <glyph glyph-name="b" unicode="b" horiz-adv-x="1067" 
d="M899 547q0 167 -91 275t-235 108q-87 0 -167 -37t-117 -74l-37 -35l-84 -589q6 -26 39 -62q33 -37 65 -61q76 -56 193 -58q172 0 303 158t131 375zM115 0q-16 0 -13 16l201 1401q4 16 14 17h11q18 0 14 -17l-84 -571q41 41 139 81q97 40 176 40q163 0 263 -119t100 -301
q0 -236 -141 -403t-330 -167q-115 -1 -192 47t-113 107l-19 -115q-4 -16 -16 -16h-10z" />
    <glyph glyph-name="c" unicode="c" horiz-adv-x="1017" 
d="M100 408q0 242 157 400t355 159q198 0 324 -125q6 -13 -8 -26t-25 -3l-33 30q-97 87 -243 87q-197 0 -343 -148t-147 -374q-1 -164 103 -279t247 -115q76 0 141 26t113 59t71 57t32 16l10 -10q10 -10 1 -20q-97 -102 -250 -147q-60 -17 -118 -18q-163 1 -275 125
t-112 306z" />
    <glyph glyph-name="d" unicode="d" horiz-adv-x="1064" 
d="M137 399q0 -165 85 -275t220 -110q72 0 140 26t127 74t82 83l83 591q-60 90 -174 126q-47 15 -98 16q-195 0 -330 -154t-135 -377zM100 399q0 242 146 405t356 163q80 0 150 -31t100 -59l29 -31l82 571q0 16 12 17h14q12 0 8 -17l-194 -1401q-2 -16 -17 -16h-10
q-14 0 -10 16l16 115q-55 -59 -144 -106t-196 -48q-154 0 -248 121t-94 301z" />
    <glyph glyph-name="e" unicode="e" horiz-adv-x="1009" 
d="M885 709q0 94 -80 157t-211 64q-174 0 -298 -125t-151 -313q150 -20 254 -21q227 0 357 61q129 61 129 177zM100 387q0 246 140 413t354 167q147 0 237 -74q91 -73 91 -193t-138 -193t-383 -73q-129 0 -260 21q-4 -45 -4 -64q0 -168 86 -272q86 -105 244 -105t293 105
q12 10 20 -7t2 -22q-37 -37 -134 -75t-187 -38q-177 0 -269 116t-92 294z" />
    <glyph glyph-name="f" unicode="f" horiz-adv-x="710" 
d="M86 -487q-16 0 -12 18l192 1378h-129q-8 0 -12 3t-1 18q3 16 17 16h131l19 135q49 373 327 373q145 0 228 -96q10 -13 -6 -29q-12 -10 -23 0q-90 90 -199 90q-246 0 -290 -338l-19 -135h383q18 0 13 -18q-4 -18 -17 -19h-385l-190 -1378q-4 -18 -17 -18h-10z" />
    <glyph glyph-name="g" unicode="g" horiz-adv-x="1067" 
d="M137 401q0 -163 94 -275t235 -112t225 59q83 59 95 81l86 626q-10 18 -34 47q-25 29 -95 66t-153 37q-188 0 -320 -153t-133 -376zM100 401q0 238 142 402t336 164t305 -127l14 90q4 16 12 16h11q14 0 10 -16l-125 -924q-33 -240 -141 -348t-265 -107q-79 0 -151 36
t-103 66t-46 49t-3 30l10 8q8 4 15 -2q125 -150 275 -150t246 106t126 318l12 82q-131 -117 -302 -117q-170 0 -274 121t-104 303z" />
    <glyph glyph-name="h" unicode="h" horiz-adv-x="1034" 
d="M125 0h-8q-18 0 -15 16l201 1401q4 16 16 17h9q16 0 12 -17l-90 -629q162 178 338 179q332 0 266 -439l-74 -512q-4 -16 -14 -16h-8q-18 0 -15 16l74 512q29 205 -27 303t-202 99q-61 0 -114 -20t-102 -54q-49 -35 -72 -62q-22 -28 -30 -36t-16 -21l-10 -10l-103 -711
q-4 -16 -16 -16z" />
    <glyph glyph-name="i" unicode="i" horiz-adv-x="405" 
d="M293 1239q-41 0 -41 43q0 20 17 38t38 17q39 0 39 -43q0 -23 -15 -39t-38 -16zM117 0q-18 0 -15 16l129 914q4 16 17 16h10q16 0 12 -16l-129 -914q-4 -16 -14 -16h-10z" />
    <glyph glyph-name="j" unicode="j" horiz-adv-x="403" 
d="M256 946q16 0 12 -16l-149 -1063q-23 -170 -100 -258t-218 -119q-18 -2 -20 10l-2 11q-2 12 16 16q129 31 197 107t90 233l149 1063q4 16 17 16h8zM297 1239q-41 0 -41 43q0 20 17 38t38 17q39 0 39 -43q0 -23 -15 -39t-38 -16z" />
    <glyph glyph-name="k" unicode="k" horiz-adv-x="854" 
d="M117 0q-18 0 -15 16l201 1401q4 16 16 17h9q20 0 16 -17l-127 -872l588 413q10 6 18 -2l8 -12q6 -10 -6 -18l-573 -406l457 -497q9 -11 -7 -26t-26 -1l-463 512l-70 -492q-4 -16 -18 -16h-8z" />
    <glyph glyph-name="l" unicode="l" horiz-adv-x="438" 
d="M141 0h-8q-18 0 -14 16l200 1401q4 16 15 17h10q16 0 12 -17l-198 -1401q-5 -16 -17 -16z" />
    <glyph glyph-name="m" unicode="m" horiz-adv-x="1562" 
d="M117 0q-18 0 -15 16l129 914q4 16 15 16h10q16 0 12 -16l-16 -129q131 166 316 166t241 -181q135 180 321 181q313 0 252 -439l-71 -512q-4 -16 -17 -16h-8q-18 0 -14 16l74 512q57 401 -216 402q-64 0 -106 -16q-108 -43 -185 -151q-17 -23 -20 -26q14 -76 -6 -209
l-72 -512q-4 -16 -16 -16h-8q-18 0 -15 16l74 512q57 401 -207 402q-205 0 -327 -195l-101 -719q-4 -16 -16 -16h-8z" />
    <glyph glyph-name="n" unicode="n" horiz-adv-x="1036" 
d="M248 946h10q10 0 10 -16l-16 -129q156 166 338 166q332 0 266 -439l-72 -512q-4 -16 -16 -16h-10q-16 0 -13 16l74 512q57 401 -229 402q-90 0 -172 -43t-117 -81t-57 -71l-103 -719q-4 -16 -16 -16h-8q-19 0 -15 16l131 914q4 16 15 16z" />
    <glyph glyph-name="o" unicode="o" horiz-adv-x="1099" 
d="M137 403q0 -165 93 -277t237 -112q186 0 326 158q139 158 139 373q0 165 -91 275t-237 110q-186 0 -326 -157t-141 -370zM100 403q0 231 151 397t353 167q162 0 263 -122t102 -300q0 -233 -150 -401t-352 -167q-163 0 -265 122t-102 304z" />
    <glyph glyph-name="p" unicode="p" horiz-adv-x="1062" 
d="M422 14q199 0 336 157t137 382q0 164 -88 270t-227 107q-177 0 -299 -111q-23 -20 -33 -33l-88 -634q8 -18 30 -46q23 -28 86 -60t146 -32zM57 -487h-10q-16 0 -12 16l196 1403q2 14 15 14h10q12 0 10 -14l-10 -88q132 123 308 123t272 -118t96 -296q0 -242 -148 -409
t-362 -167q-172 0 -270 119l-80 -567q-4 -16 -15 -16z" />
    <glyph glyph-name="q" unicode="q" horiz-adv-x="1064" 
d="M137 401q0 -167 94 -277t250 -110q80 0 170 39t133 99l88 632q-25 57 -112 101q-87 45 -170 45q-188 0 -320 -153t-133 -376zM100 401q0 238 142 402t336 164q192 0 303 -127l16 90q4 16 12 16h11q14 0 10 -16l-195 -1399q-4 -18 -14 -18h-8q-18 0 -15 18l80 563
q-131 -117 -301 -117q-169 0 -273 121t-104 303z" />
    <glyph glyph-name="r" unicode="r" horiz-adv-x="710" 
d="M125 0h-10q-16 0 -13 16l129 914q4 16 15 16h12q12 0 8 -16l-14 -125q47 61 126 111t169 50t153 -38q12 -8 2 -24t-24 -9q-53 35 -129 35t-151 -46q-74 -46 -104 -81t-50 -66l-105 -721q-4 -16 -14 -16z" />
    <glyph glyph-name="s" unicode="s" horiz-adv-x="823" 
d="M326 -23q-150 0 -260 105q-12 12 3 27t25 6q94 -101 230 -101t226 68q89 68 89 168q0 68 -42 113q-42 44 -102 67q-61 24 -152 57t-148 88t-57 145t83 169q83 78 229 78t238 -72q11 -9 0 -25q-12 -16 -24 -8q-94 68 -218 68t-198 -66t-74 -144t52 -122q52 -45 141 -80
t153 -61t92 -59q62 -70 64 -148q0 -117 -100 -195t-250 -78z" />
    <glyph glyph-name="t" unicode="t" horiz-adv-x="659" 
d="M303 -23q-113 0 -141 71t-10 206l92 655h-94q-12 0 -9 17l2 4q4 16 15 16h92l35 256q4 14 12 15h10q16 0 12 -15l-32 -256h344q18 0 14 -16l-2 -4q-4 -16 -18 -17h-344l-93 -655q-23 -100 -1 -170t116 -70q123 0 240 78q12 8 20 -4l6 -12q6 -8 -6 -17q-39 -25 -115 -53
t-145 -29z" />
    <glyph glyph-name="u" unicode="u" horiz-adv-x="1015" 
d="M414 14q139 0 233 89q67 65 90 104l103 723q4 16 16 16h10q16 0 13 -16l-129 -914q-4 -16 -17 -16h-10q-14 0 -10 16l16 125q-143 -164 -315 -164q-330 0 -269 435l74 520q2 14 17 14h8q16 0 12 -16l-72 -518q-59 -398 230 -398z" />
    <glyph glyph-name="v" unicode="v" horiz-adv-x="903" 
d="M366 -35q-10 0 -14 10l-241 961q-4 14 6 16l14 6q12 2 16 -10l224 -911l485 913q6 14 18 8l11 -4q12 -4 6 -18l-510 -961q-5 -10 -15 -10z" />
    <glyph glyph-name="w" unicode="w" horiz-adv-x="1304" 
d="M704 987q12 0 17 -16l125 -920l389 901q6 10 14 9l15 -7q10 -2 4 -16l-414 -963q-8 -10 -18 -11t-15 11l-125 926l-385 -926q-6 -10 -17 -11t-13 11l-148 963q-4 18 8 20q23 6 27 -8l137 -897l383 920q4 14 16 14z" />
    <glyph glyph-name="x" unicode="x" horiz-adv-x="860" 
d="M2 4q-8 8 0 19l391 471l-252 434q-6 14 10 23t23 -3l246 -426l371 434q8 10 20 -2t8 -22l-379 -443l262 -466q10 -14 -8 -23t-24 0l-256 465l-383 -469q-10 -8 -17 -2z" />
    <glyph glyph-name="y" unicode="y" horiz-adv-x="901" 
d="M354 20l-243 916q-4 12 6 16q24 8 28 -4l234 -887l475 891q8 12 18 6l11 -4q12 -6 6 -18l-768 -1425q-7 -13 -27 -3q-10 8 -4 21z" />
    <glyph glyph-name="z" unicode="z" horiz-adv-x="806" 
d="M2 0q-10 0 -13 8t5 19l719 882h-525q-18 0 -14 15l2 10q2 12 17 12h569q10 0 14 -8t-4 -18l-721 -883h559q16 0 11 -23q-2 -14 -17 -14h-602z" />
    <glyph glyph-name="braceleft" unicode="{" horiz-adv-x="671" 
d="M74 459q-16 0 -12 18q5 18 16 19q45 0 104 50t72 136l41 297q37 267 143 371t293 104q16 0 11 -18t-17 -19q-162 0 -260 -96t-133 -342l-41 -297q-10 -74 -53 -126t-99 -79q113 -66 94 -205l-43 -303q-35 -248 37 -345t234 -97q16 0 11 -18t-17 -19q-369 0 -301 479
l43 303q12 84 -31 136t-92 51z" />
    <glyph glyph-name="bar" unicode="|" horiz-adv-x="403" 
d="M336 1554h8q14 0 10 -14l-282 -2013q-4 -14 -15 -14h-8q-16 0 -12 14l282 2013q4 14 17 14z" />
    <glyph glyph-name="braceright" unicode="}" horiz-adv-x="671" 
d="M178 1417q-16 1 -11 19t17 18q176 0 257 -108t44 -367l-41 -297q-12 -86 33 -136t90 -50q17 0 13 -18t-17 -19q-49 0 -107 -51t-69 -136l-43 -303q-39 -271 -144 -375t-290 -104q-16 0 -11 18t17 19q160 0 258 97t133 345l43 303q10 74 53 126t99 79q-113 66 -94 205
l41 297q35 246 -37 342t-234 96z" />
    <glyph glyph-name="asciitilde" unicode="~" horiz-adv-x="1112" 
d="M147 512l-16 8q-12 12 32 66q44 53 73 80q28 26 74 48q96 45 171 -3q37 -25 55 -48q17 -24 39 -63q63 -109 144 -108q61 0 121 45t86 90l28 45q7 11 23 4q16 -8 11 -18t-13 -24q-68 -110 -164 -156t-174 1q-37 23 -54 45t-40 62q-65 112 -135 112t-129 -45t-86 -90
l-29 -45q-7 -12 -17 -6z" />
    <glyph glyph-name="uni00A0" unicode="&#xa0;" horiz-adv-x="491" 
 />
    <glyph glyph-name="exclamdown" unicode="&#xa1;" horiz-adv-x="411" 
d="M176 399h8q12 0 13 -14l-121 -858q0 -14 -19 -14h-6q-12 0 -12 14l123 858q0 14 14 14zM301 920q0 -20 -16 -34q-15 -16 -35 -16t-32 12t-11 32q0 20 16 36q17 16 35 16t30 -12q12 -14 13 -34z" />
    <glyph glyph-name="cent" unicode="&#xa2;" horiz-adv-x="1075" 
d="M162 416q0 -127 59 -228q60 -100 156 -141l330 868l-62 7q-193 0 -338 -144t-145 -362zM649 965q29 0 74 -9l35 91q4 17 22 12q18 -6 13 -25l-33 -86q113 -29 196 -112q8 -11 -12 -31q-14 -10 -22 2q-61 72 -179 102l-333 -876q172 -39 305 39q78 46 116 84l19 14
q8 8 18 2q15 -20 9 -27q-64 -71 -202 -134q-77 -32 -155 -33t-127 16l-76 -199q-6 -14 -16 -10l-10 2q-14 3 -8 23l73 198q-106 47 -171 155t-64 245q1 240 155 398t373 159z" />
    <glyph glyph-name="sterling" unicode="&#xa3;" 
d="M276 637q-16 0 -11 17t16 18h73q-14 186 -14 254q0 244 126 386t318 142t308 -147q6 -9 -8 -23t-21 -6q-113 139 -299 139q-152 0 -270 -131t-119 -354q0 -70 14 -260h438q16 0 12 -18q-5 -18 -16 -17h-436q6 -285 -147 -600h634q16 -1 12 -19q-5 -18 -16 -18h-669
q-19 0 -11 20q174 340 164 617h-78z" />
    <glyph glyph-name="currency" unicode="&#xa4;" horiz-adv-x="972" 
d="M246 598q0 133 86 225l-92 125q-8 12 4 22t22 3l96 -125q76 63 168 63t150 -67l135 129q10 6 16 0q12 -16 5 -25l-134 -131q39 -57 39 -135q0 -131 -84 -225l93 -123q6 -12 -6 -22t-23 -3l-94 121q-78 -66 -169 -66t-155 70l-129 -125q-14 -8 -22 2t0 23l131 127
q-37 61 -37 137zM462 399q94 0 171 86q76 87 76 183q1 96 -51 152t-141 56t-164 -85q-75 -87 -75 -177t41 -143q49 -72 143 -72z" />
    <glyph glyph-name="yen" unicode="&#xa5;" 
d="M244 317q-17 -1 -11 17q5 18 17 18h309l29 207h-309q-14 0 -11 12l2 13q2 10 13 10h309l16 108l-387 707q-8 12 4 21l13 6q8 4 14 -6l377 -695l569 695q10 16 21 6l10 -9q10 -8 0 -18l-584 -704l-16 -111h311q14 0 10 -17t-14 -18h-311l-31 -207h311q16 0 13 -12l-3 -10
q-2 -12 -14 -13h-311l-43 -303q0 -14 -15 -14h-10q-12 0 -12 14l43 303h-309z" />
    <glyph glyph-name="brokenbar" unicode="&#xa6;" horiz-adv-x="417" 
d="M170 281q12 0 12 -13l-104 -739q0 -14 -15 -14h-8q-12 0 -12 14l104 739q0 12 15 13h8zM231 786q-14 0 -10 15l103 739q4 14 16 14h8q14 0 10 -14l-104 -739q0 -14 -14 -15h-9z" />
    <glyph glyph-name="section" unicode="&#xa7;" horiz-adv-x="1107" 
d="M891 403q0 123 -83 193t-248 117t-241 123q-117 -111 -116 -250q0 -219 311 -305q172 -51 248 -117q129 117 129 239zM166 580q0 158 129 278q-59 76 -59 186q0 164 111 287q112 123 343 123q82 0 156 -27t108 -51l33 -26q9 -5 -8 -29q-12 -12 -21 -3q-31 31 -116 66
q-85 34 -158 33q-203 1 -308 -111q-106 -112 -106 -243t80 -204t240 -119t250 -123t90 -207t-142 -269q72 -76 72 -196q0 -162 -127 -271t-305 -108q-88 0 -172 37t-120 67t-51 48q-15 16 -5 24l12 12q10 6 17 -2q18 -24 49 -52q30 -28 108 -64t166 -35q152 0 273 99
q121 98 121 230t-84 202q-83 70 -240 116q-336 96 -336 332z" />
    <glyph glyph-name="dieresis" unicode="&#xa8;" horiz-adv-x="763" 
d="M291 1239q-39 0 -39 39q0 23 15 38t36 15q37 0 37 -41q0 -51 -49 -51zM639 1239q-37 0 -37 39q0 20 15 36t34 17q39 0 39 -41q0 -23 -16 -37t-35 -14z" />
    <glyph glyph-name="copyright" unicode="&#xa9;" horiz-adv-x="1648" 
d="M500 662q0 184 123 315t290 131q121 0 205 -80q10 -7 -2 -21t-20 -8q-74 74 -187 74q-147 0 -261 -121t-113 -286q0 -129 77 -220q78 -90 195 -90t211 80q10 8 18 -4q7 -17 0 -24q-106 -88 -233 -88t-215 100q-88 101 -88 242zM205 625q-1 -256 153 -432t385 -177
q189 0 359 106t274 290t104 418t-153 410q-154 177 -387 177q-289 0 -512 -235t-223 -557zM168 621q0 169 64 323q129 309 421 444q143 67 293 66q242 0 407 -187t165 -454q0 -340 -234 -587t-545 -246q-243 0 -407 188t-164 453z" />
    <glyph glyph-name="ordfeminine" unicode="&#xaa;" horiz-adv-x="688" 
d="M334 858q64 0 126 32q60 32 89 66l29 209q-70 31 -152 31t-144 -48t-72 -124t24 -121q36 -45 100 -45zM348 821q-92 -1 -140 57t-35 148t85 146t168 56t158 -26l8 53q10 86 -14 124q-26 38 -86 38q-117 0 -162 -33l-19 -10q-8 -6 -15 9t3 22q72 49 182 49q174 0 146 -199
l-58 -401q-4 -14 -16 -14h-6q-16 0 -12 14l8 51q-103 -84 -195 -84z" />
    <glyph glyph-name="guillemotleft" unicode="&#xab;" horiz-adv-x="796" 
d="M276 127l-174 352q-2 8 2 17l273 348q10 10 22 -2t4 -21l-260 -338l166 -340q4 -12 -12 -18q-16 -7 -21 2zM571 127l-174 352q-2 8 2 17l273 348q10 10 22 -2t4 -21l-260 -338l166 -340q4 -12 -12 -18q-16 -7 -21 2z" />
    <glyph glyph-name="logicalnot" unicode="&#xac;" horiz-adv-x="1146" 
d="M236 696q-15 0 -10 18t14 19h718q14 0 11 -14l-56 -404q-4 -14 -14 -14h-10q-14 0 -10 14l53 381h-696z" />
    <glyph glyph-name="uni00AD" unicode="&#xad;" horiz-adv-x="753" 
d="M141 498q-14 0 -9 18t15 19h447q12 -1 7 -19t-13 -18h-447z" />
    <glyph glyph-name="registered" unicode="&#xae;" horiz-adv-x="1646" 
d="M881 668q91 0 163 61t72 157t-52 140q-52 43 -128 43h-252l-57 -401h254zM666 1104h276q88 0 148 -52t61 -158q0 -106 -69 -174t-167 -83l105 -277q4 -10 -4 -14l-15 -6q-8 -6 -12 6l-108 289h-258l-39 -281q-4 -14 -17 -14h-8q-14 0 -10 14l104 736q0 14 13 14zM205 625
q-1 -256 153 -432t385 -177q289 0 513 236t225 557q0 254 -155 431t-386 177q-289 0 -512 -234t-223 -558zM168 621q0 223 108 417t288 304q179 112 380 112q242 0 407 -187t165 -454q0 -340 -234 -587t-545 -246q-241 0 -405 188t-164 453z" />
    <glyph glyph-name="macron" unicode="&#xaf;" horiz-adv-x="763" 
d="M88 1243q-16 1 -11 19t17 18h529q16 0 11 -18t-16 -19h-530z" />
    <glyph glyph-name="degree" unicode="&#xb0;" horiz-adv-x="751" 
d="M227 1136q1 -106 53 -166t146 -59q94 0 173 87q79 86 79 192t-52 166t-148 61q-96 0 -173 -88q-78 -87 -78 -193zM190 1134q0 120 92 220t198 100q108 0 172 -71t65 -191q0 -120 -93 -218q-92 -100 -198 -100t-171 70t-65 190z" />
    <glyph glyph-name="plusminus" unicode="&#xb1;" 
d="M209 174q-14 0 -10 14v9q4 14 14 14h717q16 0 12 -14v-9q-4 -14 -16 -14h-717zM596 446q-14 0 -10 15l45 319h-340q-16 0 -11 18t15 19h340l53 379q4 14 14 14h13q14 0 10 -14l-53 -379h340q16 0 11 -18t-15 -19h-340l-45 -319q-4 -14 -15 -15h-12z" />
    <glyph glyph-name="twosuperior" unicode="&#xb2;" horiz-adv-x="546" 
d="M152 1032q-10 0 -13 10q-2 10 6 17l273 227q131 104 131 207q0 53 -37 91t-90 38t-90 -18t-51 -39l-15 -19q-7 -13 -20 -2q-14 12 -7 22t19 26q12 15 58 41t112 26t111 -47t45 -117q0 -119 -144 -235l-231 -191h301q14 0 9 -18t-15 -19h-352z" />
    <glyph glyph-name="threesuperior" unicode="&#xb3;" horiz-adv-x="585" 
d="M410 1323h-121q-14 1 -9 19t13 18h121q61 0 108 45t47 103q0 114 -131 114q-49 0 -92 -18t-61 -37l-19 -19q-6 -10 -18 2t-3 22t23 25q14 14 66 38t118 24q64 0 109 -37t45 -97q0 -61 -32 -111t-85 -71q93 -41 93 -131t-73 -143t-167 -57q-106 0 -184 86q-6 10 6 23t18 7
q30 -31 36 -37q7 -5 15 -11t34 -19q26 -12 88 -12q63 0 125 43t62 104t-34 94q-35 33 -98 33z" />
    <glyph glyph-name="acute" unicode="&#xb4;" horiz-adv-x="557" 
d="M195 1145q-12 -5 -19 11q-8 15 4 22l361 186q10 4 19 -12t-5 -23z" />
    <glyph glyph-name="mu" unicode="&#xb5;" horiz-adv-x="1038" 
d="M899 946h10q16 0 13 -16l-129 -914q-4 -16 -17 -16h-10q-14 0 -10 16l16 125q-143 -164 -315 -164q-219 0 -267 185l-88 -633q-4 -16 -16 -16h-8q-18 0 -15 16l199 1403q2 14 17 14h8q16 0 12 -16l-72 -518q-27 -202 29 -300t198 -98t236 89q67 65 90 104l103 723
q4 16 16 16z" />
    <glyph glyph-name="paragraph" unicode="&#xb6;" horiz-adv-x="1327" 
d="M465 561q-139 0 -234 110q-94 110 -94 269q0 205 124 349t310 145h764q12 0 13 -15l-2 -8q0 -14 -15 -14h-184l-260 -1870q-3 -14 -15 -14t-18 3t-4 11l260 1870h-352l-260 -1870q-4 -14 -20 -14t-17 14l262 1870h-158q-157 0 -273 -135t-116 -301q0 -167 84 -267
t215 -100q10 0 5 -16t-15 -17z" />
    <glyph glyph-name="periodcentered" unicode="&#xb7;" horiz-adv-x="409" 
d="M244 543q0 -23 -16 -39t-34 -17q-20 -1 -31 13t-11 34t16 34q16 15 37 16q39 0 39 -41z" />
    <glyph glyph-name="cedilla" unicode="&#xb8;" horiz-adv-x="505" 
d="M428 -294q0 -77 -58 -132t-154 -55t-148 69q-10 10 5 24q15 15 23 3q45 -59 119 -59t124 43t50 112q0 106 -121 107q-55 0 -100 -19q-8 -4 -13 6t-1 17l137 184h45l-125 -162q99 31 171 -25q46 -36 46 -113z" />
    <glyph glyph-name="onesuperior" unicode="&#xb9;" horiz-adv-x="327" 
d="M258 1032q-12 0 -12 15l78 544l-111 -80q-9 -7 -25 13q-4 8 7 14l149 109q8 6 14 2t4 -15l-81 -587q0 -14 -17 -15h-6z" />
    <glyph glyph-name="ordmasculine" unicode="&#xba;" horiz-adv-x="702" 
d="M385 844q100 0 168 100t68 266q0 100 -40 154t-116 55q-100 0 -167 -101t-67 -269q0 -97 40 -151t114 -54zM379 807q-86 0 -134 63t-48 177q1 183 77 295t197 112q86 0 136 -66t50 -180q1 -180 -79 -290t-199 -111z" />
    <glyph glyph-name="guillemotright" unicode="&#xbb;" horiz-adv-x="796" 
d="M70 150l262 342l-166 335q-7 12 9 18q17 7 24 -1l174 -348q2 -8 -2 -17l-273 -352q-10 -10 -22 2t-6 21zM393 127q-12 -12 -23 0t-5 20l262 345l-166 335q-7 12 9 18q17 7 24 -1l174 -348q2 -8 -2 -17z" />
    <glyph glyph-name="onequarter" unicode="&#xbc;" horiz-adv-x="1206" 
d="M592 174h309l53 375zM1026 174q14 0 10 -17t-14 -18h-92l-19 -125q-4 -14 -14 -14h-8q-14 0 -10 14l18 125h-354q-8 0 -12 7q-2 8 4 16l438 456q10 6 17 4t5 -14l-61 -434h92zM74 8q-10 6 -2 19l966 1405q6 8 17 2q18 -17 10 -25l-965 -1405q-2 -4 -9 -5t-9 3zM305 827
q-12 0 -12 15l78 544l-111 -79q-9 -7 -24 12q-4 8 6 14l149 109q9 6 15 2t4 -14l-82 -588q0 -14 -17 -15h-6z" />
    <glyph glyph-name="onehalf" unicode="&#xbd;" horiz-adv-x="1181" 
d="M598 0q-10 0 -12 10t6 17l272 227q131 104 131 207q0 53 -37 91t-90 38t-90 -18t-51 -40l-14 -18q-7 -14 -21 -2t-7 22t19 26q12 15 59 41q45 26 111 26t111 -47t45 -117q0 -119 -143 -236l-232 -190h301q14 -1 10 -19q-5 -18 -16 -18h-352zM74 8q-10 6 -2 19l966 1405
q6 8 17 2q18 -17 10 -25l-965 -1405q-2 -4 -9 -5t-9 3zM305 827q-12 0 -12 15l78 544l-111 -79q-9 -7 -24 12q-4 8 6 14l149 109q9 6 15 2t4 -14l-82 -588q0 -14 -17 -15h-6z" />
    <glyph glyph-name="threequarters" unicode="&#xbe;" horiz-adv-x="1312" 
d="M561 991q0 61 -35 94t-98 33h-121q-14 0 -9 18t13 19h121q61 0 109 45q47 44 47 102t-35 87t-90 29t-98 -19q-43 -18 -62 -37l-18 -19q-7 -11 -19 2t-2 23q8 10 22 24t67 39q52 23 117 23t110 -37t45 -97t-32 -110t-85 -71q92 -41 92 -131t-73 -144t-167 -57
q-106 0 -184 86q-5 9 7 23q13 14 19 8t9 -12q4 -6 13 -14q9 -9 15 -13q5 -5 13 -11q38 -30 111 -30q74 0 136 43t62 104zM698 174h310l53 375zM1133 174q14 0 10 -17t-15 -18h-92l-18 -125q-4 -14 -14 -14h-9q-14 0 -10 14l19 125h-355q-8 -1 -11 7t3 16l438 456q10 6 18 4
q7 -3 5 -14l-62 -434h93zM178 27l967 1405q7 10 21 -3q13 -12 5 -20l-964 -1405q-6 -12 -21 0q-16 11 -8 23z" />
    <glyph glyph-name="questiondown" unicode="&#xbf;" horiz-adv-x="825" 
d="M408 420h10q14 0 10 -14l-18 -123q-11 -93 -108 -150q-17 -10 -60 -37q-242 -141 -242 -338q0 -94 71 -162t188 -67q117 0 204 57t127 111q10 14 26 4q16 -11 8 -21t-18 -22q-141 -161 -352 -164q-133 0 -211 74t-78 188q0 217 262 371q51 31 74 46t47 46t27 68l16 119
q4 14 17 14zM520 920q0 -20 -15 -34q-15 -16 -35 -16t-30 12q-12 12 -12 32t16 36t34 16t30 -12q12 -14 12 -34z" />
    <glyph glyph-name="Agrave" unicode="&#xc0;" horiz-adv-x="1202" 
d="M920 1595l-310 185q-10 6 -1 20t22 10l307 -186q8 -5 0 -20t-18 -9zM227 465h725l-225 944h-2zM735 1477q8 0 10 -9l353 -1452q2 -10 -14 -16t-19 4l-102 426h-756l-225 -428q-5 -9 -21 -4q-16 6 -12 16l772 1454q2 8 12 9h2z" />
    <glyph glyph-name="Aacute" unicode="&#xc1;" horiz-adv-x="1202" 
d="M594 1591q-10 -4 -16 6l-7 13q-4 8 9 14l360 186q10 4 20 -12t-6 -22zM227 465h725l-225 944h-2zM735 1477q8 0 10 -9l353 -1452q2 -10 -14 -16t-19 4l-102 426h-756l-225 -428q-5 -9 -21 -4q-16 6 -12 16l772 1454q2 8 12 9h2z" />
    <glyph glyph-name="Acircumflex" unicode="&#xc2;" horiz-adv-x="1202" 
d="M518 1563q-8 -4 -14 2q-12 20 -4 26t10 8l260 209q10 6 16 0l207 -217q10 -10 -2 -21t-18 -5l-197 207zM227 465h725l-225 944h-2zM735 1477q8 0 10 -9l353 -1452q2 -10 -14 -16t-19 4l-102 426h-756l-225 -428q-5 -9 -21 -4q-16 6 -12 16l772 1454q2 8 12 9h2z" />
    <glyph glyph-name="Atilde" unicode="&#xc3;" horiz-adv-x="1202" 
d="M676 1837q49 0 76 -35q26 -35 32 -76q15 -110 84 -110q84 0 144 147q6 14 14 13l14 -4q14 -4 7 -19q-76 -172 -183 -172q-48 0 -74 35t-34 76q-8 42 -28 76t-56 34q-37 0 -77 -40t-69 -109q-6 -15 -14 -11l-14 5q-12 4 -6 18q72 172 184 172zM227 465h725l-225 944h-2z
M735 1477q8 0 10 -9l353 -1452q2 -10 -14 -16t-19 4l-102 426h-756l-225 -428q-5 -9 -21 -4q-16 6 -12 16l772 1454q2 8 12 9h2z" />
    <glyph glyph-name="Adieresis" unicode="&#xc4;" horiz-adv-x="1202" 
d="M571 1655q-39 0 -39 39q0 23 16 38t36 15q39 0 39 -41q0 -23 -16 -37t-36 -14zM954 1655q-39 0 -39 39q-1 25 15 39t37 14q37 0 37 -41q0 -23 -16 -37t-34 -14zM227 465h725l-225 944h-2zM735 1477q8 0 10 -9l353 -1452q2 -10 -14 -16t-19 4l-102 426h-756l-225 -428
q-5 -9 -21 -4q-16 6 -12 16l772 1454q2 8 12 9h2z" />
    <glyph glyph-name="Aring" unicode="&#xc5;" horiz-adv-x="1202" 
d="M755 1571q69 0 125 59q56 60 56 134t-36 118t-104 45q-68 0 -122 -60q-56 -61 -56 -135t34 -118t103 -43zM971 1767q1 -89 -67 -160t-149 -71t-127 52t-46 141t67 161q68 72 149 72t127 -53t46 -142zM227 465h725l-225 944h-2zM735 1477q8 0 10 -9l353 -1452
q2 -10 -14 -16t-19 4l-102 426h-756l-225 -428q-5 -9 -21 -4q-16 6 -12 16l772 1454q2 8 12 9h2z" />
    <glyph glyph-name="AE" unicode="&#xc6;" horiz-adv-x="1720" 
d="M287 465h520l125 889zM1704 1434q16 0 11 -18t-15 -19h-727l-90 -633h639q12 0 12 -18t-18 -19h-637l-99 -690h727q16 -1 12 -19q-5 -18 -16 -18h-747q-16 0 -13 14l58 416h-539l-311 -430q-6 -8 -22 1q-15 9 -7 19l1022 1407q2 6 14 7h746z" />
    <glyph glyph-name="Ccedilla" unicode="&#xc7;" horiz-adv-x="1366" 
d="M141 616q0 342 236 590t541 248q250 0 425 -190q8 -8 -5 -22q-13 -13 -21 -5q-162 182 -399 182q-293 0 -517 -238q-223 -239 -223 -565q0 -252 155 -426t389 -174t449 191q8 6 15 0l10 -12q6 -6 -2 -15q-209 -190 -465 -200l-104 -136q97 31 171 -25q46 -36 46 -113
t-58 -132t-154 -55q-95 0 -149 69q-10 10 5 25q16 14 24 2q45 -59 119 -59t124 43t50 112q0 106 -121 107q-55 0 -100 -19q-8 -4 -14 6q-5 10 -1 17l117 160q-240 10 -392 191t-151 443z" />
    <glyph glyph-name="Egrave" unicode="&#xc8;" horiz-adv-x="1120" 
d="M911 1595l-309 185q-10 6 -1 20t22 10l307 -186q8 -5 0 -22q-9 -13 -19 -7zM1104 1434q16 0 11 -18t-15 -19h-727l-88 -633h637q16 0 11 -18t-15 -19h-639l-97 -690h725q18 0 14 -18t-18 -19h-749q-13 0 -13 14l199 1405q0 14 14 15h750z" />
    <glyph glyph-name="Eacute" unicode="&#xc9;" horiz-adv-x="1120" 
d="M588 1591q-10 -4 -17 6l-6 13q-4 8 8 14l361 186q10 4 19 -12t-5 -22zM1104 1434q16 0 11 -18t-15 -19h-727l-88 -633h637q16 0 11 -18t-15 -19h-639l-97 -690h725q18 0 14 -18t-18 -19h-749q-13 0 -13 14l199 1405q0 14 14 15h750z" />
    <glyph glyph-name="Ecircumflex" unicode="&#xca;" horiz-adv-x="1120" 
d="M487 1563q-8 -4 -14 2q-12 20 -4 26t10 8l260 209q10 6 17 0l207 -217q8 -10 -4 -21t-17 -5l-197 207zM1104 1434q16 0 11 -18t-15 -19h-727l-88 -633h637q16 0 11 -18t-15 -19h-639l-97 -690h725q18 0 14 -18t-18 -19h-749q-13 0 -13 14l199 1405q0 14 14 15h750z" />
    <glyph glyph-name="Edieresis" unicode="&#xcb;" horiz-adv-x="1120" 
d="M535 1655q-39 0 -39 39q0 23 15 38t36 15q39 0 39 -41q0 -23 -16 -37t-35 -14zM918 1655q-39 0 -39 39q0 25 15 39t36 14q37 0 37 -41q1 -23 -15 -37t-34 -14zM1104 1434q16 0 11 -18t-15 -19h-727l-88 -633h637q16 0 11 -18t-15 -19h-639l-97 -690h725q18 0 14 -18
t-18 -19h-749q-13 0 -13 14l199 1405q0 14 14 15h750z" />
    <glyph glyph-name="Igrave" unicode="&#xcc;" horiz-adv-x="479" 
d="M545 1595l-309 185q-12 7 -2 21q10 13 22 9l307 -186q8 -5 0 -20t-18 -9zM362 1434q16 0 13 -15l-197 -1405q-4 -14 -16 -14h-8q-17 0 -13 14l197 1405q4 14 16 15h8z" />
    <glyph glyph-name="Iacute" unicode="&#xcd;" horiz-adv-x="479" 
d="M223 1591q-10 -4 -16 6l-6 13q-4 8 8 14l360 186q11 4 20 -12t-5 -22zM362 1434q16 0 13 -15l-197 -1405q-4 -14 -16 -14h-8q-17 0 -13 14l197 1405q4 14 16 15h8z" />
    <glyph glyph-name="Icircumflex" unicode="&#xce;" horiz-adv-x="479" 
d="M147 1563q-8 -4 -14 2q-12 20 -4 26t10 8l260 209q10 6 17 0l207 -217q8 -10 -4 -21t-17 -5l-196 207zM362 1434q16 0 13 -15l-197 -1405q-4 -14 -16 -14h-8q-17 0 -13 14l197 1405q4 14 16 15h8z" />
    <glyph glyph-name="Idieresis" unicode="&#xcf;" horiz-adv-x="479" 
d="M203 1655q-39 0 -39 39q0 23 15 38t36 15q39 0 39 -41q0 -23 -16 -37t-35 -14zM586 1655q-39 0 -39 39q0 25 15 39t36 14q37 0 37 -41q1 -23 -15 -37t-34 -14zM362 1434q16 0 13 -15l-197 -1405q-4 -14 -16 -14h-8q-17 0 -13 14l197 1405q4 14 16 15h8z" />
    <glyph glyph-name="Eth" unicode="&#xd0;" horiz-adv-x="1425" 
d="M563 37q283 0 500 228t217 542q0 248 -150 419t-376 171h-381l-94 -664h528q16 0 13 -18t-17 -19h-529l-92 -659h381zM164 696q-14 0 -10 15v8q4 14 16 14h74l96 686q0 14 14 15h406q240 0 400 -182t159 -441q0 -331 -230 -571t-530 -240h-405q-13 0 -13 14l97 682h-74z
" />
    <glyph glyph-name="Ntilde" unicode="&#xd1;" horiz-adv-x="1454" 
d="M791 1837q49 0 75 -35t33 -76q16 -110 84 -110q84 0 143 147q6 14 15 13l14 -4q14 -4 6 -19q-76 -172 -182 -172q-47 0 -74 35t-35 76q-21 110 -84 110q-37 0 -76 -40t-69 -109q-6 -15 -14 -11l-15 5q-12 4 -6 18q72 172 185 172zM1339 1434q16 0 13 -15l-203 -1435
q-2 -10 -12 -14t-15 5l-751 1409l-193 -1370q-4 -14 -16 -14h-8q-17 0 -13 14l203 1440q2 10 12 13t15 -5l751 -1409l193 1366q4 14 16 15h8z" />
    <glyph glyph-name="Ograve" unicode="&#xd2;" horiz-adv-x="1597" 
d="M1110 1595l-309 185q-10 6 -1 20t21 10l307 -186q10 -6 1 -20t-19 -9zM180 621q0 -253 153 -429t382 -176q293 0 517 234t224 561q0 256 -152 431q-153 175 -384 175q-292 0 -516 -235t-224 -561zM143 618q1 344 235 590t544 246q248 0 410 -185t161 -456
q-1 -342 -235 -588t-543 -245q-248 0 -410 185t-162 453z" />
    <glyph glyph-name="Oacute" unicode="&#xd3;" horiz-adv-x="1597" 
d="M788 1591q-10 -4 -16 6l-6 13q-4 8 8 14l361 186q10 4 19 -12t-5 -22zM180 621q0 -253 153 -429t382 -176q293 0 517 234t224 561q0 256 -152 431q-153 175 -384 175q-292 0 -516 -235t-224 -561zM143 618q1 344 235 590t544 246q248 0 410 -185t161 -456
q-1 -342 -235 -588t-543 -245q-248 0 -410 185t-162 453z" />
    <glyph glyph-name="Ocircumflex" unicode="&#xd4;" horiz-adv-x="1597" 
d="M713 1563q-8 -4 -15 2q-12 20 -4 26t11 8l260 209q10 6 16 0l207 -217q8 -10 -3 -21t-18 -5l-196 207zM180 621q0 -253 153 -429t382 -176q293 0 517 234t224 561q0 256 -152 431q-153 175 -384 175q-292 0 -516 -235t-224 -561zM143 618q1 344 235 590t544 246
q248 0 410 -185t161 -456q-1 -342 -235 -588t-543 -245q-248 0 -410 185t-162 453z" />
    <glyph glyph-name="Otilde" unicode="&#xd5;" horiz-adv-x="1597" 
d="M870 1837q49 0 76 -35t33 -76q16 -110 84 -110q84 0 143 147q6 14 15 13l14 -4q14 -4 6 -19q-76 -172 -182 -172q-47 0 -74 35t-35 76q-21 110 -84 110q-37 0 -79 -42t-66 -107q-6 -15 -14 -11l-15 5q-12 4 -6 18q72 172 184 172zM180 621q0 -253 153 -429t382 -176
q293 0 517 234t224 561q0 256 -152 431q-153 175 -384 175q-292 0 -516 -235t-224 -561zM143 618q1 344 235 590t544 246q248 0 410 -185t161 -456q-1 -342 -235 -588t-543 -245q-248 0 -410 185t-162 453z" />
    <glyph glyph-name="Odieresis" unicode="&#xd6;" horiz-adv-x="1597" 
d="M766 1655q-39 0 -39 39q0 23 15 38t36 15q39 0 39 -41q1 -23 -15 -37t-36 -14zM1149 1655q-39 0 -39 39q0 25 15 39t36 14q37 0 37 -41q0 -23 -16 -37t-33 -14zM180 621q0 -253 153 -429t382 -176q293 0 517 234t224 561q0 256 -152 431q-153 175 -384 175
q-292 0 -516 -235t-224 -561zM143 618q1 344 235 590t544 246q248 0 410 -185t161 -456q-1 -342 -235 -588t-543 -245q-248 0 -410 185t-162 453z" />
    <glyph glyph-name="multiply" unicode="&#xd7;" 
d="M328 416l-6 8q-4 2 -4 9q1 7 6 9l282 273l-205 268q-8 12 2 21q20 11 25 4l203 -269l280 269q11 11 22 -5t1 -24l-279 -268l201 -269q8 -8 -4 -20t-21 -2l-202 266l-285 -270q-10 -10 -16 0z" />
    <glyph glyph-name="Oslash" unicode="&#xd8;" horiz-adv-x="1599" 
d="M730 16q282 0 504 234t222 559q0 223 -104 381l-1051 -971q147 -203 429 -203zM279 246l1052 971q-158 201 -416 200q-293 1 -514 -235t-221 -566q1 -220 99 -370zM143 616q-1 344 231 591t541 247q135 0 251 -56t192 -157l145 133q11 11 20 -3q9 -15 1 -23l-146 -134
q115 -176 115 -403q0 -342 -232 -587q-233 -244 -531 -244t-460 213l-141 -130q-11 -5 -21 5t3 22l141 131q-109 168 -109 395z" />
    <glyph glyph-name="Ugrave" unicode="&#xd9;" horiz-adv-x="1366" 
d="M987 1595l-309 185q-10 6 -1 20t21 10l308 -186q8 -5 0 -22q-9 -13 -19 -7zM348 1434q14 0 10 -15l-125 -903q-8 -47 -8 -102q-1 -182 99 -290t290 -108t329 138q140 138 171 362l127 903q4 14 16 15h11q14 0 10 -15l-127 -903q-35 -244 -179 -390t-376 -146
q-188 0 -298 118t-110 314q1 34 9 104l127 903q4 14 14 15h10z" />
    <glyph glyph-name="Uacute" unicode="&#xda;" horiz-adv-x="1366" 
d="M670 1591q-10 -4 -17 6l-6 13q-4 8 8 14l361 186q10 4 19 -12t-5 -22zM348 1434q14 0 10 -15l-125 -903q-8 -47 -8 -102q-1 -182 99 -290t290 -108t329 138q140 138 171 362l127 903q4 14 16 15h11q14 0 10 -15l-127 -903q-35 -244 -179 -390t-376 -146q-188 0 -298 118
t-110 314q1 34 9 104l127 903q4 14 14 15h10z" />
    <glyph glyph-name="Ucircumflex" unicode="&#xdb;" horiz-adv-x="1366" 
d="M596 1563q-9 -5 -18 9q-8 13 0 19t10 8l260 209q10 6 16 0l207 -217q10 -10 -2 -21t-18 -5l-197 207zM348 1434q14 0 10 -15l-125 -903q-8 -47 -8 -102q-1 -182 99 -290t290 -108t329 138q140 138 171 362l127 903q4 14 16 15h11q14 0 10 -15l-127 -903
q-35 -244 -179 -390t-376 -146q-188 0 -298 118t-110 314q1 34 9 104l127 903q4 14 14 15h10z" />
    <glyph glyph-name="Udieresis" unicode="&#xdc;" horiz-adv-x="1366" 
d="M647 1655q-39 0 -39 39q0 23 16 38t35 15q39 0 39 -41q0 -23 -16 -37t-35 -14zM1030 1655q-39 0 -39 39q-1 25 15 39t36 14q37 0 37 -41q1 -23 -15 -37t-34 -14zM348 1434q14 0 10 -15l-125 -903q-8 -47 -8 -102q-1 -182 99 -290t290 -108t329 138q140 138 171 362
l127 903q4 14 16 15h11q14 0 10 -15l-127 -903q-35 -244 -179 -390t-376 -146q-188 0 -298 118t-110 314q1 34 9 104l127 903q4 14 14 15h10z" />
    <glyph glyph-name="Yacute" unicode="&#xdd;" horiz-adv-x="1042" 
d="M500 1591q-10 -4 -17 6l-6 13q-4 8 8 14l361 186q10 4 19 -12t-5 -22zM440 0h-12q-12 0 -10 14l96 688l-385 707q-8 12 9 21t24 -3l373 -690l571 693q8 12 16 6l15 -9q12 -6 0 -18l-586 -704l-96 -693q-4 -12 -15 -12z" />
    <glyph glyph-name="Thorn" unicode="&#xde;" horiz-adv-x="1138" 
d="M580 289q176 0 313 145t137 344q0 154 -95 264t-237 107h-360l-121 -860h363zM365 1434q16 0 12 -15l-35 -235h363q156 2 259 -116t103 -286q0 -216 -144 -372t-348 -156h-362l-35 -240q0 -14 -16 -14h-8q-17 0 -13 14l199 1405q0 14 14 15h11z" />
    <glyph glyph-name="germandbls" unicode="&#xdf;" horiz-adv-x="1173" 
d="M651 -23q-119 0 -202 52q-12 8 -7 20l7 8q8 12 22 2q63 -45 196 -45t230 70q96 70 96 213q0 59 -40 121t-87 104q-127 116 -127 185t128 187q48 44 88 111t40 134q0 133 -93 206t-204 72q-186 0 -294 -135t-134 -338l-194 -1413q0 -18 -15 -18h-10q-16 0 -12 18l192 1413
q31 226 145 368t324 142q124 0 228 -83t104 -226q0 -76 -40 -148q-40 -73 -88 -117q-128 -119 -128 -172t127 -172q47 -44 87 -110t40 -127q0 -158 -104 -240t-275 -82z" />
    <glyph glyph-name="agrave" unicode="&#xe0;" horiz-adv-x="1064" 
d="M733 1147l-309 184q-10 6 -1 21q9 14 21 10l308 -186q9 -5 0 -23q-9 -12 -19 -6zM139 401q0 -167 86 -277t226 -110q106 0 200 60t140 133l81 581q-25 57 -112 99q-87 43 -170 43q-188 0 -320 -153t-131 -376zM102 399q0 240 142 404t336 164t301 -123l16 86q4 16 12 16
h11q14 0 10 -16l-127 -914q-4 -16 -17 -16h-10q-14 0 -10 16l16 121q-43 -57 -136 -108t-195 -52q-161 0 -255 120t-94 302z" />
    <glyph glyph-name="aacute" unicode="&#xe1;" horiz-adv-x="1064" 
d="M494 1145q-12 -5 -19 11q-8 15 4 22l361 186q10 4 19 -12t-5 -23zM139 401q0 -167 86 -277t226 -110q106 0 200 60t140 133l81 581q-25 57 -112 99q-87 43 -170 43q-188 0 -320 -153t-131 -376zM102 399q0 240 142 404t336 164t301 -123l16 86q4 16 12 16h11q14 0 10 -16
l-127 -914q-4 -16 -17 -16h-10q-14 0 -10 16l16 121q-43 -57 -136 -108t-195 -52q-161 0 -255 120t-94 302z" />
    <glyph glyph-name="acircumflex" unicode="&#xe2;" horiz-adv-x="1064" 
d="M408 1122q-8 -4 -15 2l-6 11q-6 10 6 20q4 2 6 4l260 209q10 6 17 0l207 -217q10 -8 -2 -21t-19 -6l-196 207zM139 401q0 -167 86 -277t226 -110q106 0 200 60t140 133l81 581q-25 57 -112 99q-87 43 -170 43q-188 0 -320 -153t-131 -376zM102 399q0 240 142 404t336 164
t301 -123l16 86q4 16 12 16h11q14 0 10 -16l-127 -914q-4 -16 -17 -16h-10q-14 0 -10 16l16 121q-43 -57 -136 -108t-195 -52q-161 0 -255 120t-94 302z" />
    <glyph glyph-name="atilde" unicode="&#xe3;" horiz-adv-x="1064" 
d="M555 1389q49 0 76 -35t33 -76q16 -111 84 -111q84 0 143 148q6 14 14 12l15 -4q14 -4 6 -18q-76 -172 -183 -172q-47 1 -73 35t-35 75q-22 111 -84 111q-37 0 -78 -41t-67 -109q-7 -14 -15 -10l-14 4q-12 2 -6 19q72 172 184 172zM139 401q0 -167 86 -277t226 -110
q106 0 200 60t140 133l81 581q-25 57 -112 99q-87 43 -170 43q-188 0 -320 -153t-131 -376zM102 399q0 240 142 404t336 164t301 -123l16 86q4 16 12 16h11q14 0 10 -16l-127 -914q-4 -16 -17 -16h-10q-14 0 -10 16l16 121q-43 -57 -136 -108t-195 -52q-161 0 -255 120
t-94 302z" />
    <glyph glyph-name="adieresis" unicode="&#xe4;" horiz-adv-x="1064" 
d="M494 1239q-39 0 -39 39q0 23 15 38t36 15q37 0 37 -41q0 -51 -49 -51zM842 1239q-37 0 -37 39q0 20 15 36t34 17q39 0 39 -41q1 -23 -15 -37t-36 -14zM139 401q0 -167 86 -277t226 -110q106 0 200 60t140 133l81 581q-25 57 -112 99q-87 43 -170 43q-188 0 -320 -153
t-131 -376zM102 399q0 240 142 404t336 164t301 -123l16 86q4 16 12 16h11q14 0 10 -16l-127 -914q-4 -16 -17 -16h-10q-14 0 -10 16l16 121q-43 -57 -136 -108t-195 -52q-161 0 -255 120t-94 302z" />
    <glyph glyph-name="aring" unicode="&#xe5;" horiz-adv-x="1064" 
d="M676 1436q-68 0 -123 -60t-55 -135q0 -74 34 -118t102 -44q69 -1 125 59t56 134t-36 119q-35 45 -103 45zM850 1275q0 -89 -68 -160t-148 -71q-81 0 -127 52t-46 142q0 89 67 161q68 71 149 71t127 -53t46 -142zM139 401q0 -167 86 -277t226 -110q106 0 200 60t140 133
l81 581q-25 57 -112 99q-87 43 -170 43q-188 0 -320 -153t-131 -376zM102 399q0 240 142 404t336 164t301 -123l16 86q4 16 12 16h11q14 0 10 -16l-127 -914q-4 -16 -17 -16h-10q-14 0 -10 16l16 121q-43 -57 -136 -108t-195 -52q-161 0 -255 120t-94 302z" />
    <glyph glyph-name="ae" unicode="&#xe6;" horiz-adv-x="1542" 
d="M1001 14q150 0 289 105q8 6 15 -4l8 -13q4 -8 -8 -20q-45 -37 -130 -71t-181 -34q-96 1 -179 45q-84 44 -125 109q-60 -59 -164 -106t-218 -47t-182 72q-68 73 -69 200q0 162 118 265t302 103q135 0 252 -55q29 203 -4 285t-184 82q-114 0 -182 -31q-24 -10 -58 -29
l-35 -18q-12 -6 -20 11t6 24q121 80 295 80q205 0 231 -148q137 147 350 148q148 0 238 -74q90 -73 90 -193t-135 -196t-356 -74q-107 0 -213 16l-37 -278q90 -154 286 -154zM94 254q0 -112 56 -176t162 -64q108 0 210 49t152 103l51 356q-2 0 -35 14q-107 44 -215 46
q-165 0 -273 -92t-108 -236zM1419 700q0 104 -80 166q-79 64 -195 64t-211 -45t-151 -119q3 -50 -24 -283q82 -16 207 -16q205 -3 329 63t125 170z" />
    <glyph glyph-name="ccedilla" unicode="&#xe7;" horiz-adv-x="1017" 
d="M100 408q0 242 157 400t355 159q198 0 324 -125q6 -13 -8 -26t-25 -3l-33 30q-97 87 -243 87q-197 0 -343 -148t-147 -374q-1 -164 103 -279t247 -115q76 0 141 26t113 59t71 57t32 16l10 -10q10 -10 -5 -26t-44 -40t-119 -68t-176 -48l-121 -160q31 10 78 10t93 -36
t46 -112t-58 -132t-154 -56t-148 70q-8 10 6 24t22 2q45 -59 119 -59t124 43t50 113q0 106 -121 106q-53 0 -100 -18q-8 -4 -13 6t-1 16l133 180q-157 11 -261 133t-104 298z" />
    <glyph glyph-name="egrave" unicode="&#xe8;" horiz-adv-x="1009" 
d="M739 1147l-309 184q-10 6 -1 21q9 14 22 10l307 -186q9 -5 0 -23q-9 -12 -19 -6zM885 709q0 94 -80 157t-211 64q-174 0 -298 -125t-151 -313q150 -20 254 -21q227 0 357 61q129 61 129 177zM100 387q0 246 140 413t354 167q147 0 237 -74q91 -73 91 -193t-138 -193
t-383 -73q-129 0 -260 21q-4 -45 -4 -64q0 -168 86 -272q86 -105 244 -105t293 105q12 10 20 -7t2 -22q-37 -37 -134 -75t-187 -38q-177 0 -269 116t-92 294z" />
    <glyph glyph-name="eacute" unicode="&#xe9;" horiz-adv-x="1009" 
d="M500 1145q-12 -5 -19 11q-8 15 4 22l361 186q10 4 19 -12t-5 -23zM885 709q0 94 -80 157t-211 64q-174 0 -298 -125t-151 -313q150 -20 254 -21q227 0 357 61q129 61 129 177zM100 387q0 246 140 413t354 167q147 0 237 -74q91 -73 91 -193t-138 -193t-383 -73
q-129 0 -260 21q-4 -45 -4 -64q0 -168 86 -272q86 -105 244 -105t293 105q12 10 20 -7t2 -22q-37 -37 -134 -75t-187 -38q-177 0 -269 116t-92 294z" />
    <glyph glyph-name="ecircumflex" unicode="&#xea;" horiz-adv-x="1009" 
d="M385 1122q-8 -4 -14 2l-6 11q-6 10 6 20q4 2 6 4l260 209q10 6 16 0l207 -217q9 -9 -3 -21q-11 -12 -17 -6l-197 207zM885 709q0 94 -80 157t-211 64q-174 0 -298 -125t-151 -313q150 -20 254 -21q227 0 357 61q129 61 129 177zM100 387q0 246 140 413t354 167
q147 0 237 -74q91 -73 91 -193t-138 -193t-383 -73q-129 0 -260 21q-4 -45 -4 -64q0 -168 86 -272q86 -105 244 -105t293 105q12 10 20 -7t2 -22q-37 -37 -134 -75t-187 -38q-177 0 -269 116t-92 294z" />
    <glyph glyph-name="edieresis" unicode="&#xeb;" horiz-adv-x="1009" 
d="M457 1239q-39 0 -39 39q0 23 15 38t36 15q37 0 37 -41q0 -51 -49 -51zM805 1239q-37 0 -37 39q0 20 15 36t34 17q39 0 39 -41q0 -23 -16 -37t-35 -14zM885 709q0 94 -80 157t-211 64q-174 0 -298 -125t-151 -313q150 -20 254 -21q227 0 357 61q129 61 129 177zM100 387
q0 246 140 413t354 167q147 0 237 -74q91 -73 91 -193t-138 -193t-383 -73q-129 0 -260 21q-4 -45 -4 -64q0 -168 86 -272q86 -105 244 -105t293 105q12 10 20 -7t2 -22q-37 -37 -134 -75t-187 -38q-177 0 -269 116t-92 294z" />
    <glyph glyph-name="igrave" unicode="&#xec;" horiz-adv-x="405" 
d="M401 1147l-309 184q-10 6 -1 21q9 14 22 10l307 -186q9 -5 0 -23q-9 -12 -19 -6zM117 0q-18 0 -15 16l129 914q4 16 17 16h10q16 0 12 -16l-129 -914q-4 -16 -14 -16h-10z" />
    <glyph glyph-name="iacute" unicode="&#xed;" horiz-adv-x="405" 
d="M145 1145q-10 -4 -16 6l-6 12q-4 8 8 15l361 186q10 4 19 -12t-5 -23zM117 0q-18 0 -15 16l129 914q4 16 17 16h10q16 0 12 -16l-129 -914q-4 -16 -14 -16h-10z" />
    <glyph glyph-name="icircumflex" unicode="&#xee;" horiz-adv-x="405" 
d="M51 1122q-8 -4 -14 2l-6 11q-6 10 6 20q4 2 6 4l260 209q10 6 16 0l207 -217q10 -8 -2 -21t-18 -6l-197 207zM117 0q-18 0 -15 16l129 914q4 16 17 16h10q16 0 12 -16l-129 -914q-4 -16 -14 -16h-10z" />
    <glyph glyph-name="idieresis" unicode="&#xef;" horiz-adv-x="405" 
d="M119 1239q-39 0 -39 39q0 23 15 38t36 15q37 0 37 -41q0 -51 -49 -51zM467 1239q-37 0 -37 39q0 20 15 36t34 17q39 0 39 -41q0 -23 -16 -37t-35 -14zM117 0q-18 0 -15 16l129 914q4 16 17 16h10q16 0 12 -16l-129 -914q-4 -16 -14 -16h-10z" />
    <glyph glyph-name="eth" unicode="&#xf0;" horiz-adv-x="1136" 
d="M135 393q0 -161 94 -269t238 -108q195 0 326 160t163 406l5 30q-128 285 -381 285q-190 -5 -318 -153t-127 -351zM586 934q141 0 235 -77t144 -171q12 344 -209 574l-279 -162q-14 -10 -19 7t7 23l266 156q-113 111 -248 168q-10 8 -4 16l6 13q6 10 19 6
q143 -63 262 -182l139 81q13 8 19 -9t-9 -23l-127 -74q215 -233 216 -557q0 -259 -126 -487q-62 -113 -171 -185q-109 -71 -253 -71t-250 120q-104 120 -104 295q-4 207 136 373t350 166z" />
    <glyph glyph-name="ntilde" unicode="&#xf1;" horiz-adv-x="1036" 
d="M541 1391q49 0 75 -35t33 -76q16 -111 84 -111q84 0 144 148q6 14 14 12l14 -4q14 -4 6 -18q-76 -172 -182 -172q-47 1 -74 35t-34 75q-22 111 -84 111q-37 0 -77 -40t-69 -110q-6 -14 -14 -10l-15 4q-12 4 -6 19q72 172 185 172zM248 946h10q10 0 10 -16l-16 -129
q156 166 338 166q332 0 266 -439l-72 -512q-4 -16 -16 -16h-10q-16 0 -13 16l74 512q57 401 -229 402q-90 0 -172 -43t-117 -81t-57 -71l-103 -719q-4 -16 -16 -16h-8q-19 0 -15 16l131 914q4 16 15 16z" />
    <glyph glyph-name="ograve" unicode="&#xf2;" horiz-adv-x="1099" 
d="M750 1147l-310 184q-10 6 -1 21q9 14 22 10l307 -186q9 -5 0 -23q-8 -12 -18 -6zM137 403q0 -165 93 -277t237 -112q186 0 326 158q139 158 139 373q0 165 -91 275t-237 110q-186 0 -326 -157t-141 -370zM100 403q0 231 151 397t353 167q162 0 263 -122t102 -300
q0 -233 -150 -401t-352 -167q-163 0 -265 122t-102 304z" />
    <glyph glyph-name="oacute" unicode="&#xf3;" horiz-adv-x="1099" 
d="M516 1145q-10 -4 -16 6l-6 12q-4 8 8 15l360 186q11 4 20 -12t-5 -23zM137 403q0 -165 93 -277t237 -112q186 0 326 158q139 158 139 373q0 165 -91 275t-237 110q-186 0 -326 -157t-141 -370zM100 403q0 231 151 397t353 167q162 0 263 -122t102 -300q0 -233 -150 -401
t-352 -167q-163 0 -265 122t-102 304z" />
    <glyph glyph-name="ocircumflex" unicode="&#xf4;" horiz-adv-x="1099" 
d="M406 1122q-8 -4 -15 2l-6 11q-6 10 6 20q4 2 6 4l260 209q10 6 17 0l207 -217q9 -9 -3 -21t-18 -6l-196 207zM137 403q0 -165 93 -277t237 -112q186 0 326 158q139 158 139 373q0 165 -91 275t-237 110q-186 0 -326 -157t-141 -370zM100 403q0 231 151 397t353 167
q162 0 263 -122t102 -300q0 -233 -150 -401t-352 -167q-163 0 -265 122t-102 304z" />
    <glyph glyph-name="otilde" unicode="&#xf5;" horiz-adv-x="1099" 
d="M555 1389q49 0 76 -35t33 -76q16 -111 84 -111q84 0 143 148q6 14 14 12l15 -4q14 -4 6 -18q-76 -172 -183 -172q-47 1 -73 35t-35 75q-22 111 -84 111q-37 0 -78 -41t-67 -109q-7 -14 -15 -10l-14 4q-12 2 -6 19q72 172 184 172zM137 403q0 -165 93 -277t237 -112
q186 0 326 158q139 158 139 373q0 165 -91 275t-237 110q-186 0 -326 -157t-141 -370zM100 403q0 231 151 397t353 167q162 0 263 -122t102 -300q0 -233 -150 -401t-352 -167q-163 0 -265 122t-102 304z" />
    <glyph glyph-name="odieresis" unicode="&#xf6;" horiz-adv-x="1099" 
d="M473 1239q-39 0 -39 39q0 23 16 38t35 15q37 0 37 -41q0 -51 -49 -51zM821 1239q-37 0 -37 39q0 20 16 36t34 17q39 0 38 -41q0 -23 -16 -37t-35 -14zM137 403q0 -165 93 -277t237 -112q186 0 326 158q139 158 139 373q0 165 -91 275t-237 110q-186 0 -326 -157
t-141 -370zM100 403q0 231 151 397t353 167q162 0 263 -122t102 -300q0 -233 -150 -401t-352 -167q-163 0 -265 122t-102 304z" />
    <glyph glyph-name="divide" unicode="&#xf7;" 
d="M586 475q18 0 29 -13t8 -34q-8 -49 -52 -49q-16 1 -27 15t-9 34t17 34q16 14 34 13zM262 696q-14 0 -9 18t15 19h719q14 0 9 -18t-15 -19h-719zM651 952q-16 0 -27 14t-10 35q2 19 18 33t34 14t29 -12q11 -14 7 -35q-8 -49 -51 -49z" />
    <glyph glyph-name="oslash" unicode="&#xf8;" horiz-adv-x="1099" 
d="M137 403q0 -119 47 -208l682 587q-94 148 -271 148t-317 -157t-141 -370zM932 545q0 115 -45 205l-684 -586q98 -150 274 -150t316 158q139 158 139 373zM100 403q0 231 151 397t344 167q193 0 298 -158l70 59q14 10 24 -4t0 -28l-72 -64q53 -100 54 -227
q0 -233 -150 -401t-345 -167q-195 0 -300 162l-51 -45q-13 -14 -24 2t1 29l54 45q-54 102 -54 233z" />
    <glyph glyph-name="ugrave" unicode="&#xf9;" horiz-adv-x="1015" 
d="M772 1147l-309 184q-10 6 -1 21q9 14 21 10l308 -186q9 -5 0 -23q-9 -12 -19 -6zM414 14q139 0 233 89q67 65 90 104l103 723q4 16 16 16h10q16 0 13 -16l-129 -914q-4 -16 -17 -16h-10q-14 0 -10 16l16 125q-143 -164 -315 -164q-330 0 -269 435l74 520q2 14 17 14h8
q16 0 12 -16l-72 -518q-59 -398 230 -398z" />
    <glyph glyph-name="uacute" unicode="&#xfa;" horiz-adv-x="1015" 
d="M371 1145q-12 -5 -19 11q-8 15 4 22l361 186q10 4 19 -12t-5 -23zM414 14q139 0 233 89q67 65 90 104l103 723q4 16 16 16h10q16 0 13 -16l-129 -914q-4 -16 -17 -16h-10q-14 0 -10 16l16 125q-143 -164 -315 -164q-330 0 -269 435l74 520q2 14 17 14h8q16 0 12 -16
l-72 -518q-59 -398 230 -398z" />
    <glyph glyph-name="ucircumflex" unicode="&#xfb;" horiz-adv-x="1015" 
d="M338 1122q-8 -4 -14 2q-13 21 -5 27q9 6 11 8l260 209q10 6 16 0l207 -217q10 -8 -2 -21t-18 -6l-197 207zM414 14q139 0 233 89q67 65 90 104l103 723q4 16 16 16h10q16 0 13 -16l-129 -914q-4 -16 -17 -16h-10q-14 0 -10 16l16 125q-143 -164 -315 -164
q-330 0 -269 435l74 520q2 14 17 14h8q16 0 12 -16l-72 -518q-59 -398 230 -398z" />
    <glyph glyph-name="udieresis" unicode="&#xfc;" horiz-adv-x="1015" 
d="M420 1239q-39 0 -39 39q0 23 15 38t36 15q37 0 37 -41q0 -51 -49 -51zM768 1239q-37 0 -37 39q0 20 15 36t34 17q39 0 39 -41q1 -23 -15 -37t-36 -14zM414 14q139 0 233 89q67 65 90 104l103 723q4 16 16 16h10q16 0 13 -16l-129 -914q-4 -16 -17 -16h-10q-14 0 -10 16
l16 125q-143 -164 -315 -164q-330 0 -269 435l74 520q2 14 17 14h8q16 0 12 -16l-72 -518q-59 -398 230 -398z" />
    <glyph glyph-name="yacute" unicode="&#xfd;" horiz-adv-x="901" 
d="M397 1145q-10 -4 -16 6l-6 12q-4 8 8 15l360 186q11 4 20 -12t-5 -23zM354 20l-243 916q-4 12 6 16q24 8 28 -4l234 -887l475 891q8 12 18 6l11 -4q12 -6 6 -18l-768 -1425q-7 -13 -27 -3q-10 8 -4 21z" />
    <glyph glyph-name="thorn" unicode="&#xfe;" horiz-adv-x="1069" 
d="M426 14q207 0 339 151t132 378q0 167 -89 277t-233 110q-86 0 -185 -46t-142 -106l-88 -628q22 -58 103 -97q82 -39 163 -39zM57 -487h-14q-8 0 -8 18l266 1886q4 16 14 17h9q16 0 16 -17l-84 -581q131 131 328 131q158 0 254 -122t96 -302q0 -248 -140 -407t-372 -159
q-170 0 -272 119l-76 -565q0 -18 -17 -18z" />
    <glyph glyph-name="ydieresis" unicode="&#xff;" horiz-adv-x="901" 
d="M373 1239q-39 0 -39 39q0 23 15 38t36 15q37 0 37 -41q0 -51 -49 -51zM721 1239q-37 0 -37 39q0 20 15 36t34 17q39 0 39 -41q0 -23 -16 -37t-35 -14zM354 20l-243 916q-4 12 6 16q24 8 28 -4l234 -887l475 891q8 12 18 6l11 -4q12 -6 6 -18l-768 -1425q-7 -13 -27 -3
q-10 8 -4 21z" />
    <glyph glyph-name="Amacron" unicode="&#x100;" horiz-adv-x="1202" 
d="M508 1724q-16 0 -11 18t17 19h528q16 0 12 -18q-5 -18 -16 -19h-530zM227 465h725l-225 944h-2zM735 1477q8 0 10 -9l353 -1452q2 -10 -14 -16t-19 4l-102 426h-756l-225 -428q-5 -9 -21 -4q-16 6 -12 16l772 1454q2 8 12 9h2z" />
    <glyph glyph-name="amacron" unicode="&#x101;" horiz-adv-x="1064" 
d="M383 1243q-16 1 -11 19t17 18h529q16 0 11 -18t-16 -19h-530zM139 401q0 -167 86 -277t226 -110q106 0 200 60t140 133l81 581q-25 57 -112 99q-87 43 -170 43q-188 0 -320 -153t-131 -376zM102 399q0 240 142 404t336 164t301 -123l16 86q4 16 12 16h11q14 0 10 -16
l-127 -914q-4 -16 -17 -16h-10q-14 0 -10 16l16 121q-43 -57 -136 -108t-195 -52q-161 0 -255 120t-94 302z" />
    <glyph glyph-name="Abreve" unicode="&#x102;" horiz-adv-x="1202" 
d="M766 1597q-90 1 -146 63t-57 157q0 16 10 16h13q10 0 10 -12q-2 -82 47 -134q49 -53 126 -53t139 52t87 135q4 12 13 12h16q12 0 8 -16q-28 -94 -102 -157t-164 -63zM227 465h725l-225 944h-2zM735 1477q8 0 10 -9l353 -1452q2 -10 -14 -16t-19 4l-102 426h-756
l-225 -428q-5 -9 -21 -4q-16 6 -12 16l772 1454q2 8 12 9h2z" />
    <glyph glyph-name="abreve" unicode="&#x103;" horiz-adv-x="1064" 
d="M631 1116q-91 0 -147 62t-56 157q0 16 10 17h13q10 0 10 -13q-2 -82 47 -134t126 -52t139 52t87 134q4 12 12 13h17q12 0 8 -17q-29 -95 -103 -157t-163 -62zM139 401q0 -167 86 -277t226 -110q106 0 200 60t140 133l81 581q-25 57 -112 99q-87 43 -170 43
q-188 0 -320 -153t-131 -376zM102 399q0 240 142 404t336 164t301 -123l16 86q4 16 12 16h11q14 0 10 -16l-127 -914q-4 -16 -17 -16h-10q-14 0 -10 16l16 121q-43 -57 -136 -108t-195 -52q-161 0 -255 120t-94 302z" />
    <glyph glyph-name="Aogonek" unicode="&#x104;" horiz-adv-x="1202" 
d="M227 465h725l-225 944h-2zM735 1477q8 0 10 -9l353 -1452q2 -10 -8 -14q-125 -64 -188 -113q-118 -93 -118 -213q0 -55 33 -91t105 -36t131 48q12 8 18 -3l8 -12q4 -10 -12 -20q-82 -49 -160 -49t-119 45t-40 116q0 115 83 197q84 82 228 154l-96 405h-756l-225 -428
q-5 -9 -21 -4q-16 6 -12 16l772 1454q2 8 12 9h2z" />
    <glyph glyph-name="aogonek" unicode="&#x105;" horiz-adv-x="1064" 
d="M139 401q0 -167 86 -277t226 -110q106 0 200 60t140 133l81 581q-25 57 -112 99q-87 43 -170 43q-188 0 -320 -153t-131 -376zM102 399q0 240 142 404t336 164t301 -123l16 86q4 16 12 16h11q14 0 10 -16l-127 -912q-2 -14 -15 -18q-215 -102 -274 -213q-27 -51 -27 -109
t33 -93q32 -36 104 -36t132 48q10 8 18 -3l8 -12q4 -10 -12 -20q-82 -49 -160 -49t-118 45t-41 116q0 115 86 200t231 157l14 106q-43 -57 -136 -108t-195 -52q-161 0 -255 120t-94 302z" />
    <glyph glyph-name="Cacute" unicode="&#x106;" horiz-adv-x="1366" 
d="M778 1591q-10 -4 -16 6l-6 13q-4 8 8 14l360 186q11 4 20 -12t-5 -22zM141 616q0 342 236 590t541 248q250 0 425 -190q8 -8 -5 -22q-13 -13 -21 -5q-162 182 -399 182q-293 0 -517 -238q-223 -239 -223 -565q0 -252 155 -426t389 -174t449 191q8 6 15 0l10 -12
q6 -6 -2 -15q-219 -200 -475 -200t-417 183t-161 453z" />
    <glyph glyph-name="cacute" unicode="&#x107;" horiz-adv-x="1017" 
d="M541 1145q-12 -5 -19 11q-8 15 4 22l361 186q10 4 19 -12t-5 -23zM100 408q0 242 157 400t355 159q198 0 324 -125q6 -13 -8 -26t-25 -3l-33 30q-97 87 -243 87q-197 0 -343 -148t-147 -374q-1 -164 103 -279t247 -115q76 0 141 26t113 59t71 57t32 16l10 -10
q10 -10 1 -20q-97 -102 -250 -147q-60 -17 -118 -18q-163 1 -275 125t-112 306z" />
    <glyph glyph-name="Ccircumflex" unicode="&#x108;" horiz-adv-x="1366" 
d="M705 1563q-8 -4 -15 2q-12 20 -4 26t10 8l260 209q10 6 17 0l207 -217q8 -10 -3 -21t-18 -5l-196 207zM141 616q0 342 236 590t541 248q250 0 425 -190q8 -8 -5 -22q-13 -13 -21 -5q-162 182 -399 182q-293 0 -517 -238q-223 -239 -223 -565q0 -252 155 -426t389 -174
t449 191q8 6 15 0l10 -12q6 -6 -2 -15q-219 -200 -475 -200t-417 183t-161 453z" />
    <glyph glyph-name="ccircumflex" unicode="&#x109;" horiz-adv-x="1017" 
d="M424 1122q-8 -4 -14 2q-13 21 -5 27q9 6 11 8l260 209q10 6 16 0l207 -217q10 -8 -2 -21t-18 -6l-197 207zM100 408q0 242 157 400t355 159q198 0 324 -125q6 -13 -8 -26t-25 -3l-33 30q-97 87 -243 87q-197 0 -343 -148t-147 -374q-1 -164 103 -279t247 -115
q76 0 141 26t113 59t71 57t32 16l10 -10q10 -10 1 -20q-97 -102 -250 -147q-60 -17 -118 -18q-163 1 -275 125t-112 306z" />
    <glyph glyph-name="Cdotaccent" unicode="&#x10a;" horiz-adv-x="1366" 
d="M950 1677q-41 0 -41 43q1 20 17 38t39 18q39 0 39 -43q0 -23 -16 -39t-38 -17zM141 616q0 342 236 590t541 248q250 0 425 -190q8 -8 -5 -22q-13 -13 -21 -5q-162 182 -399 182q-293 0 -517 -238q-223 -239 -223 -565q0 -252 155 -426t389 -174t449 191q8 6 15 0l10 -12
q6 -6 -2 -15q-219 -200 -475 -200t-417 183t-161 453z" />
    <glyph glyph-name="cdotaccent" unicode="&#x10b;" horiz-adv-x="1017" 
d="M662 1239q-41 0 -41 43q0 20 17 38t38 17q39 0 39 -43q0 -23 -15 -39t-38 -16zM100 408q0 242 157 400t355 159q198 0 324 -125q6 -13 -8 -26t-25 -3l-33 30q-97 87 -243 87q-197 0 -343 -148t-147 -374q-1 -164 103 -279t247 -115q76 0 141 26t113 59t71 57t32 16
l10 -10q10 -10 1 -20q-97 -102 -250 -147q-60 -17 -118 -18q-163 1 -275 125t-112 306z" />
    <glyph glyph-name="Ccaron" unicode="&#x10c;" horiz-adv-x="1366" 
d="M930 1579l-207 217q-10 10 2 22t18 5l197 -207l258 209q8 4 14 -2q13 -21 5 -27q-9 -6 -11 -8l-260 -209q-10 -6 -16 0zM141 616q0 342 236 590t541 248q250 0 425 -190q8 -8 -5 -22q-13 -13 -21 -5q-162 182 -399 182q-293 0 -517 -238q-223 -239 -223 -565
q0 -252 155 -426t389 -174t449 191q8 6 15 0l10 -12q6 -6 -2 -15q-219 -200 -475 -200t-417 183t-161 453z" />
    <glyph glyph-name="ccaron" unicode="&#x10d;" horiz-adv-x="1017" 
d="M637 1133l-207 217q-8 10 3 21t18 5l196 -207l258 209q8 4 15 -2q12 -20 4 -26t-11 -9l-260 -208q-10 -6 -16 0zM100 408q0 242 157 400t355 159q198 0 324 -125q6 -13 -8 -26t-25 -3l-33 30q-97 87 -243 87q-197 0 -343 -148t-147 -374q-1 -164 103 -279t247 -115
q76 0 141 26t113 59t71 57t32 16l10 -10q10 -10 1 -20q-97 -102 -250 -147q-60 -17 -118 -18q-163 1 -275 125t-112 306z" />
    <glyph glyph-name="Dcaron" unicode="&#x10e;" horiz-adv-x="1386" 
d="M721 1579l-207 217q-10 10 2 22t19 5l196 -207l258 209q8 4 15 -2l6 -11q7 -11 -13 -24l-260 -209q-10 -6 -16 0zM526 37q283 0 500 228t217 542q0 248 -149 419q-150 171 -377 171h-346l-191 -1360h346zM723 1434q241 0 399 -182t158 -445q0 -217 -105 -403t-281 -296
q-176 -108 -372 -108h-370q-11 0 -11 14l197 1405q4 14 14 15h371z" />
    <glyph glyph-name="dcaron" unicode="&#x10f;" horiz-adv-x="1081" 
d="M137 399q0 -165 85 -275t220 -110q72 0 140 26t127 74t82 83l83 591q-60 90 -174 126q-47 15 -98 16q-195 0 -330 -154t-135 -377zM100 399q0 242 146 405t356 163q80 0 150 -31t100 -59l29 -31l82 571q0 16 12 17h14q12 0 8 -17l-194 -1401q-2 -16 -17 -16h-10
q-14 0 -10 16l16 115q-55 -59 -144 -106t-196 -48q-154 0 -248 121t-94 301zM1170 1356q-22 0 -36 12q-12 12 -12 32t18 37t42 17q70 0 69 -98q0 -137 -98 -211q-12 -10 -18 0l-9 12q-8 12 9 23q74 55 73 159q0 14 -4 29q-12 -12 -34 -12z" />
    <glyph glyph-name="Dcroat" unicode="&#x110;" horiz-adv-x="1425" 
d="M563 37q283 0 500 228t217 542q0 248 -150 419t-376 171h-381l-94 -664h528q16 0 13 -18t-17 -19h-529l-92 -659h381zM164 696q-14 0 -10 15v8q4 14 16 14h74l96 686q0 14 14 15h406q240 0 400 -182t159 -441q0 -331 -230 -571t-530 -240h-405q-13 0 -13 14l97 682h-74z
" />
    <glyph glyph-name="dcroat" unicode="&#x111;" horiz-adv-x="1064" 
d="M137 399q0 -165 85 -275t220 -110q72 0 140 26t127 74t82 83l83 591q-60 90 -174 126q-47 15 -98 16q-195 0 -330 -154t-135 -377zM100 399q0 242 146 405t356 163q80 0 150 -31t100 -59l29 -31l39 276h-416q-12 0 -12 15l2 8q0 14 16 14h416l37 258q0 16 12 17h14
q12 0 8 -17l-36 -258h79q16 0 12 -18q-5 -18 -18 -19h-78l-153 -1106q-2 -16 -17 -16h-10q-14 0 -10 16l16 115q-55 -59 -144 -106t-196 -48q-154 0 -248 121t-94 301z" />
    <glyph glyph-name="Emacron" unicode="&#x112;" horiz-adv-x="1120" 
d="M479 1724q-16 0 -11 18t17 19h529q16 0 11 -18t-15 -19h-531zM1104 1434q16 0 11 -18t-15 -19h-727l-88 -633h637q16 0 11 -18t-15 -19h-639l-97 -690h725q18 0 14 -18t-18 -19h-749q-13 0 -13 14l199 1405q0 14 14 15h750z" />
    <glyph glyph-name="emacron" unicode="&#x113;" horiz-adv-x="1009" 
d="M373 1243q-16 1 -12 19q5 18 18 18h528q16 0 12 -18q-5 -18 -16 -19h-530zM885 709q0 94 -80 157t-211 64q-174 0 -298 -125t-151 -313q150 -20 254 -21q227 0 357 61q129 61 129 177zM100 387q0 246 140 413t354 167q147 0 237 -74q91 -73 91 -193t-138 -193t-383 -73
q-129 0 -260 21q-4 -45 -4 -64q0 -168 86 -272q86 -105 244 -105t293 105q12 10 20 -7t2 -22q-37 -37 -134 -75t-187 -38q-177 0 -269 116t-92 294z" />
    <glyph glyph-name="Ebreve" unicode="&#x114;" horiz-adv-x="1120" 
d="M739 1597q-90 1 -146 63t-56 157q0 16 10 16h12q10 0 10 -12q-2 -82 47 -134q49 -53 126 -53q78 0 140 52t87 135q2 12 12 12h16q12 0 9 -16q-29 -94 -103 -157t-164 -63zM1104 1434q16 0 11 -18t-15 -19h-727l-88 -633h637q16 0 11 -18t-15 -19h-639l-97 -690h725
q18 0 14 -18t-18 -19h-749q-13 0 -13 14l199 1405q0 14 14 15h750z" />
    <glyph glyph-name="ebreve" unicode="&#x115;" horiz-adv-x="1009" 
d="M610 1116q-90 0 -146 62t-56 157q0 16 10 17h12q10 0 10 -13q-2 -82 47 -134t126 -52t140 52q62 52 87 134q4 12 12 13h16q12 0 9 -17q-29 -95 -103 -157t-164 -62zM885 709q0 94 -80 157t-211 64q-174 0 -298 -125t-151 -313q150 -20 254 -21q227 0 357 61
q129 61 129 177zM100 387q0 246 140 413t354 167q147 0 237 -74q91 -73 91 -193t-138 -193t-383 -73q-129 0 -260 21q-4 -45 -4 -64q0 -168 86 -272q86 -105 244 -105t293 105q12 10 20 -7t2 -22q-37 -37 -134 -75t-187 -38q-177 0 -269 116t-92 294z" />
    <glyph glyph-name="Edotaccent" unicode="&#x116;" horiz-adv-x="1120" 
d="M756 1677q-41 0 -41 43q0 20 17 38t38 18q39 0 39 -43q0 -23 -15 -39t-38 -17zM1104 1434q16 0 11 -18t-15 -19h-727l-88 -633h637q16 0 11 -18t-15 -19h-639l-97 -690h725q18 0 14 -18t-18 -19h-749q-13 0 -13 14l199 1405q0 14 14 15h750z" />
    <glyph glyph-name="edotaccent" unicode="&#x117;" horiz-adv-x="1009" 
d="M631 1239q-41 0 -41 43q0 20 16 38t39 17q39 0 39 -43q0 -23 -15 -39t-38 -16zM885 709q0 94 -80 157t-211 64q-174 0 -298 -125t-151 -313q150 -20 254 -21q227 0 357 61q129 61 129 177zM100 387q0 246 140 413t354 167q147 0 237 -74q91 -73 91 -193t-138 -193
t-383 -73q-129 0 -260 21q-4 -45 -4 -64q0 -168 86 -272q86 -105 244 -105t293 105q12 10 20 -7t2 -22q-37 -37 -134 -75t-187 -38q-177 0 -269 116t-92 294z" />
    <glyph glyph-name="Eogonek" unicode="&#x118;" horiz-adv-x="1120" 
d="M1104 1434q16 0 11 -18t-15 -19h-727l-88 -633h637q16 0 11 -18t-15 -19h-639l-97 -690h725q18 0 15 -15t-17 -22q-215 -102 -274 -213q-27 -51 -27 -109t33 -93q33 -36 105 -36t130 48q12 8 19 -3l8 -12q4 -10 -12 -20q-82 -49 -160 -49t-119 45t-41 116q0 178 267 326
h-680q-13 0 -13 14l199 1405q0 14 14 15h750z" />
    <glyph glyph-name="eogonek" unicode="&#x119;" horiz-adv-x="1009" 
d="M885 709q0 94 -80 157t-211 64q-174 0 -298 -125t-151 -313q412 -55 610 39q130 62 130 178zM100 387q0 246 140 413t354 167q147 0 237 -74q91 -75 91 -195t-140 -193t-381 -71q-129 0 -260 21q-4 -45 -4 -64q-2 -166 85 -271q87 -106 245 -106t293 105q12 10 20 -7
t2 -22q-55 -55 -182 -90q-212 -104 -268 -212q-27 -52 -27 -110t33 -93q32 -36 104 -36t131 48q12 8 19 -3l8 -12q4 -10 -12 -20q-82 -49 -160 -49t-119 45t-41 116q0 170 228 306q-12 -2 -35 -3q-177 0 -269 116t-92 294z" />
    <glyph glyph-name="Ecaron" unicode="&#x11a;" horiz-adv-x="1120" 
d="M719 1579l-207 217q-8 10 3 22t17 5l197 -207l258 209q8 4 14 -2q13 -21 5 -27q-9 -6 -11 -8l-260 -209q-10 -6 -16 0zM1104 1434q16 0 11 -18t-15 -19h-727l-88 -633h637q16 0 11 -18t-15 -19h-639l-97 -690h725q18 0 14 -18t-18 -19h-749q-13 0 -13 14l199 1405
q0 14 14 15h750z" />
    <glyph glyph-name="ecaron" unicode="&#x11b;" horiz-adv-x="1009" 
d="M608 1133l-207 217q-8 10 4 21t17 5l196 -207l259 209q8 4 14 -2q12 -20 4 -26t-10 -9l-260 -208q-11 -6 -17 0zM885 709q0 94 -80 157t-211 64q-174 0 -298 -125t-151 -313q150 -20 254 -21q227 0 357 61q129 61 129 177zM100 387q0 246 140 413t354 167q147 0 237 -74
q91 -73 91 -193t-138 -193t-383 -73q-129 0 -260 21q-4 -45 -4 -64q0 -168 86 -272q86 -105 244 -105t293 105q12 10 20 -7t2 -22q-37 -37 -134 -75t-187 -38q-177 0 -269 116t-92 294z" />
    <glyph glyph-name="Gcircumflex" unicode="&#x11c;" horiz-adv-x="1423" 
d="M717 1563q-8 -4 -15 2q-12 20 -4 26t11 8l260 209q10 6 16 0l207 -217q8 -10 -3 -21t-18 -5l-196 207zM141 616q0 342 236 590t541 248q250 0 425 -190q8 -8 -5 -22q-13 -13 -21 -5q-162 182 -399 182q-293 0 -517 -238q-223 -239 -223 -565q0 -254 154 -427t389 -173
q159 0 279 48t169 94l70 481h-414q-14 0 -10 17t16 18h435q12 0 12 -12l-74 -519q-12 -18 -65 -53t-172 -73t-252 -37q-248 0 -411 184t-163 452z" />
    <glyph glyph-name="gcircumflex" unicode="&#x11d;" horiz-adv-x="1067" 
d="M137 401q0 -163 94 -275t235 -112t225 59q83 59 95 81l86 626q-10 18 -34 47q-25 29 -95 66t-153 37q-188 0 -320 -153t-133 -376zM100 401q0 238 142 402t336 164t305 -127l14 90q4 16 12 16h11q14 0 10 -16l-125 -924q-33 -240 -141 -348t-265 -107q-79 0 -151 36
t-103 66t-46 49t-3 30l10 8q8 4 15 -2q125 -150 275 -150t246 106t126 318l12 82q-131 -117 -302 -117q-170 0 -274 121t-104 303zM401 1122q-8 -4 -14 2l-6 11q-6 10 6 20q4 2 6 4l260 209q10 6 17 0l207 -217q9 -9 -3 -21t-18 -6l-197 207z" />
    <glyph glyph-name="Gbreve" unicode="&#x11e;" horiz-adv-x="1423" 
d="M969 1597q-91 1 -147 63t-56 157q0 16 10 16h12q10 0 11 -12q-2 -82 47 -134q49 -53 126 -53t139 52t87 135q2 12 12 12h17q12 0 8 -16q-29 -94 -103 -157t-163 -63zM141 616q0 342 236 590t541 248q250 0 425 -190q8 -8 -5 -22q-13 -13 -21 -5q-162 182 -399 182
q-293 0 -517 -238q-223 -239 -223 -565q0 -254 154 -427t389 -173q159 0 279 48t169 94l70 481h-414q-14 0 -10 17t16 18h435q12 0 12 -12l-74 -519q-12 -18 -65 -53t-172 -73t-252 -37q-248 0 -411 184t-163 452z" />
    <glyph glyph-name="gbreve" unicode="&#x11f;" horiz-adv-x="1067" 
d="M137 401q0 -163 94 -275t235 -112t225 59q83 59 95 81l86 626q-10 18 -34 47q-25 29 -95 66t-153 37q-188 0 -320 -153t-133 -376zM100 401q0 238 142 402t336 164t305 -127l14 90q4 16 12 16h11q14 0 10 -16l-125 -924q-33 -240 -141 -348t-265 -107q-79 0 -151 36
t-103 66t-46 49t-3 30l10 8q8 4 15 -2q125 -150 275 -150t246 106t126 318l12 82q-131 -117 -302 -117q-170 0 -274 121t-104 303zM627 1116q-91 0 -147 62t-56 157q0 16 10 17h12q10 0 11 -13q-2 -82 47 -134t126 -52t139 52t87 134q4 12 12 13h17q12 0 8 -17
q-29 -95 -103 -157t-163 -62z" />
    <glyph glyph-name="Gdotaccent" unicode="&#x120;" horiz-adv-x="1423" 
d="M967 1677q-41 0 -41 43q0 20 16 38t39 18q39 0 39 -43q0 -23 -15 -39t-38 -17zM141 616q0 342 236 590t541 248q250 0 425 -190q8 -8 -5 -22q-13 -13 -21 -5q-162 182 -399 182q-293 0 -517 -238q-223 -239 -223 -565q0 -254 154 -427t389 -173q159 0 279 48t169 94
l70 481h-414q-14 0 -10 17t16 18h435q12 0 12 -12l-74 -519q-12 -18 -65 -53t-172 -73t-252 -37q-248 0 -411 184t-163 452z" />
    <glyph glyph-name="gdotaccent" unicode="&#x121;" horiz-adv-x="1067" 
d="M137 401q0 -163 94 -275t235 -112t225 59q83 59 95 81l86 626q-10 18 -34 47q-25 29 -95 66t-153 37q-188 0 -320 -153t-133 -376zM100 401q0 238 142 402t336 164t305 -127l14 90q4 16 12 16h11q14 0 10 -16l-125 -924q-33 -240 -141 -348t-265 -107q-79 0 -151 36
t-103 66t-46 49t-3 30l10 8q8 4 15 -2q125 -150 275 -150t246 106t126 318l12 82q-131 -117 -302 -117q-170 0 -274 121t-104 303zM641 1239q-41 0 -41 43q0 20 17 38t38 17q39 0 39 -43q0 -23 -15 -39t-38 -16z" />
    <glyph glyph-name="Gcommaaccent" unicode="&#x122;" horiz-adv-x="1423" 
d="M635 -224q0 20 17 37t42 17q70 0 70 -98q0 -137 -98 -211q-12 -10 -19 0l-8 12q-8 12 8 23q74 55 74 159q0 14 -4 29q-13 -12 -35 -12q-48 0 -47 44zM141 616q0 342 236 590t541 248q250 0 425 -190q8 -8 -5 -22q-13 -13 -21 -5q-162 182 -399 182q-293 0 -517 -238
q-223 -239 -223 -565q0 -254 154 -427t389 -173q159 0 279 48t169 94l70 481h-414q-14 0 -10 17t16 18h435q12 0 12 -12l-74 -519q-12 -18 -65 -53t-172 -73t-252 -37q-248 0 -411 184t-163 452z" />
    <glyph glyph-name="gcommaaccent" unicode="&#x123;" horiz-adv-x="1067" 
d="M733 1234q0 -20 -17 -37t-42 -17q-70 0 -70 98q0 137 98 211q12 10 19 0l8 -12q8 -12 -8 -23q-74 -55 -74 -160q0 -14 4 -28q13 12 35 12q48 0 47 -44zM137 401q0 -163 94 -275t235 -112t225 59q83 59 95 81l86 626q-10 18 -34 47q-25 29 -95 66t-153 37
q-188 0 -320 -153t-133 -376zM100 401q0 238 142 402t336 164t305 -127l14 90q4 16 12 16h11q14 0 10 -16l-125 -924q-33 -240 -141 -348t-265 -107q-79 0 -151 36t-103 66t-46 49t-3 30l10 8q8 4 15 -2q125 -150 275 -150t246 106t126 318l12 82q-131 -117 -302 -117
q-170 0 -274 121t-104 303z" />
    <glyph glyph-name="Hcircumflex" unicode="&#x124;" horiz-adv-x="1417" 
d="M616 1563q-8 -4 -14 2q-12 20 -4 26t10 8l260 209q10 6 17 0l207 -217q10 -10 -3 -21t-18 -5l-197 207zM365 1434q14 0 10 -15l-90 -655h901l92 655q4 14 14 15h11q16 0 12 -15l-199 -1405q-4 -14 -14 -14h-10q-16 0 -13 14l101 713h-901l-101 -713q-4 -14 -16 -14h-8
q-17 0 -13 14l199 1405q0 14 14 15h11z" />
    <glyph glyph-name="hcircumflex" unicode="&#x125;" horiz-adv-x="1032" 
d="M96 1567q-8 -4 -14 2q-12 20 -4 26t10 9l260 208q10 6 17 0l206 -217q10 -10 -2 -21t-18 -5l-197 207zM125 0h-8q-18 0 -15 16l201 1401q4 16 16 17h9q16 0 12 -17l-90 -629q162 178 338 179q332 0 266 -439l-74 -512q-4 -16 -14 -16h-8q-18 0 -15 16l74 512
q29 205 -27 303t-202 99q-61 0 -114 -20t-102 -54q-49 -35 -72 -62q-22 -28 -30 -36t-16 -21l-10 -10l-103 -711q-4 -16 -16 -16z" />
    <glyph glyph-name="Hbar" unicode="&#x126;" horiz-adv-x="1417" 
d="M285 764h901l49 358h-901zM244 1122q-17 0 -10 18q6 18 16 19h53l37 260q0 14 14 15h11q14 0 10 -15l-35 -260h901l37 260q0 14 16 15h9q12 0 12 -15l-37 -260h57q16 0 12 -18q-5 -18 -16 -19h-59l-156 -1108q-2 -14 -14 -14h-12q-12 0 -11 14l101 713h-901l-101 -713
q0 -14 -16 -14h-8q-13 0 -13 14l156 1108h-53z" />
    <glyph glyph-name="hbar" unicode="&#x127;" horiz-adv-x="1075" 
d="M125 0h-8q-18 0 -15 16l158 1106h-80q-14 0 -9 18t15 19h80l37 258q4 16 16 17h9q16 0 12 -17l-37 -258h414q16 0 11 -18t-17 -19h-414l-47 -334q178 178 353 178t250 -111q75 -112 42 -327l-74 -512q-4 -16 -14 -16h-8q-18 0 -15 16l74 512q57 401 -250 402
q-197 0 -364 -201l-103 -713q-4 -16 -16 -16z" />
    <glyph glyph-name="Itilde" unicode="&#x128;" horiz-adv-x="479" 
d="M305 1837q49 0 76 -35t33 -76q16 -110 84 -110q84 0 143 147q6 14 14 13l15 -4q14 -4 6 -19q-76 -172 -182 -172q-47 0 -74 35t-35 76q-21 110 -84 110q-37 0 -78 -41t-67 -108q-7 -15 -15 -11l-14 5q-12 4 -6 18q72 172 184 172zM362 1434q16 0 13 -15l-197 -1405
q-4 -14 -16 -14h-8q-17 0 -13 14l197 1405q4 14 16 15h8z" />
    <glyph glyph-name="itilde" unicode="&#x129;" horiz-adv-x="405" 
d="M205 1389q49 0 76 -35t33 -76q15 -111 83 -111q84 0 144 148q6 14 14 12l14 -4q14 -4 6 -18q-76 -172 -182 -172q-47 1 -74 35t-34 75q-22 111 -84 111q-37 0 -76 -39t-70 -111q-6 -14 -14 -10l-14 4q-12 2 -7 19q72 172 185 172zM119 0q-18 0 -15 16l129 914q4 16 17 16
h10q16 0 12 -16l-129 -914q-4 -16 -14 -16h-10z" />
    <glyph glyph-name="Imacron" unicode="&#x12a;" horiz-adv-x="479" 
d="M135 1724q-16 0 -11 18t17 19h529q16 0 11 -18t-15 -19h-531zM362 1434q16 0 13 -15l-197 -1405q-4 -14 -16 -14h-8q-17 0 -13 14l197 1405q4 14 16 15h8z" />
    <glyph glyph-name="imacron" unicode="&#x12b;" horiz-adv-x="405" 
d="M29 1243q-16 1 -12 19q5 18 18 18h528q16 0 11 -18t-15 -19h-530zM117 0q-18 0 -15 16l129 914q4 16 17 16h10q16 0 12 -16l-129 -914q-4 -16 -14 -16h-10z" />
    <glyph glyph-name="Ibreve" unicode="&#x12c;" horiz-adv-x="479" 
d="M393 1597q-90 1 -146 63t-57 157q0 16 11 16h12q10 0 10 -12q-2 -82 47 -134q49 -53 126 -53q78 0 140 52t87 135q4 12 12 12h16q12 0 8 -16q-29 -94 -103 -157t-163 -63zM362 1434q16 0 13 -15l-197 -1405q-4 -14 -16 -14h-8q-17 0 -13 14l197 1405q4 14 16 15h8z" />
    <glyph glyph-name="ibreve" unicode="&#x12d;" horiz-adv-x="405" 
d="M274 1116q-90 0 -146 62t-56 157q0 16 10 17h12q10 0 10 -13q-2 -82 48 -134t126 -52q77 0 139 52t87 134q4 12 12 13h16q12 0 9 -17q-29 -95 -103 -157t-164 -62zM117 0q-18 0 -15 16l129 914q4 16 17 16h10q16 0 12 -16l-129 -914q-4 -16 -14 -16h-10z" />
    <glyph glyph-name="Iogonek" unicode="&#x12e;" horiz-adv-x="479" 
d="M362 1434q16 0 13 -15l-197 -1399q-2 -16 -14 -20q-217 -103 -275 -213q-27 -51 -27 -109t34 -93q32 -36 104 -36t131 48q12 8 19 -3l8 -12q4 -10 -13 -20q-81 -49 -159 -49t-119 45t-41 116q0 115 86 198t231 157l195 1390q4 14 16 15h8z" />
    <glyph glyph-name="iogonek" unicode="&#x12f;" horiz-adv-x="407" 
d="M295 1239q-41 0 -41 43q0 20 16 38t39 17q39 0 39 -43q0 -23 -15 -39t-38 -16zM-207 -326q0 197 313 355l127 901q4 16 17 16h10q18 0 12 -16l-127 -910q-2 -14 -14 -20q-218 -104 -274 -213q-27 -51 -27 -109t33 -93q33 -36 105 -36t130 48q12 8 19 -3l8 -12
q4 -10 -12 -20q-82 -49 -160 -49q-78 1 -119 45t-41 116z" />
    <glyph glyph-name="Idotaccent" unicode="&#x130;" horiz-adv-x="479" 
d="M395 1677q-41 0 -41 43q0 20 18 38t38 18q39 0 39 -43q1 -23 -15 -39t-39 -17zM362 1434q16 0 13 -15l-197 -1405q-4 -14 -16 -14h-8q-17 0 -13 14l197 1405q4 14 16 15h8z" />
    <glyph glyph-name="dotlessi" unicode="&#x131;" horiz-adv-x="405" 
d="M117 0q-18 0 -15 16l129 914q4 16 17 16h10q16 0 12 -16l-129 -914q-4 -16 -14 -16h-10z" />
    <glyph glyph-name="IJ" unicode="&#x132;" horiz-adv-x="1251" 
d="M616 -20q-106 0 -172 51t-92 106q-4 14 4 19l9 4q12 8 18 -2q77 -144 231 -144t250 111t125 313l139 981q0 14 15 15h8q14 0 10 -15l-137 -981q-31 -217 -136 -338q-106 -120 -272 -120zM362 1434q16 0 13 -15l-197 -1405q-4 -14 -16 -14h-8q-17 0 -13 14l197 1405
q4 14 16 15h8z" />
    <glyph glyph-name="ij" unicode="&#x133;" horiz-adv-x="774" 
d="M627 946q16 0 12 -16l-150 -1063q-23 -170 -99 -258t-218 -119q-18 -2 -20 10l-2 11q-2 12 16 16q128 31 196 107t91 233l149 1063q4 16 16 16h9zM668 1239q-41 0 -41 43q0 20 16 38t39 17q39 0 39 -43q0 -23 -15 -39t-38 -16zM293 1239q-41 0 -41 43q0 20 17 38t38 17
q39 0 39 -43q0 -23 -15 -39t-38 -16zM117 0q-18 0 -15 16l129 914q4 16 17 16h10q16 0 12 -16l-129 -914q-4 -16 -14 -16h-10z" />
    <glyph glyph-name="Jcircumflex" unicode="&#x134;" horiz-adv-x="884" 
d="M569 1563q-8 -4 -14 2q-12 20 -4 26t10 8l260 209q10 6 17 0l206 -217q8 -10 3 -16q-17 -16 -23 -10l-197 207zM250 -20q-106 0 -172 51t-92 106q-4 15 10 23t20 -2q78 -144 232 -144t250 111t125 313l139 981q0 14 14 15h8q14 0 11 -15l-138 -981q-31 -218 -136 -338
t-271 -120z" />
    <glyph glyph-name="jcircumflex" unicode="&#x135;" horiz-adv-x="403" 
d="M51 1122q-8 -4 -14 2l-6 11q-6 10 6 20q4 2 6 4l260 209q10 6 16 0l207 -217q10 -8 -2 -21t-18 -6l-197 207zM248 946h8q16 0 12 -16l-149 -1063q-23 -170 -100 -258t-218 -119q-18 -2 -20 10l-2 11q-2 12 16 16q129 31 197 107t90 233l149 1063q4 16 17 16z" />
    <glyph glyph-name="Kcommaaccent" unicode="&#x136;" horiz-adv-x="1032" 
d="M408 -224q0 20 17 37t42 17q70 0 70 -98q0 -137 -99 -211q-12 -10 -18 0l-8 12q-8 12 8 23q74 55 74 159q0 14 -5 29q-12 -12 -34 -12q-47 0 -47 44zM365 1434q16 0 12 -15l-96 -676l778 689q13 8 24 -4q12 -13 2 -23l-774 -682l598 -703q9 -11 -12 -28q-10 -6 -18 4
l-605 711l-96 -693q-4 -14 -16 -14h-8q-17 0 -13 14l199 1405q4 14 14 15h11z" />
    <glyph glyph-name="kcommaaccent" unicode="&#x137;" horiz-adv-x="854" 
d="M291 -224q0 20 17 37t42 17q70 0 70 -98q0 -137 -98 -211q-12 -10 -19 0l-8 12q-8 12 8 23q74 55 74 159q0 14 -4 29q-13 -12 -35 -12q-48 0 -47 44zM117 0q-18 0 -15 16l201 1401q4 16 16 17h9q20 0 16 -17l-127 -872l588 413q10 6 18 -2l8 -12q6 -10 -6 -18l-573 -406
l457 -497q9 -11 -7 -26t-26 -1l-463 512l-70 -492q-4 -16 -18 -16h-8z" />
    <glyph glyph-name="kgreenlandic" unicode="&#x138;" horiz-adv-x="892" 
d="M252 946h8q12 0 12 -16l-59 -438l616 466q12 8 19 -4l8 -14q6 -10 -4 -20l-606 -451l508 -442q13 -11 -3 -26t-24 -9l-522 459l-62 -435q0 -16 -18 -16h-6q-17 0 -17 16l131 914q0 16 19 16z" />
    <glyph glyph-name="Lacute" unicode="&#x139;" horiz-adv-x="933" 
d="M225 1591q-10 -4 -16 6l-6 13q-4 8 8 14l360 186q11 4 20 -12t-5 -22zM365 1434q14 0 10 -15l-195 -1384h639q16 0 11 -17t-15 -18h-661q-13 0 -13 14l199 1405q4 14 14 15h11z" />
    <glyph glyph-name="lacute" unicode="&#x13a;" horiz-adv-x="438" 
d="M244 1589q-10 -4 -17 6l-6 13q-4 8 8 14l361 186q10 4 19 -12t-5 -22zM141 0h-8q-18 0 -14 16l200 1401q4 16 15 17h10q16 0 12 -17l-198 -1401q-5 -16 -17 -16z" />
    <glyph glyph-name="Lcommaaccent" unicode="&#x13b;" horiz-adv-x="933" 
d="M387 -224q0 20 17 37t42 17q70 0 70 -98q0 -137 -98 -211q-12 -10 -19 0l-8 12q-8 12 8 23q74 55 74 159q0 14 -4 29q-13 -12 -35 -12q-48 0 -47 44zM365 1434q14 0 10 -15l-195 -1384h639q16 0 11 -17t-15 -18h-661q-13 0 -13 14l199 1405q4 14 14 15h11z" />
    <glyph glyph-name="lcommaaccent" unicode="&#x13c;" horiz-adv-x="438" 
d="M102 -268q-22 0 -34 12t-13 32t17 37t43 17q70 0 69 -98q0 -137 -98 -211q-12 -10 -18 0l-9 12q-8 12 9 23q74 55 73 159q0 14 -4 29q-13 -12 -35 -12zM141 0h-8q-18 0 -14 16l200 1401q4 16 15 17h10q16 0 12 -17l-198 -1401q-5 -16 -17 -16z" />
    <glyph glyph-name="Lcaron" unicode="&#x13d;" horiz-adv-x="946" 
d="M803 1402q0 20 17 37t42 17q70 0 70 -98q0 -137 -98 -211q-12 -10 -19 0l-8 12q-8 12 8 23q74 55 74 159q0 14 -4 29q-13 -12 -35 -12q-48 0 -47 44zM365 1434q14 0 10 -15l-195 -1384h639q16 0 11 -17t-15 -18h-661q-13 0 -13 14l199 1405q4 14 14 15h11z" />
    <glyph glyph-name="lcaron" unicode="&#x13e;" horiz-adv-x="438" 
d="M475 1400q-1 20 17 37t43 17q70 0 69 -98q0 -137 -98 -211q-12 -10 -19 0l-8 12q-8 12 8 23q74 55 74 159q0 14 -4 29q-13 -12 -35 -12q-48 0 -47 44zM141 0h-8q-18 0 -14 16l200 1401q4 16 15 17h10q16 0 12 -17l-198 -1401q-5 -16 -17 -16z" />
    <glyph glyph-name="Ldot" unicode="&#x13f;" horiz-adv-x="950" 
d="M864 715q0 -23 -15 -39t-35 -17t-30 13q-12 14 -12 34t16 34q16 15 37 16q39 0 39 -41zM365 1434q14 0 10 -15l-195 -1384h639q16 0 11 -17t-15 -18h-661q-13 0 -13 14l199 1405q4 14 14 15h11z" />
    <glyph glyph-name="ldot" unicode="&#x140;" horiz-adv-x="645" 
d="M586 713q0 -23 -16 -39t-34 -17q-20 -1 -31 13t-11 34t16 34q16 15 37 16q39 0 39 -41zM141 0h-8q-18 0 -14 16l200 1401q4 16 15 17h10q16 0 12 -17l-198 -1401q-5 -16 -17 -16z" />
    <glyph glyph-name="Lslash" unicode="&#x141;" horiz-adv-x="942" 
d="M362 1434q16 0 13 -15l-96 -688l352 174q12 4 16 -6l4 -12q2 -8 -10 -15l-369 -182l-92 -653h674q18 0 13 -18t-17 -19h-698q-13 0 -13 14l94 660l-86 -41q-14 -6 -16 2l-4 16q-4 10 10 15l103 49l98 704q0 14 16 15h8z" />
    <glyph glyph-name="lslash" unicode="&#x142;" horiz-adv-x="557" 
d="M154 0h-9q-18 0 -14 16l98 697l-163 -80q-10 -4 -13 4q-8 24 4 29l179 86l96 665q4 16 14 17h10q16 0 13 -17l-93 -645l269 131q12 6 18 -6l4 -10q4 -8 -8 -15l-289 -139l-100 -717q-4 -16 -16 -16z" />
    <glyph glyph-name="Nacute" unicode="&#x143;" horiz-adv-x="1454" 
d="M735 1591q-10 -4 -16 6l-6 13q-4 8 8 14l360 186q11 4 20 -12t-5 -22zM1339 1434q16 0 13 -15l-203 -1435q-2 -10 -12 -14t-15 5l-751 1409l-193 -1370q-4 -14 -16 -14h-8q-17 0 -13 14l203 1440q2 10 12 13t15 -5l751 -1409l193 1366q4 14 16 15h8z" />
    <glyph glyph-name="nacute" unicode="&#x144;" horiz-adv-x="1036" 
d="M494 1147q-12 -5 -19 11q-8 15 4 22l361 186q10 4 19 -12t-5 -23zM248 946h10q10 0 10 -16l-16 -129q156 166 338 166q332 0 266 -439l-72 -512q-4 -16 -16 -16h-10q-16 0 -13 16l74 512q57 401 -229 402q-90 0 -172 -43t-117 -81t-57 -71l-103 -719q-4 -16 -16 -16h-8
q-19 0 -15 16l131 914q4 16 15 16z" />
    <glyph glyph-name="Ncommaaccent" unicode="&#x145;" horiz-adv-x="1454" 
d="M622 -268q-22 0 -34 12t-13 32t17 37t43 17q70 0 70 -98q0 -137 -99 -211q-12 -10 -18 0l-8 12q-8 12 8 23q74 55 74 159q0 14 -5 29q-13 -12 -35 -12zM1339 1434q16 0 13 -15l-203 -1435q-2 -10 -12 -14t-15 5l-751 1409l-193 -1370q-4 -14 -16 -14h-8q-17 0 -13 14
l203 1440q2 10 12 13t15 -5l751 -1409l193 1366q4 14 16 15h8z" />
    <glyph glyph-name="ncommaaccent" unicode="&#x146;" horiz-adv-x="1036" 
d="M369 -222q0 20 17 37t42 17q70 0 70 -98q0 -137 -99 -211q-12 -10 -18 0l-8 12q-8 12 8 23q74 55 74 159q0 14 -4 29q-13 -12 -35 -12q-48 0 -47 44zM248 946h10q10 0 10 -16l-16 -129q156 166 338 166q332 0 266 -439l-72 -512q-4 -16 -16 -16h-10q-16 0 -13 16l74 512
q57 401 -229 402q-90 0 -172 -43t-117 -81t-57 -71l-103 -719q-4 -16 -16 -16h-8q-19 0 -15 16l131 914q4 16 15 16z" />
    <glyph glyph-name="Ncaron" unicode="&#x147;" horiz-adv-x="1454" 
d="M866 1579l-207 217q-9 10 3 22t18 5l197 -207l258 209q8 4 14 -2q12 -21 4 -27t-10 -8l-260 -209q-11 -6 -17 0zM1339 1434q16 0 13 -15l-203 -1435q-2 -10 -12 -14t-15 5l-751 1409l-193 -1370q-4 -14 -16 -14h-8q-17 0 -13 14l203 1440q2 10 12 13t15 -5l751 -1409
l193 1366q4 14 16 15h8z" />
    <glyph glyph-name="ncaron" unicode="&#x148;" horiz-adv-x="1036" 
d="M610 1135l-207 217q-11 8 2 20t19 6l197 -207l258 209q8 4 14 -2q12 -20 4 -26t-10 -9l-260 -208q-11 -6 -17 0zM248 946h10q10 0 10 -16l-16 -129q156 166 338 166q332 0 266 -439l-72 -512q-4 -16 -16 -16h-10q-16 0 -13 16l74 512q57 401 -229 402q-90 0 -172 -43
t-117 -81t-57 -71l-103 -719q-4 -16 -16 -16h-8q-19 0 -15 16l131 914q4 16 15 16z" />
    <glyph glyph-name="napostrophe" unicode="&#x149;" horiz-adv-x="1036" 
d="M152 1400q0 20 17 37t42 17q70 0 70 -98q0 -137 -99 -211q-12 -10 -18 0l-8 12q-8 12 8 23q74 55 74 159q0 14 -5 29q-12 -12 -34 -12q-47 0 -47 44zM248 946h10q10 0 10 -16l-16 -129q156 166 338 166q332 0 266 -439l-72 -512q-4 -16 -16 -16h-10q-16 0 -13 16l74 512
q57 401 -229 402q-90 0 -172 -43t-117 -81t-57 -71l-103 -719q-4 -16 -16 -16h-8q-19 0 -15 16l131 914q4 16 15 16z" />
    <glyph glyph-name="Eng" unicode="&#x14a;" horiz-adv-x="1456" 
d="M162 0h-8q-16 0 -13 14l203 1440q2 10 12 13t15 -5l751 -1409l193 1366q4 14 16 15h8q17 -1 13 -15l-217 -1552q-25 -172 -101 -260t-217 -117q-18 -2 -20 10l-2 11q-2 12 16 16q129 31 198 107t89 233l16 123l-743 1394l-193 -1370q-4 -14 -16 -14z" />
    <glyph glyph-name="eng" unicode="&#x14b;" horiz-adv-x="1036" 
d="M125 0h-8q-18 0 -15 16l131 914q4 16 15 16h10q10 0 10 -16l-16 -129q156 166 338 166q332 0 266 -439l-92 -661q-26 -170 -102 -259t-218 -118q-18 -2 -20 10l-2 11q-2 12 16 16q129 31 196 106q66 76 89 234l96 661q57 401 -229 402q-90 0 -172 -44t-118 -81t-56 -70
l-103 -719q-4 -16 -16 -16z" />
    <glyph glyph-name="Omacron" unicode="&#x14c;" horiz-adv-x="1597" 
d="M700 1724q-16 0 -11 18t18 19h528q16 0 11 -18t-15 -19h-531zM180 621q0 -253 153 -429t382 -176q293 0 517 234t224 561q0 256 -152 431q-153 175 -384 175q-292 0 -516 -235t-224 -561zM143 618q1 344 235 590t544 246q248 0 410 -185t161 -456q-1 -342 -235 -588
t-543 -245q-248 0 -410 185t-162 453z" />
    <glyph glyph-name="omacron" unicode="&#x14d;" horiz-adv-x="1099" 
d="M383 1243q-16 1 -11 19t17 18h529q16 0 11 -18t-16 -19h-530zM137 403q0 -165 93 -277t237 -112q186 0 326 158q139 158 139 373q0 165 -91 275t-237 110q-186 0 -326 -157t-141 -370zM100 403q0 231 151 397t353 167q162 0 263 -122t102 -300q0 -233 -150 -401
t-352 -167q-163 0 -265 122t-102 304z" />
    <glyph glyph-name="Obreve" unicode="&#x14e;" horiz-adv-x="1597" 
d="M969 1597q-91 1 -147 63t-56 157q0 16 10 16h12q10 0 11 -12q-2 -82 47 -134q49 -53 126 -53t139 52t87 135q2 12 12 12h17q12 0 8 -16q-29 -94 -103 -157t-163 -63zM180 621q0 -253 153 -429t382 -176q293 0 517 234t224 561q0 256 -152 431q-153 175 -384 175
q-292 0 -516 -235t-224 -561zM143 618q1 344 235 590t544 246q248 0 410 -185t161 -456q-1 -342 -235 -588t-543 -245q-248 0 -410 185t-162 453z" />
    <glyph glyph-name="obreve" unicode="&#x14f;" horiz-adv-x="1099" 
d="M637 1116q-91 0 -147 62t-56 157q0 16 10 17h13q10 0 10 -13q-2 -82 47 -134t126 -52t139 52t87 134q2 12 13 13h16q12 0 8 -17q-29 -95 -103 -157t-163 -62zM137 403q0 -165 93 -277t237 -112q186 0 326 158q139 158 139 373q0 165 -91 275t-237 110q-186 0 -326 -157
t-141 -370zM100 403q0 231 151 397t353 167q162 0 263 -122t102 -300q0 -233 -150 -401t-352 -167q-163 0 -265 122t-102 304z" />
    <glyph glyph-name="Ohungarumlaut" unicode="&#x150;" horiz-adv-x="1597" 
d="M782 1550l-10 6q-10 6 -2 19l246 354q8 10 23 1t8 -21l-248 -355q-9 -10 -17 -4zM1087 1550l-10 6q-8 8 0 19l246 354q8 10 16 4q22 -12 13 -24l-246 -355q-11 -10 -19 -4zM180 621q0 -253 153 -429t382 -176q293 0 517 234t224 561q0 256 -152 431q-153 175 -384 175
q-292 0 -516 -235t-224 -561zM143 618q1 344 235 590t544 246q248 0 410 -185t161 -456q-1 -342 -235 -588t-543 -245q-248 0 -410 185t-162 453z" />
    <glyph glyph-name="ohungarumlaut" unicode="&#x151;" horiz-adv-x="1099" 
d="M473 1051l-10 6q-8 8 0 18l244 355q10 10 24 0t6 -21l-248 -354q-8 -10 -16 -4zM797 1055q-10 -11 -23 -1q-14 9 -6 21l246 355q8 10 22 0t6 -21zM137 403q0 -165 93 -277t237 -112q186 0 326 158q139 158 139 373q0 165 -91 275t-237 110q-186 0 -326 -157t-141 -370z
M100 403q0 231 151 397t353 167q162 0 263 -122t102 -300q0 -233 -150 -401t-352 -167q-163 0 -265 122t-102 304z" />
    <glyph glyph-name="OE" unicode="&#x152;" horiz-adv-x="1824" 
d="M176 618q0 -256 152 -429t385 -173q74 0 137 17l192 1368q-70 16 -131 16q-293 1 -514 -235t-221 -564zM141 614q-1 344 233 592t541 248q74 0 152 -20h743q15 0 10 -18t-14 -19h-727l-88 -633h637q14 0 9 -18t-15 -19h-637l-96 -690h725q16 0 11 -18t-15 -19h-742
q-82 -20 -161 -20q-248 0 -407 182t-159 452z" />
    <glyph glyph-name="oe" unicode="&#x153;" horiz-adv-x="1703" 
d="M139 406q0 -164 94 -278t236 -114q96 0 190 54t162 145l72 522q-93 195 -283 195t-330 -156t-141 -368zM1092 469q106 0 220 24q114 23 192 79t77 140q0 84 -82 152q-82 66 -199 66t-213 -54t-159 -145l-31 -252q89 -10 195 -10zM100 406q0 233 153 397t353 164t309 -195
q143 195 379 195q140 0 234 -73t94 -185q0 -137 -160 -207t-391 -70q-109 0 -182 10l-33 -231q33 -92 111 -144t178 -53q172 0 301 105q14 12 20 -2l7 -15q2 -6 -5 -12q-37 -37 -134 -75t-189 -38q-215 0 -309 189q-156 -188 -367 -189q-161 -1 -265 123t-104 306z" />
    <glyph glyph-name="Racute" unicode="&#x154;" horiz-adv-x="1226" 
d="M553 1591q-10 -4 -16 6l-7 13q-4 8 9 14l360 186q10 4 20 -12t-6 -22zM666 582q186 0 320 135t134 336q0 145 -94 244t-233 100h-422l-115 -815h410zM793 1434q156 0 259 -109t103 -283t-117 -314t-282 -173l213 -541q4 -12 -6 -16q-21 -6 -25 2l-213 549q-18 -2 -59 -2
h-414l-76 -533q0 -14 -14 -14h-8q-13 0 -13 14l199 1405q0 14 14 15h439z" />
    <glyph glyph-name="racute" unicode="&#x155;" horiz-adv-x="710" 
d="M348 1145q-10 -4 -16 6l-6 12q-4 8 8 15l360 186q11 4 20 -12t-5 -23zM125 0h-10q-16 0 -13 16l129 914q4 16 15 16h12q12 0 8 -16l-14 -125q47 61 126 111t169 50t153 -38q12 -8 2 -24t-24 -9q-53 35 -129 35t-151 -46q-74 -46 -104 -81t-50 -66l-105 -721
q-4 -16 -14 -16z" />
    <glyph glyph-name="Rcommaaccent" unicode="&#x156;" horiz-adv-x="1226" 
d="M457 -224q0 20 17 37t42 17q70 0 70 -98q0 -137 -99 -211q-12 -10 -18 0l-8 12q-8 12 8 23q74 55 74 159q0 14 -4 29q-13 -12 -35 -12q-48 0 -47 44zM666 582q186 0 320 135t134 336q0 145 -94 244t-233 100h-422l-115 -815h410zM793 1434q156 0 259 -109t103 -283
t-117 -314t-282 -173l213 -541q4 -12 -6 -16q-21 -6 -25 2l-213 549q-18 -2 -59 -2h-414l-76 -533q0 -14 -14 -14h-8q-13 0 -13 14l199 1405q0 14 14 15h439z" />
    <glyph glyph-name="rcommaaccent" unicode="&#x157;" horiz-adv-x="710" 
d="M41 -224q0 20 17 37t42 17q70 0 70 -98q0 -137 -98 -211q-12 -10 -19 0l-8 12q-8 12 8 23q74 55 74 159q0 14 -4 29q-13 -12 -35 -12q-48 0 -47 44zM125 0h-10q-16 0 -13 16l129 914q4 16 15 16h12q12 0 8 -16l-14 -125q47 61 126 111t169 50t153 -38q12 -8 2 -24t-24 -9
q-53 35 -129 35t-151 -46q-74 -46 -104 -81t-50 -66l-105 -721q-4 -16 -14 -16z" />
    <glyph glyph-name="Rcaron" unicode="&#x158;" horiz-adv-x="1226" 
d="M684 1579l-207 217q-10 10 2 22t19 5l196 -207l258 209q8 4 15 -2q12 -21 4 -27t-10 -8l-261 -209q-10 -6 -16 0zM666 582q186 0 320 135t134 336q0 145 -94 244t-233 100h-422l-115 -815h410zM793 1434q156 0 259 -109t103 -283t-117 -314t-282 -173l213 -541
q4 -12 -6 -16q-21 -6 -25 2l-213 549q-18 -2 -59 -2h-414l-76 -533q0 -14 -14 -14h-8q-13 0 -13 14l199 1405q0 14 14 15h439z" />
    <glyph glyph-name="rcaron" unicode="&#x159;" horiz-adv-x="710" 
d="M475 1133l-207 217q-10 10 2 21t19 5l196 -207l258 209q8 4 15 -2q12 -20 4 -26t-10 -9l-260 -208q-11 -6 -17 0zM125 0h-10q-16 0 -13 16l129 914q4 16 15 16h12q12 0 8 -16l-14 -125q47 61 126 111t169 50t153 -38q12 -8 2 -24t-24 -9q-53 35 -129 35t-151 -46
q-74 -46 -104 -81t-50 -66l-105 -721q-4 -16 -14 -16z" />
    <glyph glyph-name="Sacute" unicode="&#x15a;" horiz-adv-x="1050" 
d="M524 1561q-10 -4 -16 6l-6 12q-4 8 8 14l360 187q11 5 20 -12t-5 -23zM459 14q168 0 295 102t127 246q0 146 -86 220t-259 135t-254 133t-81 218t116 266q117 120 332 120q84 0 162 -27t115 -51l35 -26q8 -8 2 -17l-11 -12q-6 -10 -16 -4q-34 34 -123 69q-88 34 -164 33
q-201 1 -307 -109t-106 -242t76 -198t251 -127q176 -61 264 -141t88 -238t-134 -272q-134 -113 -322 -112q-78 0 -150 22q-73 22 -117 52q-129 91 -106 114l12 10q8 8 17 -2q44 -69 147 -116q103 -46 197 -46z" />
    <glyph glyph-name="sacute" unicode="&#x15b;" horiz-adv-x="823" 
d="M358 1151q-10 -4 -16 6l-6 12q-4 8 8 15l361 186q10 4 19 -12t-5 -23zM326 -23q-150 0 -260 105q-12 12 3 27t25 6q94 -101 230 -101t226 68q89 68 89 168q0 68 -42 113q-42 44 -102 67q-61 24 -152 57t-148 88t-57 145t83 169q83 78 229 78t238 -72q11 -9 0 -25
q-12 -16 -24 -8q-94 68 -218 68t-198 -66t-74 -144t52 -122q52 -45 141 -80t153 -61t92 -59q62 -70 64 -148q0 -117 -100 -195t-250 -78z" />
    <glyph glyph-name="Scircumflex" unicode="&#x15c;" horiz-adv-x="1050" 
d="M449 1532q-8 -4 -15 2q-12 20 -4 26t10 9l260 209q10 6 17 0l207 -217q11 -8 -2 -21q-12 -12 -19 -6l-196 207zM459 14q168 0 295 102t127 246q0 146 -86 220t-259 135t-254 133t-81 218t116 266q117 120 332 120q84 0 162 -27t115 -51l35 -26q8 -8 2 -17l-11 -12
q-6 -10 -16 -4q-34 34 -123 69q-88 34 -164 33q-201 1 -307 -109t-106 -242t76 -198t251 -127q176 -61 264 -141t88 -238t-134 -272q-134 -113 -322 -112q-78 0 -150 22q-73 22 -117 52q-129 91 -106 114l12 10q8 8 17 -2q44 -69 147 -116q103 -46 197 -46z" />
    <glyph glyph-name="scircumflex" unicode="&#x15d;" horiz-adv-x="823" 
d="M248 1128q-8 -4 -15 2l-6 11q-6 10 6 20q4 2 7 4l260 209q10 6 16 0l207 -217q10 -10 -2 -21t-19 -6l-196 207zM326 -23q-150 0 -260 105q-12 12 3 27t25 6q94 -101 230 -101t226 68q89 68 89 168q0 68 -42 113q-42 44 -102 67q-61 24 -152 57t-148 88t-57 145t83 169
q83 78 229 78t238 -72q11 -9 0 -25q-12 -16 -24 -8q-94 68 -218 68t-198 -66t-74 -144t52 -122q52 -45 141 -80t153 -61t92 -59q62 -70 64 -148q0 -117 -100 -195t-250 -78z" />
    <glyph glyph-name="Scedilla" unicode="&#x15e;" horiz-adv-x="1050" 
d="M459 14q168 0 295 102t127 246q0 146 -86 220t-259 135t-254 133t-81 218t116 266q117 120 332 120q84 0 162 -27t115 -51l35 -26q8 -8 2 -17l-11 -12q-6 -10 -16 -4q-34 34 -123 69q-88 34 -164 33q-201 1 -307 -109t-106 -242t76 -198t251 -127q176 -61 264 -141
t88 -236t-128 -269q-128 -112 -310 -117l-104 -136q97 31 171 -25q46 -36 46 -113t-58 -132t-154 -55q-95 0 -149 69q-9 11 6 25t23 2q45 -59 119 -59t124 43t50 112q0 106 -121 107q-53 0 -100 -19q-8 -4 -14 6q-5 10 -1 17l117 160q-196 11 -315 130q-44 43 -31 56l12 10
q8 8 17 -2q44 -69 147 -116q103 -46 197 -46z" />
    <glyph glyph-name="scedilla" unicode="&#x15f;" horiz-adv-x="823" 
d="M676 250q0 -113 -94 -190t-228 -83l-102 -133q97 31 171 -25q46 -36 46 -113t-58 -132q-57 -55 -153 -55t-149 69q-10 10 5 24q15 15 23 3q45 -59 119 -59t124 43t50 112q0 106 -121 107q-55 0 -100 -19q-8 -4 -13 6t-1 17l114 155q-147 8 -243 105q-12 12 3 27t25 6
q94 -101 230 -101t226 68q89 68 89 168q0 68 -42 113q-42 44 -102 67q-61 24 -152 57t-148 88t-57 145t83 169q83 78 229 78t238 -72q9 -7 1 -25q-9 -18 -25 -8q-94 68 -218 68t-198 -66t-74 -144t52 -122q52 -45 141 -80t153 -61t92 -59q64 -72 64 -148z" />
    <glyph glyph-name="Scaron" unicode="&#x160;" horiz-adv-x="1050" 
d="M672 1548l-207 217q-11 8 2 21q12 12 18 6l197 -207l258 209q9 5 18 -9q8 -13 0 -19t-10 -9l-260 -209q-10 -6 -16 0zM459 14q168 0 295 102t127 246q0 146 -86 220t-259 135t-254 133t-81 218t116 266q117 120 332 120q84 0 162 -27t115 -51l35 -26q8 -8 2 -17l-11 -12
q-6 -10 -16 -4q-34 34 -123 69q-88 34 -164 33q-201 1 -307 -109t-106 -242t76 -198t251 -127q176 -61 264 -141t88 -238t-134 -272q-134 -113 -322 -112q-78 0 -150 22q-73 22 -117 52q-129 91 -106 114l12 10q8 8 17 -2q44 -69 147 -116q103 -46 197 -46z" />
    <glyph glyph-name="scaron" unicode="&#x161;" horiz-adv-x="823" 
d="M475 1139l-207 217q-10 8 2 20t19 6l196 -206l258 208q8 4 15 -2q12 -20 4 -26t-10 -8l-260 -209q-11 -6 -17 0zM326 -23q-150 0 -260 105q-12 12 3 27t25 6q94 -101 230 -101t226 68q89 68 89 168q0 68 -42 113q-42 44 -102 67q-61 24 -152 57t-148 88t-57 145t83 169
q83 78 229 78t238 -72q11 -9 0 -25q-12 -16 -24 -8q-94 68 -218 68t-198 -66t-74 -144t52 -122q52 -45 141 -80t153 -61t92 -59q62 -70 64 -148q0 -117 -100 -195t-250 -78z" />
    <glyph glyph-name="Tcommaaccent" unicode="&#x162;" horiz-adv-x="948" 
d="M502 -294q0 -77 -58 -132t-154 -55q-95 0 -149 69q-10 10 5 25q16 14 24 2q45 -59 119 -59t124 43t50 112q0 106 -121 107q-55 0 -100 -19q-8 -4 -14 6q-5 10 -1 17l144 198l194 1377h-381q-16 0 -12 18t16 19h803q18 0 13 -18t-17 -19h-385l-192 -1368q-2 -14 -17 -37
l-108 -148q99 31 171 -25q46 -36 46 -113z" />
    <glyph glyph-name="tcommaaccent" unicode="&#x163;" horiz-adv-x="663" 
d="M444 -294q0 -77 -58 -132t-153 -55t-149 69q-10 10 5 24q15 15 24 3q45 -59 119 -59t124 43t50 112q0 106 -121 107q-55 0 -101 -19q-8 -4 -13 6t-1 17l117 158q-100 6 -125 76t-6 198l92 655h-94q-12 0 -9 17l2 4q4 16 15 16h92l35 256q4 14 12 15h10q16 0 13 -15
l-33 -256h344q18 0 14 -16l-2 -4q-4 -16 -18 -17h-344l-92 -655q-23 -100 -1 -170t115 -70q123 0 240 78q12 8 20 -4l6 -12q6 -9 -6 -17q-33 -20 -103 -47t-134 -32l-103 -136q98 32 171 -25q46 -36 46 -113z" />
    <glyph glyph-name="Tcaron" unicode="&#x164;" horiz-adv-x="948" 
d="M596 1579l-207 217q-8 10 3 22t18 5l196 -207l258 209q8 4 15 -2l6 -11q7 -11 -13 -24l-260 -209q-10 -6 -16 0zM184 1397q-16 0 -12 18t16 19h803q18 0 13 -18t-17 -19h-385l-194 -1383q-4 -14 -17 -14h-8q-16 0 -12 14l194 1383h-381z" />
    <glyph glyph-name="tcaron" unicode="&#x165;" horiz-adv-x="659" 
d="M662 1400q0 20 17 37t42 17q70 0 70 -98q0 -137 -99 -211q-12 -10 -18 0l-8 12q-8 12 8 23q74 55 74 159q0 14 -5 29q-12 -12 -34 -12q-47 0 -47 44zM303 -23q-113 0 -141 71t-10 206l92 655h-94q-12 0 -9 17l2 4q4 16 15 16h92l35 256q4 14 12 15h10q16 0 12 -15
l-32 -256h344q18 0 14 -16l-2 -4q-4 -16 -18 -17h-344l-93 -655q-23 -100 -1 -170t116 -70q123 0 240 78q12 8 20 -4l6 -12q6 -8 -6 -17q-39 -25 -115 -53t-145 -29z" />
    <glyph glyph-name="Tbar" unicode="&#x166;" horiz-adv-x="950" 
d="M193 637q-14 0 -10 17q5 17 18 18h266l102 725h-383q-14 0 -10 18t17 19h802q17 0 12 -18t-18 -19h-385l-102 -725h276q18 0 12 -18t-16 -17h-278l-86 -623q0 -14 -17 -14h-8q-14 0 -10 14l88 623h-270z" />
    <glyph glyph-name="tbar" unicode="&#x167;" horiz-adv-x="659" 
d="M303 -23q-113 0 -141 71t-10 206l30 223h-69q-17 0 -11 23q0 12 15 12h71l56 397h-94q-12 1 -8 19q5 18 16 18h92l35 256q4 14 12 15h10q16 0 12 -15l-32 -256h344q18 0 13 -18t-19 -19h-344l-56 -397h262q15 0 11 -17t-15 -18h-264l-31 -223q-23 -100 -1 -170t116 -70
q123 0 240 78q12 8 20 -4l6 -12q6 -8 -6 -17q-39 -25 -115 -53t-145 -29z" />
    <glyph glyph-name="Utilde" unicode="&#x168;" horiz-adv-x="1366" 
d="M752 1837q50 0 76 -35t32 -76q16 -110 84 -110q84 0 143 147q6 14 15 13l14 -4q14 -4 6 -19q-76 -172 -182 -172q-47 0 -74 35t-35 76q-21 110 -83 110q-37 0 -77 -40t-69 -109q-6 -15 -14 -11l-15 5q-12 4 -6 18q72 172 185 172zM348 1434q14 0 10 -15l-125 -903
q-8 -47 -8 -102q-1 -182 99 -290t290 -108t329 138q140 138 171 362l127 903q4 14 16 15h11q14 0 10 -15l-127 -903q-35 -244 -179 -390t-376 -146q-188 0 -298 118t-110 314q1 34 9 104l127 903q4 14 14 15h10z" />
    <glyph glyph-name="utilde" unicode="&#x169;" horiz-adv-x="1015" 
d="M504 1389q49 0 76 -35q26 -35 32 -76q15 -111 84 -111q84 0 144 148q6 14 14 12l14 -4q14 -4 6 -18q-76 -172 -182 -172q-47 1 -74 35t-34 75q-22 111 -84 111q-37 0 -76 -39t-70 -111q-6 -14 -14 -10l-14 4q-12 2 -7 19q72 172 185 172zM414 14q139 0 233 89
q67 65 90 104l103 723q4 16 16 16h10q16 0 13 -16l-129 -914q-4 -16 -17 -16h-10q-14 0 -10 16l16 125q-143 -164 -315 -164q-330 0 -269 435l74 520q2 14 17 14h8q16 0 12 -16l-72 -518q-59 -398 230 -398z" />
    <glyph glyph-name="Umacron" unicode="&#x16a;" horiz-adv-x="1366" 
d="M582 1724q-17 0 -12 18t18 19h528q16 0 11 -18t-15 -19h-530zM348 1434q14 0 10 -15l-125 -903q-8 -47 -8 -102q-1 -182 99 -290t290 -108t329 138q140 138 171 362l127 903q4 14 16 15h11q14 0 10 -15l-127 -903q-35 -244 -179 -390t-376 -146q-188 0 -298 118t-110 314
q1 34 9 104l127 903q4 14 14 15h10z" />
    <glyph glyph-name="umacron" unicode="&#x16b;" horiz-adv-x="1015" 
d="M319 1243q-16 1 -11 19t18 18h528q16 0 11 -18t-15 -19h-531zM414 14q139 0 233 89q67 65 90 104l103 723q4 16 16 16h10q16 0 13 -16l-129 -914q-4 -16 -17 -16h-10q-14 0 -10 16l16 125q-143 -164 -315 -164q-330 0 -269 435l74 520q2 14 17 14h8q16 0 12 -16l-72 -518
q-59 -398 230 -398z" />
    <glyph glyph-name="Ubreve" unicode="&#x16c;" horiz-adv-x="1366" 
d="M838 1597q-90 1 -146 63t-57 157q0 16 10 16h12q10 0 11 -12q-2 -82 47 -134q49 -53 126 -53t139 52t87 135q2 12 12 12h17q12 0 8 -16q-28 -94 -102 -157t-164 -63zM348 1434q14 0 10 -15l-125 -903q-8 -47 -8 -102q-1 -182 99 -290t290 -108t329 138q140 138 171 362
l127 903q4 14 16 15h11q14 0 10 -15l-127 -903q-35 -244 -179 -390t-376 -146q-188 0 -298 118t-110 314q1 34 9 104l127 903q4 14 14 15h10z" />
    <glyph glyph-name="ubreve" unicode="&#x16d;" horiz-adv-x="1015" 
d="M569 1116q-90 0 -146 62t-56 157q0 16 10 17h12q10 0 10 -13q-2 -82 47 -134t126 -52t140 52q62 52 87 134q4 12 12 13h16q12 0 9 -17q-29 -95 -103 -157t-164 -62zM414 14q139 0 233 89q67 65 90 104l103 723q4 16 16 16h10q16 0 13 -16l-129 -914q-4 -16 -17 -16h-10
q-14 0 -10 16l16 125q-143 -164 -315 -164q-330 0 -269 435l74 520q2 14 17 14h8q16 0 12 -16l-72 -518q-59 -398 230 -398z" />
    <glyph glyph-name="Uring" unicode="&#x16e;" horiz-adv-x="1366" 
d="M828 1571q69 0 125 59q57 60 57 134t-36 118t-104 45q-68 0 -122 -60q-56 -61 -56 -135t34 -118t102 -43zM872 1962q80 0 126 -53t46 -142t-68 -160t-148 -71q-81 0 -127 52t-46 141t68 161t149 72zM348 1434q14 0 10 -15l-125 -903q-8 -47 -8 -102q-1 -182 99 -290
t290 -108t329 138q140 138 171 362l127 903q4 14 16 15h11q14 0 10 -15l-127 -903q-35 -244 -179 -390t-376 -146q-188 0 -298 118t-110 314q1 34 9 104l127 903q4 14 14 15h10z" />
    <glyph glyph-name="uring" unicode="&#x16f;" horiz-adv-x="1015" 
d="M608 1436q-68 0 -123 -60t-55 -135q0 -74 34 -118t102 -44q69 -1 125 59q57 60 57 134t-36 119t-104 45zM782 1275q0 -89 -68 -160t-148 -71q-81 0 -127 52t-46 142q0 89 68 161q69 71 149 71t126 -53t46 -142zM414 14q139 0 233 89q67 65 90 104l103 723q4 16 16 16h10
q16 0 13 -16l-129 -914q-4 -16 -17 -16h-10q-14 0 -10 16l16 125q-143 -164 -315 -164q-330 0 -269 435l74 520q2 14 17 14h8q16 0 12 -16l-72 -518q-59 -398 230 -398z" />
    <glyph glyph-name="Uhungarumlaut" unicode="&#x170;" horiz-adv-x="1366" 
d="M647 1550l-10 6q-10 6 -2 19l246 354q8 10 23 1t7 -21l-247 -355q-9 -10 -17 -4zM952 1550l-10 6q-8 8 0 19l246 354q8 10 22 1t7 -21l-246 -355q-11 -10 -19 -4zM348 1434q14 0 10 -15l-125 -903q-8 -47 -8 -102q-1 -182 99 -290t290 -108t329 138q140 138 171 362
l127 903q4 14 16 15h11q14 0 10 -15l-127 -903q-35 -244 -179 -390t-376 -146q-188 0 -298 118t-110 314q1 34 9 104l127 903q4 14 14 15h10z" />
    <glyph glyph-name="uhungarumlaut" unicode="&#x171;" horiz-adv-x="1015" 
d="M410 1051l-11 6q-8 8 0 18l244 355q10 10 25 0q14 -11 6 -21l-248 -354q-8 -10 -16 -4zM733 1055q-9 -11 -22 -1q-14 9 -6 21l245 355q8 10 23 0q14 -11 6 -21zM414 14q139 0 233 89q67 65 90 104l103 723q4 16 16 16h10q16 0 13 -16l-129 -914q-4 -16 -17 -16h-10
q-14 0 -10 16l16 125q-143 -164 -315 -164q-330 0 -269 435l74 520q2 14 17 14h8q16 0 12 -16l-72 -518q-59 -398 230 -398z" />
    <glyph glyph-name="Uogonek" unicode="&#x172;" horiz-adv-x="1366" 
d="M348 1434q14 0 10 -15l-125 -903q-33 -223 67 -361q100 -139 301 -139q202 0 342 138t171 362l127 903q4 14 16 15h11q14 0 10 -15l-127 -903q-29 -201 -133 -338t-270 -180q-215 -106 -271 -211q-27 -51 -27 -109t34 -93q32 -36 104 -36t131 48q10 8 18 -3l8 -12
q4 -10 -12 -20q-82 -49 -160 -49q-79 0 -119 45t-40 116q0 172 227 308l-45 -2q-213 0 -324 149q-110 149 -75 387l127 903q4 14 14 15h10z" />
    <glyph glyph-name="uogonek" unicode="&#x173;" horiz-adv-x="1013" 
d="M414 14q139 0 233 89q67 65 90 104l103 723q4 16 16 16h10q16 0 13 -16l-129 -912q-2 -12 -15 -18q-215 -102 -274 -213q-27 -51 -27 -109t33 -93q33 -36 105 -36t130 48q11 9 27 -15q4 -10 -12 -20q-82 -49 -160 -49t-119 45t-41 116q0 115 86 198t232 157l14 112
q-143 -164 -315 -164q-330 0 -269 435l74 520q2 14 17 14h8q16 0 12 -16l-72 -518q-59 -398 230 -398z" />
    <glyph glyph-name="Wcircumflex" unicode="&#x174;" horiz-adv-x="1648" 
d="M731 1563q-8 -4 -14 2q-12 20 -4 26t10 8l260 209q10 6 16 0l207 -217q10 -10 -2 -21t-18 -5l-197 207zM942 1460q10 0 12 -10l160 -1384l535 1366q4 10 21 3t11 -20l-565 -1440q-6 -17 -15 -12q-9 6 -9 12l-162 1389l-535 -1389q-6 -17 -15 -12q-9 6 -9 12l-176 1446
q0 10 8 13l18 4q4 2 7 -2t3 -9l164 -1364l533 1387q4 10 14 10z" />
    <glyph glyph-name="wcircumflex" unicode="&#x175;" horiz-adv-x="1304" 
d="M502 1122q-8 -4 -15 2l-6 11q-6 10 6 20q4 2 7 4l260 209q10 6 16 0l207 -217q10 -8 -2 -21t-19 -6l-196 207zM704 987q12 0 17 -16l125 -920l389 901q6 10 14 9l15 -7q10 -2 4 -16l-414 -963q-8 -10 -18 -11t-15 11l-125 926l-385 -926q-6 -10 -17 -11t-13 11l-148 963
q-4 18 8 20q23 6 27 -8l137 -897l383 920q4 14 16 14z" />
    <glyph glyph-name="Ycircumflex" unicode="&#x176;" horiz-adv-x="1042" 
d="M426 1563q-8 -4 -14 2q-12 20 -4 26t10 8l260 209q10 6 16 0l207 -217q8 -10 -3 -21t-17 -5l-197 207zM440 0h-12q-12 0 -10 14l96 688l-385 707q-8 12 9 21t24 -3l373 -690l571 693q8 12 16 6l15 -9q12 -6 0 -18l-586 -704l-96 -693q-4 -12 -15 -12z" />
    <glyph glyph-name="ycircumflex" unicode="&#x177;" horiz-adv-x="901" 
d="M309 1122q-8 -4 -14 2l-6 11q-6 10 6 20q4 2 6 4l260 209q10 6 17 0l206 -217q10 -8 -2 -21t-18 -6l-197 207zM354 20l-243 916q-4 12 6 16q24 8 28 -4l234 -887l475 891q8 12 18 6l11 -4q12 -6 6 -18l-768 -1425q-7 -13 -27 -3q-10 8 -4 21z" />
    <glyph glyph-name="Ydieresis" unicode="&#x178;" horiz-adv-x="1042" 
d="M479 1655q-39 0 -39 39q0 23 16 38t36 15q39 0 38 -41q0 -23 -16 -37t-35 -14zM862 1655q-39 0 -39 39q-1 25 15 39t36 14q37 0 37 -41q1 -23 -15 -37t-34 -14zM440 0h-12q-12 0 -10 14l96 688l-385 707q-8 12 9 21t24 -3l373 -690l571 693q8 12 16 6l15 -9q12 -6 0 -18
l-586 -704l-96 -693q-4 -12 -15 -12z" />
    <glyph glyph-name="Zacute" unicode="&#x179;" horiz-adv-x="974" 
d="M510 1591q-10 -4 -16 6l-7 13q-4 8 9 14l360 186q10 4 20 -12t-6 -22zM-16 0q-8 0 -12 7q-3 7 3 16l996 1374h-729q-14 0 -10 18q5 18 16 19h770q8 0 11 -8t-1 -15l-997 -1374h753q14 -1 10 -19q-5 -18 -18 -18h-792z" />
    <glyph glyph-name="zacute" unicode="&#x17a;" horiz-adv-x="806" 
d="M369 1145q-12 -5 -19 11q-8 15 4 22l361 186q10 4 19 -12t-5 -23zM2 0q-10 0 -13 8t5 19l719 882h-525q-18 0 -14 15l2 10q2 12 17 12h569q10 0 14 -8t-4 -18l-721 -883h559q16 0 11 -23q-2 -14 -17 -14h-602z" />
    <glyph glyph-name="Zdotaccent" unicode="&#x17b;" horiz-adv-x="974" 
d="M666 1677q-41 0 -41 43q0 20 17 38t38 18q39 0 39 -43q0 -23 -15 -39t-38 -17zM-16 0q-8 0 -12 7q-3 7 3 16l996 1374h-729q-14 0 -10 18q5 18 16 19h770q8 0 11 -8t-1 -15l-997 -1374h753q14 -1 10 -19q-5 -18 -18 -18h-792z" />
    <glyph glyph-name="zdotaccent" unicode="&#x17c;" horiz-adv-x="806" 
d="M496 1239q-41 0 -41 43q0 20 16 38t39 17q39 0 39 -43q0 -23 -15 -39t-38 -16zM2 0q-10 0 -13 8t5 19l719 882h-525q-18 0 -14 15l2 10q2 12 17 12h569q10 0 14 -8t-4 -18l-721 -883h559q16 0 11 -23q-2 -14 -17 -14h-602z" />
    <glyph glyph-name="Zcaron" unicode="&#x17d;" horiz-adv-x="974" 
d="M631 1579l-207 217q-10 10 2 22t18 5l197 -207l258 209q8 4 14 -2q13 -21 5 -27q-9 -6 -11 -8l-260 -209q-10 -6 -16 0zM-16 0q-8 0 -12 7q-3 7 3 16l996 1374h-729q-14 0 -10 18q5 18 16 19h770q8 0 11 -8t-1 -15l-997 -1374h753q14 -1 10 -19q-5 -18 -18 -18h-792z" />
    <glyph glyph-name="zcaron" unicode="&#x17e;" horiz-adv-x="806" 
d="M477 1133l-207 217q-8 10 3 21t18 5l196 -207l258 209q8 4 15 -2q12 -20 4 -26t-10 -9l-260 -208q-11 -6 -17 0zM2 0q-10 0 -13 8t5 19l719 882h-525q-18 0 -14 15l2 10q2 12 17 12h569q10 0 14 -8t-4 -18l-721 -883h559q16 0 11 -23q-2 -14 -17 -14h-602z" />
    <glyph glyph-name="florin" unicode="&#x192;" horiz-adv-x="720" 
d="M102 782q-16 0 -11 18t15 19h201l39 275q25 178 112 269t215 91t195 -88q9 -11 -6 -24q-14 -13 -22 -3q-63 78 -174 78t-186 -81t-99 -242l-37 -275h330q16 0 11 -18t-17 -19h-330l-129 -929q-25 -177 -112 -269t-216 -92t-196 88q-10 12 5 25q15 12 23 2q63 -78 174 -78
t187 81q75 81 98 243l129 929h-199z" />
    <glyph glyph-name="Aringacute" unicode="&#x1fa;" horiz-adv-x="1208" 
d="M231 465h725l-225 944h-2zM748 1483q69 0 126 60q58 61 58 135t-37 120t-105 45q-68 0 -123 -61q-57 -62 -57 -136t34 -118t104 -45zM575 1646q0 86 68 158t149 72t127 -53t46 -140q1 -87 -63 -158t-148 -75l348 -1434q2 -10 -14 -16t-19 4l-102 426h-756l-225 -428
q-5 -9 -21 -4q-16 6 -12 16l762 1438q-63 8 -102 58q-38 50 -38 136zM645 1919q-10 -4 -16 6l-6 12q-4 8 8 15l360 186q11 4 20 -12t-5 -23z" />
    <glyph glyph-name="aringacute" unicode="&#x1fb;" horiz-adv-x="1064" 
d="M139 401q0 -167 86 -277t226 -110q106 0 200 60t140 133l81 581q-25 57 -112 99q-87 43 -170 43q-188 0 -320 -153t-131 -376zM102 399q0 240 142 404t336 164t301 -123l16 86q4 16 12 16h11q14 0 10 -16l-127 -914q-4 -16 -17 -16h-10q-14 0 -10 16l16 121
q-43 -57 -136 -108t-195 -52q-161 0 -255 120t-94 302zM535 1479q-12 -5 -19 11q-8 15 4 21l361 187q10 4 19 -12t-5 -23zM678 1440q-68 0 -124 -62t-56 -135q0 -74 34 -119t104 -45q69 1 126 61t57 134t-37 120q-36 46 -104 46zM679 1473q81 1 127 -53t46 -143t-68 -159
t-148 -71q-81 0 -127 52t-46 141t67 161q68 72 149 72z" />
    <glyph glyph-name="AEacute" unicode="&#x1fc;" horiz-adv-x="1720" 
d="M1169 1593q-10 -4 -16 6l-6 13q-4 8 8 14l361 186q10 4 19 -12t-5 -22zM287 465h520l125 889zM1704 1434q16 0 11 -18t-15 -19h-727l-90 -633h639q12 0 12 -18t-18 -19h-637l-99 -690h727q16 -1 12 -19q-5 -18 -16 -18h-747q-16 0 -13 14l58 416h-539l-311 -430
q-6 -8 -22 1q-15 9 -7 19l1022 1407q2 6 14 7h746z" />
    <glyph glyph-name="aeacute" unicode="&#x1fd;" horiz-adv-x="1542" 
d="M760 1145q-12 -5 -19 11q-8 15 4 22l361 186q10 4 19 -12t-5 -23zM1001 14q150 0 289 105q8 6 15 -4l8 -13q4 -8 -8 -20q-45 -37 -130 -71t-181 -34q-96 1 -179 45q-84 44 -125 109q-60 -59 -164 -106t-218 -47t-182 72q-68 73 -69 200q0 162 118 265t302 103
q135 0 252 -55q29 203 -4 285t-184 82q-114 0 -182 -31q-24 -10 -58 -29l-35 -18q-12 -6 -20 11t6 24q121 80 295 80q205 0 231 -148q137 147 350 148q148 0 238 -74q90 -73 90 -193t-135 -196t-356 -74q-107 0 -213 16l-37 -278q90 -154 286 -154zM94 254q0 -112 56 -176
t162 -64q108 0 210 49t152 103l51 356q-2 0 -35 14q-107 44 -215 46q-165 0 -273 -92t-108 -236zM1419 700q0 104 -80 166q-79 64 -195 64t-211 -45t-151 -119q3 -50 -24 -283q82 -16 207 -16q205 -3 329 63t125 170z" />
    <glyph glyph-name="Oslashacute" unicode="&#x1fe;" horiz-adv-x="1599" 
d="M795 1591q-10 -4 -17 6l-6 13q-4 8 8 14l361 186q10 4 19 -12t-5 -22zM730 16q282 0 504 234t222 559q0 223 -104 381l-1051 -971q147 -203 429 -203zM279 246l1052 971q-158 201 -416 200q-293 1 -514 -235t-221 -566q1 -220 99 -370zM143 616q-1 344 231 591t541 247
q135 0 251 -56t192 -157l145 133q11 11 20 -3q9 -15 1 -23l-146 -134q115 -176 115 -403q0 -342 -232 -587q-233 -244 -531 -244t-460 213l-141 -130q-11 -5 -21 5t3 22l141 131q-109 168 -109 395z" />
    <glyph glyph-name="oslashacute" unicode="&#x1ff;" horiz-adv-x="1099" 
d="M516 1145q-10 -4 -16 6l-6 12q-4 8 8 15l360 186q11 4 20 -12t-5 -23zM137 403q0 -119 47 -208l682 587q-94 148 -271 148t-317 -157t-141 -370zM932 545q0 115 -45 205l-684 -586q98 -150 274 -150t316 158q139 158 139 373zM100 403q0 231 151 397t344 167
q193 0 298 -158l70 59q14 10 24 -4t0 -28l-72 -64q53 -100 54 -227q0 -233 -150 -401t-345 -167q-195 0 -300 162l-51 -45q-13 -14 -24 2t1 29l54 45q-54 102 -54 233z" />
    <glyph glyph-name="Scommaaccent" unicode="&#x218;" horiz-adv-x="1050" 
d="M348 -254q0 20 18 36q18 17 42 17q70 0 69 -98q0 -137 -98 -211q-12 -10 -19 0l-8 12q-8 12 8 23q74 55 74 160q0 14 -4 28q-12 -12 -34 -12q-48 1 -48 45zM459 14q168 0 295 102t127 246q0 146 -86 220t-259 135t-254 133t-81 218t116 266q117 120 332 120q84 0 162 -27
t115 -51l35 -26q8 -8 2 -17l-11 -12q-6 -10 -16 -4q-34 34 -123 69q-88 34 -164 33q-201 1 -307 -109t-106 -242t76 -198t251 -127q176 -61 264 -141t88 -238t-134 -272q-134 -113 -322 -112q-78 0 -150 22q-73 22 -117 52q-129 91 -106 114l12 10q8 8 17 -2
q44 -69 147 -116q103 -46 197 -46z" />
    <glyph glyph-name="scommaaccent" unicode="&#x219;" horiz-adv-x="823" 
d="M276 -262q-22 0 -34 12t-13 32t17 37t43 17q70 0 69 -98q0 -137 -98 -211q-12 -10 -18 0l-9 12q-8 12 9 23q74 55 73 159q0 14 -4 29q-13 -12 -35 -12zM326 -23q-150 0 -260 105q-12 12 3 27t25 6q94 -101 230 -101t226 68q89 68 89 168q0 68 -42 113q-42 44 -102 67
q-61 24 -152 57t-148 88t-57 145t83 169q83 78 229 78t238 -72q11 -9 0 -25q-12 -16 -24 -8q-94 68 -218 68t-198 -66t-74 -144t52 -122q52 -45 141 -80t153 -61t92 -59q62 -70 64 -148q0 -117 -100 -195t-250 -78z" />
    <glyph glyph-name="uni021A" unicode="&#x21a;" horiz-adv-x="948" 
d="M291 -224q0 20 17 37t42 17q70 0 70 -98q0 -137 -98 -211q-12 -10 -19 0l-8 12q-8 12 8 23q74 55 74 159q0 14 -4 29q-13 -12 -35 -12q-48 0 -47 44zM184 1397q-16 0 -12 18t16 19h803q18 0 13 -18t-17 -19h-385l-194 -1383q-4 -14 -17 -14h-8q-16 0 -12 14l194 1383
h-381z" />
    <glyph glyph-name="uni021B" unicode="&#x21b;" horiz-adv-x="659" 
d="M217 -224q0 20 17 37t42 17q70 0 70 -98q0 -137 -98 -211q-12 -10 -19 0l-8 12q-8 12 8 23q74 55 74 159q0 14 -4 29q-13 -12 -35 -12q-48 0 -47 44zM303 -23q-113 0 -141 71t-10 206l92 655h-94q-12 0 -9 17l2 4q4 16 15 16h92l35 256q4 14 12 15h10q16 0 12 -15
l-32 -256h344q18 0 14 -16l-2 -4q-4 -16 -18 -17h-344l-93 -655q-23 -100 -1 -170t116 -70q123 0 240 78q12 8 20 -4l6 -12q6 -8 -6 -17q-39 -25 -115 -53t-145 -29z" />
    <glyph glyph-name="dotlessj" unicode="&#x237;" horiz-adv-x="403" 
d="M248 946h8q16 0 12 -16l-149 -1063q-23 -170 -100 -258t-218 -119q-18 -2 -20 10l-2 11q-2 12 16 16q129 31 197 107t90 233l149 1063q4 16 17 16z" />
    <glyph glyph-name="circumflex" unicode="&#x2c6;" horiz-adv-x="688" 
d="M150 1122q-8 -4 -15 2l-6 11q-6 10 6 20q4 2 6 4l260 209q10 6 17 0l207 -217q9 -9 -3 -21t-18 -6l-196 207z" />
    <glyph glyph-name="caron" unicode="&#x2c7;" horiz-adv-x="688" 
d="M369 1133l-207 217q-10 10 2 21t18 5l197 -207l258 209q8 4 14 -2q12 -20 4 -26t-10 -9l-260 -208q-10 -6 -16 0z" />
    <glyph glyph-name="uni02C9" unicode="&#x2c9;" horiz-adv-x="763" 
d="M168 1243q-16 1 -11 19t17 18h528q16 0 12 -18q-5 -18 -16 -19h-530z" />
    <glyph glyph-name="breve" unicode="&#x2d8;" horiz-adv-x="636" 
d="M352 1116q-90 0 -146 62t-56 157q0 16 10 17h12q10 0 10 -13q-2 -82 47 -134t126 -52t140 52q62 52 87 134q4 12 12 13h16q12 0 8 -17q-28 -95 -102 -157t-164 -62z" />
    <glyph glyph-name="dotaccent" unicode="&#x2d9;" horiz-adv-x="403" 
d="M248 1214q-41 0 -41 43q0 19 17 37t38 19q39 0 39 -43q0 -24 -15 -40t-38 -16z" />
    <glyph glyph-name="ring" unicode="&#x2da;" horiz-adv-x="534" 
d="M160 1220q0 -162 136 -161q69 0 125 59q56 60 56 134t-36 118q-35 44 -103 45q-68 0 -123 -60q-55 -61 -55 -135zM512 1255q0 -89 -68 -160t-148 -71q-81 0 -127 52t-46 141t67 161q68 72 149 72t127 -53t46 -142z" />
    <glyph glyph-name="ogonek" unicode="&#x2db;" horiz-adv-x="565" 
d="M92 -322q0 -58 33 -93q33 -36 105 -36t130 48q12 8 19 -3l8 -12q4 -10 -12 -20q-82 -49 -160 -49t-119 45t-41 116q0 117 88 201t238 160l16 -33q-223 -113 -277 -214q-28 -52 -28 -110z" />
    <glyph glyph-name="tilde" unicode="&#x2dc;" horiz-adv-x="700" 
d="M293 1389q49 0 76 -35t33 -76q15 -111 83 -111q84 0 144 148q6 14 14 12l14 -4q14 -4 7 -18q-76 -172 -183 -172q-47 1 -73 35t-35 75q-22 111 -84 111q-37 0 -76 -39t-70 -111q-6 -14 -14 -10l-14 4q-12 2 -6 19q72 172 184 172z" />
    <glyph glyph-name="hungarumlaut" unicode="&#x2dd;" horiz-adv-x="722" 
d="M152 1051l-11 6q-8 8 0 18l244 355q10 10 25 0t6 -21l-248 -354q-8 -10 -16 -4zM475 1055q-9 -11 -22 -1q-14 9 -7 21l246 355q8 10 23 0q14 -11 6 -21z" />
    <glyph glyph-name="uni0394" unicode="&#x394;" horiz-adv-x="1290" 
d="M49 37h1047l-324 1360zM25 0q-16 0 -21 4q-4 4 6 35l758 1429q4 8 10 9h4q4 0 9 -9l346 -1433q10 -35 -27 -35h-1085z" />
    <glyph glyph-name="uni03A9" unicode="&#x3a9;" horiz-adv-x="1601" 
d="M145 576q-1 170 57 322q126 333 405 478q148 78 315 78q246 0 410 -179t163 -437q0 -258 -137 -474t-369 -327h340q16 0 11 -18t-15 -19h-438q-14 0 -9 18t13 19q247 76 407 300t160 484t-152 428q-153 168 -388 168q-199 0 -371 -119t-268 -307q-97 -188 -97 -393
q0 -206 104 -358t277 -203q16 0 11 -18t-15 -19h-438q-16 0 -11 19t15 18h342q-150 74 -236 221q-86 148 -86 318z" />
    <glyph glyph-name="uni03BC" unicode="&#x3bc;" horiz-adv-x="1038" 
d="M899 946h10q16 0 13 -16l-129 -914q-4 -16 -17 -16h-10q-14 0 -10 16l16 125q-143 -164 -315 -164q-219 0 -267 185l-88 -633q-4 -16 -16 -16h-8q-18 0 -15 16l199 1403q2 14 17 14h8q16 0 12 -16l-72 -518q-27 -202 29 -300t198 -98t236 89q67 65 90 104l103 723
q4 16 16 16z" />
    <glyph glyph-name="pi" unicode="&#x3c0;" horiz-adv-x="1183" 
d="M221 0q-14 0 -10 16l127 893h-232q-13 0 -8 23q2 14 19 14h1059q13 0 8 -18q-4 -18 -15 -19h-229l-125 -893q-4 -16 -16 -16h-11q-16 0 -12 16l129 893h-530l-125 -893q-4 -16 -17 -16h-12z" />
    <glyph glyph-name="Wgrave" unicode="&#x1e80;" horiz-adv-x="1648" 
d="M1124 1595l-309 185q-10 6 -1 20t22 10l307 -186q8 -5 0 -22q-9 -13 -19 -7zM942 1460q10 0 12 -10l160 -1384l535 1366q4 10 21 3t11 -20l-565 -1440q-6 -17 -15 -12q-9 6 -9 12l-162 1389l-535 -1389q-6 -17 -15 -12q-9 6 -9 12l-176 1446q0 10 8 13l18 4q4 2 7 -2
t3 -9l164 -1364l533 1387q4 10 14 10z" />
    <glyph glyph-name="wgrave" unicode="&#x1e81;" horiz-adv-x="1304" 
d="M854 1147l-309 184q-10 6 -1 21q9 14 21 10l307 -186q10 -6 1 -21q-9 -14 -19 -8zM704 987q12 0 17 -16l125 -920l389 901q6 10 14 9l15 -7q10 -2 4 -16l-414 -963q-8 -10 -18 -11t-15 11l-125 926l-385 -926q-6 -10 -17 -11t-13 11l-148 963q-4 18 8 20q23 6 27 -8
l137 -897l383 920q4 14 16 14z" />
    <glyph glyph-name="Wacute" unicode="&#x1e82;" horiz-adv-x="1648" 
d="M803 1591q-10 -4 -17 6l-6 13q-4 8 8 14l361 186q10 4 19 -12t-5 -22zM942 1460q10 0 12 -10l160 -1384l535 1366q4 10 21 3t11 -20l-565 -1440q-6 -17 -15 -12q-9 6 -9 12l-162 1389l-535 -1389q-6 -17 -15 -12q-9 6 -9 12l-176 1446q0 10 8 13l18 4q4 2 7 -2t3 -9
l164 -1364l533 1387q4 10 14 10z" />
    <glyph glyph-name="wacute" unicode="&#x1e83;" horiz-adv-x="1304" 
d="M616 1145q-10 -4 -16 6l-6 12q-4 8 8 15l361 186q10 4 19 -12t-5 -23zM704 987q12 0 17 -16l125 -920l389 901q6 10 14 9l15 -7q10 -2 4 -16l-414 -963q-8 -10 -18 -11t-15 11l-125 926l-385 -926q-6 -10 -17 -11t-13 11l-148 963q-4 18 8 20q23 6 27 -8l137 -897
l383 920q4 14 16 14z" />
    <glyph glyph-name="Wdieresis" unicode="&#x1e84;" horiz-adv-x="1648" 
d="M780 1655q-39 0 -39 39q-1 23 15 38t37 15q39 0 38 -41q1 -23 -15 -37t-36 -14zM1163 1655q-39 0 -39 39q0 25 16 39t36 14q37 0 36 -41q0 -23 -16 -37t-33 -14zM942 1460q10 0 12 -10l160 -1384l535 1366q4 10 21 3t11 -20l-565 -1440q-6 -17 -15 -12q-9 6 -9 12
l-162 1389l-535 -1389q-6 -17 -15 -12q-9 6 -9 12l-176 1446q0 10 8 13l18 4q4 2 7 -2t3 -9l164 -1364l533 1387q4 10 14 10z" />
    <glyph glyph-name="wdieresis" unicode="&#x1e85;" horiz-adv-x="1304" 
d="M573 1239q-39 0 -38 39q0 23 15 38t36 15q36 0 36 -46t-49 -46zM922 1239q-37 0 -37 39q0 20 15 36t34 17q39 0 39 -41q1 -23 -15 -37t-36 -14zM704 987q12 0 17 -16l125 -920l389 901q6 10 14 9l15 -7q10 -2 4 -16l-414 -963q-8 -10 -18 -11t-15 11l-125 926l-385 -926
q-6 -10 -17 -11t-13 11l-148 963q-4 18 8 20q23 6 27 -8l137 -897l383 920q4 14 16 14z" />
    <glyph glyph-name="Ygrave" unicode="&#x1ef2;" horiz-adv-x="1042" 
d="M817 1595l-309 185q-10 6 -1 20t21 10l308 -186q8 -5 0 -22q-9 -13 -19 -7zM440 0h-12q-12 0 -10 14l96 688l-385 707q-8 12 9 21t24 -3l373 -690l571 693q8 12 16 6l15 -9q12 -6 0 -18l-586 -704l-96 -693q-4 -12 -15 -12z" />
    <glyph glyph-name="ygrave" unicode="&#x1ef3;" horiz-adv-x="901" 
d="M655 1147l-309 184q-10 6 -1 21q9 14 22 10l307 -186q9 -5 0 -23q-9 -12 -19 -6zM354 20l-243 916q-4 12 6 16q24 8 28 -4l234 -887l475 891q8 12 18 6l11 -4q12 -6 6 -18l-768 -1425q-7 -13 -27 -3q-10 8 -4 21z" />
    <glyph glyph-name="endash" unicode="&#x2013;" horiz-adv-x="1044" 
d="M143 498q-16 0 -11 18t15 19h734q16 -1 11 -19t-15 -18h-734z" />
    <glyph glyph-name="emdash" unicode="&#x2014;" horiz-adv-x="1443" 
d="M141 498q-14 0 -9 18t15 19h1133q16 -1 11 -19t-17 -18h-1133z" />
    <glyph glyph-name="quoteleft" unicode="&#x2018;" horiz-adv-x="405" 
d="M348 1088q0 -20 -18 -37t-50 -17t-52 40q-19 40 -19 97q0 166 147 275q16 12 23 0l6 -12q6 -12 -8 -23q-127 -90 -127 -240q0 -35 10 -59q20 20 42 20t34 -12t12 -32z" />
    <glyph glyph-name="quoteright" unicode="&#x2019;" horiz-adv-x="401" 
d="M240 1402q0 20 18 36t50 16t51 -40t20 -97q0 -166 -148 -275q-16 -10 -22 0l-6 13q-6 12 8 22q127 90 127 240q0 35 -10 59q-20 -20 -42 -20q-46 0 -46 46z" />
    <glyph glyph-name="quotesinglbase" unicode="&#x201a;" horiz-adv-x="364" 
d="M47 26q1 20 19 36t50 16t51 -40t19 -97q0 -166 -147 -275q-16 -10 -23 0l-6 12q-6 12 8 23q127 90 127 240q0 35 -10 59q-19 -20 -41 -20q-46 0 -47 46z" />
    <glyph glyph-name="quotedblleft" unicode="&#x201c;" horiz-adv-x="733" 
d="M676 1088q0 -20 -18 -37t-51 -17q-32 0 -51 40t-19 97q0 166 147 275q16 12 23 0l6 -12q6 -12 -8 -23q-127 -90 -127 -240q0 -35 10 -59q20 20 42 20t34 -12t12 -32zM348 1088q0 -20 -18 -37t-50 -17t-52 40q-19 40 -19 97q0 166 147 275q16 12 23 0l6 -12q6 -12 -8 -23
q-127 -90 -127 -240q0 -35 10 -59q20 20 42 20t34 -12t12 -32z" />
    <glyph glyph-name="quotedblright" unicode="&#x201d;" horiz-adv-x="729" 
d="M614 1356q-22 0 -34 12t-13 34q1 20 19 36t50 16t51 -40t20 -97q0 -166 -148 -275q-16 -10 -22 0l-7 13q-6 12 9 22q127 90 127 240q0 35 -11 59q-19 -20 -41 -20zM240 1402q0 20 18 36t50 16t51 -40t20 -97q0 -166 -148 -275q-16 -10 -22 0l-6 13q-6 12 8 22
q127 90 127 240q0 35 -10 59q-20 -20 -42 -20q-46 0 -46 46z" />
    <glyph glyph-name="quotedblbase" unicode="&#x201e;" horiz-adv-x="692" 
d="M375 26q0 20 18 36t50 16q31 0 51 -40t20 -97q0 -166 -147 -275q-16 -10 -23 0l-6 12q-6 12 8 23q127 90 127 240q0 35 -10 59q-19 -20 -41 -20q-46 0 -47 46zM47 26q1 20 19 36t50 16t51 -40t19 -97q0 -166 -147 -275q-16 -10 -23 0l-6 12q-6 12 8 23q127 90 127 240
q0 35 -10 59q-19 -20 -41 -20q-46 0 -47 46z" />
    <glyph glyph-name="dagger" unicode="&#x2020;" horiz-adv-x="1015" 
d="M121 782q-16 0 -11 18t15 19h395l86 600q0 14 15 15h10q12 0 12 -15l-84 -600h395q16 0 12 -18q-5 -18 -16 -19h-397l-176 -1255q-4 -14 -17 -14h-8q-16 0 -12 14l176 1255h-395z" />
    <glyph glyph-name="daggerdbl" unicode="&#x2021;" horiz-adv-x="1073" 
d="M100 37h340l109 782h-395q-16 1 -11 19q4 18 17 18h395l80 563q0 14 18 15h6q12 0 13 -15l-80 -563h397q16 0 11 -18t-17 -19h-395l-111 -782h342q16 0 11 -18t-17 -19h-342l-65 -473q-4 -14 -17 -14h-8q-16 0 -12 14l65 473h-340q-14 0 -10 18t16 19z" />
    <glyph glyph-name="bullet" unicode="&#x2022;" horiz-adv-x="542" 
d="M254 449q-31 0 -48 19q-18 19 -18 51t25 59q25 26 57 26t49 -20q19 -20 19 -52t-26 -58t-58 -25z" />
    <glyph glyph-name="ellipsis" unicode="&#x2026;" horiz-adv-x="1060" 
d="M152 49q0 -23 -16 -39t-34 -16q-20 0 -32 14t-11 32q1 20 17 35t37 15q39 0 39 -41zM410 40q0 20 15 35t35 15t30 -12q12 -12 12 -32t-16 -36t-35 -16q-18 0 -30 13q-11 13 -11 33zM816 90q42 0 42 -44q0 -20 -16 -36t-39 -16q-37 0 -37 43q0 23 15 38t35 15z" />
    <glyph glyph-name="perthousand" unicode="&#x2030;" horiz-adv-x="1898" 
d="M928 522q-94 0 -173 -84t-79 -190q0 -104 53 -168t147 -64t173 85q77 85 77 189t-52 168t-146 64zM1731 290q-1 104 -53 168t-146 64t-173 -84t-79 -190q0 -104 53 -168t147 -64t173 85q78 85 78 189zM878 -20q-108 0 -174 72t-65 194q0 122 89 218q90 96 198 95
q108 0 174 -74t65 -178q0 -137 -90 -232q-89 -95 -197 -95zM1482 -20q-108 0 -174 72t-65 194q0 122 89 218q90 96 198 95q108 0 174 -74t65 -178q0 -137 -90 -232q-89 -95 -197 -95zM684 1186q0 104 -54 168t-148 63q-94 0 -172 -85q-78 -86 -79 -190t53 -168t147 -63
q93 0 173 85q80 86 80 190zM170 8q-6 6 0 17l963 1405q6 10 14 2l12 -7q10 -6 2 -16l-962 -1405q-8 -10 -15 -6zM482 1454q108 0 172 -73t65 -195q0 -122 -89 -216q-90 -96 -198 -96t-173 74t-64 178q0 136 89 232q90 96 198 96z" />
    <glyph glyph-name="guilsinglleft" unicode="&#x2039;" horiz-adv-x="499" 
d="M276 127l-174 352q-4 6 2 17l273 348q7 12 22 1q14 -11 7 -20l-265 -340l166 -342q4 -12 -11 -19q-16 -7 -20 3z" />
    <glyph glyph-name="guilsinglright" unicode="&#x203a;" horiz-adv-x="497" 
d="M68 145l262 344l-166 338q-6 11 9 19t22 -2l174 -348q2 -8 -2 -17l-273 -352q-12 -12 -22 -1t-4 19z" />
    <glyph glyph-name="fraction" unicode="&#x2044;" horiz-adv-x="286" 
d="M-305 4q-6 -11 -21 -1q-16 11 -8 24l967 1405q7 10 21 -3q13 -12 5 -20z" />
    <glyph glyph-name="zerosuperior" unicode="&#x2070;" horiz-adv-x="632" 
d="M461 1624q-100 0 -167 -101t-67 -270q0 -98 40 -151t114 -53q100 0 168 100t67 266q0 209 -155 209zM375 1012q-86 0 -134 63t-48 176q0 184 76 296q77 112 198 112q86 0 136 -66t50 -180q1 -181 -79 -291t-199 -110z" />
    <glyph glyph-name="foursuperior" unicode="&#x2074;" horiz-adv-x="624" 
d="M201 1206h309l53 375zM498 1032q-14 0 -11 15l19 124h-354q-8 -1 -12 7t3 16l439 457q10 6 17 3t5 -14l-61 -434h92q14 0 10 -17t-14 -18h-92l-19 -124q-4 -14 -14 -15h-8z" />
    <glyph glyph-name="fivesuperior" unicode="&#x2075;" horiz-adv-x="579" 
d="M393 1386h-157q-16 0 -13 15l31 223q4 14 16 14h295q14 0 9 -18t-15 -18h-274l-25 -179h137q201 0 201 -161q0 -106 -74 -175t-184 -75q-104 0 -172 80q-8 10 8 26t21 2q53 -72 143 -72t156 61q66 60 65 148q0 129 -168 129z" />
    <glyph glyph-name="sixsuperior" unicode="&#x2076;" horiz-adv-x="581" 
d="M374 1049q75 0 134 63q59 62 59 138t-40 114t-99 39q-58 0 -110 -28t-72 -56l-23 -27q-4 -37 -4 -53q0 -84 40 -137t115 -53zM180 1235q0 151 102 269t255 173q16 6 16 -8v-14q0 -10 -8 -15q-104 -34 -214 -142q-67 -67 -95 -142q96 86 182 86t136 -50t50 -140t-68 -162
t-167 -78q-88 0 -139 62q-50 62 -50 161z" />
    <glyph glyph-name="sevensuperior" unicode="&#x2077;" horiz-adv-x="499" 
d="M219 1602q-14 0 -9 18t15 18h359q20 0 8 -20l-373 -584q-8 -12 -22 -3t-7 24l349 547h-320z" />
    <glyph glyph-name="eightsuperior" unicode="&#x2078;" horiz-adv-x="604" 
d="M215 1161q0 -112 159 -112q73 1 128 39t55 114q0 106 -151 117q-88 -4 -140 -47t-51 -111zM584 1505q0 117 -138 117q-82 0 -127 -43t-45 -97q0 -106 140 -114q76 2 123 42t47 95zM598 1210q0 -100 -66 -149t-157 -49q-90 0 -146 37q-55 37 -55 107t45 120q45 51 119 70
q-102 34 -102 118t54 140t148 55q94 0 141 -42q46 -41 46 -103t-40 -108t-106 -65q119 -31 119 -131z" />
    <glyph glyph-name="ninesuperior" unicode="&#x2079;" horiz-adv-x="581" 
d="M367 1268q59 0 108 28t70 56l20 26q4 41 4 58q0 84 -38 135q-37 51 -111 51t-133 -63t-59 -139t40 -114t99 -38zM242 1001v15q0 12 8 14q109 39 192 121t111 164q-31 -27 -47 -40t-57 -29t-100 -17q-59 0 -109 50t-52 137q0 87 70 165t162 78q92 1 142 -61t50 -158
t-41 -175q-86 -165 -252 -245q-77 -41 -77 -19z" />
    <glyph glyph-name="zeroinferior" unicode="&#x2080;" horiz-adv-x="632" 
d="M39 -86q0 -98 40 -152t114 -53q99 1 167 101t68 266q0 208 -162 208q-82 0 -142 -76q-84 -108 -85 -294zM268 319q98 1 147 -65q50 -66 50 -180q0 -180 -80 -291t-199 -111q-86 0 -134 64t-48 176q0 41 6 84q20 152 90 238t168 85z" />
    <glyph glyph-name="oneinferior" unicode="&#x2081;" horiz-adv-x="327" 
d="M76 -307h-6q-12 0 -13 14l78 545l-110 -80q-10 -7 -25 12q-4 8 6 15l150 108q8 6 14 2t4 -14l-82 -588q0 -14 -16 -14z" />
    <glyph glyph-name="twoinferior" unicode="&#x2082;" horiz-adv-x="542" 
d="M-39 -307q-10 0 -12 10t6 16l272 228q131 104 131 207q0 53 -36 91t-90 38q-54 -1 -91 -19t-51 -39l-14 -18q-7 -14 -21 -2t-6 22q7 9 19 25t58 42t112 26t110 -48q45 -47 45 -116q0 -119 -143 -236l-232 -190h301q15 0 10 -18t-16 -19h-352z" />
    <glyph glyph-name="threeinferior" unicode="&#x2083;" horiz-adv-x="585" 
d="M352 -144q0 62 -35 95t-98 33h-121q-14 0 -9 18t13 18h121q61 0 109 46t47 102q0 57 -35 86t-90 29q-55 -1 -98 -19t-62 -37l-18 -18q-6 -11 -19 2q-12 12 -2 22q9 11 23 25t66 38t117 24t110 -38q45 -36 45 -96t-32 -111q-32 -50 -85 -71q92 -41 92 -131
q-1 -89 -73 -143t-166 -58q-106 0 -185 86q-6 11 7 24q12 13 18 7t10 -11t7 -8q3 -4 9 -10t12 -10t13 -10q41 -31 113 -31t134 43q62 42 62 104z" />
    <glyph glyph-name="fourinferior" unicode="&#x2084;" horiz-adv-x="624" 
d="M14 -133h310l53 375zM449 -133q14 0 10 -14l-2 -11q-4 -10 -13 -10h-92l-18 -125q-4 -14 -15 -14h-8q-14 0 -10 14l18 125h-354q-8 0 -11 8t3 15l438 456q9 6 17 3t6 -13l-62 -434h93z" />
    <glyph glyph-name="fiveinferior" unicode="&#x2085;" horiz-adv-x="579" 
d="M152 -291q90 1 156 61t65 148q0 129 -168 129h-158q-16 0 -12 14l31 224q4 14 16 14h295q14 0 9 -18t-15 -19h-275l-24 -178h137q201 0 201 -162q0 -106 -74 -175t-184 -75q-104 0 -172 80q-8 11 8 27t20 2q54 -72 144 -72z" />
    <glyph glyph-name="sixinferior" unicode="&#x2086;" horiz-adv-x="581" 
d="M33 -100q-1 -84 39 -138t115 -53q75 -1 135 63t59 139q0 75 -40 114t-99 39q-58 0 -110 -28t-75 -56l-20 -27q-4 -37 -4 -53zM-6 -104q0 152 102 270t254 172q16 6 17 -8v-15q0 -10 -9 -14q-104 -34 -214 -142q-67 -67 -95 -143q97 86 183 86t136 -50t50 -140t-68 -162
t-168 -78q-88 0 -138 62t-50 162z" />
    <glyph glyph-name="seveninferior" unicode="&#x2087;" horiz-adv-x="495" 
d="M29 262q-14 0 -10 18q5 18 16 19h358q20 0 8 -20l-372 -584q-8 -12 -23 -3q-14 9 -6 23l348 547h-319z" />
    <glyph glyph-name="eightinferior" unicode="&#x2088;" horiz-adv-x="604" 
d="M27 -170q0 -121 153 -121q78 0 133 39t56 115q0 107 -152 117q-76 -6 -133 -46t-57 -104zM395 166q0 117 -136 117q-69 0 -121 -40q-52 -39 -52 -97q0 -110 139 -117q76 2 123 42t47 95zM-14 -185q0 69 45 117t119 74q-102 35 -102 118t54 139t148 56q94 1 140 -41
t46 -104t-40 -107q-40 -46 -105 -65q119 -31 119 -131q0 -99 -67 -149t-157 -50t-145 37t-55 106z" />
    <glyph glyph-name="nineinferior" unicode="&#x2089;" horiz-adv-x="581" 
d="M175 -72q61 0 111 28t70 56l21 27q14 106 -22 175t-114 69q-78 1 -134 -53t-66 -131t31 -124t103 -47zM243 319q93 1 143 -77t37 -172q-30 -219 -210 -339q-69 -48 -143 -77q-16 -6 -17 8v14q0 12 8 15q112 40 193 121q82 82 111 163q-31 -27 -47 -40t-58 -29
q-41 -16 -86 -17q-80 -1 -132 59t-40 152q14 92 81 156t160 63z" />
    <glyph glyph-name="Euro" unicode="&#x20ac;" 
d="M991 782h-755q-23 -98 -23 -204h670q14 0 10 -18t-14 -17h-664q4 -229 113 -379t323 -150q117 0 208 41t188 131q9 9 20 -5q12 -13 2 -21q-101 -94 -197 -138t-221 -45q-231 0 -351 160t-124 406h-113q-14 0 -10 12l2 12q2 10 15 11h106q0 102 23 204h-101q-14 0 -10 18
t16 19h103q66 270 237 453q172 182 400 182t383 -170q3 -9 -10 -27q-12 -8 -17 0q-80 84 -161 122t-189 38q-217 0 -381 -171t-225 -427h753q6 0 10 -2t0 -18q-4 -17 -16 -17z" />
    <glyph glyph-name="afii61289" unicode="&#x2113;" horiz-adv-x="876" 
d="M760 1413q-113 0 -212 -167t-210 -505l-62 -196q231 90 397 258q165 168 197 403q14 96 -14 152q-29 55 -96 55zM362 -20q-88 0 -137 43t-58 115q-17 139 38 315l12 32q-90 -31 -139 -41q-12 -2 -12 11l-3 16q-4 12 15 16q80 16 153 43l68 215q117 358 225 534
q109 175 240 175q80 0 121 -69t26 -179q-35 -256 -215 -433t-432 -271l-20 -58q-45 -140 -41 -270q2 -70 43 -112t124 -42t179 29t143 68q14 8 19 -2l6 -9q4 -14 -4 -20q-62 -46 -162 -76q-101 -30 -189 -30z" />
    <glyph glyph-name="uni2117" unicode="&#x2117;" horiz-adv-x="1646" 
d="M903 668q102 0 169 68t67 159q0 174 -178 174h-216l-57 -401h215zM631 340h-13q-12 0 -8 14l103 736q4 14 18 14h234q92 0 150 -49q59 -49 59 -155t-77 -186t-198 -81h-215l-39 -279q-4 -14 -14 -14zM205 625q-1 -256 153 -432t385 -177q289 0 513 236t225 557
q0 254 -155 431t-386 177q-289 0 -512 -234t-223 -558zM168 621q0 223 108 417t288 304q179 112 380 112q242 0 407 -187t165 -454q0 -340 -234 -587t-545 -246q-241 0 -405 188t-164 453z" />
    <glyph glyph-name="trademark" unicode="&#x2122;" horiz-adv-x="1521" 
d="M381 797q-14 0 -10 14l82 586h-193q-10 0 -10 14v8q0 14 14 15h414q10 0 10 -15v-8q0 -14 -14 -14h-189l-82 -586q-4 -14 -14 -14h-8zM1306 1456q12 0 15 -10l63 -633q0 -14 -10 -16l-18 -4q-4 -2 -5 0t-3 8l-54 553l-245 -570q-5 -10 -15 -10t-12 10l-86 570l-211 -553
q-5 -14 -27 -4q-8 4 -6 16l242 633q6 18 15 12t9 -12l89 -576l245 576q2 10 14 10z" />
    <glyph glyph-name="Omega" unicode="&#x2126;" horiz-adv-x="1601" 
d="M145 576q-1 170 57 322q126 333 405 478q148 78 315 78q246 0 410 -179t163 -437q0 -258 -137 -474t-369 -327h340q16 0 11 -18t-15 -19h-438q-14 0 -9 18t13 19q247 76 407 300t160 484t-152 428q-153 168 -388 168q-199 0 -371 -119t-268 -307q-97 -188 -97 -393
q0 -206 104 -358t277 -203q16 0 11 -18t-15 -19h-438q-16 0 -11 19t15 18h342q-150 74 -236 221q-86 148 -86 318z" />
    <glyph glyph-name="estimated" unicode="&#x212e;" horiz-adv-x="1605" 
d="M941 1417q-157 0 -302 -77t-252 -212l-55 -395h1028l53 391q-68 135 -191 214q-124 79 -281 79zM741 16q240 0 455 191q8 8 14 0l9 -12q0 -10 -2 -15q-219 -200 -477 -200t-416 174t-158 442q0 154 57 308q123 332 407 474q148 76 314 76q246 0 409 -178t163 -449
q0 -51 -7 -106v-2l-2 -8q0 -14 -14 -15h-1167l-56 -393q66 -129 192 -208t279 -79z" />
    <glyph glyph-name="onethird" unicode="&#x2153;" horiz-adv-x="1226" 
d="M811 16q68 0 130 43q63 43 63 105t-35 94q-35 33 -99 33h-120q-14 0 -10 18q5 18 14 19h120q61 0 109 45q47 45 47 102t-35 86t-90 29t-98 -18t-62 -37l-18 -19q-6 -10 -18 2t-3 22t23 25q15 14 67 38t116 24t110 -37q45 -38 45 -98t-32 -110t-85 -71q92 -41 92 -131
t-72 -143t-167 -57q-106 0 -185 86q-6 9 8 23q13 13 18 7l10 -12q5 -7 32 -31q26 -24 53 -28q27 -5 41 -7t31 -2zM82 2l-8 6q-10 6 -2 19l966 1405q6 8 17 2q18 -17 10 -25l-965 -1405q-2 -4 -9 -5t-9 3zM305 827q-12 0 -12 15l78 544l-111 -79q-9 -7 -24 12q-4 8 6 14
l149 109q9 6 15 2t4 -14l-82 -588q0 -14 -17 -15h-6z" />
    <glyph glyph-name="twothirds" unicode="&#x2154;" horiz-adv-x="1349" 
d="M174 827q-10 1 -12 11t6 16l272 227q131 104 131 207q0 53 -36 91q-37 38 -91 38t-90 -18q-37 -18 -51 -39l-14 -19q-7 -14 -21 -2q-14 13 -7 23t19 26t59 40q45 26 111 26t111 -47t45 -117q0 -119 -143 -235l-232 -191h301q14 0 10 -18q-5 -18 -16 -19h-352zM936 16
q68 0 130 43t62 105t-34 94q-35 33 -99 33h-121q-14 0 -9 18t14 19h120q61 0 109 45q47 45 47 102t-35 86t-90 29t-98 -18t-62 -37l-18 -19q-6 -9 -18 2q-13 12 -4 22q10 10 24 25q14 14 66 38t118 24q64 0 109 -37q45 -38 45 -98t-32 -110t-85 -71q92 -41 92 -131
q-1 -90 -73 -143t-166 -57q-106 0 -185 86q-6 9 7 23q12 13 18 7t11 -12q5 -7 32 -31q26 -24 53 -28q27 -5 41 -7t31 -2zM209 2l-8 6q-10 6 -2 19l966 1405q6 8 17 2q18 -17 10 -25l-965 -1405q-2 -4 -9 -5t-9 3z" />
    <glyph glyph-name="oneeighth" unicode="&#x215b;" horiz-adv-x="1245" 
d="M74 8q-10 6 -2 19l966 1405q6 8 17 2q18 -17 10 -25l-965 -1405q-2 -4 -9 -5t-9 3zM303 827q-12 0 -12 15l78 544l-111 -79q-8 -6 -25 12q-4 8 7 14l149 109q8 6 14 2t5 -14l-82 -588q0 -14 -17 -15h-6zM680 137q0 -125 159 -125q73 0 128 41t55 117q0 106 -152 117
q-80 -4 -135 -45q-55 -40 -55 -105zM911 594q-67 0 -119 -42t-52 -100q-1 -108 139 -116q77 2 123 42t46 95t-34 88q-35 33 -103 33zM1063 178q0 -100 -67 -149t-157 -49t-145 36t-55 110q0 73 49 122t115 65q-103 35 -103 119t54 139t149 55q94 0 140 -41q47 -41 47 -103
t-40 -108t-106 -65q119 -31 119 -131z" />
    <glyph glyph-name="threeeighths" unicode="&#x215c;" horiz-adv-x="1337" 
d="M561 991q0 61 -35 94t-98 33h-121q-14 0 -9 18t13 19h121q61 0 109 45q47 44 47 102t-35 87t-90 29t-98 -19q-43 -18 -62 -37l-18 -19q-7 -11 -19 2t-2 23q8 10 22 24t67 39q52 23 117 23t110 -37t45 -97t-32 -110t-85 -71q92 -41 92 -131t-73 -144t-167 -57
q-106 0 -184 86q-5 9 7 23q13 14 19 8t9 -12q4 -6 13 -14q9 -9 15 -13q5 -5 13 -11q38 -30 111 -30q74 0 136 43t62 104zM180 27l967 1405q7 9 27 -7q8 -8 0 -16l-965 -1405q-6 -11 -21 -1q-16 11 -8 24zM770 137q0 -121 159 -121q73 0 128 39t55 115q0 106 -151 117
q-79 -4 -135 -45q-56 -40 -56 -105zM1002 590q-68 0 -120 -40t-52 -98q-1 -108 139 -116q76 2 123 42t47 95t-34 86t-103 31zM791 432q0 84 54 139q55 55 149 55t140 -41t46 -103t-40 -108t-106 -65q119 -31 119 -131t-67 -149q-66 -49 -156 -49t-146 36q-55 37 -55 110
t49 122t115 65q-102 35 -102 119z" />
    <glyph glyph-name="fiveeighths" unicode="&#x215d;" horiz-adv-x="1329" 
d="M582 1053q0 129 -168 129h-158q-16 0 -12 14l30 223q4 14 17 15h295q14 0 9 -18t-15 -19h-275l-24 -178h137q201 0 200 -162q0 -106 -74 -175t-184 -75q-104 0 -172 80q-8 9 9 26q16 16 20 2q53 -71 143 -71t156 60t66 149zM174 8q-10 6 -2 19l967 1405q7 10 21 -3
q13 -12 5 -20l-964 -1405q-1 -4 -9 -5t-10 3zM762 137q0 -121 158 -121q72 0 129 39q55 39 55 115q0 106 -152 117q-80 -4 -135 -45q-55 -40 -55 -105zM994 590q-69 0 -121 -40t-52 -98q0 -108 140 -116q77 2 123 42t46 95q0 117 -136 117zM1171 482q1 -62 -39 -108
t-106 -65q119 -31 119 -131t-67 -149t-157 -49t-145 36t-55 110q0 73 49 122t115 65q-103 35 -103 119t54 139t149 55q94 0 140 -41t46 -103z" />
    <glyph glyph-name="seveneighths" unicode="&#x215e;" 
d="M258 1397q-14 0 -9 18t15 19h359q20 0 8 -21l-373 -584q-7 -11 -22 -3q-15 9 -7 24l349 547h-320zM76 8q-10 6 -2 19l966 1405q6 8 17 2q18 -17 10 -25l-965 -1405q-2 -4 -9 -5t-9 3zM818 12q73 0 128 41t55 117q0 106 -151 117q-80 -4 -133 -43t-58 -115q0 -57 43 -87
t116 -30zM891 594q-68 0 -120 -42t-52 -100q0 -108 139 -116q76 2 123 42t47 95t-34 88t-103 33zM680 432q0 84 54 139t148 55t141 -41q46 -41 46 -103t-40 -108t-105 -65q118 -31 118 -131t-66 -149t-157 -49q-90 0 -145 36t-56 109q4 77 52 125q47 47 112 63
q-102 35 -102 119z" />
    <glyph glyph-name="partialdiff" unicode="&#x2202;" horiz-adv-x="1146" 
d="M133 393q0 -161 94 -269t238 -108q195 0 326 160t163 406l4 30q-57 127 -131 193q-106 92 -249 92q-190 -5 -318 -153t-127 -351zM98 412q0 192 138 357t348 165q141 0 235 -77t144 -171q6 141 -31 266t-92 205t-150 165t-209 130q-10 8 -4 16l6 13q6 10 19 6
q108 -46 206 -133q97 -86 154 -166q56 -80 98 -204q78 -232 6 -520t-261 -413q-109 -71 -253 -71t-250 120q-104 120 -104 312z" />
    <glyph glyph-name="Delta" unicode="&#x2206;" horiz-adv-x="1290" 
d="M49 37h1047l-324 1360zM25 0q-16 0 -21 4q-4 4 6 35l758 1429q4 8 10 9h4q4 0 9 -9l346 -1433q10 -35 -27 -35h-1085z" />
    <glyph glyph-name="product" unicode="&#x220f;" horiz-adv-x="1464" 
d="M1325 1434q12 0 12 -15l-198 -1405q0 -14 -17 -14h-6q-16 0 -12 14l194 1383h-905l-194 -1383q0 -14 -17 -14h-6q-16 0 -12 14l198 1405q0 14 17 15h946z" />
    <glyph glyph-name="summation" unicode="&#x2211;" horiz-adv-x="1034" 
d="M45 0q-12 0 -14 15t8 24l745 713l-555 647q-8 10 -2 22t21 13h749q17 0 12 -18t-18 -19h-708l532 -627q22 -22 -6 -49l-723 -684h715q16 0 11 -18t-17 -19h-750z" />
    <glyph glyph-name="minus" unicode="&#x2212;" 
d="M266 696q-14 0 -9 18t15 19h719q14 0 9 -18t-15 -19h-719z" />
    <glyph glyph-name="uni2215" unicode="&#x2215;" horiz-adv-x="286" 
d="M-305 4q-6 -11 -21 -1q-16 11 -8 24l967 1405q7 10 21 -3q13 -12 5 -20z" />
    <glyph glyph-name="uni2219" unicode="&#x2219;" horiz-adv-x="409" 
d="M244 543q0 -23 -16 -39t-34 -17q-20 -1 -31 13t-11 34t16 34q16 15 37 16q39 0 39 -41z" />
    <glyph glyph-name="radical" unicode="&#x221a;" horiz-adv-x="1241" 
d="M1309 1434q16 0 11 -18t-15 -19h-199l-758 -1430q-8 -13 -15 -9q-7 3 -7 9l-203 840q-2 12 6 14l12 4q10 4 13 -10l188 -782l737 1384q6 16 23 17h207z" />
    <glyph glyph-name="infinity" unicode="&#x221e;" horiz-adv-x="1343" 
d="M405 358q94 0 173 85q78 85 78 189t-53 168q-52 64 -146 64t-173 -85t-79 -189t53 -168t147 -64zM1141 632q0 104 -52 168t-151 64q-100 0 -174 -90t-74 -189t53 -163t147 -64t173 85q78 85 78 189zM384 322q-89 0 -153 72q-63 72 -63 194t91 218t214 95q76 0 134 -51
t79 -131q39 84 113 133q73 49 163 49t154 -74q64 -75 64 -195t-92 -215t-211 -95q-80 0 -139 50q-58 50 -76 130q-41 -82 -115 -131t-163 -49z" />
    <glyph glyph-name="integral" unicode="&#x222b;" horiz-adv-x="1024" 
d="M890 1454q126 0 200 -88q8 -12 -6 -24t-23 -3q-63 78 -175 78t-188 -81t-100 -242l-172 -1241q-25 -177 -111 -269t-215 -92t-196 88q-8 11 5 24t23 3q59 -78 173 -78t188 81q73 81 98 243l172 1241q25 178 113 269t214 91z" />
    <glyph glyph-name="approxequal" unicode="&#x2248;" 
d="M723 324q-82 0 -136 96q-55 96 -111 96t-104 -36t-73 -70l-23 -37q-6 -14 -14 -6l-10 6q-10 4 -4 12t20 34t52 62q75 70 152 70t134 -97q58 -98 114 -98t103 37t70 74l22 35q4 10 13 6q20 -16 15 -24q-5 -7 -11 -18q-44 -80 -133 -125q-37 -17 -76 -17zM766 696
q56 0 104 37q47 37 70 74l23 35q4 10 12 6q20 -16 15 -24t-11 -18q-44 -80 -133 -125q-37 -17 -76 -17q-82 0 -136 96t-110 96t-105 -36q-48 -36 -71 -70l-24 -37q-7 -14 -15 -6l-10 6q-10 4 -4 12t20 34t52 62q72 68 151 69q78 2 135 -96t113 -98z" />
    <glyph glyph-name="notequal" unicode="&#x2260;" 
d="M274 360q-16 0 -11 18t16 19h202l254 385h-401q-16 0 -11 18t15 19h420l88 135q5 12 24 2q20 -10 11 -22l-78 -115h143q20 0 14 -18t-18 -19h-164l-254 -385h363q18 0 13 -18t-17 -19h-383l-125 -190q-8 -11 -24 -2q-17 10 -7 20l113 172h-183z" />
    <glyph glyph-name="lessequal" unicode="&#x2264;" 
d="M193 174q-14 0 -10 18q5 18 16 19h716q16 -1 12 -19q-5 -18 -18 -18h-716zM272 805q-18 12 2 24l768 420q12 6 19 -11t-4 -24l-738 -399l625 -383q9 -5 0 -22q-8 -17 -20 -11z" />
    <glyph glyph-name="greaterequal" unicode="&#x2265;" 
d="M213 174q-16 0 -11 18t17 19h717q14 0 9 -18t-15 -19h-717zM264 399q-11 -6 -17 11q-7 18 3 24l735 385l-623 400q-11 7 3 24q6 14 18 6l649 -420q8 -4 7 -12t-9 -12z" />
    <glyph glyph-name="lozenge" unicode="&#x25ca;" horiz-adv-x="1095" 
d="M475 53l479 668l-284 670l-488 -676zM674 1458h4q6 0 8 -8l295 -684q16 -35 15 -47t-29 -47l-488 -684q-4 -8 -10 -8h-4q-4 0 -8 8l-301 686q-14 35 -13 45q2 10 25 43l496 688q4 8 10 8z" />
    <glyph glyph-name="commaaccent" unicode="&#xf6c3;" horiz-adv-x="538" 
d="M303 -224q-1 20 17 37t42 17q70 0 70 -98q0 -137 -98 -211q-12 -10 -19 0l-8 12q-8 12 8 23q74 55 74 159q0 14 -4 29q-13 -12 -35 -12q-48 0 -47 44z" />
    <glyph glyph-name="uniF8FF" unicode="&#xf8ff;" horiz-adv-x="1226" 
d="M502 319q0 -41 30 -69t69 -29q40 0 70 29q29 30 29 70t-29 69q-30 29 -70 29q-39 0 -69 -29t-30 -70zM537 643q0 -25 28 -25h74q31 0 31 27v53q0 57 107 124q40 26 74 75t34 109q0 98 -73 162t-193 65q-120 0 -213 -80q-22 -18 -41 -44t-3 -38l46 -45q24 -18 70 33
q45 51 120 51q74 0 108 -31t34 -75t-32 -80q-32 -37 -70 -62q-38 -24 -70 -66t-31 -94v-59zM102 61v1311q0 61 62 62h899q61 0 61 -62v-1311q0 -61 -61 -61h-899q-62 0 -62 61z" />
    <glyph glyph-name="grave.cap" horiz-adv-x="557" 
d="M520 1595l-309 185q-10 6 -1 20t21 10l308 -186q8 -5 0 -22q-9 -13 -19 -7z" />
    <glyph glyph-name="acute.cap" horiz-adv-x="557" 
d="M195 1591q-10 -4 -17 6l-6 13q-4 8 8 14l361 186q10 4 19 -12t-5 -22z" />
    <glyph glyph-name="circumflex.cap" horiz-adv-x="688" 
d="M170 1563q-8 -4 -14 2q-12 20 -4 26t10 8l260 209q10 6 16 0l207 -217q10 -10 -2 -21t-18 -5l-197 207z" />
    <glyph glyph-name="caron.cap" horiz-adv-x="688" 
d="M391 1579l-207 217q-8 10 3 22t18 5l196 -207l258 209q8 4 15 -2q12 -21 4 -27t-10 -8l-260 -209q-11 -6 -17 0z" />
    <glyph glyph-name="caron.alt" horiz-adv-x="688" 
d="M350 1404q0 20 18 37t42 17q70 0 69 -98q0 -137 -98 -211q-12 -10 -19 0l-8 12q-8 12 8 23q74 55 74 159q0 14 -4 29q-12 -12 -34 -12q-48 0 -48 44z" />
    <glyph glyph-name="tilde.cap" horiz-adv-x="700" 
d="M330 1837q49 0 76 -35q26 -35 32 -76q15 -110 84 -110q84 0 144 147q6 14 14 13l14 -4q14 -4 6 -19q-76 -172 -182 -172q-47 0 -74 35t-34 76q-21 110 -84 110q-37 0 -77 -40t-69 -109q-6 -15 -14 -11l-14 5q-12 4 -7 18q72 172 185 172z" />
    <glyph glyph-name="dieresis.cap" horiz-adv-x="874" 
d="M315 1655q-39 0 -39 39q0 23 16 38t36 15q39 0 39 -41q0 -23 -16 -37t-36 -14zM698 1655q-39 0 -39 39q-1 25 15 39t37 14q37 0 37 -41q0 -23 -16 -37t-34 -14z" />
    <glyph glyph-name="macron.cap" horiz-adv-x="763" 
d="M195 1724q-17 0 -12 18t18 19h528q16 0 11 -18t-15 -19h-530z" />
    <glyph glyph-name="breve.cap" horiz-adv-x="636" 
d="M379 1597q-91 1 -147 63t-56 157q0 16 10 16h13q10 0 10 -12q-2 -82 47 -134q49 -53 126 -53t139 52t87 135q2 12 13 12h16q12 0 8 -16q-29 -94 -103 -157t-163 -63z" />
    <glyph glyph-name="ring.cap" horiz-adv-x="534" 
d="M193 1732q0 -162 136 -161q69 0 125 59q56 60 56 134t-36 118t-104 45q-68 0 -122 -60q-55 -61 -55 -135zM545 1767q1 -89 -67 -160t-149 -71t-127 52t-46 141t67 161q68 72 149 72t127 -53t46 -142z" />
    <glyph glyph-name="hungarumlaut.cap" horiz-adv-x="722" 
d="M158 1550l-11 6q-10 6 -2 19l246 354q8 10 24 1q15 -9 7 -21l-248 -355q-8 -10 -16 -4zM463 1550l-10 6q-8 8 0 19l245 354q8 10 27 -2q10 -8 2 -18l-246 -355q-10 -10 -18 -4z" />
    <glyph glyph-name="dotaccent.cap" horiz-adv-x="403" 
d="M272 1677q-41 0 -41 43q-1 20 17 38t39 18q39 0 39 -43q0 -23 -16 -39t-38 -17z" />
    <glyph glyph-name="cedilla.cap" horiz-adv-x="505" 
d="M428 -294q0 -77 -58 -132t-154 -55t-148 69q-10 10 5 24q15 15 23 3q45 -59 119 -59t124 43t50 112q0 106 -121 107q-55 0 -100 -19q-8 -4 -13 6t-1 17l137 184h45l-125 -162q99 31 171 -25q46 -36 46 -113z" />
    <glyph glyph-name="ogonek.cap" horiz-adv-x="565" 
d="M92 -322q0 -58 33 -93q33 -36 105 -36t130 48q12 8 19 -3l8 -12q4 -10 -12 -20q-82 -49 -160 -49t-119 45t-41 116q0 117 88 201t238 160l16 -33q-223 -113 -277 -214q-28 -52 -28 -110z" />
    <glyph glyph-name="commaaccent.alt" horiz-adv-x="538" 
d="M360 1234q0 -20 -17 -37t-42 -17q-70 0 -70 98q0 137 99 211q12 10 18 0l8 -12q8 -12 -8 -23q-74 -55 -74 -160q0 -14 5 -28q12 12 34 12q47 0 47 -44z" />
    <glyph glyph-name="commaaccent.cap" horiz-adv-x="538" 
d="M303 -224q-1 20 17 37t42 17q70 0 70 -98q0 -137 -98 -211q-12 -10 -19 0l-8 12q-8 12 8 23q74 55 74 159q0 14 -4 29q-13 -12 -35 -12q-48 0 -47 44z" />
    <glyph glyph-name="brokenbar.case" horiz-adv-x="417" 
d="M182 426h8q12 0 13 -12l-105 -740q0 -14 -14 -14h-8q-12 0 -13 14l105 740q0 12 14 12zM252 932q-14 0 -10 14l102 740q4 14 16 14h9q14 0 10 -14l-105 -740q0 -14 -14 -14h-8z" />
    <glyph glyph-name="zero.tf" 
d="M535 14q249 0 413 255t164 661q0 236 -95 362t-284 125q-125 0 -227 -60q-102 -59 -166 -155t-108 -219q-78 -217 -78 -467q0 -502 381 -502zM530 -23q-207 1 -310 137t-103 398t83 489q46 129 113 228q67 97 177 161t247 64q205 0 309 -135t103 -387q-1 -422 -173 -688
t-446 -267z" />
    <glyph glyph-name="one.tf" 
d="M1038 39q14 0 12 -19t-16 -20h-917q-15 0 -9 20q5 20 13 19h465l190 1339l-459 -319q-10 -8 -16 2l-8 16q-4 8 6 17l500 346q8 6 16 2t6 -15l-196 -1388h413z" />
    <glyph glyph-name="two.tf" 
d="M942 39q14 0 10 -19t-18 -20h-858q-10 0 -14 9q-3 9 6 16l682 561q154 126 238 242t83 258q0 142 -97 237q-97 94 -263 94t-260 -76q-93 -76 -119 -122q-6 -12 -17 -7l-14 11q-12 8 -2 20q158 211 401 211q195 0 301 -104t107 -258q0 -111 -52 -214t-114 -168t-170 -153
l-627 -518h797z" />
    <glyph glyph-name="three.tf" 
d="M664 723h-281q-16 -1 -11 19t17 20h281q156 0 270 110t115 252q0 140 -87 216t-237 77q-248 0 -403 -176q-9 -14 -25 -1t-10 24q182 190 438 190q164 0 263 -87q100 -87 100 -226t-87 -248t-225 -150q113 -31 182 -115t68 -192q0 -211 -156 -334t-374 -122
q-264 0 -406 186q-10 12 0 20l10 9q10 8 21 -7q129 -172 375 -172q197 0 345 113t148 305q1 119 -89 204t-242 85z" />
    <glyph glyph-name="four.tf" 
d="M109 371h757l144 1013zM53 336q-10 0 -12 7t6 15l985 1102q6 8 16 5t7 -13l-154 -1081h170q18 1 13 -17t-17 -18h-170l-45 -322q-4 -14 -16 -14h-7q-16 0 -12 14l45 322h-809z" />
    <glyph glyph-name="five.tf" 
d="M639 901q217 0 330 -91t112 -263q-1 -238 -159 -403t-398 -164q-272 0 -395 180q-6 14 2 20l12 8q10 8 19 -4q113 -168 347 -168t384 155t149 376q0 317 -409 317h-373q-12 0 -12 17l76 538q4 14 16 15h688q16 0 12 -18t-16 -17h-664l-69 -498h348z" />
    <glyph glyph-name="six.tf" 
d="M572 16q192 0 342 156t149 367q1 162 -103 260t-260 98q-84 0 -164 -28q-80 -29 -130 -57t-104 -81t-65 -66l-40 -53q-14 -80 -15 -153q0 -199 98 -321q100 -122 292 -122zM147 457q-1 341 233 619t583 401q10 4 14 -7l4 -14q4 -12 -10 -16q-138 -44 -267 -129
q-128 -85 -215 -165q-87 -81 -163 -202t-113 -258q219 248 487 248q172 0 286 -110t114 -285q0 -221 -158 -391t-370 -168q-212 0 -318 131t-107 346z" />
    <glyph glyph-name="seven.tf" 
d="M274 1399q-14 0 -10 14l2 10q2 10 17 11h897q20 0 12 -19l-821 -1413q-8 -14 -19 -8l-12 6q-12 6 -4 18l803 1381h-865z" />
    <glyph glyph-name="eight.tf" 
d="M145 294q0 -132 108 -207t292 -75t329 102t146 294q0 125 -104 207t-285 94q-263 -23 -407 -191q-78 -92 -79 -224zM1081 1126q0 125 -88 209q-87 84 -281 84q-194 1 -312 -117t-117 -268q0 -120 98 -194t256 -82q190 10 317 108t127 260zM246 1036q0 162 126 290
t338 128t310 -94t98 -241t-106 -250t-287 -138q154 -29 244 -111t90 -212q0 -203 -155 -316q-155 -112 -360 -112q-206 0 -322 80t-116 248q0 167 123 276q124 108 314 147q-137 29 -217 109t-80 196z" />
    <glyph glyph-name="nine.tf" 
d="M1083 975q0 199 -98 321t-291 121q-192 1 -342 -155t-149 -367q0 -162 103 -260t259 -98q84 -1 165 27t130 57t104 81q54 52 65 66l40 53q14 80 14 154zM1118 977q0 -340 -233 -618t-582 -400q-10 -4 -14 6l-4 15q-4 12 10 16q144 45 269 129q126 84 212 164
q86 81 163 201t114 258q-219 -248 -488 -248q-171 0 -285 110t-114 285q0 221 158 390t370 169t318 -131t106 -346z" />
    <glyph glyph-name="zero.denom" horiz-adv-x="708" 
d="M274 16q100 0 168 100t68 267q0 101 -40 155t-116 54q-100 0 -167 -102t-66 -269q-1 -97 39 -151t114 -54zM268 -20q-86 0 -134 63t-48 176q0 184 77 296t197 112q86 0 136 -66t51 -180q0 -181 -80 -291t-199 -110z" />
    <glyph glyph-name="one.denom" horiz-adv-x="419" 
d="M162 0h-6q-13 0 -13 14l78 545l-110 -80q-8 -6 -17 2l-8 11q-4 8 6 14l150 108q8 6 14 2t4 -14l-82 -588q0 -14 -16 -14z" />
    <glyph glyph-name="two.denom" horiz-adv-x="632" 
d="M53 0q-10 0 -12 10t6 17l272 227q131 104 132 207q0 53 -37 91q-36 38 -90 38t-91 -18t-51 -40l-14 -18q-6 -12 -16 -6l-11 8q-8 8 -1 18q8 10 20 26q12 15 58 41t112 26t110 -47q45 -47 45 -117q0 -119 -143 -236l-231 -190h301q14 0 9 -18t-15 -19h-353z" />
    <glyph glyph-name="three.denom" horiz-adv-x="677" 
d="M256 16q68 0 130 43t62 105t-34 94q-35 33 -99 33h-120q-14 0 -10 18q5 18 14 19h120q61 0 109 45q47 45 47 102t-35 86t-90 29t-98 -18t-62 -37l-18 -19q-6 -10 -18 2t-3 22t23 25q14 14 66 38t118 24q64 0 109 -37q45 -38 45 -98t-32 -110t-85 -71q92 -41 92 -131
q-1 -90 -73 -143t-166 -57q-106 0 -185 86q-6 9 7 23q12 13 18 7t11 -12q5 -7 32 -31q26 -24 53 -28q27 -5 41 -7t31 -2z" />
    <glyph glyph-name="four.denom" horiz-adv-x="688" 
d="M82 174h309l53 375zM33 139q-8 0 -11 7t3 16l438 456q10 6 17 4t5 -14l-61 -434h92q14 0 10 -17t-14 -18h-92l-19 -125q-4 -14 -14 -14h-8q-14 0 -10 14l18 125h-354z" />
    <glyph glyph-name="five.denom" horiz-adv-x="684" 
d="M250 16q90 0 156 60t65 149q0 129 -168 129h-158q-16 0 -12 15l31 223q4 14 16 14h295q14 0 9 -18t-15 -19h-274l-25 -178h137q201 0 201 -162q0 -107 -74 -175t-184 -74q-104 0 -172 79q-8 11 8 27t20 2q54 -72 144 -72z" />
    <glyph glyph-name="six.denom" horiz-adv-x="692" 
d="M127 207q0 -83 40 -137t115 -54t134 64t59 138q0 75 -40 114t-99 39q-58 0 -110 -28t-74 -56l-21 -27q-4 -37 -4 -53zM88 203q0 151 102 269t254 173q16 6 17 -8v-14q0 -10 -8 -15q-107 -35 -214 -142q-67 -67 -96 -142q97 86 183 86t136 -50t50 -141q0 -89 -68 -161
t-168 -78q-88 0 -138 62t-50 161z" />
    <glyph glyph-name="seven.denom" horiz-adv-x="614" 
d="M137 569q-14 1 -9 19t15 18h359q20 0 8 -20l-373 -584q-8 -12 -22 -2t-6 23l348 546h-320z" />
    <glyph glyph-name="eight.denom" horiz-adv-x="686" 
d="M113 138q0 -122 153 -122q78 0 133 39t56 115q0 107 -152 117q-76 -6 -133 -45q-57 -38 -57 -104zM481 473q1 117 -143 117q-76 0 -121 -44t-45 -98q0 -104 139 -112q76 2 123 42t47 95zM272 -20q-90 0 -145 36t-55 106q0 69 45 118t119 73q-102 35 -102 119t53 139
q55 55 149 55t140 -41t46 -103t-40 -108t-105 -65q119 -31 119 -131t-67 -149t-157 -49z" />
    <glyph glyph-name="nine.denom" horiz-adv-x="659" 
d="M327 590q-77 0 -133 -53t-66 -130t30 -124t102 -47t112 28t70 55l21 27q14 106 -22 175t-114 69zM139 -16q0 12 8 14q112 40 193 121q82 82 111 164q-31 -27 -47 -40t-58 -29q-41 -16 -86 -17q-80 0 -132 59q-52 60 -39 152t80 155t160 63t143 -77t37 -171
q-30 -214 -210 -340q-69 -48 -143 -77q-16 -6 -17 8v15z" />
    <glyph glyph-name="zero.num" horiz-adv-x="632" 
d="M352 844q100 0 168 100t68 266q0 100 -40 154t-116 55q-100 0 -167 -101t-66 -269q-1 -97 39 -151t114 -54zM346 807q-86 0 -134 63t-48 177q0 183 77 295t197 112q86 0 136 -66t51 -180q0 -180 -80 -290t-199 -111z" />
    <glyph glyph-name="one.num" horiz-adv-x="329" 
d="M229 827q-12 0 -12 15l78 544l-111 -79q-9 -7 -24 12q-4 8 6 14l149 109q9 6 15 2t4 -14l-82 -588q0 -14 -16 -15h-7z" />
    <glyph glyph-name="two.num" horiz-adv-x="546" 
d="M123 827q-10 1 -12 11t6 16l272 227q131 104 131 207q0 53 -37 91t-90 38t-90 -18t-51 -39l-14 -19q-7 -14 -21 -2q-14 13 -7 23t19 26q13 16 59 40q46 26 112 26t110 -47q45 -47 45 -117q0 -119 -143 -235l-232 -191h301q16 0 10 -18t-16 -19h-352z" />
    <glyph glyph-name="three.num" horiz-adv-x="585" 
d="M322 844q68 0 130 43t62 104t-35 94t-98 33h-121q-14 0 -9 18t13 19h121q61 0 109 45q47 44 47 102t-35 87t-90 29q-54 0 -98 -19q-44 -18 -62 -37l-18 -19q-7 -11 -19 2t-2 23q9 10 23 24t66 39q52 23 117 23t109 -37t46 -97q0 -60 -32 -110t-85 -71q92 -41 92 -131
t-73 -144t-167 -57q-106 0 -184 86q-5 9 6 23q13 14 19 8t10 -12t7 -8q46 -46 88 -53q41 -7 63 -7z" />
    <glyph glyph-name="four.num" horiz-adv-x="624" 
d="M172 1001h309l54 375zM123 967q-8 0 -11 7t3 15l438 457q10 6 17 3t5 -13l-61 -435h92q14 0 10 -17t-14 -17h-92l-18 -125q-4 -14 -15 -15h-8q-14 0 -10 15l18 125h-354z" />
    <glyph glyph-name="five.num" horiz-adv-x="579" 
d="M365 1182h-158q-16 0 -12 14l30 223q4 14 17 15h295q14 0 9 -18t-16 -19h-274l-25 -178h138q201 0 200 -162q1 -106 -73 -175t-185 -75q-104 0 -172 80q-9 11 8 27q17 15 21 1q53 -71 143 -71t156 60t65 149q0 129 -167 129z" />
    <glyph glyph-name="six.num" horiz-adv-x="581" 
d="M345 844q75 0 134 63t59 139t-39 114t-99 38t-111 -28t-72 -56l-22 -27q-4 -37 -5 -53q0 -84 40 -137t115 -53zM152 1030q0 152 102 270t254 173q16 6 16 -9v-14q0 -10 -8 -14q-105 -34 -214 -143q-67 -67 -95 -142q96 86 182 86t136 -50t50 -140q1 -90 -67 -162
t-168 -78q-88 0 -138 62t-50 161z" />
    <glyph glyph-name="seven.num" horiz-adv-x="499" 
d="M190 1397q-14 0 -9 18t16 19h358q20 0 8 -21l-373 -584q-8 -12 -22 -3t-6 24l348 547h-320z" />
    <glyph glyph-name="eight.num" horiz-adv-x="604" 
d="M345 844q73 0 128 39t55 114q0 106 -151 117q-88 -4 -139 -47t-52 -111q0 -112 159 -112zM555 1300q0 116 -137 117q-82 0 -127 -43t-45 -97q0 -106 139 -114q76 2 123 42q47 39 47 95zM346 807q-90 0 -145 37q-55 36 -55 106t44 121q45 51 119 70q-102 35 -102 119
t54 139q55 55 149 55t140 -42t46 -103t-40 -107t-105 -65q119 -31 119 -131t-68 -150q-66 -49 -156 -49z" />
    <glyph glyph-name="nine.num" horiz-adv-x="581" 
d="M334 1063q62 0 112 28q49 28 70 56l21 27q14 106 -22 175t-114 69t-134 -54q-56 -53 -66 -130q-9 -77 31 -124t102 -47zM213 797v14q0 12 8 14q110 39 193 122q82 82 110 163q-31 -27 -47 -40q-16 -14 -57 -30t-86 -16q-80 0 -132 59t-39 151t80 156t159 64t144 -78
q50 -78 37 -171q-22 -161 -123 -266q-101 -106 -231 -151q-16 -6 -16 9z" />
    <glyph glyph-name="parenleft.case" horiz-adv-x="653" 
d="M131 489q0 225 39 422q72 361 238 565q166 203 340 203q18 0 13 -18t-18 -19q-94 0 -194 -80q-101 -80 -187 -220q-86 -142 -140 -366t-54 -500t93 -472t218 -211q17 0 12 -17q-6 -17 -16 -18q-137 6 -241 214q-103 208 -103 517z" />
    <glyph glyph-name="parenright.case" horiz-adv-x="653" 
d="M561 948q0 -225 -39 -422q-72 -361 -238 -565q-166 -203 -339 -203q-19 0 -14 18t18 19q94 0 194 80q230 184 327 587q54 224 54 500t-93 472q-93 197 -218 211q-16 0 -12 17t16 17q137 -6 241 -214t103 -517z" />
    <glyph glyph-name="hyphen.case" horiz-adv-x="727" 
d="M152 682q-14 0 -10 18q5 18 16 19h446q11 -1 7 -19q-5 -18 -13 -18h-446z" />
    <glyph glyph-name="bracketleft.case" horiz-adv-x="641" 
d="M463 -205q16 0 11 -18t-15 -19h-375q-14 0 -10 15l264 1892q4 14 16 14h373q16 0 11 -18t-15 -19h-352l-258 -1847h350z" />
    <glyph glyph-name="bracketright.case" horiz-adv-x="638" 
d="M-43 -205h350l258 1847h-350q-14 0 -9 18t15 19h373q12 0 12 -14l-266 -1892q-4 -14 -16 -15h-373q-16 0 -11 18t17 19z" />
    <glyph glyph-name="braceleft.case" horiz-adv-x="671" 
d="M113 741q45 1 104 51t72 136l41 297q37 268 143 371t293 104q16 0 11 -18t-17 -19q-162 0 -260 -96t-133 -342l-41 -297q-10 -74 -54 -126t-98 -79q113 -66 94 -205l-43 -303q-35 -248 37 -345t234 -97q16 -1 11 -19t-18 -18q-369 0 -301 479l43 303q12 84 -30 135
q-43 51 -92 52q-16 0 -12 18q5 18 16 18z" />
    <glyph glyph-name="bar.case" horiz-adv-x="403" 
d="M356 1700h9q14 0 10 -14l-283 -2014q-4 -14 -14 -14h-8q-17 0 -13 14l283 2014q4 14 16 14z" />
    <glyph glyph-name="braceright.case" horiz-adv-x="671" 
d="M213 1663q-16 1 -11 19t17 18q176 0 257 -108t44 -367l-41 -297q-12 -86 33 -136t90 -51q16 0 12 -18t-16 -18q-50 1 -108 -51t-68 -136l-43 -303q-39 -271 -145 -375t-289 -104q-16 0 -12 18q5 18 18 19q160 0 258 97t133 345l43 303q10 74 53 126t99 79
q-113 66 -95 205l41 297q35 246 -37 342t-233 96z" />
    <glyph glyph-name="guilsinglleft.case" horiz-adv-x="499" 
d="M303 311l-174 353q-4 6 2 16l272 348q6 10 19 4q18 -14 10 -22l-264 -340l166 -342q4 -12 -12 -19q-15 -7 -19 2z" />
    <glyph glyph-name="guilsinglright.case" horiz-adv-x="491" 
d="M88 330l262 344l-166 338q-6 11 9 18q16 8 22 -2l174 -348q2 -8 -2 -16l-272 -353q-13 -12 -23 -1t-4 20z" />
    <glyph glyph-name="guillemotleft.case" horiz-adv-x="792" 
d="M301 311l-174 353q-2 8 2 16l272 348q10 10 23 -2q12 -12 4 -20l-260 -338l166 -340q4 -12 -6 -17q-21 -8 -27 0zM596 311l-174 353q-2 8 2 16l272 348q10 10 23 -2q12 -12 4 -20l-260 -338l166 -340q4 -12 -6 -17q-21 -8 -27 0z" />
    <glyph glyph-name="guillemotright.case" horiz-adv-x="788" 
d="M88 334l262 342l-166 336q-7 11 10 18q17 6 23 -2l174 -348q2 -8 -2 -16l-272 -353q-11 -10 -23 2t-6 21zM412 311q-10 -12 -22 0t-7 21l262 344l-166 336q-7 11 10 18q17 6 23 -2l174 -348q2 -8 -2 -16z" />
    <glyph glyph-name="endash.case" horiz-adv-x="1017" 
d="M154 682q-16 0 -12 18q5 18 16 19h733q16 -1 11 -19t-15 -18h-733z" />
    <glyph glyph-name="emdash.case" horiz-adv-x="1417" 
d="M152 682q-14 0 -10 18q5 18 16 19h1132q18 -1 12 -19t-18 -18h-1132z" />
    <glyph glyph-name="bullet.case" horiz-adv-x="544" 
d="M354 654q0 -32 -26 -58t-58 -25q-31 -1 -48 19t-17 52q1 32 25 58t56 27q32 0 50 -20q18 -21 18 -53z" />
    <glyph glyph-name="periodcentered.case" horiz-adv-x="405" 
d="M214 672q-20 0 -31 13t-11 33t16 35t37 15q39 0 39 -41q0 -23 -15 -39t-35 -16z" />
    </font>
</defs>
</svg>
